<?xml version="1.0" encoding="UTF-8"?>
<svg width="272px" height="271px" viewBox="0 0 272 271" version="1.1" xmlns="http://www.w3.org/2000/svg" xmlns:xlink="http://www.w3.org/1999/xlink">
    <!-- Generator: Sketch 49.3 (51167) - http://www.bohemiancoding.com/sketch -->
    <title>Icon/Industry/Academia</title>
    <desc>Created with Sketch.</desc>
    <defs>
        <circle id="path-1" cx="102.5" cy="102.5" r="102.5"></circle>
        <filter x="-25.4%" y="-24.4%" width="150.7%" height="150.7%" filterUnits="objectBoundingBox" id="filter-2">
            <feOffset dx="0" dy="2" in="SourceAlpha" result="shadowOffsetOuter1"></feOffset>
            <feGaussianBlur stdDeviation="17" in="shadowOffsetOuter1" result="shadowBlurOuter1"></feGaussianBlur>
            <feColorMatrix values="0 0 0 0 0.11   0 0 0 0 0.392   0 0 0 0 0.549  0 0 0 0.0535552536 0" type="matrix" in="shadowBlurOuter1"></feColorMatrix>
        </filter>
        <polygon id="path-3" points="0 0.737098793 156.775464 0.737098793 156.775464 91.8823502 0 91.8823502"></polygon>
    </defs>
    <g id="Desktop-UI" stroke="none" stroke-width="1" fill="none" fill-rule="evenodd">
        <g id="Icon/Industry/Academia" transform="translate(33.746145, 30.752557)">
            <g id="Group-8-Copy">
                <g id="Oval">
                    <use fill="black" fill-opacity="1" filter="url(#filter-2)" xlink:href="#path-1"></use>
                    <use fill="#FFFFFF" fill-rule="evenodd" xlink:href="#path-1"></use>
                </g>
            </g>
            <g id="Icon/Free/Academia" transform="translate(24.000000, 38.000000)">
                <g id="Page-1" transform="translate(0.000000, 0.000000)">
                    <path d="M67.1760358,104.050514 L32.3089485,82.702913 C31.8836892,82.442742 31.625608,81.9798676 31.625608,81.4814678 L31.625608,35.1647688 C31.625608,34.3738073 32.2661091,33.7333061 33.0560258,33.7333061 L123.719856,33.7333061 C124.510818,33.7333061 125.151319,34.3738073 125.151319,35.1647688 L125.151319,81.4814678 C125.151319,81.9798676 124.892193,82.442742 124.467979,82.702913 L89.6008913,104.050514 C82.7194218,108.263403 74.0575053,108.263403 67.1760358,104.050514" id="Fill-1" fill="#00587E"></path>
                    <path d="M154.387429,47.8034349 L79.0569671,90.3199662 C78.6421563,90.5540156 78.1343528,90.5540156 77.7195421,90.3199662 L2.38907986,47.8034349 C1.46751046,47.2820481 1.46751046,45.9529821 2.38907986,45.4326402 L77.7195421,2.9161089 C78.1343528,2.68101466 78.6421563,2.68101466 79.0569671,2.9161089 L154.387429,45.4326402 C155.310044,45.9529821 155.310044,47.2820481 154.387429,47.8034349" id="Fill-3" fill="#96D1F2"></path>
                    <g id="Group-7" transform="translate(0.000000, 0.308235)">
                        <mask id="mask-4" fill="white">
                            <use xlink:href="#path-3"></use>
                        </mask>
                        <g id="Clip-6"></g>
                        <path d="M3.74238677,46.3095939 L78.3884635,88.4405706 L153.033495,46.3095939 L78.3884635,4.17966205 L3.74238677,46.3095939 Z M78.3884635,91.8823502 C77.8681216,91.8823502 77.3477797,91.7517423 76.8849053,91.4894816 L1.55444308,48.9729504 C0.596303467,48.4317112 0.000731404288,47.4119247 -0.000313458981,46.3106388 C-0.000313458981,45.2093529 0.595258604,44.1885215 1.55444308,43.6462374 L76.8849053,1.12970617 C77.8127439,0.606229668 78.9641832,0.606229668 79.8909769,1.12970617 L155.221439,43.6462374 C156.180624,44.1885215 156.776196,45.2093529 156.776196,46.3106388 C156.776196,47.4119247 156.179579,48.4317112 155.220394,48.9739952 L79.8909769,91.4894816 C79.4281025,91.7517423 78.9077606,91.8823502 78.3884635,91.8823502 Z" id="Fill-5" fill="#00587E" mask="url(#mask-4)"></path>
                    </g>
                    <path d="M116.406023,126.940647 C115.156366,126.940647 114.142849,125.926085 114.142849,124.677474 L114.142849,70.4626532 L75.7294955,45.2835382 C74.6846322,44.597063 74.3931154,43.1948565 75.0775008,42.1499932 C75.763976,41.10513 77.1651376,40.8125682 78.2110458,41.4979986 L118.668152,68.0176732 L118.668152,124.677474 C118.668152,125.926085 117.654634,126.940647 116.406023,126.940647" id="Fill-8" fill="#ED145B"></path>
                    <path d="M76.9725693,42.2598084 C76.6037326,42.2598084 76.241165,42.4395248 76.0238335,42.7697016 C75.6821632,43.2910884 75.8284441,43.9942814 76.3508757,44.3369965 L115.274122,69.8515127 L115.274122,124.677578 C115.274122,125.301361 115.781926,125.809165 116.405709,125.809165 C117.029492,125.809165 117.536251,125.301361 117.536251,124.677578 L117.536251,68.6290227 L77.5911284,42.4437043 C77.3999184,42.3193656 77.1857214,42.2598084 76.9725693,42.2598084 M116.405709,128.071294 C114.533314,128.071294 113.010948,126.548928 113.010948,124.677578 L113.010948,71.0740027 L75.1095781,46.2292439 C73.5443729,45.2021433 73.1055304,43.0946541 74.1305412,41.5294489 C75.1586867,39.9663335 77.265131,39.5274909 78.8303362,40.5504121 L119.799425,67.4065326 L119.799425,124.677578 C119.799425,126.548928 118.277059,128.071294 116.405709,128.071294" id="Fill-10" fill="#00587E"></path>
                    <path d="M118.13245,34.6946848 C117.898401,34.6946848 117.661217,34.6361725 117.44284,34.5139235 L111.17993,31.0125867 C110.497634,30.6301667 110.254181,29.7691994 110.635556,29.0879485 C111.015886,28.404608 111.878943,28.16011 112.560194,28.5425299 L118.823105,32.0459564 C119.504356,32.4262867 119.748854,33.287254 119.367479,33.9705946 C119.108352,34.433469 118.627715,34.6946848 118.13245,34.6946848" id="Fill-12" fill="#FFFFFF"></path>
                    <path d="M107.459381,28.7254855 C107.225331,28.7254855 106.989192,28.668018 106.770816,28.545769 L78.4027782,12.6836997 L61.6713827,22.4594404 C60.996401,22.8554436 60.1302093,22.6266186 59.7362959,21.9516369 C59.3413376,21.2777001 59.5691178,20.4115084 60.2440994,20.017595 L78.3724771,9.42477117 L108.150035,26.0778019 C108.831286,26.4581322 109.075784,27.3190995 108.695454,28.0024401 C108.436328,28.4653145 107.955691,28.7254855 107.459381,28.7254855" id="Fill-14" fill="#FFFFFF"></path>
                    <path d="M41.7054039,33.9009022 C41.2195425,33.9009022 40.7462194,33.650135 40.4829139,33.199799 C40.0890004,32.5258621 40.3167806,31.6586256 40.9907174,31.265757 L49.0549721,26.5544686 C49.7299538,26.1595103 50.5961455,26.3872904 50.9900589,27.0622721 C51.3839724,27.7362089 51.1561922,28.6024006 50.4812105,28.996314 L42.4180007,33.7065576 C42.1933551,33.8382104 41.9478122,33.9009022 41.7054039,33.9009022" id="Fill-16" fill="#FFFFFF"></path>
                    <path d="M119.404885,128.826417 L113.568278,128.826417 C112.054272,128.826417 110.822378,127.594523 110.822378,126.080516 L110.822378,108.993867 C110.822378,107.480905 112.054272,106.249011 113.568278,106.249011 L119.404885,106.249011 C120.917847,106.249011 122.150785,107.480905 122.150785,108.993867 L122.150785,126.080516 C122.150785,127.594523 120.917847,128.826417 119.404885,128.826417 Z" id="Combined-Shape" fill="#00587E"></path>
                    <path d="M82.9805331,44.5698966 C82.9805331,47.8894272 80.2900102,48.219604 76.9704796,48.219604 C73.650949,48.219604 70.9604261,47.8894272 70.9604261,44.5698966 C70.9604261,41.250366 73.650949,38.559843 76.9704796,38.559843 C80.2900102,38.559843 82.9805331,41.250366 82.9805331,44.5698966" id="Fill-22" fill="#00587E"></path>
                </g>
            </g>
        </g>
    </g>
</svg>