<?xml version="1.0" encoding="UTF-8"?>
<svg width="317px" height="332px" viewBox="0 0 317 332" version="1.1" xmlns="http://www.w3.org/2000/svg" xmlns:xlink="http://www.w3.org/1999/xlink">
    <!-- Generator: Sketch 49.3 (51167) - http://www.bohemiancoding.com/sketch -->
    <title>academia-header-icon</title>
    <desc>Created with Sketch.</desc>
    <defs>
        <filter x="-12.0%" y="-261.1%" width="123.9%" height="622.2%" filterUnits="objectBoundingBox" id="filter-1">
            <feGaussianBlur stdDeviation="10.4436384" in="SourceGraphic"></feGaussianBlur>
        </filter>
        <polygon id="path-2" points="0 1.49133942 316.546638 1.49133942 316.546638 185.901499 0 185.901499"></polygon>
    </defs>
    <g id="Desktop-UI" stroke="none" stroke-width="1" fill="none" fill-rule="evenodd">
        <g id="Academia" transform="translate(-422.000000, -244.000000)">
            <g id="academia-header-icon" transform="translate(422.000000, 242.000000)">
                <ellipse id="Oval-3" fill-opacity="0.3" fill="#1F6FA4" style="mix-blend-mode: multiply;" filter="url(#filter-1)" cx="165" cy="305" rx="131" ry="6"></ellipse>
                <g id="Icon/Free/Academia" transform="translate(0.420885, 0.202511)">
                    <g id="Page-1" transform="translate(0.000000, 0.000000)">
                        <path d="M135.63569,210.520808 L65.2352655,167.329149 C64.3766208,166.802757 63.8555269,165.866244 63.8555269,164.857853 L63.8555269,71.147323 C63.8555269,69.5470055 65.1487681,68.2511078 66.7436953,68.2511078 L249.803787,68.2511078 C251.400824,68.2511078 252.694065,69.5470055 252.694065,71.147323 L252.694065,164.857853 C252.694065,165.866244 252.170861,166.802757 251.314326,167.329149 L180.913902,210.520808 C167.019469,219.04456 149.530122,219.04456 135.63569,210.520808" id="Fill-1" fill="#00587E"></path>
                        <path d="M311.724937,96.7185776 L159.624577,182.740397 C158.787029,183.213938 157.761719,183.213938 156.924171,182.740397 L4.82381094,96.7185776 C2.96306252,95.6636788 2.96306252,92.9746381 4.82381094,91.9218533 L156.924171,5.90003428 C157.761719,5.4243785 158.787029,5.4243785 159.624577,5.90003428 L311.724937,91.9218533 C313.587795,92.9746381 313.587795,95.6636788 311.724937,96.7185776" id="Fill-3" fill="#96D1F2"></path>
                        <g id="Group-7" transform="translate(0.000000, 0.623638)">
                            <mask id="mask-3" fill="white">
                                <use xlink:href="#path-2"></use>
                            </mask>
                            <g id="Clip-6"></g>
                            <path d="M7.55628411,93.6961551 L158.274796,178.937899 L308.991198,93.6961551 L158.274796,8.45652554 L7.55628411,93.6961551 Z M158.274796,185.901499 C157.224169,185.901499 156.173543,185.637246 155.238949,185.106626 L3.1385889,99.0848066 C1.20400127,97.9897413 0.00147678445,95.9264522 -0.000632907623,93.6982691 C-0.000632907623,91.4700861 1.20189158,89.404683 3.1385889,88.3075036 L155.238949,2.28568457 C157.112355,1.2265577 159.437236,1.2265577 161.308533,2.28568457 L313.408893,88.3075036 C315.34559,89.404683 316.548115,91.4700861 316.548115,93.6982691 C316.548115,95.9264522 315.343481,97.9897413 313.406783,99.0869206 L161.308533,185.106626 C160.373939,185.637246 159.323313,185.901499 158.274796,185.901499 Z" id="Fill-5" fill="#00587E" mask="url(#mask-3)"></path>
                        </g>
                        <path d="M235.036364,256.833403 C232.513172,256.833403 230.466771,254.780684 230.466771,252.254423 L230.466771,142.563973 L152.906051,91.6201819 C150.796359,90.231267 150.207755,87.3942445 151.589604,85.2802189 C152.975671,83.1661932 155.804768,82.574266 157.91657,83.9610668 L239.603847,137.617153 L239.603847,252.254423 C239.603847,254.780684 237.557446,256.833403 235.036364,256.833403" id="Fill-8" fill="#ED145B"></path>
                        <path d="M155.415952,85.502403 C154.671231,85.502403 153.939168,85.8660154 153.500352,86.5340475 C152.810482,87.5889463 153.105839,89.0116856 154.160685,89.705086 L232.750935,141.327479 L232.750935,252.254635 C232.750935,253.516708 233.776245,254.544125 235.035731,254.544125 C236.295217,254.544125 237.318418,253.516708 237.318418,252.254635 L237.318418,138.854069 L156.66489,85.8744715 C156.278816,85.6229024 155.846329,85.502403 155.415952,85.502403 M235.035731,259.12099 C231.255163,259.12099 228.181342,256.040855 228.181342,252.254635 L228.181342,143.800889 L151.654371,93.5335865 C148.494052,91.4554993 147.607982,87.1915095 149.67759,84.024699 C151.753527,80.8621166 156.006666,79.9742258 159.166985,82.0438569 L241.888011,136.380659 L241.888011,252.254635 C241.888011,256.040855 238.81419,259.12099 235.035731,259.12099" id="Fill-10" fill="#00587E"></path>
                        <path d="M238.522208,70.1962228 C238.049637,70.1962228 237.570737,70.0778374 237.129811,69.8304964 L224.484317,62.7463963 C223.106688,61.9726629 222.61513,60.2307057 223.385168,58.852361 C224.153095,57.4697882 225.895701,56.9751062 227.27122,57.7488396 L239.916715,64.8371677 C241.292234,65.606673 241.785902,67.3486302 241.015864,68.731203 C240.492661,69.6677164 239.522202,70.1962228 238.522208,70.1962228" id="Fill-12" fill="#FFFFFF"></path>
                        <path d="M216.972126,58.1190055 C216.499555,58.1190055 216.022764,58.0027341 215.581839,57.7553931 L158.303699,25.6623692 L124.521199,45.4411935 C123.158338,46.2424092 121.409404,45.7794376 120.61405,44.413777 C119.816586,43.0502304 120.276499,41.2977031 121.63936,40.5007154 L158.242518,19.0687231 L218.366632,52.7620644 C219.742151,53.5315697 220.235819,55.2735269 219.467891,56.6560997 C218.944688,57.5926131 217.974229,58.1190055 216.972126,58.1190055" id="Fill-14" fill="#FFFFFF"></path>
                        <path d="M84.2077264,68.5901975 C83.2267195,68.5901975 82.271029,68.0828313 81.7393866,67.1716863 C80.9440327,65.8081397 81.4039456,64.0534984 82.764697,63.2586247 L99.0473004,53.7264829 C100.410162,52.9273812 102.159096,53.3882388 102.95445,54.7538994 C103.749804,56.117446 103.289891,57.8699733 101.92703,58.6669609 L85.6465364,68.1969887 C85.1929526,68.463356 84.6971749,68.5901975 84.2077264,68.5901975" id="Fill-16" fill="#FFFFFF"></path>
                        <path d="M241.091391,260.648797 L229.306651,260.648797 C226.249707,260.648797 223.762381,258.15636 223.762381,255.093137 L223.762381,220.522475 C223.762381,217.461366 226.249707,214.96893 229.306651,214.96893 L241.091391,214.96893 C244.146225,214.96893 246.635662,217.461366 246.635662,220.522475 L246.635662,255.093137 C246.635662,258.15636 244.146225,260.648797 241.091391,260.648797 Z" id="Combined-Shape" fill="#00587E"></path>
                        <path d="M167.546682,90.1763023 C167.546682,96.8925619 162.114224,97.5605941 155.411733,97.5605941 C148.709241,97.5605941 143.276784,96.8925619 143.276784,90.1763023 C143.276784,83.4600427 148.709241,78.0164266 155.411733,78.0164266 C162.114224,78.0164266 167.546682,83.4600427 167.546682,90.1763023" id="Fill-22" fill="#00587E"></path>
                    </g>
                </g>
            </g>
        </g>
    </g>
</svg>