<?xml version="1.0" encoding="UTF-8"?>
<svg width="341px" height="364px" viewBox="0 0 341 364" version="1.1" xmlns="http://www.w3.org/2000/svg" xmlns:xlink="http://www.w3.org/1999/xlink">
    <!-- Generator: Sketch 49.3 (51167) - http://www.bohemiancoding.com/sketch -->
    <title>assay-header-icon</title>
    <desc>Created with Sketch.</desc>
    <defs>
        <filter x="-11.0%" y="-241.0%" width="122.1%" height="582.0%" filterUnits="objectBoundingBox" id="filter-1">
            <feGaussianBlur stdDeviation="10.4436384" in="SourceGraphic"></feGaussianBlur>
        </filter>
        <polygon id="path-2" points="0 232.927308 302.537379 232.927308 302.537379 0 0 0"></polygon>
    </defs>
    <g id="Desktop-UI" stroke="none" stroke-width="1" fill="none" fill-rule="evenodd">
        <g id="Assay" transform="translate(-424.000000, -333.000000)">
            <g id="assay-header-icon" transform="translate(423.000000, 331.000000)">
                <ellipse id="Oval-3" fill-opacity="0.3" fill="#1F6FA4" style="mix-blend-mode: multiply;" filter="url(#filter-1)" cx="185" cy="335.5" rx="142" ry="6.5"></ellipse>
                <g id="Icon/Free/Assay" transform="translate(162.639455, 131.237250) rotate(-5.000000) translate(-162.639455, -131.237250) translate(9.719194, 13.432012)">
                    <g id="Page-1" transform="translate(0.614689, 0.269231)">
                        <path d="M5.82388785,229.231394 L296.713097,229.229423 C297.890515,229.229423 298.843475,228.275385 298.843475,227.096635 L298.843475,13.3821635 C298.843475,12.2034135 297.890515,11.2474038 296.713097,11.2474038 L5.82388785,11.249375 C4.64646977,11.249375 3.6915404,12.2034135 3.6915404,13.3821635 L3.69350932,227.096635 C3.69350932,228.277356 4.64646977,229.231394 5.82388785,229.231394" id="Fill-1" fill="#1C648C"></path>
                        <mask id="mask-3" fill="white">
                            <use xlink:href="#path-2"></use>
                        </mask>
                        <g id="Clip-4"></g>
                        <path d="M7.3854435,225.53351 L295.151935,225.53351 L295.151935,14.9452885 L7.3854435,14.9452885 L7.3854435,225.53351 Z M296.713294,232.927308 L5.82408475,232.927308 C2.61079661,232.927308 0,230.313558 0,227.096635 L0,13.3821635 C0,10.1672115 2.61079661,7.55149038 5.82408475,7.55149038 L296.713294,7.55149038 C299.924613,7.55149038 302.53541,10.1672115 302.53541,13.3821635 L302.537379,227.096635 C302.537379,230.313558 299.926582,232.927308 296.713294,232.927308 Z" id="Fill-3" fill="#00587E" mask="url(#mask-3)"></path>
                        <path d="M14.057348,222.130313 L289.712972,222.130313 C290.849043,222.130313 291.770501,221.205841 291.770501,220.068486 L291.770501,5.75675481 C291.770501,4.61939904 290.849043,3.69689904 289.711003,3.69689904 L14.057348,3.69887019 C12.9212774,3.69887019 11.9998198,4.61939904 11.9998198,5.75675481 L11.9998198,220.068486 C11.9998198,221.205841 12.9212774,222.130313 14.057348,222.130313" id="Fill-5" fill="#96D1F2" mask="url(#mask-3)"></path>
                        <path d="M15.691754,7.39379808 L15.691754,218.433413 L288.07896,218.433413 L288.07896,7.39379808 L15.691754,7.39379808 Z M14.0575449,225.82524 C10.8875732,225.82524 8.30631045,223.243029 8.30631045,220.069471 L8.30631045,5.75774038 C8.30631045,2.58418269 10.8875732,0 14.0575449,0 L289.7112,0 C292.881172,0 295.464404,2.58418269 295.464404,5.75774038 L295.464404,220.069471 C295.464404,223.243029 292.881172,225.82524 289.7112,225.82524 L14.0575449,225.82524 Z" id="Fill-6" fill="#1F6FA4" mask="url(#mask-3)"></path>
                        <path d="M183.790631,47.5349663 C183.790631,56.6929471 191.205608,64.1182837 200.353241,64.1182837 C209.502842,64.1182837 216.915851,56.6929471 216.915851,47.5349663 C216.915851,38.3769856 209.502842,30.9536202 200.353241,30.9536202 C191.205608,30.9536202 183.790631,38.3769856 183.790631,47.5349663" id="Fill-7" fill="#2992CC" mask="url(#mask-3)"></path>
                        <path d="M200.353438,34.033351 C192.916802,34.033351 186.866291,40.0907067 186.866291,47.537726 C186.866291,54.9808029 192.916802,61.0361875 200.353438,61.0361875 C207.790073,61.0361875 213.840584,54.9808029 213.840584,47.5357548 C213.840584,40.0907067 207.790073,34.033351 200.353438,34.033351 M200.353438,67.1980144 C189.524342,67.1980144 180.711426,58.3790721 180.711426,47.537726 C180.711426,36.6963798 189.524342,27.8734952 200.353438,27.8734952 C211.182534,27.8734952 219.995449,36.6944087 219.995449,47.5357548 C219.995449,58.377101 211.182534,67.1980144 200.353438,67.1980144" id="Fill-8" fill="#1C648C" mask="url(#mask-3)"></path>
                        <path d="M183.790631,93.0274231 C183.790631,102.185404 191.205608,109.61074 200.353241,109.61074 C209.502842,109.61074 216.915851,102.185404 216.915851,93.0274231 C216.915851,83.8694423 209.502842,76.4460769 200.353241,76.4460769 C191.205608,76.4460769 183.790631,83.8694423 183.790631,93.0274231" id="Fill-9" fill="#2992CC" mask="url(#mask-3)"></path>
                        <path d="M200.353438,79.5258077 C192.916802,79.5258077 186.866291,85.5831635 186.866291,93.0282115 C186.866291,100.47326 192.916802,106.528644 200.353438,106.528644 C207.790073,106.528644 213.840584,100.471288 213.840584,93.0282115 C213.840584,85.5811923 207.790073,79.5258077 200.353438,79.5258077 M200.353438,112.690471 C189.524342,112.690471 180.711426,103.871529 180.711426,93.0282115 C180.711426,82.1868654 189.524342,73.3659519 200.353438,73.3659519 C211.182534,73.3659519 219.995449,82.1868654 219.995449,93.0282115 C219.995449,103.869558 211.182534,112.690471 200.353438,112.690471" id="Fill-10" fill="#1C648C" mask="url(#mask-3)"></path>
                        <path d="M183.790631,136.841245 C183.790631,145.999226 191.207577,153.424563 200.353241,153.424563 C209.502842,153.424563 216.91782,145.999226 216.91782,136.841245 C216.91782,127.683264 209.502842,120.259899 200.353241,120.259899 C191.205608,120.259899 183.790631,127.683264 183.790631,136.841245" id="Fill-11" fill="#2992CC" mask="url(#mask-3)"></path>
                        <path d="M200.353438,123.33963 C192.916802,123.33963 186.866291,129.396986 186.866291,136.842034 C186.866291,144.287082 192.916802,150.342466 200.353438,150.342466 C207.790073,150.342466 213.840584,144.287082 213.840584,136.842034 C213.840584,129.396986 207.790073,123.33963 200.353438,123.33963 M200.353438,156.504293 C189.524342,156.504293 180.711426,147.68338 180.711426,136.842034 C180.711426,126.000688 189.524342,117.177803 200.353438,117.177803 C211.182534,117.177803 219.995449,126.000688 219.995449,136.842034 C219.995449,147.68338 211.182534,156.504293 200.353438,156.504293" id="Fill-12" fill="#1C648C" mask="url(#mask-3)"></path>
                        <path d="M183.790631,180.214317 C183.790631,189.372298 191.207577,196.795663 200.353241,196.795663 C209.502842,196.795663 216.91782,189.372298 216.91782,180.212346 C216.91782,171.056337 209.502842,163.631 200.353241,163.631 C191.207577,163.631 183.790631,171.056337 183.790631,180.214317" id="Fill-13" fill="#2992CC" mask="url(#mask-3)"></path>
                        <path d="M200.353438,166.710731 C192.916802,166.710731 186.866291,172.768087 186.866291,180.213135 C186.866291,187.658183 192.916802,193.715538 200.353438,193.715538 C207.790073,193.715538 213.840584,187.658183 213.840584,180.213135 C213.840584,172.768087 207.790073,166.710731 200.353438,166.710731 M200.353438,199.875394 C189.524342,199.875394 180.711426,191.056452 180.711426,180.213135 C180.711426,169.371788 189.524342,160.550875 200.353438,160.550875 C211.182534,160.550875 219.995449,169.371788 219.995449,180.213135 C219.995449,191.056452 211.182534,199.875394 200.353438,199.875394" id="Fill-14" fill="#1C648C" mask="url(#mask-3)"></path>
                        <path d="M231.53139,47.5349663 C231.53139,56.6929471 238.948336,64.1182837 248.095969,64.1182837 C257.243601,64.1182837 264.658579,56.6929471 264.658579,47.5349663 C264.658579,38.3769856 257.243601,30.9536202 248.095969,30.9536202 C238.948336,30.9536202 231.53139,38.3769856 231.53139,47.5349663" id="Fill-15" fill="#2992CC" mask="url(#mask-3)"></path>
                        <path d="M248.096166,34.033351 C240.65953,34.033351 234.609019,40.0907067 234.609019,47.537726 C234.609019,54.9808029 240.65953,61.0361875 248.096166,61.0361875 C255.530832,61.0361875 261.581344,54.9808029 261.581344,47.5357548 C261.581344,40.0907067 255.530832,34.033351 248.096166,34.033351 M248.096166,67.1980144 C237.267069,67.1980144 228.454154,58.3790721 228.454154,47.537726 C228.454154,36.6963798 237.267069,27.8734952 248.096166,27.8734952 C258.925262,27.8734952 267.736208,36.6944087 267.736208,47.5357548 C267.736208,58.377101 258.925262,67.1980144 248.096166,67.1980144" id="Fill-16" fill="#1C648C" mask="url(#mask-3)"></path>
                        <path d="M231.53139,93.0274231 C231.53139,102.185404 238.948336,109.61074 248.095969,109.61074 C257.243601,109.61074 264.658579,102.185404 264.658579,93.0274231 C264.658579,83.8694423 257.243601,76.4460769 248.095969,76.4460769 C238.948336,76.4460769 231.53139,83.8694423 231.53139,93.0274231" id="Fill-17" fill="#2992CC" mask="url(#mask-3)"></path>
                        <path d="M248.096166,79.5258077 C240.65953,79.5258077 234.609019,85.5831635 234.609019,93.0282115 C234.609019,100.47326 240.65953,106.528644 248.096166,106.528644 C255.530832,106.528644 261.581344,100.471288 261.581344,93.0282115 C261.581344,85.5811923 255.530832,79.5258077 248.096166,79.5258077 M248.096166,112.690471 C237.267069,112.690471 228.454154,103.871529 228.454154,93.0282115 C228.454154,82.1868654 237.267069,73.3659519 248.096166,73.3659519 C258.925262,73.3659519 267.736208,82.1868654 267.736208,93.0282115 C267.736208,103.869558 258.925262,112.690471 248.096166,112.690471" id="Fill-18" fill="#1C648C" mask="url(#mask-3)"></path>
                        <path d="M231.53139,136.841245 C231.53139,145.999226 238.948336,153.424563 248.095969,153.424563 C257.243601,153.424563 264.658579,145.999226 264.658579,136.841245 C264.658579,127.683264 257.243601,120.259899 248.095969,120.259899 C238.948336,120.259899 231.53139,127.683264 231.53139,136.841245" id="Fill-19" fill="#2992CC" mask="url(#mask-3)"></path>
                        <path d="M248.096166,123.33963 C240.65953,123.33963 234.609019,129.396986 234.609019,136.842034 C234.609019,144.287082 240.65953,150.342466 248.096166,150.342466 C255.530832,150.342466 261.583312,144.287082 261.583312,136.842034 C261.583312,129.396986 255.530832,123.33963 248.096166,123.33963 M248.096166,156.504293 C237.267069,156.504293 228.454154,147.68338 228.454154,136.842034 C228.454154,126.000688 237.267069,117.177803 248.096166,117.177803 C258.925262,117.177803 267.738177,126.000688 267.738177,136.842034 C267.738177,147.68338 258.925262,156.504293 248.096166,156.504293" id="Fill-20" fill="#1C648C" mask="url(#mask-3)"></path>
                        <path d="M231.53139,180.214317 C231.53139,189.372298 238.948336,196.795663 248.095969,196.795663 C257.243601,196.795663 264.658579,189.372298 264.658579,180.212346 C264.658579,171.056337 257.243601,163.631 248.095969,163.631 C238.948336,163.631 231.53139,171.056337 231.53139,180.214317" id="Fill-21" fill="#2992CC" mask="url(#mask-3)"></path>
                        <path d="M248.096166,166.710731 C240.65953,166.710731 234.609019,172.768087 234.609019,180.213135 C234.609019,187.658183 240.65953,193.715538 248.096166,193.715538 C255.530832,193.715538 261.583312,187.658183 261.583312,180.213135 C261.583312,172.768087 255.530832,166.710731 248.096166,166.710731 M248.096166,199.875394 C237.267069,199.875394 228.454154,191.056452 228.454154,180.213135 C228.454154,169.371788 237.267069,160.550875 248.096166,160.550875 C258.925262,160.550875 267.738177,169.371788 267.738177,180.213135 C267.738177,191.056452 258.925262,199.875394 248.096166,199.875394" id="Fill-22" fill="#1C648C" mask="url(#mask-3)"></path>
                        <path d="M136.048099,47.5367404 C136.048099,56.6947212 143.465046,64.1180865 152.61071,64.1180865 C161.760311,64.1180865 169.175289,56.6947212 169.175289,47.5347692 C169.175289,38.3787596 161.760311,30.9534231 152.61071,30.9534231 C143.465046,30.9534231 136.048099,38.3787596 136.048099,47.5367404" id="Fill-23" fill="#2992CC" mask="url(#mask-3)"></path>
                        <path d="M152.610906,34.033351 C145.17624,34.033351 139.125729,40.0907067 139.125729,47.537726 C139.125729,54.9808029 145.17624,61.0361875 152.610906,61.0361875 C160.047542,61.0361875 166.100022,54.9808029 166.100022,47.537726 C166.100022,40.0907067 160.047542,34.033351 152.610906,34.033351 M152.610906,67.1980144 C141.78181,67.1980144 132.970864,58.3790721 132.970864,47.537726 C132.970864,36.6963798 141.78181,27.8734952 152.610906,27.8734952 C163.440003,27.8734952 172.252918,36.6963798 172.252918,47.537726 C172.252918,58.3790721 163.440003,67.1980144 152.610906,67.1980144" id="Fill-24" fill="#1C648C" mask="url(#mask-3)"></path>
                        <path d="M136.048099,93.0274231 C136.048099,102.185404 143.465046,109.61074 152.612679,109.61074 C161.760311,109.61074 169.175289,102.185404 169.175289,93.0274231 C169.175289,83.8694423 161.760311,76.4460769 152.612679,76.4460769 C143.465046,76.4460769 136.048099,83.8694423 136.048099,93.0274231" id="Fill-25" fill="#FF385E" mask="url(#mask-3)"></path>
                        <path d="M152.610906,79.5258077 C145.17624,79.5258077 139.125729,85.5831635 139.125729,93.0282115 C139.125729,100.47326 145.17624,106.528644 152.610906,106.528644 C160.047542,106.528644 166.100022,100.47326 166.100022,93.0282115 C166.100022,85.5831635 160.047542,79.5258077 152.610906,79.5258077 M152.610906,112.690471 C141.78181,112.690471 132.970864,103.871529 132.970864,93.0282115 C132.970864,82.1868654 141.78181,73.3659519 152.610906,73.3659519 C163.440003,73.3659519 172.252918,82.1868654 172.252918,93.0282115 C172.252918,103.871529 163.440003,112.690471 152.610906,112.690471" id="Fill-26" fill="#1C648C" mask="url(#mask-3)"></path>
                        <path d="M136.048099,136.841245 C136.048099,145.999226 143.465046,153.424563 152.612679,153.424563 C161.760311,153.424563 169.175289,145.999226 169.175289,136.841245 C169.175289,127.683264 161.760311,120.259899 152.612679,120.259899 C143.465046,120.259899 136.048099,127.683264 136.048099,136.841245" id="Fill-27" fill="#2992CC" mask="url(#mask-3)"></path>
                        <path d="M152.610906,123.33963 C145.17624,123.33963 139.125729,129.396986 139.125729,136.842034 C139.125729,144.287082 145.17624,150.342466 152.612875,150.342466 C160.047542,150.342466 166.100022,144.287082 166.100022,136.842034 C166.100022,129.396986 160.047542,123.33963 152.610906,123.33963 M152.612875,156.504293 C141.783779,156.504293 132.970864,147.68338 132.970864,136.842034 C132.970864,126.000688 141.78181,117.179774 152.610906,117.179774 C163.440003,117.179774 172.252918,126.000688 172.252918,136.842034 C172.252918,147.68338 163.441971,156.504293 152.612875,156.504293" id="Fill-28" fill="#1C648C" mask="url(#mask-3)"></path>
                        <path d="M136.048099,180.214317 C136.048099,189.372298 143.465046,196.795663 152.612679,196.795663 C161.760311,196.795663 169.175289,189.372298 169.175289,180.214317 C169.175289,171.056337 161.760311,163.631 152.612679,163.631 C143.465046,163.631 136.048099,171.056337 136.048099,180.214317" id="Fill-29" fill="#FF385E" mask="url(#mask-3)"></path>
                        <path d="M152.612875,166.710731 C145.17624,166.710731 139.125729,172.768087 139.125729,180.213135 C139.125729,187.658183 145.17624,193.715538 152.612875,193.715538 C160.047542,193.715538 166.100022,187.658183 166.100022,180.213135 C166.100022,172.768087 160.047542,166.710731 152.612875,166.710731 M152.612875,199.875394 C141.783779,199.875394 132.970864,191.056452 132.970864,180.213135 C132.970864,169.371788 141.783779,160.550875 152.612875,160.550875 C163.441971,160.550875 172.252918,169.371788 172.252918,180.213135 C172.252918,191.056452 163.441971,199.875394 152.612875,199.875394" id="Fill-30" fill="#1C648C" mask="url(#mask-3)"></path>
                        <path d="M88.3073404,47.5367404 C88.3073404,56.6947212 95.7223178,64.1180865 104.869951,64.1180865 C114.019552,64.1180865 121.432561,56.6947212 121.432561,47.5367404 C121.432561,38.3787596 114.019552,30.9534231 104.869951,30.9534231 C95.7223178,30.9534231 88.3073404,38.3787596 88.3073404,47.5367404" id="Fill-31" fill="#FF385E" mask="url(#mask-3)"></path>
                        <path d="M104.870147,34.033351 C97.4354808,34.033351 91.3830006,40.0907067 91.3830006,47.537726 C91.3830006,51.1429663 92.7848763,54.533351 95.3346362,57.0820529 C97.8784893,59.632726 101.267012,61.0361875 104.868179,61.0361875 L104.870147,61.0361875 C112.306783,61.0361875 118.357294,54.9808029 118.357294,47.537726 C118.357294,40.0907067 112.306783,34.033351 104.870147,34.033351 Z M104.868179,67.1980144 C99.6229582,67.1980144 94.6907972,65.1539279 90.9813395,61.440274 C87.2718819,57.7266202 85.2281362,52.7888798 85.2281362,47.537726 C85.2281362,36.6963798 94.0410514,27.8734952 104.870147,27.8734952 C115.699244,27.8734952 124.51019,36.6963798 124.51019,47.537726 C124.51019,58.3790721 115.699244,67.1980144 104.870147,67.1980144 L104.868179,67.1980144 Z" id="Fill-32" fill="#1C648C" mask="url(#mask-3)"></path>
                        <path d="M88.3073404,93.0274231 C88.3073404,102.185404 95.7223178,109.61074 104.869951,109.61074 C114.019552,109.61074 121.432561,102.185404 121.432561,93.0274231 C121.432561,83.8694423 114.019552,76.4460769 104.869951,76.4460769 C95.7223178,76.4460769 88.3073404,83.8694423 88.3073404,93.0274231" id="Fill-33" fill="#FF385E" mask="url(#mask-3)"></path>
                        <path d="M104.870147,79.5258077 C97.4354808,79.5258077 91.3830006,85.5831635 91.3830006,93.0282115 C91.3830006,100.47326 97.4354808,106.530615 104.870147,106.530615 C112.306783,106.530615 118.357294,100.47326 118.357294,93.0282115 C118.357294,85.5831635 112.306783,79.5258077 104.870147,79.5258077 M104.870147,112.690471 C94.0410514,112.690471 85.2281362,103.871529 85.2281362,93.0282115 C85.2281362,82.1868654 94.0410514,73.3659519 104.870147,73.3659519 C115.699244,73.3659519 124.512159,82.1868654 124.512159,93.0282115 C124.512159,103.871529 115.699244,112.690471 104.870147,112.690471" id="Fill-34" fill="#1C648C" mask="url(#mask-3)"></path>
                        <path d="M88.3073404,136.841245 C88.3073404,145.999226 95.7223178,153.424563 104.869951,153.424563 C114.019552,153.424563 121.432561,145.999226 121.432561,136.841245 C121.432561,127.683264 114.019552,120.259899 104.869951,120.259899 C95.7223178,120.259899 88.3073404,127.683264 88.3073404,136.841245" id="Fill-35" fill="#FF385E" mask="url(#mask-3)"></path>
                        <path d="M104.870147,123.33963 C97.4354808,123.33963 91.3830006,129.396986 91.3830006,136.842034 C91.3830006,144.287082 97.4354808,150.342466 104.870147,150.342466 C112.306783,150.342466 118.357294,144.287082 118.357294,136.842034 C118.357294,129.396986 112.306783,123.33963 104.870147,123.33963 M104.870147,156.504293 C94.0410514,156.504293 85.2281362,147.68338 85.2281362,136.842034 C85.2281362,126.000688 94.0410514,117.179774 104.870147,117.179774 C115.699244,117.179774 124.512159,126.000688 124.512159,136.842034 C124.512159,147.68338 115.699244,156.504293 104.870147,156.504293" id="Fill-36" fill="#1C648C" mask="url(#mask-3)"></path>
                        <path d="M88.3073404,180.214317 C88.3073404,189.372298 95.7223178,196.795663 104.869951,196.795663 C114.019552,196.795663 121.432561,189.372298 121.432561,180.214317 C121.432561,171.056337 114.019552,163.631 104.869951,163.631 C95.7223178,163.631 88.3073404,171.056337 88.3073404,180.214317" id="Fill-37" fill="#FF385E" mask="url(#mask-3)"></path>
                        <path d="M104.870147,166.712702 C97.4354808,166.712702 91.3830006,172.768087 91.3830006,180.213135 C91.3830006,187.658183 97.4354808,193.715538 104.870147,193.715538 C112.306783,193.715538 118.357294,187.658183 118.357294,180.213135 C118.357294,172.768087 112.306783,166.712702 104.870147,166.712702 M104.870147,199.875394 C94.0410514,199.875394 85.2281362,191.056452 85.2281362,180.213135 C85.2281362,169.371788 94.0410514,160.550875 104.870147,160.550875 C115.699244,160.550875 124.512159,169.371788 124.512159,180.213135 C124.512159,191.056452 115.699244,199.875394 104.870147,199.875394" id="Fill-38" fill="#1C648C" mask="url(#mask-3)"></path>
                        <path d="M40.5648093,47.5367404 C40.5648093,56.6947212 47.9817556,64.1180865 57.1274195,64.1180865 C66.2770212,64.1180865 73.6919986,56.6947212 73.6919986,47.5367404 C73.6919986,38.3787596 66.2770212,30.9534231 57.1274195,30.9534231 C47.9817556,30.9534231 40.5648093,38.3787596 40.5648093,47.5367404" id="Fill-39" fill="#FF385E" mask="url(#mask-3)"></path>
                        <path d="M57.1276164,34.033351 C49.6929497,34.033351 43.6404695,40.0907067 43.6404695,47.537726 C43.6404695,51.1429663 45.0443141,54.533351 47.5921051,57.0820529 C50.1379271,59.632726 53.5244808,61.0361875 57.1256475,61.0361875 L57.1276164,61.0361875 C64.564252,61.0361875 70.6167322,54.9808029 70.6167322,47.537726 C70.6167322,40.0907067 64.564252,34.033351 57.1276164,34.033351 Z M57.1256475,67.1980144 C51.8804271,67.1980144 46.9482661,65.1539279 43.2388085,61.440274 C39.5293508,57.7266202 37.4856051,52.7888798 37.4856051,47.537726 C37.4856051,36.6963798 46.2985203,27.8734952 57.1276164,27.8734952 C67.9567124,27.8734952 76.7696277,36.6963798 76.7696277,47.537726 C76.7696277,58.3790721 67.9567124,67.1980144 57.1276164,67.1980144 L57.1256475,67.1980144 Z" id="Fill-40" fill="#1C648C" mask="url(#mask-3)"></path>
                        <path d="M40.5648093,93.0274231 C40.5648093,102.185404 47.9817556,109.61074 57.1274195,109.61074 C66.2770212,109.61074 73.6919986,102.185404 73.6919986,93.0274231 C73.6919986,83.8694423 66.2770212,76.4460769 57.1274195,76.4460769 C47.9817556,76.4460769 40.5648093,83.8694423 40.5648093,93.0274231" id="Fill-41" fill="#FF385E" mask="url(#mask-3)"></path>
                        <path d="M57.1276164,79.5258077 C49.6929497,79.5258077 43.6404695,85.5831635 43.6404695,93.0282115 C43.6404695,100.47326 49.6929497,106.530615 57.1276164,106.530615 C64.564252,106.530615 70.6167322,100.47326 70.6167322,93.0282115 C70.6167322,85.5831635 64.564252,79.5258077 57.1276164,79.5258077 M57.1276164,112.690471 C46.2985203,112.690471 37.4856051,103.871529 37.4856051,93.0282115 C37.4856051,82.1868654 46.2985203,73.3659519 57.1276164,73.3659519 C67.9567124,73.3659519 76.7696277,82.1868654 76.7696277,93.0282115 C76.7696277,103.871529 67.9567124,112.690471 57.1276164,112.690471" id="Fill-42" fill="#1C648C" mask="url(#mask-3)"></path>
                        <path d="M40.5648093,136.841245 C40.5648093,145.999226 47.9817556,153.424563 57.1274195,153.424563 C66.2770212,153.424563 73.6919986,145.999226 73.6919986,136.841245 C73.6919986,127.683264 66.2770212,120.259899 57.1274195,120.259899 C47.9817556,120.259899 40.5648093,127.683264 40.5648093,136.841245" id="Fill-43" fill="#FF385E" mask="url(#mask-3)"></path>
                        <path d="M57.1276164,123.33963 C49.6929497,123.33963 43.6404695,129.396986 43.6404695,136.842034 C43.6404695,144.287082 49.6929497,150.342466 57.1276164,150.342466 C64.564252,150.342466 70.6167322,144.287082 70.6167322,136.842034 C70.6167322,129.396986 64.564252,123.33963 57.1276164,123.33963 M57.1276164,156.504293 C46.2985203,156.504293 37.4856051,147.68338 37.4856051,136.842034 C37.4856051,126.000688 46.2985203,117.179774 57.1276164,117.179774 C67.9567124,117.179774 76.7696277,126.000688 76.7696277,136.842034 C76.7696277,147.68338 67.9567124,156.504293 57.1276164,156.504293" id="Fill-44" fill="#1C648C" mask="url(#mask-3)"></path>
                        <path d="M40.5648093,180.214317 C40.5648093,189.372298 47.9817556,196.795663 57.1274195,196.795663 C66.2770212,196.795663 73.6919986,189.372298 73.6919986,180.214317 C73.6919986,171.056337 66.2770212,163.631 57.1274195,163.631 C47.9817556,163.631 40.5648093,171.056337 40.5648093,180.214317" id="Fill-45" fill="#FF385E" mask="url(#mask-3)"></path>
                        <path d="M57.1276164,166.712702 C49.6929497,166.712702 43.6424384,172.768087 43.6424384,180.213135 C43.6424384,187.658183 49.6929497,193.715538 57.1276164,193.715538 C64.564252,193.715538 70.6167322,187.658183 70.6167322,180.213135 C70.6167322,172.768087 64.564252,166.712702 57.1276164,166.712702 M57.1276164,199.875394 C46.2985203,199.875394 37.487574,191.056452 37.487574,180.213135 C37.487574,169.371788 46.2985203,160.550875 57.1276164,160.550875 C67.9567124,160.550875 76.7696277,169.371788 76.7696277,180.213135 C76.7696277,191.056452 67.9567124,199.875394 57.1276164,199.875394" id="Fill-46" fill="#1C648C" mask="url(#mask-3)"></path>
                        <path d="M57.1045799,58.5917596 C54.8540969,58.5917596 52.6607127,57.8998846 50.7803879,56.5792115 C48.3684528,54.8800769 46.7598398,52.3451731 46.2518568,49.43575 C46.137659,48.7675288 46.5846054,48.1269038 47.2540404,48.0106058 C47.9175686,47.8962788 48.5614076,48.3437308 48.6795432,49.0139231 C49.490741,53.6776731 53.9424839,56.8078654 58.604902,55.99575 C59.2763059,55.8814231 59.9122692,56.328875 60.0284359,56.9970962 C60.1446025,57.6672885 59.6956873,58.3059423 59.0282212,58.4242115 C58.3863511,58.5365673 57.7425121,58.5917596 57.1045799,58.5917596" id="Fill-47" fill="#D83058" mask="url(#mask-3)"></path>
                        <path d="M104.558663,58.5917596 C102.306211,58.5917596 100.114796,57.8998846 98.2325023,56.5792115 C95.8225362,54.8800769 94.2119542,52.3451731 93.7039712,49.43575 C93.5897734,48.7675288 94.0367198,48.1269038 94.7061548,48.0106058 C95.3795277,47.8962788 96.013522,48.3437308 96.1316576,49.0139231 C96.9448243,53.6776731 101.39066,56.8078654 106.057016,55.99575 C106.726451,55.8814231 107.364384,56.328875 107.48055,56.9970962 C107.596717,57.6672885 107.147802,58.3059423 106.480336,58.4242115 C105.838466,58.5365673 105.194627,58.5917596 104.558663,58.5917596" id="Fill-48" fill="#D83058" mask="url(#mask-3)"></path>
                        <path d="M57.1045799,104.835029 C54.852128,104.835029 52.6607127,104.145125 50.7803879,102.822481 C48.3684528,101.125317 46.7598398,98.5904135 46.2518568,95.6809904 C46.137659,95.0127692 46.5846054,94.3721442 47.2540404,94.2558462 C47.9175686,94.1415192 48.5614076,94.5889712 48.6795432,95.2591635 C49.0733285,97.5181058 50.321628,99.4892596 52.198015,100.807962 C54.0724331,102.124692 56.3465432,102.635221 58.604902,102.24099 C59.2763059,102.128635 59.9103003,102.572144 60.0284359,103.240365 C60.1446025,103.912529 59.6956873,104.549212 59.0282212,104.667481 C58.3843822,104.779837 57.7425121,104.835029 57.1045799,104.835029" id="Fill-49" fill="#D83058" mask="url(#mask-3)"></path>
                        <path d="M104.556694,104.835029 C102.304242,104.835029 100.112827,104.145125 98.2325023,102.822481 C95.8205672,101.125317 94.2119542,98.5904135 93.7039712,95.6809904 C93.5897734,95.0127692 94.0367198,94.3721442 94.7061548,94.2558462 C95.3795277,94.1415192 96.013522,94.5889712 96.1316576,95.2591635 C96.5254429,97.5181058 97.7737424,99.4892596 99.6501294,100.807962 C101.522579,102.124692 103.796689,102.635221 106.057016,102.24099 C106.718576,102.128635 107.364384,102.572144 107.48055,103.240365 C107.596717,103.912529 107.147802,104.549212 106.480336,104.667481 C105.836497,104.779837 105.194627,104.835029 104.556694,104.835029" id="Fill-50" fill="#D83058" mask="url(#mask-3)"></path>
                        <path d="M152.299422,104.835029 C150.04697,104.835029 147.855555,104.145125 145.97523,102.822481 C143.563295,101.125317 141.954682,98.5904135 141.446699,95.6809904 C141.332501,95.0127692 141.779448,94.3721442 142.448883,94.2558462 C143.11438,94.1415192 143.75625,94.5889712 143.874386,95.2591635 C144.268171,97.5181058 145.51647,99.4892596 147.390888,100.807962 C149.265306,102.124692 151.539417,102.635221 153.799744,102.24099 C154.46721,102.128635 155.105143,102.572144 155.223278,103.240365 C155.339445,103.912529 154.89053,104.549212 154.223064,104.667481 C153.579225,104.779837 152.937355,104.835029 152.299422,104.835029" id="Fill-51" fill="#D83058" mask="url(#mask-3)"></path>
                        <path d="M152.299422,191.163486 C150.048939,191.163486 147.855555,190.473582 145.97523,189.150938 C143.563295,187.453774 141.954682,184.916899 141.446699,182.007476 C141.332501,181.339255 141.779448,180.69863 142.448883,180.582332 C143.11438,180.468005 143.75625,180.915457 143.874386,181.585649 C144.687552,186.25137 149.131419,189.379591 153.799744,188.569447 C154.471148,188.453149 155.107112,188.900601 155.223278,189.568822 C155.339445,190.239014 154.89053,190.877668 154.223064,190.995938 C153.581194,191.108293 152.937355,191.163486 152.299422,191.163486" id="Fill-52" fill="#D83058" mask="url(#mask-3)"></path>
                        <path d="M57.1236785,148.614356 C51.8607379,148.614356 47.1884751,144.823827 46.253235,139.460317 C46.1370684,138.792096 46.5840147,138.153442 47.2534497,138.035173 C47.916978,137.922817 48.5608169,138.368298 48.6789525,139.03849 C49.4901503,143.70224 53.9418932,146.832433 58.6043113,146.020317 C59.2757153,145.907962 59.9116785,146.353442 60.0298141,147.021663 C60.1440119,147.691856 59.6970655,148.33051 59.0276305,148.448779 C58.3877294,148.561135 57.7517661,148.614356 57.1236785,148.614356" id="Fill-53" fill="#D83058" mask="url(#mask-3)"></path>
                        <path d="M104.57599,148.614356 C99.3130492,148.614356 94.6407864,144.823827 93.7055463,139.460317 C93.5893797,138.792096 94.036326,138.153442 94.705761,138.035173 C95.3791339,137.922817 96.0131282,138.368298 96.1312638,139.03849 C96.9444305,143.70224 101.390267,146.832433 106.056623,146.020317 C106.726058,145.907962 107.36399,146.353442 107.482125,147.021663 C107.596323,147.691856 107.149377,148.33051 106.479942,148.448779 C105.84201,148.561135 105.204077,148.614356 104.57599,148.614356" id="Fill-54" fill="#D83058" mask="url(#mask-3)"></path>
                        <path d="M57.1045799,191.163486 C54.8540969,191.163486 52.6607127,190.473582 50.7803879,189.150938 C48.3684528,187.453774 46.7598398,184.916899 46.2518568,182.007476 C46.137659,181.339255 46.5846054,180.69863 47.2540404,180.582332 C47.9175686,180.468005 48.5614076,180.915457 48.6795432,181.585649 C49.490741,186.25137 53.9424839,189.379591 58.604902,188.569447 C59.2763059,188.453149 59.9122692,188.900601 60.0284359,189.568822 C60.1446025,190.239014 59.6956873,190.877668 59.0282212,190.995938 C58.3863511,191.108293 57.7425121,191.163486 57.1045799,191.163486" id="Fill-55" fill="#D83058" mask="url(#mask-3)"></path>
                        <path d="M104.558663,191.163486 C102.306211,191.163486 100.114796,190.473582 98.2325023,189.150938 C95.8225362,187.453774 94.2119542,184.916899 93.7039712,182.007476 C93.5897734,181.339255 94.0367198,180.69863 94.7061548,180.582332 C95.3795277,180.468005 96.013522,180.915457 96.1316576,181.585649 C96.9448243,186.25137 101.39066,189.379591 106.057016,188.569447 C106.726451,188.453149 107.364384,188.900601 107.48055,189.568822 C107.596717,190.239014 107.147802,190.877668 106.480336,190.995938 C105.838466,191.108293 105.194627,191.163486 104.558663,191.163486" id="Fill-56" fill="#D83058" mask="url(#mask-3)"></path>
                        <path d="M247.875055,148.614356 C242.614083,148.614356 237.939852,144.823827 237.004612,139.460317 C236.888445,138.792096 237.335391,138.153442 238.006795,138.035173 C238.670323,137.922817 239.314162,138.368298 239.430329,139.03849 C240.243496,143.70224 244.705083,146.832433 249.355688,146.020317 C250.03103,145.907962 250.663055,146.353442 250.781191,147.021663 C250.895388,147.691856 250.448442,148.33051 249.779007,148.448779 C249.139106,148.561135 248.501174,148.614356 247.875055,148.614356" id="Fill-57" fill="#1F6FA4" mask="url(#mask-3)"></path>
                        <path d="M152.680016,148.614356 C147.419044,148.614356 142.744812,144.823827 141.809572,139.460317 C141.693406,138.792096 142.142321,138.153442 142.811756,138.035173 C143.475284,137.922817 144.119123,138.368298 144.237259,139.03849 C145.048456,143.70224 149.504137,146.832433 154.160649,146.020317 C154.834021,145.907962 155.468016,146.353442 155.586151,147.021663 C155.700349,147.691856 155.253403,148.33051 154.583968,148.448779 C153.944067,148.561135 153.306134,148.614356 152.680016,148.614356" id="Fill-58" fill="#1F6FA4" mask="url(#mask-3)"></path>
                        <path d="M200.134296,148.614356 C194.871355,148.614356 190.199093,144.823827 189.263853,139.460317 C189.147686,138.792096 189.594632,138.153442 190.264067,138.035173 C190.93744,137.922817 191.571434,138.368298 191.68957,139.03849 C192.500768,143.70224 196.950542,146.832433 201.614929,146.020317 C202.286333,145.907962 202.922296,146.353442 203.040432,147.021663 C203.154629,147.691856 202.707683,148.33051 202.038248,148.448779 C201.398347,148.561135 200.762384,148.614356 200.134296,148.614356" id="Fill-59" fill="#1F6FA4" mask="url(#mask-3)"></path>
                        <path d="M247.85576,59.2136587 C245.605277,59.2136587 243.411892,58.5237548 241.533536,57.2011106 C239.119632,55.5039471 237.512988,52.9670721 237.005005,50.0596202 C236.888839,49.3894279 237.335785,48.750774 238.007189,48.634476 C238.670717,48.5221202 239.314556,48.9656298 239.430723,49.6377933 C240.24389,54.2995721 244.693664,57.4297644 249.356082,56.617649 C250.029455,56.5052933 250.663449,56.950774 250.779616,57.6189952 C250.895782,58.2891875 250.446867,58.9278413 249.779401,59.0461106 C249.135562,59.1584663 248.493692,59.2136587 247.85576,59.2136587" id="Fill-60" fill="#1F6FA4" mask="url(#mask-3)"></path>
                        <path d="M152.660917,59.2136587 C150.410434,59.2136587 148.21705,58.5237548 146.338694,57.2011106 C143.92479,55.5039471 142.318146,52.9670721 141.810163,50.0596202 C141.693996,49.3894279 142.142912,48.750774 142.812347,48.634476 C143.475875,48.5221202 144.119714,48.9656298 144.237849,49.6377933 C145.049047,54.2995721 149.492914,57.4297644 154.161239,56.617649 C154.834612,56.5052933 155.468606,56.950774 155.584773,57.6189952 C155.70094,58.2891875 155.252025,58.9278413 154.584558,59.0461106 C153.940719,59.1584663 153.298849,59.2136587 152.660917,59.2136587" id="Fill-61" fill="#1F6FA4" mask="url(#mask-3)"></path>
                        <path d="M200.115001,59.2136587 C197.862549,59.2136587 195.671133,58.5237548 193.790808,57.2011106 C191.378873,55.5039471 189.77026,52.9670721 189.262277,50.0596202 C189.14808,49.3894279 189.595026,48.750774 190.264461,48.634476 C190.937834,48.5221202 191.571828,48.9656298 191.689964,49.6377933 C192.083749,51.8967356 193.332049,53.8659183 195.206467,55.1846202 C197.080885,56.5033221 199.354995,57.013851 201.615323,56.617649 C202.286727,56.5052933 202.92269,56.950774 203.038856,57.6189952 C203.155023,58.2891875 202.706108,58.9278413 202.038642,59.0461106 C201.394803,59.1584663 200.752933,59.2136587 200.115001,59.2136587" id="Fill-62" fill="#1F6FA4" mask="url(#mask-3)"></path>
                        <path d="M247.85576,191.163486 C245.605277,191.163486 243.411892,190.473582 241.533536,189.150938 C239.119632,187.453774 237.512988,184.916899 237.005005,182.007476 C236.888839,181.339255 237.335785,180.69863 238.007189,180.582332 C238.670717,180.468005 239.314556,180.915457 239.430723,181.585649 C240.24389,186.25137 244.703508,189.379591 249.356082,188.569447 C250.029455,188.453149 250.663449,188.900601 250.779616,189.568822 C250.895782,190.239014 250.446867,190.877668 249.779401,190.995938 C249.137531,191.108293 248.493692,191.163486 247.85576,191.163486" id="Fill-63" fill="#1F6FA4" mask="url(#mask-3)"></path>
                        <path d="M200.115001,191.163486 C197.862549,191.163486 195.671133,190.473582 193.790808,189.150938 C191.378873,187.453774 189.77026,184.916899 189.262277,182.007476 C189.14808,181.339255 189.595026,180.69863 190.264461,180.582332 C190.937834,180.468005 191.571828,180.915457 191.689964,181.585649 C192.501162,186.25137 196.950936,189.379591 201.615323,188.569447 C202.286727,188.453149 202.92269,188.900601 203.038856,189.568822 C203.155023,190.239014 202.706108,190.877668 202.038642,190.995938 C201.396772,191.108293 200.752933,191.163486 200.115001,191.163486" id="Fill-64" fill="#1F6FA4" mask="url(#mask-3)"></path>
                        <path d="M247.85576,104.835029 C245.603308,104.835029 243.411892,104.145125 241.533536,102.822481 C239.119632,101.125317 237.512988,98.5904135 237.005005,95.6809904 C236.888839,95.0127692 237.335785,94.3721442 238.007189,94.2558462 C238.670717,94.1415192 239.314556,94.5889712 239.430723,95.2591635 C239.824508,97.5181058 241.074777,99.4892596 242.947226,100.807962 C244.823613,102.124692 247.097723,102.635221 249.356082,102.24099 C250.021579,102.128635 250.663449,102.572144 250.779616,103.240365 C250.895782,103.912529 250.446867,104.549212 249.779401,104.667481 C249.135562,104.779837 248.493692,104.835029 247.85576,104.835029" id="Fill-65" fill="#1F6FA4" mask="url(#mask-3)"></path>
                        <path d="M200.115001,104.835029 C197.862549,104.835029 195.671133,104.145125 193.790808,102.822481 C191.378873,101.125317 189.77026,98.5904135 189.262277,95.6809904 C189.14808,95.0127692 189.595026,94.3721442 190.264461,94.2558462 C190.937834,94.1415192 191.571828,94.5889712 191.689964,95.2591635 C192.083749,97.5181058 193.332049,99.4892596 195.206467,100.807962 C197.080885,102.124692 199.354995,102.635221 201.615323,102.24099 C202.282789,102.128635 202.920721,102.572144 203.038856,103.240365 C203.155023,103.912529 202.706108,104.549212 202.038642,104.667481 C201.394803,104.779837 200.752933,104.835029 200.115001,104.835029" id="Fill-66" fill="#1F6FA4" mask="url(#mask-3)"></path>
                        <path d="M24.2999008,37.7542981 C22.6007172,37.7542981 21.2244376,36.3744904 21.2244376,34.6733846 L21.2244376,23.6999712 C21.2244376,21.9988654 22.6007172,20.6210288 24.2999008,20.6210288 C25.9990845,20.6210288 27.3753641,21.9988654 27.3753641,23.6999712 L27.3753641,34.6733846 C27.3753641,36.3744904 25.9990845,37.7542981 24.2999008,37.7542981" id="Fill-67" fill="#2992CC" mask="url(#mask-3)"></path>
                        <path d="M24.2999008,128.84112 C22.6007172,128.84112 21.2244376,127.461313 21.2244376,125.762178 L21.2244376,114.786793 C21.2244376,113.085687 22.6007172,111.707851 24.2999008,111.707851 C25.9990845,111.707851 27.3753641,113.085687 27.3753641,114.786793 L27.3753641,125.762178 C27.3753641,127.461313 25.9990845,128.84112 24.2999008,128.84112" id="Fill-68" fill="#2992CC" mask="url(#mask-3)"></path>
                        <path d="M24.2999008,105.241284 C22.6007172,105.241284 21.2244376,103.863447 21.2244376,102.162341 L21.2244376,47.2933029 C21.2244376,45.5921971 22.6007172,44.2123894 24.2999008,44.2123894 C25.9990845,44.2123894 27.3753641,45.5921971 27.3753641,47.2933029 L27.3753641,102.162341 C27.3753641,103.863447 25.9990845,105.241284 24.2999008,105.241284" id="Fill-69" fill="#2992CC" mask="url(#mask-3)"></path>
                        <path d="M47.6789347,213.706587 L21.3977031,213.706587 L21.3977031,194.474038 C21.3977031,192.772933 22.7759517,191.393125 24.4751353,191.393125 C26.1743189,191.393125 27.5505986,192.772933 27.5505986,194.474038 L27.5505986,207.546731 L47.6789347,207.546731 C49.3781184,207.546731 50.7563669,208.924567 50.7563669,210.627644 C50.7563669,212.32875 49.3781184,213.706587 47.6789347,213.706587" id="Fill-70" fill="#2992CC" mask="url(#mask-3)"></path>
                        <path d="M280.683475,34.2968942 C278.984292,34.2968942 277.606043,32.9170865 277.606043,31.2159808 L277.606043,17.778625 L257.408794,17.778625 C255.707642,17.778625 254.331362,16.4007885 254.331362,14.6996827 C254.331362,12.9966058 255.707642,11.6167981 257.408794,11.6167981 L283.758938,11.6167981 L283.758938,31.2159808 C283.758938,32.9170865 282.382659,34.2968942 280.683475,34.2968942" id="Fill-71" fill="#FFFFFF" mask="url(#mask-3)"></path>
                    </g>
                </g>
            </g>
        </g>
    </g>
</svg>