<?xml version="1.0" encoding="UTF-8"?>
<svg width="309px" height="365px" viewBox="0 0 309 365" version="1.1" xmlns="http://www.w3.org/2000/svg" xmlns:xlink="http://www.w3.org/1999/xlink">
    <!-- Generator: Sketch 49.3 (51167) - http://www.bohemiancoding.com/sketch -->
    <title>biotech-header-icon</title>
    <desc>Created with Sketch.</desc>
    <defs>
        <filter x="-11.2%" y="-241.0%" width="122.5%" height="582.0%" filterUnits="objectBoundingBox" id="filter-1">
            <feGaussianBlur stdDeviation="10.4436384" in="SourceGraphic"></feGaussianBlur>
        </filter>
    </defs>
    <g id="Desktop-UI" stroke="none" stroke-width="1" fill="none" fill-rule="evenodd">
        <g id="Biotech" transform="translate(-432.000000, -223.000000)">
            <g id="biotech-header-icon" transform="translate(447.000000, 184.000000)">
                <ellipse id="Oval-3" fill-opacity="0.3" fill="#1F6FA4" style="mix-blend-mode: multiply;" filter="url(#filter-1)" cx="139.5" cy="373.5" rx="139.5" ry="6.5"></ellipse>
                <g id="Icon/Free/Biotech" transform="translate(160.026707, 184.949451) scale(-1, 1) rotate(12.000000) translate(-160.026707, -184.949451) translate(36.423034, 23.061455)">
                    <g id="Page-1" transform="translate(123.134491, 162.463347) rotate(-17.000000) translate(-123.134491, -162.463347) translate(38.979624, 20.166050)">
                        <path d="M161.276977,278.81935 L142.110749,278.81935 C140.8863,278.81935 139.87793,277.86474 139.803503,276.64082 C138.401389,253.355078 114.40459,239.521654 78.3577721,221.345598 C43.3001172,203.667286 3.56794829,183.632507 3.56794829,142.307769 C3.56794829,98.939156 46.8366139,74.6915906 85.0154133,53.2982359 C110.77926,38.8612681 137.383415,23.9506024 139.556212,8.05406786 C139.717071,6.87823887 140.670221,5.97412497 141.856256,5.97412497 L161.080105,5.97412497 C162.422197,5.97412497 163.478584,7.11388558 163.401756,8.45562908 C161.699532,37.6084933 130.063131,55.3373013 96.6236698,74.0784283 C62.5623802,93.1658116 27.3414655,112.902426 27.3414655,142.307769 C27.3414655,167.108382 51.7728239,181.283253 89.0488923,200.077281 C123.311856,217.354032 162.057263,236.891067 163.596227,276.373914 C163.646646,277.703634 162.604664,278.81935 161.276977,278.81935" id="Fill-1" fill="#1F6FA4"></path>
                        <g id="Group-5" transform="translate(0.000000, 1.058006)" fill="#00587E">
                            <path d="M143.274936,274.189854 L159.968257,274.189854 C157.718632,237.642973 120.408951,218.829709 87.4448641,202.209402 C48.9851618,182.81664 23.7759181,168.095934 23.7759181,141.249042 C23.7759181,109.749329 59.9235726,89.4909253 94.8827914,69.9033938 C126.948949,51.9317254 157.264866,34.9411168 159.740173,8.48857153 L142.924407,8.48857153 C139.630399,25.7244451 112.759747,40.7841934 86.7558114,55.3558164 C49.4341264,76.270664 7.13301552,99.9772038 7.13301552,141.249042 C7.13301552,180.371204 45.8232024,199.88179 79.9589192,217.096022 C116.687587,235.61593 141.070928,249.687405 143.274936,274.189854 M161.276737,281.333796 L142.110509,281.333796 C139.008571,281.333796 136.430026,278.902788 136.242757,275.800908 C134.953484,254.378698 111.852214,241.177673 76.7537439,223.47772 C40.7765519,205.335328 0,184.771546 0,141.249042 C0,95.7884633 44.2410222,70.9974678 83.2745349,49.1232014 C107.093669,35.7754985 134.091568,20.646018 136.021876,6.51202465 C136.425224,3.5664408 138.934144,1.34462897 141.856015,1.34462897 L161.079864,1.34462897 C162.690855,1.34462897 164.251427,2.02030984 165.358233,3.19613883 C166.472242,4.37677693 167.055656,5.98302184 166.95962,7.6036941 C165.146956,38.7114642 132.708661,56.8899245 98.3664688,76.1360088 C65.2007077,94.7208395 30.9065327,113.938069 30.9065327,141.249042 C30.9065327,164.000972 54.5624068,177.630008 90.6500394,195.827705 C125.753311,213.527658 165.538299,233.588887 167.158893,275.178127 C167.221316,276.784372 166.621096,278.37138 165.51189,279.527973 C164.393079,280.691779 162.890128,281.333796 161.276737,281.333796" id="Fill-3"></path>
                        </g>
                        <path d="M25.0995234,278.81935 L5.93329561,278.81935 C4.60560877,278.81935 3.56122582,277.703634 3.61404519,276.373914 C5.15060861,236.891067 43.8960157,217.354032 78.16138,200.077281 C115.435047,181.283253 139.868807,167.108382 139.868807,142.307769 C139.868807,112.902426 104.647892,93.1658116 70.5842017,74.0784283 C37.1447402,55.3373013 5.50833979,37.6084933 3.8085165,8.45562908 C3.72928745,7.11388558 4.78807568,5.97412497 6.1301678,5.97412497 L25.3516159,5.97412497 C26.5376508,5.97412497 27.4908003,6.87823887 27.6516593,8.05406786 C29.824456,23.9506024 56.4286111,38.8612681 82.1924582,53.2982359 C120.371257,74.6915906 163.642324,98.939156 163.642324,142.307769 C163.642324,183.632507 123.907754,203.667286 88.8525002,221.345598 C52.8056827,239.521654 28.8064827,253.355078 27.4043686,276.64082 C27.3323422,277.86474 26.3239724,278.81935 25.0995234,278.81935" id="Fill-6" fill="#96D1F2"></path>
                        <g id="Group-10" transform="translate(0.000000, 1.058006)" fill="#00587E">
                            <path d="M7.24081505,274.189854 L23.9341361,274.189854 C26.1357434,249.685 50.5166833,235.61593 87.2477518,217.096022 C121.38587,199.88179 160.076056,180.371204 160.076056,141.249042 C160.076056,99.9772038 117.774945,76.270664 80.4508595,55.3558164 C54.4493254,40.7841934 27.5762716,25.7268496 24.2870655,8.48857153 L7.4664978,8.48857153 C9.93940456,34.9411168 40.2577216,51.9317254 72.3262804,69.9033938 C107.285499,89.4909253 143.435555,109.749329 143.435555,141.249042 C143.435555,168.095934 118.22391,182.81664 79.7642078,202.209402 C46.8025214,218.829709 9.49043993,237.645377 7.24081505,274.189854 M25.0985631,281.333796 L5.93233526,281.333796 C4.31894366,281.333796 2.81599256,280.691779 1.69718232,279.527973 C0.587975598,278.37138 -0.0122444898,276.784372 0.0501783993,275.175722 C1.67077264,233.588887 41.45336,213.527658 76.5566316,195.827705 C112.644264,177.630008 136.302539,164.000972 136.302539,141.249042 C136.302539,113.938069 102.008364,94.7208395 68.8426031,76.1360088 C34.5004105,56.8899245 2.06211613,38.7114642 0.247050588,7.6036941 C0.153416254,5.98302184 0.736830179,4.37677693 1.84843778,3.19613883 C2.9576445,2.02030984 4.51581585,1.34462897 6.12920744,1.34462897 L25.3530564,1.34462897 C28.2749278,1.34462897 30.7838478,3.5664408 31.1871957,6.50962009 C33.1151026,20.646018 60.1130021,35.7754985 83.9345369,49.1232014 C122.96805,70.9974678 167.209072,95.7884633 167.209072,141.249042 C167.209072,184.771546 126.434921,205.335328 90.4577288,223.475315 C55.3568581,241.177673 32.2555874,254.378698 30.9663147,275.798503 C30.7766451,278.902788 28.2005005,281.333796 25.0985631,281.333796" id="Fill-8"></path>
                        </g>
                        <path d="M106.035601,112.889682 L59.9939184,112.889682 C57.6986768,112.889682 55.8355937,111.023744 55.8355937,108.722582 C55.8355937,106.42142 57.6986768,104.555483 59.9939184,104.555483 L106.035601,104.555483 C108.333243,104.555483 110.196327,106.42142 110.196327,108.722582 C110.196327,111.023744 108.333243,112.889682 106.035601,112.889682" id="Fill-11" fill="#FF385E"></path>
                        <path d="M119.392659,22.0764897 L49.0396618,22.0764897 C46.7420193,22.0764897 44.8789361,20.2105525 44.8789361,17.9093903 C44.8789361,15.6082281 46.7420193,13.7422909 49.0396618,13.7422909 L119.392659,13.7422909 C121.6879,13.7422909 123.550983,15.6082281 123.550983,17.9093903 C123.550983,20.2105525 121.6879,22.0764897 119.392659,22.0764897" id="Fill-13" fill="#FF385E"></path>
                        <path d="M127.439449,140.459866 L39.8145191,140.459866 C37.5168766,140.459866 35.6537935,138.596333 35.6537935,136.292766 C35.6537935,133.991604 37.5168766,132.125667 39.8145191,132.125667 L127.439449,132.125667 C129.737092,132.125667 131.600175,133.991604 131.600175,136.292766 C131.600175,138.596333 129.737092,140.459866 127.439449,140.459866" id="Fill-15" fill="#00587E"></path>
                        <path d="M95.5996943,37.0886278 L72.8345468,37.0886278 C70.5369043,37.0886278 68.6714203,35.2226906 68.6714203,32.9215284 C68.6714203,30.6203661 70.5369043,28.7544289 72.8345468,28.7544289 L95.5996943,28.7544289 C97.8949359,28.7544289 99.7580191,30.6203661 99.7580191,32.9215284 C99.7580191,35.2226906 97.8949359,37.0886278 95.5996943,37.0886278" id="Fill-17" fill="#00587E"></path>
                        <path d="M121.207484,269.708478 L45.4284976,269.708478 C43.1284542,269.708478 41.267772,267.842541 41.267772,265.541379 C41.267772,263.240217 43.1284542,261.374279 45.4284976,261.374279 L121.207484,261.374279 C123.505127,261.374279 125.36821,263.240217 125.36821,265.541379 C125.36821,267.842541 123.505127,269.708478 121.207484,269.708478" id="Fill-19" fill="#FF385E"></path>
                        <path d="M97.7801738,250.659808 L68.8543674,250.659808 C66.5567249,250.659808 64.6960426,248.793871 64.6960426,246.492709 C64.6960426,244.191547 66.5567249,242.325609 68.8543674,242.325609 L97.7801738,242.325609 C100.077816,242.325609 101.940899,244.191547 101.940899,246.492709 C101.940899,248.793871 100.077816,250.659808 97.7801738,250.659808" id="Fill-21" fill="#00587E"></path>
                        <path d="M117.101979,168.032454 L52.6743545,168.032454 C50.376712,168.032454 48.5160298,166.166517 48.5160298,163.865355 C48.5160298,161.564192 50.376712,159.698255 52.6743545,159.698255 L117.101979,159.698255 C119.399621,159.698255 121.260303,161.564192 121.260303,163.865355 C121.260303,166.166517 119.399621,168.032454 117.101979,168.032454" id="Fill-23" fill="#FF385E"></path>
                    </g>
                </g>
            </g>
        </g>
    </g>
</svg>