<?xml version="1.0" encoding="UTF-8"?>
<svg width="272px" height="272px" viewBox="0 0 272 272" version="1.1" xmlns="http://www.w3.org/2000/svg" xmlns:xlink="http://www.w3.org/1999/xlink">
    <!-- Generator: Sketch 49.3 (51167) - http://www.bohemiancoding.com/sketch -->
    <title>Icon/Industry/Biotechnology</title>
    <desc>Created with Sketch.</desc>
    <defs>
        <circle id="path-1" cx="102.5" cy="102.5" r="102.5"></circle>
        <filter x="-25.4%" y="-24.4%" width="150.7%" height="150.7%" filterUnits="objectBoundingBox" id="filter-2">
            <feOffset dx="0" dy="2" in="SourceAlpha" result="shadowOffsetOuter1"></feOffset>
            <feGaussianBlur stdDeviation="17" in="shadowOffsetOuter1" result="shadowBlurOuter1"></feGaussianBlur>
            <feColorMatrix values="0 0 0 0 0.11   0 0 0 0 0.392   0 0 0 0 0.549  0 0 0 0.0535552536 0" type="matrix" in="shadowBlurOuter1"></feColorMatrix>
        </filter>
    </defs>
    <g id="Desktop-UI" stroke="none" stroke-width="1" fill="none" fill-rule="evenodd">
        <g id="Icon/Industry/Biotechnology" transform="translate(33.583024, 31.258267)">
            <g id="Group-8-Copy">
                <g id="Oval">
                    <use fill="black" fill-opacity="1" filter="url(#filter-2)" xlink:href="#path-1"></use>
                    <use fill="#FFFFFF" fill-rule="evenodd" xlink:href="#path-1"></use>
                </g>
            </g>
            <g id="Icon/Free/Biotech" transform="translate(46.000000, 28.000000)">
                <g id="Page-1" transform="translate(56.332783, 74.211652) rotate(-17.000000) translate(-56.332783, -74.211652) translate(17.832783, 9.211652)">
                    <path d="M73.7825845,127.361925 L65.0142292,127.361925 C64.4540562,127.361925 63.9927373,126.925869 63.9586875,126.366794 C63.3172345,115.730097 52.3389418,109.411126 35.8478876,101.108483 C19.8093654,93.0332047 1.63230023,83.8815154 1.63230023,65.0047832 C1.63230023,45.1944293 21.4272768,34.1183809 38.8936911,24.3461077 C50.6803903,17.7514435 62.8515221,10.9403986 63.8455546,3.67901865 C63.9191459,3.14191158 64.3552022,2.72892128 64.8978011,2.72892128 L73.6925174,2.72892128 C74.306511,2.72892128 74.7897975,3.24955267 74.7546494,3.86244785 C73.9758991,17.1791883 59.5025661,25.2775327 44.2043509,33.8382944 C28.6216557,42.5572226 12.5084437,51.572713 12.5084437,65.0047832 C12.5084437,76.3334586 23.6855429,82.8083996 40.7389669,91.3933257 C56.4139259,99.2851749 74.1395575,108.2095 74.8436181,126.244874 C74.866684,126.852277 74.3899878,127.361925 73.7825845,127.361925" id="Fill-1" fill="#1F6FA4"></path>
                    <g id="Group-5" transform="translate(0.000000, 0.483287)" fill="#00587E">
                        <path d="M65.546833,125.247217 L73.1838584,125.247217 C72.1546778,108.552963 55.0858765,99.9592498 40.0051403,92.3672579 C22.4102157,83.5088356 10.8772419,76.7845626 10.8772419,64.5211671 C10.8772419,50.1324093 27.414428,40.8785708 43.4079167,31.9311799 C58.0778594,23.7218993 71.9470842,15.9607571 73.0795124,3.87749564 L65.3864697,3.87749564 C63.8794945,11.7506724 51.5864427,18.6298167 39.6899056,25.2859902 C22.6156125,34.839686 3.2632824,45.6685993 3.2632824,64.5211671 C3.2632824,82.3917847 20.9636513,91.3040275 36.5803962,99.1673189 C53.3833899,107.62703 64.5385215,114.054741 65.546833,125.247217 M73.7824746,128.510499 L65.0141194,128.510499 C63.5950144,128.510499 62.415356,127.400039 62.3296824,125.983131 C61.7398532,116.197677 51.1712557,110.167579 35.114061,102.082415 C18.6548598,93.7951499 0,84.4018173 0,64.5211671 C0,43.755224 20.2398199,32.4309421 38.0972569,22.4389932 C48.9942696,16.3418944 61.3455353,9.43089713 62.2286316,2.97462854 C62.4131592,1.62911493 63.5609647,0.614213235 64.8976913,0.614213235 L73.6924076,0.614213235 C74.4294196,0.614213235 75.1433656,0.922857582 75.649718,1.45996465 C76.1593656,1.99926847 76.4262716,2.73298528 76.3823365,3.47329236 C75.5530607,17.6830145 60.7128694,25.9867557 45.0016639,34.7781768 C29.8286638,43.267544 14.1394259,52.0457846 14.1394259,64.5211671 C14.1394259,74.9140241 24.9617489,81.1396332 41.4714755,89.4521614 C57.530867,97.5373253 75.7320964,106.701097 76.4735019,125.698651 C76.5020597,126.432367 76.2274651,127.157297 75.7200142,127.685617 C75.2081699,128.217232 74.520585,128.510499 73.7824746,128.510499" id="Fill-3"></path>
                    </g>
                    <path d="M11.4827779,127.361925 L2.71442269,127.361925 C2.1070194,127.361925 1.62922477,126.852277 1.6533891,126.244874 C2.35635131,108.2095 20.0819829,99.2851749 35.7580403,91.3933257 C52.8103659,82.8083996 63.9885634,76.3334586 63.9885634,65.0047832 C63.9885634,51.572713 47.8753514,42.5572226 32.2915578,33.8382944 C16.9933427,25.2775327 2.5200097,17.1791883 1.74235775,3.86244785 C1.70611126,3.24955267 2.19049616,2.72892128 2.80448972,2.72892128 L11.5981077,2.72892128 C12.1407066,2.72892128 12.5767629,3.14191158 12.6503542,3.67901865 C13.6443867,10.9403986 25.8155184,17.7514435 37.6022177,24.3461077 C55.068632,34.1183809 74.8647069,45.1944293 74.8647069,65.0047832 C74.8647069,83.8815154 56.6865434,93.0332047 40.6491195,101.108483 C24.1580654,109.411126 13.1786743,115.730097 12.5372213,126.366794 C12.5042699,126.925869 12.0429509,127.361925 11.4827779,127.361925" id="Fill-6" fill="#96D1F2"></path>
                    <g id="Group-10" transform="translate(0.000000, 0.483287)" fill="#00587E">
                        <path d="M3.3125996,125.247217 L10.949625,125.247217 C11.9568381,114.053642 23.1108713,107.62703 39.9149634,99.1673189 C55.5328067,91.3040275 73.2331756,82.3917847 73.2331756,64.5211671 C73.2331756,45.6685993 53.8808455,34.839686 36.805454,25.2859902 C24.9100152,18.6298167 12.6158651,11.7517708 11.1110867,3.87749564 L3.41584717,3.87749564 C4.54717698,15.9607571 18.4175002,23.7218993 33.0885413,31.9311799 C49.08203,40.8785708 65.6203145,50.1324093 65.6203145,64.5211671 C65.6203145,76.7845626 54.0862423,83.5088356 36.4913177,92.3672579 C21.4116799,99.9592498 4.34178021,108.554061 3.3125996,125.247217 M11.4823386,128.510499 L2.71398334,128.510499 C1.97587301,128.510499 1.2882881,128.217232 0.776443733,127.685617 C0.268992885,127.157297 -0.00560173014,126.432367 0.0229561098,125.697552 C0.76436157,106.701097 18.9644926,97.5373253 35.0238841,89.4521614 C51.5336107,81.1396332 62.3570321,74.9140241 62.3570321,64.5211671 C62.3570321,52.0457846 46.6677942,43.267544 31.4947941,34.7781768 C15.7835886,25.9867557 0.943397259,17.6830145 0.113023143,3.47329236 C0.0701863836,2.73298528 0.337092349,1.99926847 0.845641576,1.45996465 C1.35309242,0.922857582 2.06594004,0.614213235 2.80405037,0.614213235 L11.5987667,0.614213235 C12.9354933,0.614213235 14.0832988,1.62911493 14.2678264,2.97353017 C15.1498243,9.43089713 27.50109,16.3418944 38.3992011,22.4389932 C56.2566381,32.4309421 76.496458,43.755224 76.496458,64.5211671 C76.496458,84.4018173 57.8426966,93.7951499 41.3834954,102.081317 C25.3252023,110.167579 14.7566048,116.197677 14.1667755,125.982032 C14.0800036,127.400039 12.9014435,128.510499 11.4823386,128.510499" id="Fill-8"></path>
                    </g>
                    <path d="M48.5102142,51.5668916 L27.4466105,51.5668916 C26.3965607,51.5668916 25.544219,50.7145499 25.544219,49.6634017 C25.544219,48.6122535 26.3965607,47.7599119 27.4466105,47.7599119 L48.5102142,47.7599119 C49.5613624,47.7599119 50.4137041,48.6122535 50.4137041,49.6634017 C50.4137041,50.7145499 49.5613624,51.5668916 48.5102142,51.5668916" id="Fill-11" fill="#FF385E"></path>
                    <path d="M54.6209329,10.0843225 L22.4351489,10.0843225 C21.3840007,10.0843225 20.531659,9.23198079 20.531659,8.1808326 C20.531659,7.12968442 21.3840007,6.27734273 22.4351489,6.27734273 L54.6209329,6.27734273 C55.6709827,6.27734273 56.5233244,7.12968442 56.5233244,8.1808326 C56.5233244,9.23198079 55.6709827,10.0843225 54.6209329,10.0843225" id="Fill-13" fill="#FF385E"></path>
                    <path d="M58.3022581,64.1606793 L18.2147395,64.1606793 C17.1635913,64.1606793 16.3112496,63.309436 16.3112496,62.2571895 C16.3112496,61.2060413 17.1635913,60.3536996 18.2147395,60.3536996 L58.3022581,60.3536996 C59.3534063,60.3536996 60.205748,61.2060413 60.205748,62.2571895 C60.205748,63.309436 59.3534063,64.1606793 58.3022581,64.1606793" id="Fill-15" fill="#00587E"></path>
                    <path d="M43.7358925,16.9417189 L33.321068,16.9417189 C32.2699198,16.9417189 31.4164797,16.0893772 31.4164797,15.038229 C31.4164797,13.9870808 32.2699198,13.1347391 33.321068,13.1347391 L43.7358925,13.1347391 C44.7859423,13.1347391 45.638284,13.9870808 45.638284,15.038229 C45.638284,16.0893772 44.7859423,16.9417189 43.7358925,16.9417189" id="Fill-17" fill="#00587E"></path>
                    <path d="M55.4511972,123.200169 L20.7830779,123.200169 C19.7308313,123.200169 18.879588,122.347827 18.879588,121.296679 C18.879588,120.245531 19.7308313,119.393189 20.7830779,119.393189 L55.4511972,119.393189 C56.5023454,119.393189 57.3546871,120.245531 57.3546871,121.296679 C57.3546871,122.347827 56.5023454,123.200169 55.4511972,123.200169" id="Fill-19" fill="#FF385E"></path>
                    <path d="M44.7334398,114.498925 L31.5001762,114.498925 C30.449028,114.498925 29.5977847,113.646583 29.5977847,112.595435 C29.5977847,111.544287 30.449028,110.691945 31.5001762,110.691945 L44.7334398,110.691945 C45.784588,110.691945 46.6369297,111.544287 46.6369297,112.595435 C46.6369297,113.646583 45.784588,114.498925 44.7334398,114.498925" id="Fill-21" fill="#00587E"></path>
                    <path d="M53.57297,76.7555655 L24.0979841,76.7555655 C23.0468359,76.7555655 22.1955926,75.9032238 22.1955926,74.8520756 C22.1955926,73.8009274 23.0468359,72.9485857 24.0979841,72.9485857 L53.57297,72.9485857 C54.6241182,72.9485857 55.4753615,73.8009274 55.4753615,74.8520756 C55.4753615,75.9032238 54.6241182,76.7555655 53.57297,76.7555655" id="Fill-23" fill="#FF385E"></path>
                </g>
            </g>
        </g>
    </g>
</svg>