<?xml version="1.0" encoding="UTF-8"?>
<svg width="272px" height="272px" viewBox="0 0 272 272" version="1.1" xmlns="http://www.w3.org/2000/svg" xmlns:xlink="http://www.w3.org/1999/xlink">
    <!-- Generator: Sketch 49.3 (51167) - http://www.bohemiancoding.com/sketch -->
    <title>Icon/Industry/Chemical</title>
    <desc>Created with Sketch.</desc>
    <defs>
        <circle id="path-1" cx="102.5" cy="102.5" r="102.5"></circle>
        <filter x="-25.4%" y="-24.4%" width="150.7%" height="150.7%" filterUnits="objectBoundingBox" id="filter-2">
            <feOffset dx="0" dy="2" in="SourceAlpha" result="shadowOffsetOuter1"></feOffset>
            <feGaussianBlur stdDeviation="17" in="shadowOffsetOuter1" result="shadowBlurOuter1"></feGaussianBlur>
            <feColorMatrix values="0 0 0 0 0.11   0 0 0 0 0.392   0 0 0 0 0.549  0 0 0 0.0535552536 0" type="matrix" in="shadowBlurOuter1"></feColorMatrix>
        </filter>
        <polygon id="path-3" points="0.201761553 0.0214944668 91.7169292 0.0214944668 91.7169292 83.629459 0.201761553 83.629459"></polygon>
        <polygon id="path-5" points="0 0.643870719 91.832632 0.643870719 91.832632 93.3504533 0 93.3504533"></polygon>
    </defs>
    <g id="Desktop-UI" stroke="none" stroke-width="1" fill="none" fill-rule="evenodd">
        <g id="Icon/Industry/Chemical" transform="translate(33.276322, 31.555670)">
            <g id="Group-8-Copy">
                <g id="Oval">
                    <use fill="black" fill-opacity="1" filter="url(#filter-2)" xlink:href="#path-1"></use>
                    <use fill="#FFFFFF" fill-rule="evenodd" xlink:href="#path-1"></use>
                </g>
            </g>
            <g id="Icon/Free/Chemical" transform="translate(29.000000, 53.000000)">
                <g id="Page-1" transform="translate(0.000000, 0.658307)">
                    <g id="Group-3" transform="translate(54.948083, 0.000000)">
                        <mask id="mask-4" fill="white">
                            <use xlink:href="#path-3"></use>
                        </mask>
                        <g id="Clip-2"></g>
                        <path d="M90.7352158,0.0214944668 L81.6316139,0.0214944668 C81.3311796,0.0214944668 81.0484179,0.15817723 80.8628555,0.392962945 L66.9876496,17.8949703 C66.6883198,18.2730525 66.1625597,18.3722577 65.7406262,18.137472 C57.892884,13.7548053 48.2138178,11.1688556 37.747216,11.1688556 C24.5038058,11.1688556 12.5328234,15.3057138 3.92515903,21.9756122 C2.7167945,22.9114482 1.56807502,23.8979891 0.498882266,24.9363372 C0.307797198,25.1215203 0.201761553,25.3772494 0.201761553,25.6440012 L0.201761553,28.1131092 C0.201761553,28.277349 0.242629458,28.4382819 0.322156191,28.5826806 L0.323260729,28.5837829 C0.641367663,29.1657869 1.43553046,29.2705035 1.8906001,28.7866025 C2.5334412,28.1031887 3.21494112,27.4374113 3.92515903,26.7947819 C11.9562546,19.5296521 24.1382038,14.8846427 37.747216,14.8846427 C47.5643495,14.8846427 56.8479911,17.2633637 64.5941158,21.7595652 L66.65187,22.9555394 C67.072699,23.2002457 67.610609,23.0988359 67.9143569,22.7163446 L69.3911242,20.8545931 L82.6621478,4.10875 C82.8477102,3.87396429 83.1315765,3.73728153 83.4320108,3.73728153 L84.8767464,3.73728153 C85.5958007,3.73728153 86.0696474,4.48242304 85.764795,5.13056389 L75.2926705,27.4385136 L74.579139,28.9530468 C74.4222946,29.2848332 74.4664761,29.677245 74.6929064,29.968247 L75.714604,31.2843697 C79.4998556,36.1773922 81.4990693,41.7450103 81.4990693,47.3986062 C81.4990693,53.4743755 79.2391847,59.1720626 75.3169704,64.0397326 C74.2753911,65.3404234 73.1078944,66.5860002 71.8365712,67.7555197 C63.8054757,75.1694573 51.5108636,79.9136719 37.747216,79.9136719 C35.9655963,79.9136719 34.2160082,79.8321032 32.4918244,79.6777839 C31.6037759,79.599522 30.7256682,79.5014191 29.8575014,79.3834751 C29.0633386,79.2743493 28.4878743,80.1153892 28.871149,80.8175418 L29.9127283,82.7222823 C30.0651545,83.0033638 30.3446026,83.1951605 30.6638141,83.2304335 C31.9594371,83.3781391 33.2782554,83.4828557 34.6070146,83.5478903 C35.6430712,83.6041066 36.6923823,83.629459 37.747216,83.629459 C54.0800189,83.629459 68.4842985,77.3365405 77.0245861,67.7555197 C78.0727926,66.5793865 79.0348452,65.3536508 79.8963848,64.0838238 C83.2983617,59.0915961 85.2224668,53.4126478 85.2224668,47.3986062 C85.2224668,40.8786179 82.9681048,34.7675757 79.0182771,29.4854482 C78.8017876,29.1966508 78.7576061,28.8141595 78.9122414,28.4867822 L91.6232643,1.41477683 C91.9281168,0.766635983 91.4531655,0.0214944668 90.7352158,0.0214944668" id="Fill-1" fill="#00587E" mask="url(#mask-4)"></path>
                    </g>
                    <path d="M98.1859185,65.7575417 L98.1859185,94.5827655" id="Fill-4" fill="#005F9E"></path>
                    <path d="M98.1859185,42.3370474 C98.1859185,43.829602 96.9771595,45.0394121 95.4846048,45.0394121 C93.9920502,45.0394121 92.781189,43.829602 92.781189,42.3370474 C92.781189,40.8444928 93.9920502,39.6346827 95.4846048,39.6346827 C96.9771595,39.6346827 98.1859185,40.8444928 98.1859185,42.3370474" id="Fill-6" fill="#FF385E"></path>
                    <path d="M81.9717301,33.7795591 C81.9717301,35.521278 80.5598541,36.932318 78.8184328,36.932318 C77.0780884,36.932318 75.6662124,35.521278 75.6662124,33.7795591 C75.6662124,32.0378403 77.0780884,30.6268003 78.8184328,30.6268003 C80.5598541,30.6268003 81.9717301,32.0378403 81.9717301,33.7795591" id="Fill-8" fill="#FF385E"></path>
                    <path d="M131.515083,47.7849944 C131.515083,53.9394237 128.961242,59.6436892 124.614184,64.3205735 C123.395858,65.637111 122.036021,66.8747876 120.545727,68.012793 C113.656989,73.2931816 102.89769,76.5670006 92.3263348,76.5670006 C89.8034492,76.5670006 87.3380527,76.3818968 84.9522565,76.0248326 C83.3182403,75.7794878 81.7284465,75.4585681 80.1751362,75.0653593 L76.300152,68.012793 L74.2626069,64.3205735 L65.7575417,45.3786443 C66.483894,44.2526872 80.3321256,49.1212471 93.5568219,49.1212471 C109.654866,49.1212471 123.118363,26.3863318 128.652791,37.0993542 C130.333241,40.3490769 131.515083,44.0829173 131.515083,47.7849944" id="Fill-10" fill="#FF385E"></path>
                    <path d="M108.71938,70.2614829 C107.982303,70.2614829 107.334469,69.7209646 107.213275,68.9620099 C107.079962,68.1205844 107.645165,67.3281956 108.478095,67.1922302 C119.80308,65.3466664 121.255198,55.4835992 121.269521,55.3832969 C121.381901,54.538528 122.150929,53.9467439 122.987164,54.0615344 C123.822298,54.1763249 124.407332,54.9542256 124.294953,55.7989945 C124.277324,55.9215863 122.497983,68.0347701 108.963971,70.2414225 C108.881339,70.2547961 108.799809,70.2614829 108.71938,70.2614829" id="Fill-12" fill="#FFFFFF"></path>
                    <path d="M89.178036,55.8488711 C89.178036,57.3414257 87.969277,58.5512358 86.4767224,58.5512358 C84.9841678,58.5512358 83.7733066,57.3414257 83.7733066,55.8488711 C83.7733066,54.3563164 84.9841678,53.1465063 86.4767224,53.1465063 C87.969277,53.1465063 89.178036,54.3563164 89.178036,55.8488711" id="Fill-14" fill="#FFFFFF"></path>
                    <path d="M121.606413,65.7575417 L133.31666,94.5827655" id="Fill-16" fill="#005F9E"></path>
                    <path d="M133.295324,97.2851302 C132.576409,97.2851302 131.895333,96.8437424 131.606686,96.1136692 L119.939735,66.5429158 C119.560278,65.5810025 120.008924,64.4853353 120.939729,64.0941052 C121.875939,63.7051043 122.935391,64.1654406 123.315929,65.1262393 L134.983961,94.6981073 C135.362337,95.658906 134.913691,96.7545732 133.981806,97.1458033 C133.756942,97.2405456 133.524511,97.2851302 133.295324,97.2851302" id="Fill-18" fill="#00587E"></path>
                    <path d="M136.019025,65.7575417 C136.019025,66.7544995 135.186307,67.5591182 134.169271,67.5591182 L76.787426,67.5591182 L74.7654242,63.9559652 L134.169271,63.9559652 C134.305315,63.9559652 134.434776,63.9687878 134.557654,63.9987073 C135.390372,64.172881 136.019025,64.8994955 136.019025,65.7575417" id="Fill-20" fill="#005F9E"></path>
                    <path d="M98.1859185,97.2851302 C97.1900292,97.2851302 96.384342,96.4446837 96.384342,95.4058295 L96.384342,65.8341514 C96.384342,64.7964117 97.1900292,63.9559652 98.1859185,63.9559652 C99.1807392,63.9559652 99.987495,64.7964117 99.987495,65.8341514 L99.987495,95.4058295 C99.987495,96.4446837 99.1807392,97.2851302 98.1859185,97.2851302" id="Fill-22" fill="#00587E"></path>
                    <path d="M90.6140442,90.5424184 L86.0283937,95.1192253 C85.7942848,95.3528827 85.4769617,95.4835537 85.1463245,95.4835537 L7.6329656,95.4835537 C7.30232833,95.4835537 6.98611483,95.3528827 6.75200589,95.1192253 L2.16635544,90.5424184 C1.77580403,90.1526202 1.68926139,89.5513121 1.9533274,89.0662791 L35.0170544,28.5667167 C35.1169113,28.3839988 35.1690588,28.1791332 35.1690588,27.9709455 L35.1690588,12.858513 C35.1690588,12.1708292 34.6109697,11.6138164 33.9219571,11.6138164 L30.7065651,11.6138164 C30.0175526,11.6138164 29.4594635,11.0568036 29.4594635,10.3702272 L29.4594635,6.64942604 C29.4594635,5.96284963 30.0175526,5.40472946 30.7065651,5.40472946 L61.8752302,5.40472946 C62.5642428,5.40472946 63.1223318,5.96284963 63.1223318,6.64942604 L63.1223318,10.3702272 C63.1223318,11.0568036 62.5642428,11.6138164 61.8752302,11.6138164 L58.8584425,11.6138164 C58.1694299,11.6138164 57.6113408,12.1708292 57.6113408,12.858513 L57.6113408,27.9709455 C57.6113408,28.1791332 57.6634883,28.3839988 57.7633452,28.5667167 L90.8270722,89.0662791 C91.0922477,89.5513121 91.0057051,90.1526202 90.6140442,90.5424184" id="Fill-24" fill="#FFFFFF"></path>
                    <g id="Group-28" transform="translate(0.000000, 3.603153)">
                        <mask id="mask-6" fill="white">
                            <use xlink:href="#path-5"></use>
                        </mask>
                        <g id="Clip-27"></g>
                        <path d="M7.45275946,90.2964208 L84.3794105,90.2964208 L88.7058857,85.9782327 L55.894481,25.9545367 C55.6735734,25.550051 55.5564924,25.0926625 55.5564924,24.6297633 L55.5564924,9.58884634 C55.5564924,8.06348332 56.8002021,6.8235748 58.3288826,6.8235748 L61.0427324,6.8235748 L61.0427324,3.69790318 L30.5917253,3.69790318 L30.5917253,6.8235748 L33.5043919,6.8235748 C35.0330724,6.8235748 36.2767822,8.06348332 36.2767822,9.58884634 L36.2767822,24.6297633 C36.2767822,25.0926625 36.1585966,25.550051 35.937689,25.9556388 L3.12628425,85.9782327 L7.45275946,90.2964208 Z M84.4987006,93.3504533 L7.3345739,93.3504533 C6.59453346,93.3504533 5.89757001,93.0627945 5.37401901,92.5414818 L0.808963605,87.9852313 C-0.054785083,87.1244593 -0.250288303,85.7754388 0.335116818,84.70526 L33.2150029,24.557022 L33.2150029,9.87760725 L30.3023363,9.87760725 C28.7747603,9.87760725 27.5310506,8.63659659 27.5310506,7.11123357 L27.5310506,3.40914226 C27.5310506,1.88488138 28.7747603,0.643870719 30.3023363,0.643870719 L61.3310168,0.643870719 C62.8596974,0.643870719 64.1034071,1.88488138 64.1034071,3.40914226 L64.1034071,7.11123357 C64.1034071,8.63659659 62.8596974,9.87760725 61.3310168,9.87760725 L58.617167,9.87760725 L58.617167,24.557022 L91.4981577,84.70526 C92.0824583,85.7754388 91.8869551,87.1244593 91.0232064,87.9852313 L91.0232064,87.9863335 L86.458151,92.5414818 C85.9357045,93.0627945 85.2398456,93.3504533 84.4987006,93.3504533 Z" id="Fill-26" fill="#00587E" mask="url(#mask-6)"></path>
                    </g>
                    <path d="M59.8213271,48.3916945 L78.8682578,83.4483122 C80.0492246,85.6247494 78.4808217,88.2772478 76.0124255,88.2772478 L14.9676384,88.2772478 C12.4992422,88.2772478 10.9297418,85.6247494 12.1118061,83.4483122 L24.2968369,61.0216422 L32.1388514,46.5855271 C32.4604343,45.9926546 33.1946971,45.7689499 33.7917658,46.0808141 C36.2458938,47.3646365 42.584261,50.3190812 48.9621401,50.3190812 C54.0536874,50.3190812 56.70757,48.985669 57.9818287,47.9850589 C58.579995,47.5167117 59.4591347,47.7238864 59.8213271,48.3916945" id="Fill-29" fill="#96D1F2"></path>
                    <path d="M29.1892105,85.5748831 L19.8781358,85.5748831 C18.8928137,85.5748831 18.0042642,85.0685263 17.5028056,84.2205709 C17.001347,83.3737138 16.9848516,82.3522132 17.4610174,81.4899787 L28.6679575,61.142344 C29.0748427,60.4053257 29.9985823,60.1362207 30.7386736,60.5415258 C31.4754659,60.9479293 31.7437902,61.8727719 31.3391043,62.6097901 L20.3663982,82.5312504 L29.1892105,82.5312504 C30.031573,82.5312504 30.7133807,83.2122508 30.7133807,84.0525175 C30.7133807,84.8927842 30.031573,85.5748831 29.1892105,85.5748831" id="Fill-31" fill="#FFFFFF"></path>
                    <path d="M41.7257944,84.6740948 L35.7419945,84.6740948 C34.9074263,84.6740948 34.2299532,84.0684765 34.2299532,83.3224248 C34.2299532,82.5763732 34.9074263,81.9717301 35.7419945,81.9717301 L41.7257944,81.9717301 C42.5614535,81.9717301 43.2378357,82.5763732 43.2378357,83.3224248 C43.2378357,84.0684765 42.5614535,84.6740948 41.7257944,84.6740948" id="Fill-33" fill="#FFFFFF"></path>
                    <path d="M53.1465063,40.5354709 C53.1465063,42.5254476 51.5330903,44.1386239 49.5438887,44.1386239 C47.5525458,44.1386239 45.9402004,42.5254476 45.9402004,40.5354709 C45.9402004,38.5454943 47.5525458,36.932318 49.5438887,36.932318 C51.5330903,36.932318 53.1465063,38.5454943 53.1465063,40.5354709" id="Fill-35" fill="#96D1F2"></path>
                </g>
            </g>
        </g>
    </g>
</svg>