<?xml version="1.0" encoding="UTF-8"?>
<svg width="323px" height="294px" viewBox="0 0 323 294" version="1.1" xmlns="http://www.w3.org/2000/svg" xmlns:xlink="http://www.w3.org/1999/xlink">
    <!-- Generator: Sketch 49.3 (51167) - http://www.bohemiancoding.com/sketch -->
    <title>chemicals-header-icon</title>
    <desc>Created with Sketch.</desc>
    <defs>
        <filter x="-12.0%" y="-261.1%" width="123.9%" height="622.2%" filterUnits="objectBoundingBox" id="filter-1">
            <feGaussianBlur stdDeviation="10.4436384" in="SourceGraphic"></feGaussianBlur>
        </filter>
        <polygon id="path-2" points="0.426856075 0.0453772077 194.040578 0.0453772077 194.040578 176.55108 0.426856075 176.55108"></polygon>
        <polygon id="path-4" points="0 1.35928263 194.285364 1.35928263 194.285364 197.073179 0 197.073179"></polygon>
    </defs>
    <g id="Desktop-UI" stroke="none" stroke-width="1" fill="none" fill-rule="evenodd">
        <g id="Chemicals" transform="translate(-426.000000, -288.000000)">
            <g id="chemicals-header-icon" transform="translate(425.000000, 273.000000)">
                <ellipse id="Oval-3" fill-opacity="0.3" fill="#1F6FA4" style="mix-blend-mode: multiply;" filter="url(#filter-1)" cx="162" cy="280" rx="131" ry="6"></ellipse>
                <g id="Icon/Free/Chemical" transform="translate(162.316027, 115.637997) rotate(4.000000) translate(-162.316027, -115.637997) translate(6.960402, 11.010739)">
                    <g id="Page-1" transform="translate(0.000000, 1.389759)">
                        <g id="Group-3" transform="translate(116.250706, 0.000000)">
                            <mask id="mask-3" fill="white">
                                <use xlink:href="#path-2"></use>
                            </mask>
                            <g id="Clip-2"></g>
                            <path d="M191.96362,0.0453772077 L172.703619,0.0453772077 C172.068006,0.0453772077 171.469782,0.333929708 171.077198,0.829588439 L141.72217,37.7782707 C141.088894,38.5764442 139.976572,38.7858774 139.08391,38.2902187 C122.480863,29.0379224 102.003383,23.5786952 79.8597564,23.5786952 C51.8413852,23.5786952 26.5150209,32.3120625 8.30424802,46.3929591 C5.74777612,48.3686129 3.31749204,50.4513104 1.0554584,52.6433786 C0.65118999,53.0343207 0.426856075,53.5741931 0.426856075,54.1373359 L0.426856075,59.3498972 C0.426856075,59.6966256 0.513318105,60.0363729 0.681568541,60.3412146 L0.683905353,60.3435417 C1.3569071,61.5722168 3.03707465,61.7932853 3.99984103,60.7717163 C5.35986539,59.3289538 6.80167815,57.9234239 8.30424802,56.5667618 C25.2952052,41.2292655 51.0679005,31.4231346 79.8597564,31.4231346 C100.629338,31.4231346 120.27024,36.4448789 136.658299,45.93686 L141.011779,48.4616943 C141.902105,48.9782964 143.040132,48.7642091 143.682755,47.9567275 L146.807072,44.0263632 L174.883864,8.67402779 C175.276448,8.17836906 175.877009,7.88981655 176.512621,7.88981655 L179.569171,7.88981655 C181.090435,7.88981655 182.092928,9.46289309 181.447968,10.8311904 L159.292657,57.9257509 L157.783076,61.1230988 C157.451249,61.8235367 157.544722,62.6519617 158.023768,63.2662992 L160.185319,66.0447806 C168.193572,76.3744947 172.423201,88.128355 172.423201,100.063724 C172.423201,112.890348 167.642085,124.918799 159.344067,135.194991 C157.140453,137.940894 154.670443,140.570445 151.980773,143.03943 C134.989816,158.691077 108.978766,168.706641 79.8597564,168.706641 C76.0904793,168.706641 72.3889697,168.53444 68.7412067,168.208655 C66.8624102,168.043435 65.004645,167.836329 63.167911,167.587336 C61.4877435,167.35696 60.2702646,169.132488 61.0811383,170.614811 L63.2847516,174.635929 C63.6072316,175.229323 64.198445,175.634228 64.8737835,175.708693 C67.6148635,176.020516 70.4050166,176.241584 73.216201,176.378879 C75.4081303,176.497558 77.6281013,176.55108 79.8597564,176.55108 C114.41419,176.55108 144.88855,163.26603 162.956777,143.03943 C165.174412,140.556483 167.209774,137.968818 169.032487,135.288073 C176.229867,124.748925 180.300593,112.760034 180.300593,100.063724 C180.300593,86.2993045 175.531161,73.3982153 167.174722,62.2470573 C166.716707,61.6373738 166.623235,60.8298922 166.950388,60.1387625 L193.842416,2.98675108 C194.487376,1.61845374 193.482547,0.0453772077 191.96362,0.0453772077" id="Fill-1" fill="#00587E" mask="url(#mask-3)"></path>
                        </g>
                        <path d="M207.726671,138.821477 L207.726671,199.674727" id="Fill-4" fill="#005F9E"></path>
                        <path d="M207.726671,89.3782112 C207.726671,92.5291598 205.169365,95.0832034 202.011647,95.0832034 C198.853929,95.0832034 196.292175,92.5291598 196.292175,89.3782112 C196.292175,86.2272626 198.853929,83.673219 202.011647,83.673219 C205.169365,83.673219 207.726671,86.2272626 207.726671,89.3782112" id="Fill-6" fill="#FF385E"></path>
                        <path d="M173.423184,71.3124026 C173.423184,74.9893646 170.436154,77.9682268 166.751922,77.9682268 C163.069969,77.9682268 160.082939,74.9893646 160.082939,71.3124026 C160.082939,67.6354406 163.069969,64.6565783 166.751922,64.6565783 C170.436154,64.6565783 173.423184,67.6354406 173.423184,71.3124026" id="Fill-8" fill="#FF385E"></path>
                        <path d="M278.239394,100.879433 C278.239394,113.872117 272.83637,125.914455 263.639533,135.787877 C261.061986,138.567234 258.185051,141.180107 255.032117,143.582563 C240.457985,154.73005 217.695112,161.641446 195.329865,161.641446 C189.992331,161.641446 184.776425,161.250671 179.728924,160.496869 C176.271923,159.978919 172.908482,159.301422 169.622227,158.471314 L161.424131,143.582563 L157.113406,135.787877 L139.119697,95.7993602 C140.656402,93.4223395 169.954361,103.70041 197.93314,103.70041 C231.990907,103.70041 260.474904,55.7044783 272.183797,78.3208589 C275.739034,85.1813846 278.239394,93.0639366 278.239394,100.879433" id="Fill-10" fill="#FF385E"></path>
                        <path d="M230.01175,148.329797 C228.452356,148.329797 227.081767,147.188703 226.825364,145.586465 C226.543321,143.810123 227.73909,142.137302 229.501275,141.850264 C253.460937,137.954074 256.533107,117.132043 256.563409,116.920293 C256.801164,115.136892 258.428156,113.887571 260.197334,114.129906 C261.964181,114.372242 263.201907,116.014476 262.964151,117.797877 C262.926856,118.056682 259.162399,143.628959 230.529217,148.287447 C230.354397,148.315681 230.181908,148.329797 230.01175,148.329797" id="Fill-12" fill="#FFFFFF"></path>
                        <path d="M188.669178,117.903172 C188.669178,121.054121 186.111872,123.608164 182.954154,123.608164 C179.796437,123.608164 177.234683,121.054121 177.234683,117.903172 C177.234683,114.752224 179.796437,112.19818 182.954154,112.19818 C186.111872,112.19818 188.669178,114.752224 188.669178,117.903172" id="Fill-14" fill="#FFFFFF"></path>
                        <path d="M257.276152,138.821477 L282.050893,199.674727" id="Fill-16" fill="#005F9E"></path>
                        <path d="M282.005753,205.379719 C280.484784,205.379719 279.043867,204.447901 278.433193,202.906635 L253.750052,140.479489 C252.947255,138.448783 253.896431,136.135708 255.865684,135.309778 C257.846374,134.488554 260.0878,135.460375 260.892884,137.488727 L285.578312,199.918226 C286.378822,201.946579 285.429646,204.259654 283.458106,205.085585 C282.982374,205.285596 282.490633,205.379719 282.005753,205.379719" id="Fill-18" fill="#00587E"></path>
                        <path d="M287.768141,138.821477 C287.768141,140.926166 286.006404,142.624805 283.854717,142.624805 L162.455031,142.624805 L158.17719,135.018149 L283.854717,135.018149 C284.142537,135.018149 284.41643,135.045219 284.676397,135.108382 C286.438134,135.476082 287.768141,137.010046 287.768141,138.821477" id="Fill-20" fill="#005F9E"></path>
                        <path d="M207.726671,205.379719 C205.619722,205.379719 203.915172,203.605443 203.915172,201.412307 L203.915172,138.983208 C203.915172,136.792425 205.619722,135.018149 207.726671,135.018149 C209.83136,135.018149 211.53817,136.792425 211.53817,138.983208 L211.53817,201.412307 C211.53817,203.605443 209.83136,205.379719 207.726671,205.379719" id="Fill-22" fill="#00587E"></path>
                        <path d="M191.707264,191.145105 L182.005649,200.807253 C181.510358,201.30053 180.839014,201.576391 180.139503,201.576391 L16.1486551,201.576391 C15.4491436,201.576391 14.7801477,201.30053 14.284856,200.807253 L4.58324177,191.145105 C3.75697315,190.322198 3.57387954,189.05277 4.1325498,188.028811 L74.0837001,60.307513 C74.294962,59.9217752 74.4052876,59.4892813 74.4052876,59.0497739 L74.4052876,27.1457496 C74.4052876,25.6939727 73.2245685,24.5180568 71.7668617,24.5180568 L64.9642297,24.5180568 C63.5065228,24.5180568 62.3258037,23.3421409 62.3258037,21.8927019 L62.3258037,14.0376772 C62.3258037,12.5882381 63.5065228,11.4099844 64.9642297,11.4099844 L130.906099,11.4099844 C132.363806,11.4099844 133.544525,12.5882381 133.544525,14.0376772 L133.544525,21.8927019 C133.544525,23.3421409 132.363806,24.5180568 130.906099,24.5180568 L124.523644,24.5180568 C123.065937,24.5180568 121.885218,25.6939727 121.885218,27.1457496 L121.885218,59.0497739 C121.885218,59.4892813 121.995543,59.9217752 122.206805,60.307513 L192.157955,188.028811 C192.718973,189.05277 192.535879,190.322198 191.707264,191.145105" id="Fill-24" fill="#FFFFFF"></path>
                        <g id="Group-28" transform="translate(0.000000, 7.606656)">
                            <mask id="mask-5" fill="white">
                                <use xlink:href="#path-4"></use>
                            </mask>
                            <g id="Clip-27"></g>
                            <path d="M15.7674027,190.625777 L178.516984,190.625777 L187.670275,181.509602 L118.25295,54.7929108 C117.785587,53.9389965 117.537885,52.9733986 117.537885,51.996167 L117.537885,20.24312 C117.537885,17.0229092 120.169135,14.4053246 123.403282,14.4053246 L129.144828,14.4053246 L129.144828,7.80668449 L64.7212691,7.80668449 L64.7212691,14.4053246 L70.8834413,14.4053246 C74.1175886,14.4053246 76.7488385,17.0229092 76.7488385,20.24312 L76.7488385,51.996167 C76.7488385,52.9733986 76.4987996,53.9389965 76.0314373,54.7952375 L6.61411159,181.509602 L15.7674027,190.625777 Z M178.76936,197.073179 L15.5173638,197.073179 C13.9517,197.073179 12.4771719,196.465899 11.3695232,195.365351 L1.71148082,185.746599 C-0.115905856,183.929414 -0.529521511,181.081482 0.708988643,178.822216 L70.2711967,51.842602 L70.2711967,20.8527264 L64.1090245,20.8527264 C60.877214,20.8527264 58.2459641,18.232815 58.2459641,15.0126042 L58.2459641,7.1970781 C58.2459641,3.97919403 60.877214,1.35928263 64.1090245,1.35928263 L129.754736,1.35928263 C132.988884,1.35928263 135.620133,3.97919403 135.620133,7.1970781 L135.620133,15.0126042 C135.620133,18.232815 132.988884,20.8527264 129.754736,20.8527264 L124.01319,20.8527264 L124.01319,51.842602 L193.577735,178.822216 C194.813908,181.081482 194.400293,183.929414 192.572906,185.746599 L192.572906,185.748926 L182.914864,195.365351 C181.809552,196.465899 180.33736,197.073179 178.76936,197.073179 Z" id="Fill-26" fill="#00587E" mask="url(#mask-5)"></path>
                        </g>
                        <path d="M126.560767,102.160244 L166.857335,176.168659 C169.355842,180.76336 166.037657,186.363079 160.815404,186.363079 L31.6662282,186.363079 C26.4439751,186.363079 23.1234673,180.76336 25.6242973,176.168659 L51.403512,128.823467 L67.9944407,98.3472239 C68.6747964,97.0956042 70.2282368,96.6233388 71.4914229,97.2817187 C76.6834896,99.9920105 90.0932325,106.229171 103.586569,106.229171 C114.358481,106.229171 119.973158,103.41419 122.669039,101.301791 C123.934547,100.313058 125.794496,100.750427 126.560767,102.160244" id="Fill-29" fill="#96D1F2"></path>
                        <path d="M61.754044,180.658086 L42.0551037,180.658086 C39.9705105,180.658086 38.0906542,179.589111 37.0297451,177.798983 C35.9688361,176.011174 35.9339378,173.854672 36.9413361,172.034399 L60.6512569,129.078282 C61.5120823,127.522354 63.4663884,126.954244 65.0321598,127.809888 C66.5909516,128.667851 67.158631,130.620296 66.3024588,132.176224 L43.0880941,174.23264 L61.754044,174.23264 C63.536185,174.23264 64.978649,175.670307 64.978649,177.444204 C64.978649,179.2181 63.536185,180.658086 61.754044,180.658086" id="Fill-31" fill="#FFFFFF"></path>
                        <path d="M88.2770207,178.756422 L75.617417,178.756422 C73.8517658,178.756422 72.4184725,177.477895 72.4184725,175.902897 C72.4184725,174.327899 73.8517658,173.05143 75.617417,173.05143 L88.2770207,173.05143 C90.0449799,173.05143 91.4759652,174.327899 91.4759652,175.902897 C91.4759652,177.477895 90.0449799,178.756422 88.2770207,178.756422" id="Fill-33" fill="#FFFFFF"></path>
                        <path d="M112.439207,85.5748831 C112.439207,89.7759449 109.02579,93.1815393 104.817343,93.1815393 C100.604366,93.1815393 97.1932131,89.7759449 97.1932131,85.5748831 C97.1932131,81.3738213 100.604366,77.9682268 104.817343,77.9682268 C109.02579,77.9682268 112.439207,81.3738213 112.439207,85.5748831" id="Fill-35" fill="#96D1F2"></path>
                    </g>
                </g>
            </g>
        </g>
    </g>
</svg>