<?xml version="1.0" encoding="UTF-8"?>
<svg width="275px" height="367px" viewBox="0 0 275 367" version="1.1" xmlns="http://www.w3.org/2000/svg" xmlns:xlink="http://www.w3.org/1999/xlink">
    <!-- Generator: Sketch 49.3 (51167) - http://www.bohemiancoding.com/sketch -->
    <title>clinicalresearch-header-icon</title>
    <desc>Created with Sketch.</desc>
    <defs>
        <filter x="-12.8%" y="-261.1%" width="125.5%" height="622.2%" filterUnits="objectBoundingBox" id="filter-1">
            <feGaussianBlur stdDeviation="10.4436384" in="SourceGraphic"></feGaussianBlur>
        </filter>
        <polygon id="path-2" points="0 0.0583732695 194.285607 0.0583732695 194.285607 131.184037 0 131.184037"></polygon>
    </defs>
    <g id="Desktop-UI" stroke="none" stroke-width="1" fill="none" fill-rule="evenodd">
        <g id="Clinical-Research" transform="translate(-428.000000, -224.000000)">
            <g id="clinicalresearch-header-icon" transform="translate(442.000000, 213.000000)">
                <ellipse id="Oval-3" fill-opacity="0.3" fill="#1F6FA4" style="mix-blend-mode: multiply;" filter="url(#filter-1)" cx="123.343725" cy="347.567291" rx="122.656275" ry="6"></ellipse>
                <g id="Icon/Free/Clinical-Research" transform="translate(115.000000, 165.113887) rotate(-6.000000) translate(-115.000000, -165.113887) translate(16.351024, 10.094068)">
                    <g id="Page-1" transform="translate(0.817009, 0.239252)">
                        <path d="M183.415218,272.524082 L10.8715641,272.524082 C7.88877099,272.524082 5.47244998,270.102062 5.47244998,267.117494 L5.47244998,216.118557 C5.47244998,197.537969 13.407761,180.814498 26.0722917,169.158674 C37.4087861,158.724452 52.531947,152.355175 69.1453292,152.355175 L125.141453,152.355175 C141.750134,152.355175 156.877996,158.724452 168.214491,169.158674 C180.879021,180.814498 188.814332,197.537969 188.814332,216.118557 L188.814332,267.117494 C188.814332,270.102062 186.398011,272.524082 183.415218,272.524082" id="Fill-1" fill="#96D1F2"></path>
                        <g id="Group-5" transform="translate(0.000000, 146.818188)">
                            <mask id="mask-3" fill="white">
                                <use xlink:href="#path-2"></use>
                            </mask>
                            <g id="Clip-4"></g>
                            <path d="M69.1446241,11.0151301 C37.0531545,11.0151301 10.9413742,37.1607058 10.9413742,69.2989567 L10.9413742,120.297893 L183.343998,120.227281 L183.343998,69.2989567 C183.343998,37.1607058 157.234568,11.0151301 125.140748,11.0151301 L69.1446241,11.0151301 Z M183.412163,120.227281 L183.412163,125.706836 L183.414513,120.227281 L183.412163,120.227281 Z M183.412163,131.184037 L10.8732095,131.184037 C4.8770666,131.184037 -0.000235050682,126.302337 -0.000235050682,120.297893 L-0.000235050682,69.2989567 C-0.000235050682,31.1209554 31.0170529,0.0583732695 69.1446241,0.0583732695 L125.140748,0.0583732695 C163.268319,0.0583732695 194.285607,31.1209554 194.285607,69.2989567 L194.285607,120.297893 C194.285607,126.302337 189.408306,131.184037 183.412163,131.184037 Z" id="Fill-3" fill="#00587E" mask="url(#mask-3)"></path>
                        </g>
                        <path d="M53.8893647,277.997047 C50.8689634,277.997047 48.4197353,275.544428 48.4197353,272.517492 L48.4197353,228.528055 C48.4197353,225.503472 50.8689634,223.0485 53.8893647,223.0485 C56.9121165,223.0485 59.3613446,225.503472 59.3613446,228.528055 L59.3613446,272.517492 C59.3613446,275.544428 56.9121165,277.997047 53.8893647,277.997047" id="Fill-6" fill="#005F9E"></path>
                        <path d="M143.045734,277.997047 C140.022982,277.997047 137.576104,275.544428 137.576104,272.517492 L137.576104,235.03385 C137.576104,232.006913 140.022982,229.554295 143.045734,229.554295 C146.068486,229.554295 148.515363,232.006913 148.515363,235.03385 L148.515363,272.517492 C148.515363,275.544428 146.068486,277.997047 143.045734,277.997047" id="Fill-8" fill="#005F9E"></path>
                        <path d="M99.1641219,286.108813 C84.03626,292.24036 60.4606766,286.600749 53.853402,270.397459 C50.5062802,262.192249 51.7332448,251.840409 56.9772255,244.023569 C60.6252121,238.586381 65.7046573,235.375851 69.8486009,233.528149 C71.6138315,233.113887 73.6235148,232.480725 75.6637547,231.520391 C76.1197531,231.407411 76.4934836,231.327383 76.7379364,231.280307 C89.6469198,228.745307 131.760951,217.776781 131.760951,182.988196 L120.821692,182.988196 C120.821692,202.13604 106.232096,213.575318 88.9088607,218.141614 C91.8775508,206.984788 83.6061173,181.78307 74.3192648,172.944698 L66.78354,180.886287 C74.7423561,188.465397 79.8782135,211.925332 75.7201669,217.795611 C74.6389338,219.325556 65.4954622,223.475236 65.4954622,223.475236 C59.8401428,225.972577 52.9719619,230.341157 47.8948672,237.913206 C40.6764607,248.6746 39.0381575,263.051372 43.7227176,274.537725 C47.9559803,284.920164 57.0195346,292.864107 69.2468711,296.912575 C74.6060267,298.687311 80.1955319,299.569971 85.6863158,299.569971 C91.8281901,299.569971 97.8454876,298.463704 103.270457,296.262937 C114.371901,291.762547 121.23303,283.383158 125.0338,277.150399 L115.695236,271.440175 C112.752402,276.265385 107.496669,282.726459 99.1641219,286.108813" id="Fill-10" stroke="#FF385E" fill="#FF385E"></path>
                        <path d="M74.0545978,162.616631 L69.0292142,167.912593 L61.4934893,175.856536 L56.4704562,181.150144 L61.7590966,186.182485 C66.9537167,191.13009 70.8814136,207.820608 69.7954794,213.140108 C68.2441449,214.051013 65.2495992,215.566835 62.4854032,216.819036 C53.9272079,220.599176 46.7652136,226.495347 41.8385513,233.841435 C33.303861,246.565866 31.3952495,263.625925 36.9706517,277.301275 C42.0218908,289.689119 52.6720372,299.118285 66.9584177,303.84699 C73.0227253,305.854748 79.3220836,306.873927 85.6849055,306.873927 C92.7881371,306.873927 99.8161525,305.546406 106.009738,303.032589 C118.951629,297.786056 126.884589,288.130929 131.258882,280.956666 L135.062002,274.721553 L128.83551,270.915522 L119.496946,265.205298 L113.270454,261.396913 L109.467334,267.634379 C107.100373,271.520439 102.91177,276.705774 96.4243712,279.339632 C93.3875164,280.570649 89.7395298,281.222641 85.8823481,281.222641 C76.3768985,281.222641 64.4104683,276.971749 60.6049977,267.636733 C58.1910272,261.714671 59.1664876,253.860171 63.0330713,248.093457 C65.1767335,244.899403 68.2747015,242.333804 72.2541095,240.46021 C74.2567414,239.949444 76.188858,239.280976 78.0199028,238.473636 C78.0622119,238.464221 78.104521,238.454806 78.1374281,238.447745 C85.5579781,236.990767 99.9336779,233.368329 112.887321,225.466753 C130.008413,215.023117 139.055513,200.333295 139.055513,182.988431 L139.055513,175.684711 L131.761891,175.684711 L120.820281,175.684711 L113.526659,175.684711 L113.526659,182.988431 C113.526659,188.37619 111.667408,200.314465 96.4995874,207.653491 C95.0164176,193.540341 87.8967324,175.788277 79.3432381,167.648972 L74.0545978,162.616631 Z M74.3178545,172.944933 C83.604707,181.783306 91.878491,206.985023 88.9074504,218.139496 C106.230686,213.575554 120.820281,202.136276 120.820281,182.988431 L131.761891,182.988431 C131.761891,217.777017 89.64786,228.745542 76.7388766,231.278189 C76.4944238,231.327618 76.1206933,231.407646 75.6646949,231.518273 C73.6221045,232.480961 71.6147717,233.114123 69.8495411,233.528384 C65.703247,235.376087 60.6238018,238.584263 56.9758152,244.02145 C51.734185,251.840644 50.5048699,262.192484 53.8519917,270.397695 C58.7175408,282.324201 72.7688705,288.526361 85.8823481,288.526361 C90.5857122,288.526361 95.1692005,287.728436 99.1650621,286.109048 C107.497609,282.726694 112.753342,276.265621 115.696177,271.438057 L125.03239,277.150635 C121.23162,283.383393 114.370491,291.762782 103.271398,296.263173 C97.8464278,298.463939 91.8291303,299.570207 85.6849055,299.570207 C80.1941216,299.570207 74.6046164,298.687547 69.2478113,296.912811 C57.0204748,292.864342 47.95457,284.918045 43.7236578,274.53796 C39.0390977,263.049253 40.6774009,248.674836 47.8934569,237.913441 C52.9705516,230.341392 59.8387325,225.972812 65.4940519,223.473118 C65.4940519,223.473118 74.639874,219.325791 75.7211071,217.795847 C79.8791537,211.925567 74.7432963,188.463279 66.7821297,180.886523 L74.3178545,172.944933 Z" id="Fill-12" fill="#00587E"></path>
                        <path d="M110.266976,256.036223 C110.266976,269.318495 121.018194,280.082244 134.282104,280.082244 C147.543664,280.082244 158.294882,269.318495 158.294882,256.036223 C158.294882,242.75395 147.543664,231.990202 134.282104,231.990202 C121.018194,231.990202 110.266976,242.756304 110.266976,256.036223" id="Fill-14" fill="#FFFFFF"></path>
                        <path d="M134.281634,236.554379 C123.553921,236.554379 114.826489,245.293894 114.826489,256.036458 C114.826489,266.779023 123.553921,275.518537 134.281634,275.518537 C145.009347,275.518537 153.734428,266.779023 153.734428,256.036458 C153.734428,245.293894 145.009347,236.554379 134.281634,236.554379 M134.281634,284.648775 C118.526187,284.648775 105.708873,271.811363 105.708873,256.036458 C105.708873,240.259199 118.526187,227.424141 134.281634,227.424141 C150.037081,227.424141 162.854395,240.259199 162.854395,256.036458 C162.854395,271.811363 150.037081,284.648775 134.281634,284.648775" id="Fill-16" fill="#005F9E"></path>
                        <path d="M120.272848,256.022336 C120.169426,256.022336 120.063653,256.012921 119.957881,255.99409 C118.965967,255.822266 118.303124,254.876054 118.474711,253.882767 C120.00019,245.155022 128.332736,239.294157 137.041364,240.819394 C138.033278,240.991219 138.696121,241.937431 138.524534,242.930718 C138.348246,243.924005 137.400992,244.592473 136.413779,244.415941 C129.684278,243.246122 123.24624,247.767696 122.068636,254.508867 C121.913502,255.396235 121.142536,256.022336 120.272848,256.022336" id="Fill-18" fill="#5493BC"></path>
                        <path d="M156.147929,69.6764999 C156.147929,102.309041 129.730583,128.762959 97.1408057,128.762959 C64.5557296,128.762959 38.1383835,102.309041 38.1383835,69.6764999 C38.1383835,37.0439593 64.5557296,10.5900409 97.1408057,10.5900409 C129.730583,10.5900409 156.147929,37.0439593 156.147929,69.6764999" id="Fill-20" fill="#96D1F2"></path>
                        <path d="M97.1419809,16.0686547 C67.6243163,16.0686547 43.6115386,40.1170295 43.6115386,69.6755584 C43.6115386,99.2364412 67.6243163,123.284816 97.1419809,123.284816 C126.661996,123.284816 150.674774,99.2364412 150.674774,69.6755584 C150.674774,40.1170295 126.661996,16.0686547 97.1419809,16.0686547 M97.1419809,134.241573 C61.5905653,134.241573 32.6675788,105.278545 32.6675788,69.6755584 C32.6675788,34.0749253 61.5905653,5.11189785 97.1419809,5.11189785 C132.695747,5.11189785 161.618733,34.0749253 161.618733,69.6755584 C161.618733,105.278545 132.695747,134.241573 97.1419809,134.241573" id="Fill-22" fill="#00587E"></path>
                        <path d="M148.912834,54.1379122 L45.412967,54.1379122 C45.3894619,54.1379122 45.3730084,54.1190821 45.3730084,54.0978983 L45.3730084,47.0413232 C45.3730084,33.9355827 55.9831962,23.3107061 69.0708182,23.3107061 L128.625609,23.3107061 C139.830475,23.3107061 148.912834,32.4079919 148.912834,43.6283699 L148.912834,54.1379122 Z" id="Fill-24" fill="#FCFCFC"></path>
                        <path d="M51.3620998,48.6592984 L143.431452,48.6592984 C143.062422,37.63899 133.994167,28.7888492 122.904476,28.7888492 L75.7556596,28.7888492 C63.7539717,28.7888492 53.7102561,37.3306474 51.3620998,48.6592984 Z M154.384814,59.6160552 L39.9527397,59.6160552 L39.9010285,53.7363606 C39.9010285,33.9388779 55.9878972,17.8320923 75.7556596,17.8320923 L122.904476,17.8320923 C140.260618,17.8320923 154.384814,31.9758414 154.384814,49.3583654 L154.384814,59.6160552 Z" id="Fill-26" fill="#00587E"></path>
                        <path d="M72.6015145,29.1407364 C72.6015145,42.7125216 83.5901338,53.7163536 97.1408057,53.7163536 C110.696178,53.7163536 121.684798,42.7125216 121.684798,29.1407364 C121.684798,15.5665975 110.696178,4.5651192 97.1408057,4.5651192 C83.5901338,4.5651192 72.6015145,15.5665975 72.6015145,29.1407364" id="Fill-28" fill="#FFFFFF"></path>
                        <path d="M97.1419809,9.1302384 C86.1251554,9.1302384 77.1603224,18.1051286 77.1603224,29.1395595 C77.1603224,40.1739905 86.1251554,49.1488807 97.1419809,49.1488807 C108.158806,49.1488807 117.12599,40.1739905 117.12599,29.1395595 C117.12599,18.1051286 108.158806,9.1302384 97.1419809,9.1302384 M97.1419809,58.2814728 C81.0974214,58.2814728 68.0427065,45.208685 68.0427065,29.1395595 C68.0427065,13.0727879 81.0974214,0 97.1419809,0 C113.18654,0 126.243606,13.0727879 126.243606,29.1395595 C126.243606,45.208685 113.18654,58.2814728 97.1419809,58.2814728" id="Fill-30" fill="#00587E"></path>
                        <path d="M83.1468282,29.1407364 C83.0434059,29.1407364 82.9376331,29.1313214 82.8318603,29.1124913 C81.8399465,28.9406667 81.174753,27.9944549 81.3486905,27.0011678 C82.1008527,22.6890779 84.4819161,18.9301218 88.057037,16.4163052 C91.6321579,13.9001348 95.9711935,12.9280316 100.274971,13.681235 C101.266885,13.8530596 101.932079,14.8016252 101.758141,15.7949123 C101.586554,16.7858456 100.636949,17.4590212 99.6497366,17.2777816 C92.7486486,16.0750098 86.146075,20.7142725 84.9426155,27.6272682 C84.787482,28.514636 84.0188663,29.1407364 83.1468282,29.1407364" id="Fill-32" fill="#5493BC"></path>
                        <path d="M148.607503,135.051973 L143.927644,135.051973 C141.271571,135.051973 139.123208,137.269215 139.280692,139.924258 C139.358259,141.228241 139.370011,142.548701 139.308898,143.883283 C138.126593,169.099124 113.112499,187.675004 87.3180377,178.987273 C84.1448534,177.918666 81.1268027,176.393429 78.3814107,174.475113 C66.8427727,166.413482 60.6726923,153.68199 61.3026282,140.225539 C61.3049787,140.173756 61.3073292,140.121974 61.3096797,140.067837 C61.4530606,137.356305 59.3775631,135.051973 56.6674287,135.051973 L51.9922707,135.051973 C49.5524446,135.051973 47.467545,136.932628 47.3406177,139.371124 C47.3359166,139.439383 47.3335661,139.505288 47.3312156,139.571194 C46.5578989,156.089887 53.329709,171.808302 66.2175379,182.760352 C74.1646015,189.513292 84.0719877,193.68651 94.4306713,194.832791 C96.4521072,195.058752 98.4006773,195.162318 100.335144,195.162318 C128.444855,195.162318 151.949924,172.947523 153.280311,144.539983 C153.360228,142.809968 153.355527,141.096431 153.266208,139.404077 C153.13928,136.951458 151.061432,135.051973 148.607503,135.051973" id="Fill-34" fill="#5493BC"></path>
                        <path d="M148.607503,127.748253 L143.927644,127.748253 C140.639285,127.748253 137.4614,129.120495 135.209614,131.516624 C132.976633,133.889215 131.80608,137.113867 132.001172,140.359703 C132.062285,141.428311 132.071688,142.499272 132.022327,143.541988 C131.225505,160.538495 117.298752,173.851367 100.31399,173.851367 C96.752972,173.851367 93.1637481,173.251158 89.6426889,172.064862 C87.1276466,171.217508 84.7418822,170.012383 82.5535603,168.484792 C73.1538836,161.917799 68.0650363,151.742491 68.5891993,140.569188 L68.5939003,140.47033 C68.7678378,137.12799 67.5643783,133.851555 65.2984898,131.460134 C63.0279002,129.066359 59.9628393,127.748253 56.6674287,127.748253 L51.9922707,127.748253 C45.6270982,127.748253 40.3831175,132.686443 40.0540465,138.992168 L40.042294,139.225191 C39.1608539,158.097645 46.9833406,175.995643 61.4977202,188.32935 C70.5307179,196.007318 81.6439142,200.764269 93.6291485,202.094143 C95.8926865,202.343642 98.0857094,202.466038 100.335144,202.466038 C132.595851,202.466038 159.053155,177.172523 160.566882,144.883632 C160.658551,142.94884 160.6515,140.981096 160.550428,139.027475 C160.223708,132.700566 154.977376,127.748253 148.607503,127.748253 M148.607503,135.051973 C151.061432,135.051973 153.13928,136.951458 153.266208,139.404077 C153.355527,141.096431 153.360228,142.809968 153.280311,144.539983 C151.949924,172.947523 128.444855,195.162318 100.335144,195.162318 C98.4006773,195.162318 96.4521072,195.058752 94.4306713,194.832791 C84.0719877,193.68651 74.1646015,189.513292 66.2175379,182.760352 C53.329709,171.808302 46.5578989,156.089887 47.3312156,139.571194 C47.3335661,139.505288 47.3359166,139.439383 47.3406177,139.371124 C47.467545,136.932628 49.5524446,135.051973 51.9922707,135.051973 L56.6674287,135.051973 C59.3775631,135.051973 61.4530606,137.356305 61.3096797,140.067837 C61.3073292,140.121974 61.3049787,140.173756 61.3026282,140.225539 C60.6726923,153.68199 66.8427727,166.413482 78.3814107,174.475113 C81.1244522,176.393429 84.1448534,177.918666 87.3180377,178.987273 C91.7134854,180.467789 96.0783766,181.155087 100.31399,181.155087 C120.939687,181.155087 138.328737,164.80351 139.308898,143.883283 C139.370011,142.548701 139.358259,141.228241 139.280692,139.924258 C139.123208,137.269215 141.271571,135.051973 143.927644,135.051973 L148.607503,135.051973" id="Fill-36" fill="#00587E"></path>
                        <path d="M62.2240268,169.160792 C61.6763588,169.160792 61.1357422,168.916001 60.7761146,168.445249 C51.1554902,155.871458 51.5057157,143.709576 51.5245198,143.19881 C51.5621279,142.1914 52.4788256,141.38406 53.4166778,141.445258 C54.4226947,141.482918 55.207764,142.330272 55.1701559,143.337682 C55.1631044,143.509506 54.9116001,154.776959 63.6695885,166.223299 C64.2830708,167.023577 64.1326384,168.172213 63.3334661,168.78419 C63.0020446,169.038397 62.6118605,169.160792 62.2240268,169.160792" id="Fill-38" fill="#FFFFFF"></path>
                        <path d="M124.418437,185.817652 C123.793202,185.817652 123.189122,185.49754 122.845948,184.923223 C122.333538,184.054685 122.617949,182.934295 123.485286,182.421175 C135.968828,174.999767 139.840113,164.452564 139.880071,164.346645 C140.216194,163.395726 141.252767,162.899082 142.207073,163.240377 C143.159028,163.579319 143.654985,164.624389 143.311811,165.572954 C143.142575,166.055475 138.94927,177.475923 125.349238,185.561092 C125.055425,185.73527 124.735756,185.817652 124.418437,185.817652" id="Fill-40" fill="#FFFFFF"></path>
                    </g>
                </g>
            </g>
        </g>
    </g>
</svg>