<?xml version="1.0" encoding="UTF-8"?>
<svg width="271px" height="272px" viewBox="0 0 271 272" version="1.1" xmlns="http://www.w3.org/2000/svg" xmlns:xlink="http://www.w3.org/1999/xlink">
    <!-- Generator: Sketch 49.3 (51167) - http://www.bohemiancoding.com/sketch -->
    <title>Icon/Industry/Clinical Research</title>
    <desc>Created with Sketch.</desc>
    <defs>
        <circle id="path-1" cx="102.5" cy="102.5" r="102.5"></circle>
        <filter x="-25.4%" y="-24.4%" width="150.7%" height="150.7%" filterUnits="objectBoundingBox" id="filter-2">
            <feOffset dx="0" dy="2" in="SourceAlpha" result="shadowOffsetOuter1"></feOffset>
            <feGaussianBlur stdDeviation="17" in="shadowOffsetOuter1" result="shadowBlurOuter1"></feGaussianBlur>
            <feColorMatrix values="0 0 0 0 0.11   0 0 0 0 0.392   0 0 0 0 0.549  0 0 0 0.0535552536 0" type="matrix" in="shadowBlurOuter1"></feColorMatrix>
        </filter>
        <polygon id="path-3" points="0 0.0269270243 89.7461434 0.0269270243 89.7461434 60.5139269 0 60.5139269"></polygon>
    </defs>
    <g id="Desktop-UI" stroke="none" stroke-width="1" fill="none" fill-rule="evenodd">
        <g id="Icon/Industry/Clinical-Research" transform="translate(33.031926, 31.709423)">
            <g id="Group-8-Copy">
                <g id="Oval">
                    <use fill="black" fill-opacity="1" filter="url(#filter-2)" xlink:href="#path-1"></use>
                    <use fill="#FFFFFF" fill-rule="evenodd" xlink:href="#path-1"></use>
                </g>
            </g>
            <g id="Icon/Free/Clinical-Research" transform="translate(57.000000, 27.000000)">
                <g id="Page-1" transform="translate(0.377400, 0.110364)">
                    <path d="M84.7247963,125.712722 L5.02189004,125.712722 C3.64405157,125.712722 2.52788298,124.595467 2.52788298,123.218715 L2.52788298,99.6933988 C2.52788298,91.1223532 6.19343275,83.4079779 12.0435459,78.0312592 C17.2802007,73.2180536 24.2660263,70.2799678 31.9402282,70.2799678 L57.8064581,70.2799678 C65.4784885,70.2799678 72.4664856,73.2180536 77.7031404,78.0312592 C83.5532535,83.4079779 87.2188033,91.1223532 87.2188033,99.6933988 L87.2188033,123.218715 C87.2188033,124.595467 86.1026347,125.712722 84.7247963,125.712722" id="Fill-1" fill="#96D1F2"></path>
                    <g id="Group-5" transform="translate(0.000000, 67.725809)">
                        <mask id="mask-4" fill="white">
                            <use xlink:href="#path-3"></use>
                        </mask>
                        <g id="Clip-4"></g>
                        <path d="M31.9399025,5.08117292 C17.1159241,5.08117292 5.05413732,17.141874 5.05413732,31.9669381 L5.05413732,55.4922541 L84.6918975,55.459681 L84.6918975,31.9669381 C84.6918975,17.141874 72.6311965,5.08117292 57.8061323,5.08117292 L31.9399025,5.08117292 Z M84.7233848,55.459681 L84.7233848,57.9873469 L84.7244705,55.459681 L84.7233848,55.459681 Z M84.7233848,60.5139269 L5.02265007,60.5139269 C2.25285818,60.5139269 -0.000108576711,58.262046 -0.000108576711,55.4922541 L-0.000108576711,31.9669381 C-0.000108576711,14.3557956 14.3276742,0.0269270243 31.9399025,0.0269270243 L57.8061323,0.0269270243 C75.4183606,0.0269270243 89.7461434,14.3557956 89.7461434,31.9669381 L89.7461434,55.4922541 C89.7461434,58.262046 87.4931767,60.5139269 84.7233848,60.5139269 Z" id="Fill-3" fill="#00587E" mask="url(#mask-4)"></path>
                    </g>
                    <path d="M24.8930568,128.237347 C23.4978461,128.237347 22.3664767,127.105978 22.3664767,125.709682 L22.3664767,105.41778 C22.3664767,104.022569 23.4978461,102.890114 24.8930568,102.890114 C26.2893533,102.890114 27.4207226,104.022569 27.4207226,105.41778 L27.4207226,125.709682 C27.4207226,127.105978 26.2893533,128.237347 24.8930568,128.237347" id="Fill-6" fill="#005F9E"></path>
                    <path d="M66.0769633,128.237347 C64.6806668,128.237347 63.5503832,127.105978 63.5503832,125.709682 L63.5503832,108.41884 C63.5503832,107.022544 64.6806668,105.891175 66.0769633,105.891175 C67.4732598,105.891175 68.6035434,107.022544 68.6035434,108.41884 L68.6035434,125.709682 C68.6035434,127.105978 67.4732598,128.237347 66.0769633,128.237347" id="Fill-8" fill="#005F9E"></path>
                    <path d="M45.8067771,131.979227 C38.81878,134.80765 27.9285359,132.206152 24.8764446,124.731731 C23.3303122,120.946747 23.8970826,116.171543 26.319429,112.565711 C28.0045396,110.057589 30.3508823,108.576602 32.2650897,107.724275 C33.0805008,107.53318 34.0088317,107.241109 34.9512776,106.798116 C35.1619164,106.745999 35.3345534,106.709083 35.4474731,106.687368 C41.4105061,105.517996 60.8641954,100.458322 60.8641954,84.4106838 L55.8110353,84.4106838 C55.8110353,93.2433993 49.0716788,98.5202274 41.0695752,100.626616 C42.4408991,95.4800795 38.6200846,83.8547711 34.3302188,79.7777156 L30.8492494,83.4410938 C34.5256569,86.9372639 36.898058,97.7591047 34.977336,100.467008 C34.4778831,101.172756 30.2542491,103.086964 30.2542491,103.086964 C27.6418934,104.238963 24.4692819,106.254147 22.1240249,109.747059 C18.7896341,114.711187 18.0328545,121.343052 20.1967883,126.641596 C22.1522549,131.430914 26.3389729,135.095378 31.9871334,136.962898 C34.4626824,137.781566 37.0446366,138.188729 39.5809885,138.188729 C42.418098,138.188729 45.1976618,137.678418 47.7036123,136.663226 C52.8316903,134.587239 56.0010445,130.721908 57.7567299,127.846797 L53.4429772,125.212726 C52.0835968,127.438549 49.6558215,130.418979 45.8067771,131.979227" id="Fill-10" stroke="#FF385E" fill="#FF385E"></path>
                    <path d="M34.2079614,75.0134781 L31.8865913,77.4564541 L28.405622,81.1209181 L26.0853377,83.5628083 L28.5283137,85.8841784 C30.927859,88.1664608 32.7421758,95.8656354 32.2405514,98.3194691 C31.5239451,98.739661 30.1406778,99.438895 28.8638157,100.016523 C24.9105376,101.760265 21.6022053,104.480112 19.3264374,107.868791 C15.384017,113.738448 14.5023741,121.608088 17.0778137,127.916395 C19.4111272,133.630787 24.330738,137.98037 30.9300305,140.161676 C33.7313096,141.087836 36.6411655,141.557973 39.5803371,141.557973 C42.8615253,141.557973 46.1079689,140.9456 48.9689653,139.786001 C54.947199,137.365826 58.611663,132.912009 60.6322756,129.602591 L62.3890467,126.726394 L59.5128497,124.970709 L55.1990969,122.336638 L52.3228999,120.579866 L50.5661287,123.457149 C49.4727612,125.249751 47.5379242,127.641696 44.541207,128.856669 C43.1383959,129.424525 41.4532853,129.725283 39.6715415,129.725283 C35.2806993,129.725283 29.753059,127.764387 27.995202,123.458235 C26.8801192,120.726445 27.3307125,117.10324 29.1167994,114.443111 C30.107019,112.969725 31.5380601,111.786239 33.3762638,110.921968 C34.3013374,110.686356 35.1938379,110.377999 36.0396505,110.00558 C36.0591943,110.001237 36.0787381,109.996894 36.0939389,109.993637 C39.5217056,109.321547 46.1622573,107.650552 52.1459198,104.005631 C60.0546475,99.1880828 64.2337651,92.4118102 64.2337651,84.4107924 L64.2337651,81.0416571 L60.8646297,81.0416571 L55.8103838,81.0416571 L52.4412485,81.0416571 L52.4412485,84.4107924 C52.4412485,86.8961133 51.5824067,92.4031241 44.5759515,95.788546 C43.8908325,89.2782864 40.6020439,81.0894308 36.6509374,77.3348482 L34.2079614,75.0134781 Z M34.3295673,79.7778242 C38.6194332,83.8548797 42.4413334,95.4801881 41.0689238,100.625638 C49.0710274,98.520336 55.8103838,93.2435078 55.8103838,84.4107924 L60.8646297,84.4107924 C60.8646297,100.45843 41.4109404,105.518105 35.4479074,106.68639 C35.3349877,106.709192 35.1623507,106.746108 34.9517119,106.797139 C34.0081803,107.241217 33.0809351,107.533289 32.265524,107.724384 C30.3502309,108.576711 28.0038881,110.056612 26.3187776,112.564734 C23.8975169,116.171652 23.3296607,120.946856 24.8757931,124.73184 C27.123331,130.233422 33.6140468,133.094418 39.6715415,133.094418 C41.8441615,133.094418 43.9614074,132.726343 45.8072114,131.979335 C49.6562558,130.419088 52.0840311,127.438657 53.4434115,125.211749 L57.7560785,127.846906 C56.0003931,130.722017 52.8310389,134.587348 47.7040466,136.663335 C45.1980961,137.678527 42.4185323,138.188837 39.5803371,138.188837 C37.0439851,138.188837 34.4620309,137.781675 31.9875677,136.963006 C26.3394072,135.095487 22.1516034,131.429937 20.1972226,126.641704 C18.0332888,121.342075 18.7900684,114.711295 22.1233735,109.747168 C24.4686304,106.254255 27.6412419,104.239071 30.2535976,103.085987 C30.2535976,103.085987 34.4783174,101.172865 34.9777703,100.467116 C36.8984923,97.7592133 34.5260912,86.9362867 30.848598,83.4412024 L34.3295673,79.7778242 Z" id="Fill-12" fill="#00587E"></path>
                    <path d="M50.9355067,118.107032 C50.9355067,124.234016 55.9018054,129.199229 62.0287892,129.199229 C68.1546872,129.199229 73.120986,124.234016 73.120986,118.107032 C73.120986,111.980048 68.1546872,107.014835 62.0287892,107.014835 C55.9018054,107.014835 50.9355067,111.981134 50.9355067,118.107032" id="Fill-14" fill="#FFFFFF"></path>
                    <path d="M62.0285721,109.120246 C57.073131,109.120246 53.0416777,113.151699 53.0416777,118.10714 C53.0416777,123.062581 57.073131,127.094035 62.0285721,127.094035 C66.9840131,127.094035 71.0143807,123.062581 71.0143807,118.10714 C71.0143807,113.151699 66.9840131,109.120246 62.0285721,109.120246 M62.0285721,131.305725 C54.7506751,131.305725 48.8299871,125.383952 48.8299871,118.10714 C48.8299871,110.829243 54.7506751,104.908555 62.0285721,104.908555 C69.306469,104.908555 75.227157,110.829243 75.227157,118.10714 C75.227157,125.383952 69.306469,131.305725 62.0285721,131.305725" id="Fill-16" fill="#005F9E"></path>
                    <path d="M55.5575087,118.100626 C55.5097349,118.100626 55.4608754,118.096283 55.4120159,118.087597 C54.9538221,118.008336 54.6476358,117.571857 54.7268968,117.113663 C55.4315597,113.087639 59.2806041,110.384079 63.3033712,111.087656 C63.7615649,111.166917 64.0677513,111.603395 63.9884903,112.061589 C63.9070577,112.519783 63.4694936,112.828141 63.0134714,112.746708 C59.9049202,112.207082 56.9310041,114.29284 56.3870347,117.402478 C56.3153741,117.811812 55.9592425,118.100626 55.5575087,118.100626" id="Fill-18" fill="#5493BC"></path>
                    <path d="M72.1292463,32.1410951 C72.1292463,47.1941703 59.9263098,59.3971069 44.8721488,59.3971069 C29.8201594,59.3971069 17.6172228,47.1941703 17.6172228,32.1410951 C17.6172228,17.0880199 29.8201594,4.88508338 44.8721488,4.88508338 C59.9263098,4.88508338 72.1292463,17.0880199 72.1292463,32.1410951" id="Fill-20" fill="#96D1F2"></path>
                    <path d="M44.8726917,7.4123149 C31.2376283,7.4123149 20.1454315,18.5055975 20.1454315,32.1406608 C20.1454315,45.77681 31.2376283,56.8700925 44.8726917,56.8700925 C58.5088408,56.8700925 69.6010376,45.77681 69.6010376,32.1406608 C69.6010376,18.5055975 58.5088408,7.4123149 44.8726917,7.4123149 M44.8726917,61.9243384 C28.4504642,61.9243384 15.0900999,48.5639741 15.0900999,32.1406608 C15.0900999,15.7184333 28.4504642,2.35806901 44.8726917,2.35806901 C61.296005,2.35806901 74.6563693,15.7184333 74.6563693,32.1406608 C74.6563693,48.5639741 61.296005,61.9243384 44.8726917,61.9243384" id="Fill-22" fill="#00587E"></path>
                    <path d="M68.7871466,24.973295 L20.9775634,24.973295 C20.9667058,24.973295 20.9591054,24.9646088 20.9591054,24.9548369 L20.9591054,21.6997071 C20.9591054,15.6541559 25.8602581,10.7530031 31.9058094,10.7530031 L59.4158907,10.7530031 C64.5917425,10.7530031 68.7871466,14.949493 68.7871466,20.1253448 L68.7871466,24.973295 Z" id="Fill-24" fill="#FCFCFC"></path>
                    <path d="M23.72564,22.4460635 L66.2551377,22.4460635 C66.0846723,17.3625019 61.8957827,13.2800175 56.7731335,13.2800175 L34.9937311,13.2800175 C29.4498042,13.2800175 24.8103213,17.2202664 23.72564,22.4460635 Z M71.3148124,27.5003094 L18.4553264,27.5003094 L18.4314396,24.7880631 C18.4314396,15.655676 25.8624297,8.22577162 34.9937311,8.22577162 L56.7731335,8.22577162 C64.7904379,8.22577162 71.3148124,14.7501462 71.3148124,22.7685363 L71.3148124,27.5003094 Z" id="Fill-26" fill="#00587E"></path>
                    <path d="M33.5367402,13.4423397 C33.5367402,19.7028729 38.6127014,24.7788341 44.8721488,24.7788341 C51.1337677,24.7788341 56.209729,19.7028729 56.209729,13.4423397 C56.209729,7.18072078 51.1337677,2.10584531 44.8721488,2.10584531 C38.6127014,2.10584531 33.5367402,7.18072078 33.5367402,13.4423397" id="Fill-28" fill="#FFFFFF"></path>
                    <path d="M44.8726917,4.21169062 C39.7837012,4.21169062 35.6425855,8.35172061 35.6425855,13.4417968 C35.6425855,18.531873 39.7837012,22.671903 44.8726917,22.671903 C49.9616821,22.671903 54.1038837,18.531873 54.1038837,13.4417968 C54.1038837,8.35172061 49.9616821,4.21169062 44.8726917,4.21169062 M44.8726917,26.8846794 C37.4612454,26.8846794 31.4308949,20.8543289 31.4308949,13.4417968 C31.4308949,6.03035053 37.4612454,0 44.8726917,0 C52.284138,0 58.3155743,6.03035053 58.3155743,13.4417968 C58.3155743,20.8543289 52.284138,26.8846794 44.8726917,26.8846794" id="Fill-30" fill="#00587E"></path>
                    <path d="M38.4079257,13.4423397 C38.360152,13.4423397 38.3112925,13.4379966 38.2624329,13.4293105 C37.8042392,13.3500495 37.4969671,12.9135711 37.5773139,12.4553774 C37.9247594,10.4662521 39.0246415,8.73228198 40.6760932,7.57268271 C42.327545,6.41199767 44.3318711,5.96357585 46.3199107,6.31102133 C46.7781044,6.39028232 47.0853765,6.82784647 47.0050297,7.28604019 C46.9257687,7.74314814 46.4871188,8.05367754 46.0310966,7.97007347 C42.8432844,7.41524648 39.7933646,9.55529345 39.2374518,12.7441915 C39.1657912,13.1535257 38.8107453,13.4423397 38.4079257,13.4423397" id="Fill-32" fill="#5493BC"></path>
                    <path d="M68.6461054,62.298168 L66.4843431,62.298168 C65.2574263,62.298168 64.2650352,63.3209606 64.3377815,64.5457059 C64.3736119,65.1472209 64.3790407,65.7563363 64.3508108,66.3719662 C63.8046699,78.0037893 52.2499363,86.5726633 40.3347281,82.5650969 C38.8689425,82.0721586 37.4748175,81.3685815 36.2066415,80.4836814 C30.8766108,76.764929 28.0264721,70.8920147 28.3174577,64.6846841 C28.3185434,64.6607973 28.3196292,64.6369104 28.320715,64.6119377 C28.3869468,63.361134 27.4282144,62.298168 26.1763249,62.298168 L24.0167342,62.298168 C22.8897079,62.298168 21.9266325,63.165696 21.8680011,64.2905507 C21.8658295,64.3220379 21.8647437,64.3524394 21.863658,64.3828409 C21.5064406,72.0027545 24.6345356,79.2535072 30.5877967,84.3055816 C34.2587753,87.4206474 38.8352837,89.3457125 43.6202593,89.8744811 C44.554019,89.9787147 45.45412,90.0264885 46.3477063,90.0264885 C59.3323952,90.0264885 70.1900663,79.7790185 70.8046105,66.6748953 C70.8415265,65.8768564 70.839355,65.086418 70.7980959,64.3057514 C70.7394644,63.1743821 69.7796463,62.298168 68.6461054,62.298168" id="Fill-34" fill="#5493BC"></path>
                    <path d="M68.6461054,58.9290327 L66.4843431,58.9290327 C64.9653549,58.9290327 63.4973978,59.5620349 62.4572329,60.6673458 C61.4257542,61.7617991 60.8850421,63.2493 60.9751608,64.7465729 C61.0033908,65.2395111 61.0077338,65.7335352 60.9849327,66.21453 C60.6168577,74.0548543 54.1836875,80.1959531 46.3379344,80.1959531 C44.6929972,80.1959531 43.0350309,79.9190825 41.4085517,79.3718558 C40.2467809,78.9809797 39.1447273,78.4250669 38.1338781,77.7204041 C33.7918954,74.6911138 31.4412097,69.9973426 31.6833357,64.8432061 L31.6855073,64.7976039 C31.765854,63.2558146 31.2099413,61.7444268 30.1632618,60.6412874 C29.1144107,59.5370623 27.6985704,58.9290327 26.1763249,58.9290327 L24.0167342,58.9290327 C21.0764768,58.9290327 18.6541304,61.2069721 18.502123,64.1157422 L18.4966942,64.2232331 C18.0895315,72.9289138 21.7029644,81.1850869 28.4075764,86.8745066 C32.5801794,90.4162789 37.7136862,92.6106142 43.2500127,93.2240726 C44.2956065,93.3391639 45.3086272,93.3956238 46.3477063,93.3956238 C61.2498599,93.3956238 73.4712545,81.7279705 74.1704885,66.8334172 C74.2128334,65.9409167 74.2095761,65.0332154 74.1628881,64.1320287 C74.0119665,61.2134867 71.5885343,58.9290327 68.6461054,58.9290327 M68.6461054,62.298168 C69.7796463,62.298168 70.7394644,63.1743821 70.7980959,64.3057514 C70.839355,65.086418 70.8415265,65.8768564 70.8046105,66.6748953 C70.1900663,79.7790185 59.3323952,90.0264885 46.3477063,90.0264885 C45.45412,90.0264885 44.554019,89.9787147 43.6202593,89.8744811 C38.8352837,89.3457125 34.2587753,87.4206474 30.5877967,84.3055816 C24.6345356,79.2535072 21.5064406,72.0027545 21.863658,64.3828409 C21.8647437,64.3524394 21.8658295,64.3220379 21.8680011,64.2905507 C21.9266325,63.165696 22.8897079,62.298168 24.0167342,62.298168 L26.1763249,62.298168 C27.4282144,62.298168 28.3869468,63.361134 28.320715,64.6119377 C28.3196292,64.6369104 28.3185434,64.6607973 28.3174577,64.6846841 C28.0264721,70.8920147 30.8766108,76.764929 36.2066415,80.4836814 C37.4737317,81.3685815 38.8689425,82.0721586 40.3347281,82.5650969 C42.3651125,83.2480444 44.3813821,83.5650884 46.3379344,83.5650884 C55.8655408,83.5650884 63.8980459,76.0222643 64.3508108,66.3719662 C64.3790407,65.7563363 64.3736119,65.1472209 64.3377815,64.5457059 C64.2650352,63.3209606 65.2574263,62.298168 66.4843431,62.298168 L68.6461054,62.298168" id="Fill-36" fill="#00587E"></path>
                    <path d="M28.7430784,78.0322364 C28.4900947,78.0322364 28.2403682,77.9193166 28.0742458,77.7021632 C23.6302011,71.9019953 23.7919804,66.2918366 23.8006665,66.0562252 C23.8180388,65.5915168 24.241488,65.2190987 24.674709,65.2473287 C25.1394174,65.2647009 25.5020636,65.6555771 25.4846913,66.1202854 C25.481434,66.1995464 25.3652569,71.3971136 29.4108252,76.677199 C29.6942104,77.0463598 29.6247213,77.5762142 29.2555605,77.8585136 C29.1024673,77.9757765 28.92223,78.0322364 28.7430784,78.0322364" id="Fill-38" fill="#FFFFFF"></path>
                    <path d="M57.4724761,85.7158845 C57.1836621,85.7158845 56.9046199,85.5682202 56.7460979,85.303293 C56.5094007,84.9026449 56.6407785,84.3858198 57.0414266,84.1491225 C62.8079357,80.7256988 64.5961941,75.8603764 64.6146522,75.8115169 C64.7699169,75.372867 65.2487402,75.1437701 65.6895616,75.3012064 C66.1292973,75.4575568 66.3583941,75.9396374 66.1998721,76.3772016 C66.1216969,76.5997838 64.1846884,81.8679258 57.9024399,85.5975359 C57.766719,85.6778826 57.6190547,85.7158845 57.4724761,85.7158845" id="Fill-40" fill="#FFFFFF"></path>
                </g>
            </g>
        </g>
    </g>
</svg>