<?xml version="1.0" encoding="UTF-8"?>
<svg width="271px" height="271px" viewBox="0 0 271 271" version="1.1" xmlns="http://www.w3.org/2000/svg" xmlns:xlink="http://www.w3.org/1999/xlink">
    <!-- Generator: Sketch 49.3 (51167) - http://www.bohemiancoding.com/sketch -->
    <title>Icon/Industry/Contract Research</title>
    <desc>Created with Sketch.</desc>
    <defs>
        <circle id="path-1" cx="102.5" cy="102.5" r="102.5"></circle>
        <filter x="-25.4%" y="-24.4%" width="150.7%" height="150.7%" filterUnits="objectBoundingBox" id="filter-2">
            <feOffset dx="0" dy="2" in="SourceAlpha" result="shadowOffsetOuter1"></feOffset>
            <feGaussianBlur stdDeviation="17" in="shadowOffsetOuter1" result="shadowBlurOuter1"></feGaussianBlur>
            <feColorMatrix values="0 0 0 0 0.11   0 0 0 0 0.392   0 0 0 0 0.549  0 0 0 0.0535552536 0" type="matrix" in="shadowBlurOuter1"></feColorMatrix>
        </filter>
        <polygon id="path-3" points="0.520049886 0.068804451 60.5287075 0.068804451 60.5287075 40.514296 0.520049886 40.514296"></polygon>
        <polygon id="path-5" points="0.13160161 0.349261173 39.9613457 0.349261173 39.9613457 40.1789354 0.13160161 40.1789354"></polygon>
        <polygon id="path-7" points="0 0.068804451 60.0092164 0.068804451 60.0092164 40.514296 0 40.514296"></polygon>
        <polygon id="path-9" points="0.310632887 0.349261173 40.1396785 0.349261173 40.1396785 40.1789354 0.310632887 40.1789354"></polygon>
        <polygon id="path-11" points="0.0803999219 0.349261173 39.9094455 0.349261173 39.9094455 40.1789354 0.0803999219 40.1789354"></polygon>
    </defs>
    <g id="Desktop-UI" stroke="none" stroke-width="1" fill="none" fill-rule="evenodd">
        <g id="Icon/Industry/Contract-Research" transform="translate(33.164065, 30.856310)">
            <g id="Group-8-Copy">
                <g id="Oval">
                    <use fill="black" fill-opacity="1" filter="url(#filter-2)" xlink:href="#path-1"></use>
                    <use fill="#FFFFFF" fill-rule="evenodd" xlink:href="#path-1"></use>
                </g>
            </g>
            <g id="Icon/Free/Contract-Research" transform="translate(30.000000, 57.000000)">
                <g id="Page-1" transform="translate(0.000000, 0.000000)">
                    <path d="M140.438143,83.1808092 L86.8590727,83.1808092 C85.6926364,83.1808092 84.747937,82.2353969 84.747937,81.0696735 L84.747937,70.2430624 C84.747937,56.4939435 95.8932505,45.347917 109.643082,45.347917 L117.654133,45.347917 C131.403252,45.347917 142.549278,56.4939435 142.549278,70.2430624 L142.549278,81.0696735 C142.549278,82.2353969 141.604579,83.1808092 140.438143,83.1808092" id="Fill-1" fill="#96D1F2"></path>
                    <g id="Group-5" transform="translate(83.124159, 44.356169)">
                        <mask id="mask-4" fill="white">
                            <use xlink:href="#path-3"></use>
                        </mask>
                        <g id="Clip-4"></g>
                        <path d="M21.8766721,3.44895408 C11.9639415,3.44895408 3.89950099,11.5133946 3.89950099,21.4261252 L3.89950099,37.1568484 L57.1492564,37.1351942 L57.1492564,21.4261252 C57.1492564,11.5133946 49.0848159,3.44895408 39.1720853,3.44895408 L21.8766721,3.44895408 Z M57.1709106,37.1351942 L57.1709106,38.8249197 L57.1716091,37.1351942 L57.1709106,37.1351942 Z M57.1709106,40.5146453 L3.87714828,40.5146453 C2.02606406,40.5146453 0.520049886,39.0079326 0.520049886,37.1568484 L0.520049886,21.4261252 C0.520049886,9.64973694 10.1002839,0.068804451 21.8766721,0.068804451 L39.1720853,0.068804451 C50.9484736,0.068804451 60.5287075,9.64973694 60.5287075,21.4261252 L60.5287075,37.1568484 C60.5287075,39.0079326 59.0226933,40.5146453 57.1709106,40.5146453 Z" id="Fill-3" fill="#00587E" mask="url(#mask-4)"></path>
                    </g>
                    <path d="M131.873475,20.6132547 C131.873475,30.6789617 123.714035,38.8384012 113.648328,38.8384012 C103.58332,38.8384012 95.4231817,30.6789617 95.4231817,20.6132547 C95.4231817,10.5482462 103.58332,2.38810819 113.648328,2.38810819 C123.714035,2.38810819 131.873475,10.5482462 131.873475,20.6132547" id="Fill-6" fill="#96D1F2"></path>
                    <g id="Group-10" transform="translate(93.601994, 0.349261)">
                        <mask id="mask-6" fill="white">
                            <use xlink:href="#path-5"></use>
                        </mask>
                        <g id="Clip-9"></g>
                        <path d="M20.0464737,3.72864243 C10.9286615,3.72864243 3.51175124,11.1462512 3.51175124,20.2640634 C3.51175124,29.3818756 10.9286615,36.7994843 20.0464737,36.7994843 C29.1642858,36.7994843 36.5818946,29.3818756 36.5818946,20.2640634 C36.5818946,11.1462512 29.1642858,3.72864243 20.0464737,3.72864243 M20.0464737,40.1789354 C9.0657024,40.1789354 0.13160161,31.2455332 0.13160161,20.2640634 C0.13160161,9.28259359 9.0657024,0.34919132 20.0464737,0.34919132 C31.0279435,0.34919132 39.9613457,9.28259359 39.9613457,20.2640634 C39.9613457,31.2455332 31.0279435,40.1789354 20.0464737,40.1789354" id="Fill-8" fill="#00587E" mask="url(#mask-6)"></path>
                    </g>
                    <path d="M99.9354964,84.3056398 C99.313113,84.3056398 98.8087798,83.8006081 98.8087798,83.1789232 L98.8087798,69.6101267 C98.8087798,68.9877433 99.313113,68.4841087 99.9354964,68.4841087 C100.55788,68.4841087 101.062213,68.9877433 101.062213,69.6101267 L101.062213,83.1789232 C101.062213,83.8006081 100.55788,84.3056398 99.9354964,84.3056398" id="Fill-11" fill="#005F9E"></path>
                    <path d="M127.472924,84.8690679 C126.539698,84.8690679 125.783198,84.1125682 125.783198,83.1786438 L125.783198,69.6273103 C125.783198,68.6940845 126.539698,67.9375848 127.472924,67.9375848 C128.406848,67.9375848 129.162649,68.6940845 129.162649,69.6273103 L129.162649,83.1786438 C129.162649,84.1125682 128.406848,84.8690679 127.472924,84.8690679" id="Fill-13" fill="#00587E"></path>
                    <path d="M56.8591601,83.1808092 L3.1500563,83.1808092 C1.98150378,83.1808092 1.03379697,82.2331024 1.03379697,81.0645499 L1.03379697,70.211663 C1.03379697,56.4291757 12.2061597,45.2560983 25.9893617,45.2560983 L34.0198547,45.2560983 C47.8030568,45.2560983 58.9754195,56.4291757 58.9754195,70.211663 L58.9754195,81.0645499 C58.9754195,82.2331024 58.0284274,83.1808092 56.8591601,83.1808092" id="Fill-15" fill="#96D1F2"></path>
                    <g id="Group-19" transform="translate(0.000000, 44.356169)">
                        <mask id="mask-8" fill="white">
                            <use xlink:href="#path-7"></use>
                        </mask>
                        <g id="Clip-18"></g>
                        <path d="M21.357181,3.44895408 C11.4444504,3.44895408 3.3793114,11.5133946 3.3793114,21.4261252 L3.3793114,37.1568484 L56.6297653,37.1351942 L56.6297653,21.4261252 C56.6297653,11.5133946 48.5653249,3.44895408 38.6518957,3.44895408 L21.357181,3.44895408 Z M56.6514195,37.1351942 L56.6514195,38.8249197 L56.6514195,37.1351942 Z M56.6514195,40.5146453 L3.35765721,40.5146453 C1.50657299,40.5146453 -0.000139704469,39.0079326 -0.000139704469,37.1568484 L-0.000139704469,21.4261252 C-0.000139704469,9.64973694 9.58079278,0.068804451 21.357181,0.068804451 L38.6518957,0.068804451 C50.4289825,0.068804451 60.0092164,9.64973694 60.0092164,21.4261252 L60.0092164,37.1568484 C60.0092164,39.0079326 58.5032023,40.5146453 56.6514195,40.5146453 Z" id="Fill-17" fill="#00587E" mask="url(#mask-8)"></path>
                    </g>
                    <path d="M48.2298246,20.6132547 C48.2298246,30.6789617 40.0696865,38.8384012 30.0046781,38.8384012 C19.9396696,38.8384012 11.7795316,30.6789617 11.7795316,20.6132547 C11.7795316,10.5482462 19.9396696,2.38810819 30.0046781,2.38810819 C40.0696865,2.38810819 48.2298246,10.5482462 48.2298246,20.6132547" id="Fill-20" fill="#96D1F2"></path>
                    <g id="Group-24" transform="translate(9.779313, 0.349261)">
                        <mask id="mask-10" fill="white">
                            <use xlink:href="#path-9"></use>
                        </mask>
                        <g id="Clip-23"></g>
                        <path d="M20.2255049,3.72864243 C11.1076928,3.72864243 3.69008399,11.1462512 3.69008399,20.2640634 C3.69008399,29.3818756 11.1076928,36.7994843 20.2255049,36.7994843 C29.3426186,36.7994843 36.7602274,29.3818756 36.7602274,20.2640634 C36.7602274,11.1462512 29.3426186,3.72864243 20.2255049,3.72864243 M20.2255049,40.1789354 C9.24403516,40.1789354 0.310632887,31.2455332 0.310632887,20.2640634 C0.310632887,9.28259359 9.24403516,0.34919132 20.2255049,0.34919132 C31.2062762,0.34919132 40.1396785,9.28259359 40.1396785,20.2640634 C40.1396785,31.2455332 31.2062762,40.1789354 20.2255049,40.1789354" id="Fill-22" fill="#00587E" mask="url(#mask-10)"></path>
                    </g>
                    <path d="M12.0669735,84.8690679 C11.1344462,84.8690679 10.377248,84.1125682 10.377248,83.1786438 L10.377248,69.6098473 C10.377248,68.6766214 11.1344462,67.9201217 12.0669735,67.9201217 C13.0001994,67.9201217 13.7566991,68.6766214 13.7566991,69.6098473 L13.7566991,83.1786438 C13.7566991,84.1125682 13.0001994,84.8690679 12.0669735,84.8690679" id="Fill-25" fill="#00587E"></path>
                    <path d="M43.8289243,84.3056398 C43.2065408,84.3056398 42.7029062,83.8006081 42.7029062,83.1789232 L42.7029062,69.6268912 C42.7029062,69.0052063 43.2065408,68.5008732 43.8289243,68.5008732 C44.4513077,68.5008732 44.9556408,69.0052063 44.9556408,69.6268912 L44.9556408,83.1789232 C44.9556408,83.8006081 44.4513077,84.3056398 43.8289243,84.3056398" id="Fill-27" fill="#005F9E"></path>
                    <path d="M107.264533,15.3081172 C105.101907,15.3081172 103.343028,17.067695 103.343028,19.2296216 L103.343028,20.3982495 C103.343028,22.5608747 105.101907,24.319754 107.264533,24.319754 L110.440714,24.319754 C112.60264,24.319754 114.362218,22.5608747 114.362218,20.3982495 L114.362218,19.2296216 C114.362218,17.067695 112.60264,15.3081172 110.440714,15.3081172 L107.264533,15.3081172 Z M110.440714,26.5731871 L107.264533,26.5731871 C103.859236,26.5731871 101.089595,23.8028474 101.089595,20.3982495 L101.089595,19.2296216 C101.089595,15.8250237 103.859236,13.0546841 107.264533,13.0546841 L110.440714,13.0546841 C113.845312,13.0546841 116.615651,15.8250237 116.615651,19.2296216 L116.615651,20.3982495 C116.615651,23.8028474 113.845312,26.5731871 110.440714,26.5731871 Z" id="Fill-29" fill="#00587E"></path>
                    <path d="M32.9142332,15.3081172 C30.7523065,15.3081172 28.9927288,17.067695 28.9927288,19.2296216 L28.9927288,20.3982495 C28.9927288,22.5608747 30.7523065,24.319754 32.9142332,24.319754 L36.0904143,24.319754 C38.2530395,24.319754 40.0119188,22.5608747 40.0119188,20.3982495 L40.0119188,19.2296216 C40.0119188,17.067695 38.2530395,15.3081172 36.0904143,15.3081172 L32.9142332,15.3081172 Z M36.0904143,26.5731871 L32.9142332,26.5731871 C29.5096353,26.5731871 26.7399942,23.8028474 26.7399942,20.3982495 L26.7399942,19.2296216 C26.7399942,15.8250237 29.5096353,13.0546841 32.9142332,13.0546841 L36.0904143,13.0546841 C39.4950122,13.0546841 42.2653518,15.8250237 42.2653518,19.2296216 L42.2653518,20.3982495 C42.2653518,23.8028474 39.4950122,26.5731871 36.0904143,26.5731871 Z" id="Fill-31" fill="#00587E"></path>
                    <path d="M124.191755,15.3081172 C122.178613,15.3081172 120.540578,16.9461521 120.540578,18.9592935 L120.540578,20.6692762 C120.540578,22.6824176 122.178613,24.319754 124.191755,24.319754 L126.524819,24.319754 C128.537961,24.319754 130.175996,22.6824176 130.175996,20.6692762 L130.175996,18.9592935 C130.175996,16.9461521 128.537961,15.3081172 126.524819,15.3081172 L124.191755,15.3081172 Z M126.524819,26.5731871 L124.191755,26.5731871 C120.935942,26.5731871 118.287844,23.9243903 118.287844,20.6692762 L118.287844,18.9592935 C118.287844,15.7034808 120.935942,13.0546841 124.191755,13.0546841 L126.524819,13.0546841 C129.780632,13.0546841 132.42873,15.7034808 132.42873,18.9592935 L132.42873,20.6692762 C132.42873,23.9243903 129.780632,26.5731871 126.524819,26.5731871 Z" id="Fill-33" fill="#00587E"></path>
                    <path d="M114.363336,20.5272666 C114.355652,20.3589227 114.313741,18.8494159 115.276304,17.8400511 C115.802292,17.288917 116.518277,16.9976332 117.34882,16.9976332 C118.633403,17.0011258 120.540369,17.929462 120.540369,20.4741789 L118.287634,20.4741789 C118.287634,19.3726092 117.628928,19.2517648 117.346725,19.2510663 C117.044264,19.2510663 116.947868,19.3516535 116.906656,19.3956604 C116.661474,19.6520181 116.605592,20.2457621 116.614673,20.4210912 L114.363336,20.5272666 Z" id="Fill-35" fill="#00587E"></path>
                    <path d="M17.0991983,15.3081172 C15.1014244,15.3081172 13.4759629,16.9335787 13.4759629,18.9313526 L13.4759629,20.6972171 C13.4759629,22.6942925 15.1014244,24.319754 17.0991983,24.319754 L19.3491388,24.319754 C21.3476112,24.319754 22.9723742,22.6942925 22.9723742,20.6972171 L22.9723742,18.9313526 C22.9723742,16.9335787 21.3476112,15.3081172 19.3491388,15.3081172 L17.0991983,15.3081172 Z M19.3491388,26.5731871 L17.0991983,26.5731871 C13.8587532,26.5731871 11.2225299,23.9376622 11.2225299,20.6972171 L11.2225299,18.9313526 C11.2225299,15.691606 13.8587532,13.0546841 17.0991983,13.0546841 L19.3491388,13.0546841 C22.589584,13.0546841 25.2258073,15.691606 25.2258073,18.9313526 L25.2258073,20.6972171 C25.2258073,23.9376622 22.589584,26.5731871 19.3491388,26.5731871 Z" id="Fill-37" fill="#00587E"></path>
                    <path d="M22.9742602,20.6439198 C22.965878,20.4713848 22.920474,18.931143 23.9158684,17.8861536 C24.469098,17.3056815 25.2297889,16.9976332 26.1155152,16.9976332 C27.2862387,17.0018243 29.0227652,17.9301605 29.0227652,20.4741789 L26.7700307,20.4741789 C26.7700307,19.4508437 26.3369468,19.2678308 26.0791921,19.2503678 C25.7271368,19.2510663 25.5965131,19.3879767 25.546918,19.4396673 C25.2744943,19.72676 25.2151199,20.3421582 25.2248992,20.5335533 L22.9742602,20.6439198 Z" id="Fill-39" fill="#00587E"></path>
                    <path d="M89.9109323,20.6132547 C89.9109323,30.6789617 81.7507943,38.8384012 71.6857858,38.8384012 C61.6207774,38.8384012 53.4606393,30.6789617 53.4606393,20.6132547 C53.4606393,10.5482462 61.6207774,2.38810819 71.6857858,2.38810819 C81.7507943,2.38810819 89.9109323,10.5482462 89.9109323,20.6132547" id="Fill-41" fill="#96D1F2"></path>
                    <g id="Group-45" transform="translate(51.690654, 0.349261)">
                        <mask id="mask-12" fill="white">
                            <use xlink:href="#path-11"></use>
                        </mask>
                        <g id="Clip-44"></g>
                        <path d="M19.995272,3.72864243 C10.8774598,3.72864243 3.45985103,11.1462512 3.45985103,20.2640634 C3.45985103,29.3818756 10.8774598,36.7994843 19.995272,36.7994843 C29.1123856,36.7994843 36.5299944,29.3818756 36.5299944,20.2640634 C36.5299944,11.1462512 29.1123856,3.72864243 19.995272,3.72864243 M19.995272,40.1789354 C9.01450072,40.1789354 0.0803999219,31.2455332 0.0803999219,20.2640634 C0.0803999219,9.28259359 9.01450072,0.34919132 19.995272,0.34919132 C30.9760432,0.34919132 39.9094455,9.28259359 39.9094455,20.2640634 C39.9094455,31.2455332 30.9760432,40.1789354 19.995272,40.1789354" id="Fill-43" fill="#00587E" mask="url(#mask-12)"></path>
                    </g>
                    <path d="M62.3012778,15.3081172 C60.3028054,15.3081172 58.6780424,16.9335787 58.6780424,18.9313526 L58.6780424,20.6972171 C58.6780424,22.6942925 60.3028054,24.319754 62.3012778,24.319754 L64.5512183,24.319754 C66.5496907,24.319754 68.1744537,22.6942925 68.1744537,20.6972171 L68.1744537,18.9313526 C68.1744537,16.9335787 66.5496907,15.3081172 64.5512183,15.3081172 L62.3012778,15.3081172 Z M64.5512183,26.5731871 L62.3012778,26.5731871 C59.0608327,26.5731871 56.4246093,23.9376622 56.4246093,20.6972171 L56.4246093,18.9313526 C56.4246093,15.691606 59.0608327,13.0546841 62.3012778,13.0546841 L64.5512183,13.0546841 C67.7916635,13.0546841 70.4278868,15.691606 70.4278868,18.9313526 L70.4278868,20.6972171 C70.4278868,23.9376622 67.7916635,26.5731871 64.5512183,26.5731871 Z" id="Fill-46" fill="#00587E"></path>
                    <path d="M78.0043395,15.3081172 C75.9911982,15.3081172 74.3531633,16.9461521 74.3531633,18.9592935 L74.3531633,20.6692762 C74.3531633,22.6824176 75.9911982,24.319754 78.0043395,24.319754 L80.3374042,24.319754 C82.3505456,24.319754 83.9885805,22.6824176 83.9885805,20.6692762 L83.9885805,18.9592935 C83.9885805,16.9461521 82.3505456,15.3081172 80.3374042,15.3081172 L78.0043395,15.3081172 Z M80.3374042,26.5731871 L78.0043395,26.5731871 C74.7485269,26.5731871 72.0997302,23.9243903 72.0997302,20.6692762 L72.0997302,18.9592935 C72.0997302,15.7034808 74.7485269,13.0546841 78.0043395,13.0546841 L80.3374042,13.0546841 C83.5925183,13.0546841 86.241315,15.7034808 86.241315,18.9592935 L86.241315,20.6692762 C86.241315,23.9243903 83.5925183,26.5731871 80.3374042,26.5731871 Z" id="Fill-48" fill="#00587E"></path>
                    <path d="M68.1759206,20.5272666 C68.1682368,20.3589227 68.125627,18.8494159 69.0881908,17.8400511 C69.6141781,17.288917 70.330862,16.9976332 71.1614051,16.9976332 C72.4459877,17.0011258 74.3529537,17.929462 74.3529537,20.4741789 L72.1002191,20.4741789 C72.1002191,19.3726092 71.4415126,19.2517648 71.158611,19.2510663 C70.8561508,19.2510663 70.7597548,19.3516535 70.7185419,19.3956604 C70.4740591,19.6520181 70.4181773,20.2457621 70.4265596,20.4210912 L68.1759206,20.5272666 Z" id="Fill-50" fill="#00587E"></path>
                    <polygon id="Fill-52" fill="#00587E" points="40.3375699 17.2793473 47.5044091 17.2793473 47.5044091 15.0259142 40.3375699 15.0259142"></polygon>
                    <polygon id="Fill-54" fill="#00587E" points="96.3199447 17.2793473 103.517519 17.2793473 103.517519 15.0259142 96.3199447 15.0259142"></polygon>
                    <path d="M97.9320644,83.1808092 L45.4395072,83.1808092 C44.2974232,83.1808092 43.3711826,82.2189769 43.3711826,81.0330071 L43.3711826,70.0183581 C43.3711826,56.030443 54.2904839,44.690831 67.7614873,44.690831 L75.6100844,44.690831 C89.0810878,44.690831 100.000389,56.030443 100.000389,70.0183581 L100.000389,81.0330071 C100.000389,82.2189769 99.074847,83.1808092 97.9320644,83.1808092" id="Fill-55" fill="#96D1F2"></path>
                    <path d="M63.0382887,47.805123 C53.1255581,47.805123 45.0604191,55.8695635 45.0604191,65.7822941 L45.0604191,81.5130173 L98.3108731,81.4913631 L98.3108731,65.7822941 C98.3108731,55.8695635 90.2464326,47.805123 80.3330035,47.805123 L63.0382887,47.805123 Z M98.3325273,81.4913631 L98.3325273,83.1810886 L98.3325273,81.4913631 Z M98.3325273,84.8708142 L45.038765,84.8708142 C43.1876807,84.8708142 41.680968,83.3641015 41.680968,81.5130173 L41.680968,65.7822941 C41.680968,54.0059059 51.2619005,44.4249734 63.0382887,44.4249734 L80.3330035,44.4249734 C92.1100902,44.4249734 101.690324,54.0059059 101.690324,65.7822941 L101.690324,81.5130173 C101.690324,83.3641015 100.18431,84.8708142 98.3325273,84.8708142 Z" id="Fill-56" fill="#00587E"></path>
                    <path d="M57.9726746,84.8690679 C57.0394487,84.8690679 56.282949,84.1125682 56.282949,83.1786438 L56.282949,69.6098473 C56.282949,68.6766214 57.0394487,67.9201217 57.9726746,67.9201217 C58.9059004,67.9201217 59.6624001,68.6766214 59.6624001,69.6098473 L59.6624001,83.1786438 C59.6624001,84.1125682 58.9059004,84.8690679 57.9726746,84.8690679" id="Fill-57" fill="#00587E"></path>
                    <path d="M85.510032,84.8690679 C84.5775047,84.8690679 83.8203064,84.1125682 83.8203064,83.1786438 L83.8203064,69.6273103 C83.8203064,68.6940845 84.5775047,67.9375848 85.510032,67.9375848 C86.4432579,67.9375848 87.1997576,68.6940845 87.1997576,69.6273103 L87.1997576,83.1786438 C87.1997576,84.1125682 86.4432579,84.8690679 85.510032,84.8690679" id="Fill-58" fill="#00587E"></path>
                    <path d="M79.0968285,54.6505023 C76.2810849,54.6505023 73.9773582,52.3467756 73.9773582,49.5317305 L73.9773582,48.1591341 C73.9773582,45.3433906 76.2810849,43.0396639 79.0968285,43.0396639 C81.9118735,43.0396639 84.2156002,45.3433906 84.2156002,48.1591341 L84.2156002,49.5317305 C84.2156002,52.3467756 81.9118735,54.6505023 79.0968285,54.6505023" id="Fill-59" fill="#FF385E"></path>
                    <path d="M78.7049575,44.1665201 C76.719757,44.1665201 75.1040748,45.7822023 75.1040748,47.7667043 L75.1040748,49.9230427 C75.1040748,51.9082433 76.719757,53.5239254 78.7049575,53.5239254 L79.4886995,53.5239254 C81.4739,53.5239254 83.0888837,51.9082433 83.0888837,49.9230427 L83.0888837,47.7667043 C83.0888837,45.7822023 81.4739,44.1665201 79.4886995,44.1665201 L78.7049575,44.1665201 Z M79.4886995,55.77666 L78.7049575,55.77666 C75.4770857,55.77666 72.8513402,53.1509145 72.8513402,49.9230427 L72.8513402,47.7667043 C72.8513402,44.5388325 75.4770857,41.913087 78.7049575,41.913087 L79.4886995,41.913087 C82.7165713,41.913087 85.3423168,44.5388325 85.3423168,47.7667043 L85.3423168,49.9230427 C85.3423168,53.1509145 82.7165713,55.77666 79.4886995,55.77666 Z" id="Fill-60" fill="#00587E"></path>
                    <path d="M65.6724165,54.6505023 C62.8566729,54.6505023 60.5536448,52.3467756 60.5536448,49.5317305 L60.5536448,48.1591341 C60.5536448,45.3433906 62.8566729,43.0396639 65.6724165,43.0396639 C68.4881601,43.0396639 70.7918868,45.3433906 70.7918868,48.1591341 L70.7918868,49.5317305 C70.7918868,52.3467756 68.4881601,54.6505023 65.6724165,54.6505023" id="Fill-61" fill="#FF385E"></path>
                    <path d="M65.2805455,44.1665201 C63.295345,44.1665201 61.6796628,45.7822023 61.6796628,47.7667043 L61.6796628,49.9230427 C61.6796628,51.9082433 63.295345,53.5239254 65.2805455,53.5239254 L66.0642875,53.5239254 C68.0494881,53.5239254 69.6651702,51.9082433 69.6651702,49.9230427 L69.6651702,47.7667043 C69.6651702,45.7822023 68.0494881,44.1665201 66.0642875,44.1665201 L65.2805455,44.1665201 Z M66.0642875,55.77666 L65.2805455,55.77666 C62.0526737,55.77666 59.4269282,53.1509145 59.4269282,49.9230427 L59.4269282,47.7667043 C59.4269282,44.5388325 62.0526737,41.913087 65.2805455,41.913087 L66.0642875,41.913087 C69.2921593,41.913087 71.9179048,44.5388325 71.9179048,47.7667043 L71.9179048,49.9230427 C71.9179048,53.1509145 69.2921593,55.77666 66.0642875,55.77666 Z" id="Fill-62" fill="#00587E"></path>
                    <path d="M73.0625035,51.8727583 L72.0768885,51.8727583 C70.4116112,51.8727583 69.0487941,50.5106397 69.0487941,48.8453625 C69.0487941,47.1800852 70.4116112,45.8172681 72.0768885,45.8172681 L73.0625035,45.8172681 C74.7277808,45.8172681 76.0898994,47.1800852 76.0898994,48.8453625 C76.0898994,50.5106397 74.7277808,51.8727583 73.0625035,51.8727583" id="Fill-63" fill="#FF385E"></path>
                    <path d="M72.0768186,46.9442641 C71.0290351,46.9442641 70.1754408,47.7971598 70.1754408,48.8449434 C70.1754408,49.8934254 71.0290351,50.7456227 72.0768186,50.7456227 L73.0624337,50.7456227 C74.1109157,50.7456227 74.963113,49.8934254 74.963113,48.8449434 C74.963113,47.7971598 74.1109157,46.9442641 73.0624337,46.9442641 L72.0768186,46.9442641 Z M73.0624337,52.9990557 L72.0768186,52.9990557 C69.7863639,52.9990557 67.9227062,51.1353981 67.9227062,48.8449434 C67.9227062,46.5544886 69.7863639,44.690831 72.0768186,44.690831 L73.0624337,44.690831 C75.3528884,44.690831 77.216546,46.5544886 77.216546,48.8449434 C77.216546,51.1353981 75.3528884,52.9990557 73.0624337,52.9990557 Z" id="Fill-64" fill="#00587E"></path>
                    <path d="M66.863467,20.8935717 C66.5526245,20.8935717 66.300458,20.6421037 66.300458,20.3305627 L66.300458,19.2974482 C66.300458,18.0757326 65.3064607,17.0817353 64.0840465,17.0817353 L62.7680305,17.0817353 C62.4564895,17.0817353 62.2050214,16.8302672 62.2050214,16.5187263 C62.2050214,16.2071853 62.4564895,15.9557173 62.7680305,15.9557173 L64.0840465,15.9557173 C65.927447,15.9557173 67.4271745,17.4547462 67.4271745,19.2974482 L67.4271745,20.3305627 C67.4271745,20.6421037 67.1743094,20.8935717 66.863467,20.8935717" id="Fill-65" fill="#FFFFFF"></path>
                    <path d="M64.0601571,23.6972309 L62.744141,23.6972309 C60.9007405,23.6972309 59.4017116,22.1975034 59.4017116,20.3548014 L59.4017116,19.3216869 C59.4017116,19.0101459 59.6538781,18.7586779 59.9647206,18.7586779 C60.2762615,18.7586779 60.5277296,19.0101459 60.5277296,19.3216869 L60.5277296,20.3548014 C60.5277296,21.576517 61.5217269,22.5705143 62.744141,22.5705143 L64.0601571,22.5705143 C64.3709995,22.5705143 64.6238646,22.8219824 64.6238646,23.1335233 C64.6238646,23.4450643 64.3709995,23.6972309 64.0601571,23.6972309" id="Fill-66" fill="#1498CB"></path>
                    <path d="M108.852553,23.6972309 L107.535839,23.6972309 C105.693137,23.6972309 104.194108,22.1975034 104.194108,20.3548014 L104.194108,19.3216869 C104.194108,19.0101459 104.445576,18.7586779 104.757117,18.7586779 C105.067959,18.7586779 105.320126,19.0101459 105.320126,19.3216869 L105.320126,20.3548014 C105.320126,21.576517 106.314123,22.5705143 107.535839,22.5705143 L108.852553,22.5705143 C109.163396,22.5705143 109.415562,22.8219824 109.415562,23.1335233 C109.415562,23.4450643 109.163396,23.6972309 108.852553,23.6972309" id="Fill-67" fill="#1498CB"></path>
                    <path d="M125.921715,23.6972309 L124.605,23.6972309 C122.762299,23.6972309 121.262571,22.1975034 121.262571,20.3548014 L121.262571,19.3216869 C121.262571,19.0101459 121.514738,18.7586779 121.826279,18.7586779 C122.137121,18.7586779 122.389288,19.0101459 122.389288,19.3216869 L122.389288,20.3548014 C122.389288,21.576517 123.383285,22.5705143 124.605,22.5705143 L125.921715,22.5705143 C126.233256,22.5705143 126.485423,22.8219824 126.485423,23.1335233 C126.485423,23.4450643 126.233256,23.6972309 125.921715,23.6972309" id="Fill-68" fill="#1498CB"></path>
                    <path d="M18.7875268,23.6972309 L17.4708122,23.6972309 C15.6281103,23.6972309 14.1290813,22.1975034 14.1290813,20.3548014 L14.1290813,19.3216869 C14.1290813,19.0101459 14.3805494,18.7586779 14.6920903,18.7586779 C15.0029328,18.7586779 15.2550993,19.0101459 15.2550993,19.3216869 L15.2550993,20.3548014 C15.2550993,21.576517 16.2490966,22.5705143 17.4708122,22.5705143 L18.7875268,22.5705143 C19.0983693,22.5705143 19.3505359,22.8219824 19.3505359,23.1335233 C19.3505359,23.4450643 19.0983693,23.6972309 18.7875268,23.6972309" id="Fill-69" fill="#1498CB"></path>
                    <path d="M79.7189325,23.6972309 L78.4022179,23.6972309 C76.5595159,23.6972309 75.0597885,22.1975034 75.0597885,20.3548014 L75.0597885,19.3216869 C75.0597885,19.0101459 75.311955,18.7586779 75.623496,18.7586779 C75.9343384,18.7586779 76.186505,19.0101459 76.186505,19.3216869 L76.186505,20.3548014 C76.186505,21.576517 77.1805023,22.5705143 78.4022179,22.5705143 L79.7189325,22.5705143 C80.0297749,22.5705143 80.2819415,22.8219824 80.2819415,23.1335233 C80.2819415,23.4450643 80.0297749,23.6972309 79.7189325,23.6972309" id="Fill-70" fill="#1498CB"></path>
                    <path d="M34.445953,23.6972309 L33.1299369,23.6972309 C31.2865364,23.6972309 29.7875075,22.1975034 29.7875075,20.3548014 L29.7875075,19.3216869 C29.7875075,19.0101459 30.039674,18.7586779 30.3505165,18.7586779 C30.6613589,18.7586779 30.9135255,19.0101459 30.9135255,19.3216869 L30.9135255,20.3548014 C30.9135255,21.576517 31.9075228,22.5705143 33.1299369,22.5705143 L34.445953,22.5705143 C34.7567954,22.5705143 35.008962,22.8219824 35.008962,23.1335233 C35.008962,23.4450643 34.7567954,23.6972309 34.445953,23.6972309" id="Fill-71" fill="#1498CB"></path>
                    <path d="M82.6606895,20.8935717 C82.3498471,20.8935717 82.096982,20.6421037 82.096982,20.3305627 L82.096982,19.2974482 C82.096982,18.0757326 81.1036832,17.0817353 79.8812691,17.0817353 L78.565253,17.0817353 C78.253712,17.0817353 78.002244,16.8302672 78.002244,16.5187263 C78.002244,16.2071853 78.253712,15.9557173 78.565253,15.9557173 L79.8812691,15.9557173 C81.7246696,15.9557173 83.2236985,17.4547462 83.2236985,19.2974482 L83.2236985,20.3305627 C83.2236985,20.6421037 82.9715319,20.8935717 82.6606895,20.8935717" id="Fill-72" fill="#FFFFFF"></path>
                    <path d="M21.4820069,20.8935717 C21.1711645,20.8935717 20.9182994,20.6421037 20.9182994,20.3305627 L20.9182994,19.2974482 C20.9182994,18.0757326 19.9250006,17.0817353 18.7025865,17.0817353 L17.3865704,17.0817353 C17.0750295,17.0817353 16.8235614,16.8302672 16.8235614,16.5187263 C16.8235614,16.2071853 17.0750295,15.9557173 17.3865704,15.9557173 L18.7025865,15.9557173 C20.545987,15.9557173 22.045016,17.4547462 22.045016,19.2974482 L22.045016,20.3305627 C22.045016,20.6421037 21.7928494,20.8935717 21.4820069,20.8935717" id="Fill-73" fill="#FFFFFF"></path>
                    <path d="M38.5979,20.8935717 C38.2870575,20.8935717 38.0341924,20.6421037 38.0341924,20.3305627 L38.0341924,19.2974482 C38.0341924,18.0757326 37.0408937,17.0817353 35.8184796,17.0817353 L34.5024635,17.0817353 C34.1909225,17.0817353 33.9394544,16.8302672 33.9394544,16.5187263 C33.9394544,16.2071853 34.1909225,15.9557173 34.5024635,15.9557173 L35.8184796,15.9557173 C37.66188,15.9557173 39.160909,17.4547462 39.160909,19.2974482 L39.160909,20.3305627 C39.160909,20.6421037 38.9087424,20.8935717 38.5979,20.8935717" id="Fill-74" fill="#FFFFFF"></path>
                    <path d="M113.000379,20.8935717 C112.688838,20.8935717 112.43737,20.6421037 112.43737,20.3305627 L112.43737,19.2974482 C112.43737,18.0757326 111.443373,17.0817353 110.220958,17.0817353 L108.904942,17.0817353 C108.593401,17.0817353 108.341235,16.8302672 108.341235,16.5187263 C108.341235,16.2071853 108.593401,15.9557173 108.904942,15.9557173 L110.220958,15.9557173 C112.064359,15.9557173 113.564086,17.4547462 113.564086,19.2974482 L113.564086,20.3305627 C113.564086,20.6421037 113.31192,20.8935717 113.000379,20.8935717" id="Fill-75" fill="#FFFFFF"></path>
                    <path d="M128.797671,20.8935717 C128.48613,20.8935717 128.233964,20.6421037 128.233964,20.3305627 L128.233964,19.2974482 C128.233964,18.0757326 127.240665,17.0817353 126.018251,17.0817353 L124.702235,17.0817353 C124.389995,17.0817353 124.138527,16.8302672 124.138527,16.5187263 C124.138527,16.2071853 124.389995,15.9557173 124.702235,15.9557173 L126.018251,15.9557173 C127.860953,15.9557173 129.361379,17.4547462 129.361379,19.2974482 L129.361379,20.3305627 C129.361379,20.6421037 129.108514,20.8935717 128.797671,20.8935717" id="Fill-76" fill="#FFFFFF"></path>
                </g>
            </g>
        </g>
    </g>
</svg>