<?xml version="1.0" encoding="UTF-8"?>
<svg width="308px" height="285px" viewBox="0 0 308 285" version="1.1" xmlns="http://www.w3.org/2000/svg" xmlns:xlink="http://www.w3.org/1999/xlink">
    <!-- Generator: Sketch 49.3 (51167) - http://www.bohemiancoding.com/sketch -->
    <title>cro-header-icon</title>
    <desc>Created with Sketch.</desc>
    <defs>
        <filter x="-12.0%" y="-261.1%" width="123.9%" height="622.2%" filterUnits="objectBoundingBox" id="filter-1">
            <feGaussianBlur stdDeviation="10.4436384" in="SourceGraphic"></feGaussianBlur>
        </filter>
        <polygon id="path-2" points="1.10465769 0.146409471 128.571324 0.146409471 128.571324 86.2106532 1.10465769 86.2106532"></polygon>
        <polygon id="path-4" points="0.279539971 0.743195286 84.8834102 0.743195286 84.8834102 85.497037 0.279539971 85.497037"></polygon>
        <polygon id="path-6" points="0 0.146409471 127.467853 0.146409471 127.467853 86.2106532 0 86.2106532"></polygon>
        <polygon id="path-8" points="0.659827098 0.743195286 85.2622136 0.743195286 85.2622136 85.497037 0.659827098 85.497037"></polygon>
        <polygon id="path-10" points="0.170780524 0.743195286 84.773167 0.743195286 84.773167 85.497037 0.170780524 85.497037"></polygon>
    </defs>
    <g id="Desktop-UI" stroke="none" stroke-width="1" fill="none" fill-rule="evenodd">
        <g id="CRO" transform="translate(-436.000000, -291.000000)">
            <g id="cro-header-icon" transform="translate(436.000000, 287.000000)">
                <ellipse id="Oval-3" fill-opacity="0.3" fill="#1F6FA4" style="mix-blend-mode: multiply;" filter="url(#filter-1)" cx="151" cy="260" rx="131" ry="6"></ellipse>
                <g id="Icon/Free/Contract-Research" transform="translate(158.846040, 99.483813) rotate(3.000000) translate(-158.846040, -99.483813) translate(4.773879, 8.103083)">
                    <g id="Page-1" transform="translate(0.000000, 0.000000)">
                        <path d="M298.309986,177.001024 L184.500651,177.001024 C182.022979,177.001024 180.016308,174.989275 180.016308,172.508724 L180.016308,149.470702 C180.016308,120.213857 203.690491,96.496149 232.89703,96.496149 L249.913606,96.496149 C279.118631,96.496149 302.794329,120.213857 302.794329,149.470702 L302.794329,172.508724 C302.794329,174.989275 300.787657,177.001024 298.309986,177.001024" id="Fill-1" fill="#96D1F2"></path>
                        <g id="Group-5" transform="translate(176.567179, 94.385801)">
                            <mask id="mask-3" fill="white">
                                <use xlink:href="#path-2"></use>
                            </mask>
                            <g id="Clip-4"></g>
                            <path d="M46.4690689,7.33905345 C25.4130619,7.33905345 8.28307797,24.4994326 8.28307797,45.5928012 L8.28307797,79.0663169 L121.392903,79.0202388 L121.392903,45.5928012 C121.392903,24.4994326 104.262919,7.33905345 83.2069123,7.33905345 L46.4690689,7.33905345 Z M121.4389,79.0202388 L121.4389,82.6158176 L121.440384,79.0202388 L121.4389,79.0202388 Z M121.4389,86.2113964 L8.23559772,86.2113964 C4.30363953,86.2113964 1.10465769,83.0052519 1.10465769,79.0663169 L1.10465769,45.5928012 C1.10465769,20.5337426 21.454396,0.146409471 46.4690689,0.146409471 L83.2069123,0.146409471 C108.221585,0.146409471 128.571324,20.5337426 128.571324,45.5928012 L128.571324,79.0663169 C128.571324,83.0052519 125.372342,86.2113964 121.4389,86.2113964 Z" id="Fill-3" fill="#00587E" mask="url(#mask-3)"></path>
                        </g>
                        <path d="M280.11745,43.8630885 C280.11745,65.2819766 262.785675,82.6445049 241.404725,82.6445049 C220.025259,82.6445049 202.692,65.2819766 202.692,43.8630885 C202.692,22.4456867 220.025259,5.08167209 241.404725,5.08167209 C262.785675,5.08167209 280.11745,22.4456867 280.11745,43.8630885" id="Fill-6" fill="#96D1F2"></path>
                        <g id="Group-10" transform="translate(198.823546, 0.743195)">
                            <mask id="mask-5" fill="white">
                                <use xlink:href="#path-4"></use>
                            </mask>
                            <g id="Clip-9"></g>
                            <path d="M42.5814751,7.93420423 C23.2139844,7.93420423 7.45944401,23.7181857 7.45944401,43.1200418 C7.45944401,62.521898 23.2139844,78.3058795 42.5814751,78.3058795 C61.9489658,78.3058795 77.70499,62.521898 77.70499,43.1200418 C77.70499,23.7181857 61.9489658,7.93420423 42.5814751,7.93420423 M42.5814751,85.497037 C19.2568023,85.497037 0.279539971,66.487588 0.279539971,43.1200418 C0.279539971,19.7524957 19.2568023,0.743046647 42.5814751,0.743046647 C65.9076316,0.743046647 84.8834102,19.7524957 84.8834102,43.1200418 C84.8834102,66.487588 65.9076316,85.497037 42.5814751,85.497037" id="Fill-8" fill="#00587E" mask="url(#mask-5)"></path>
                        </g>
                        <path d="M212.276778,179.394559 C210.95475,179.394559 209.883477,178.319899 209.883477,176.997011 L209.883477,148.123874 C209.883477,146.7995 210.95475,145.727813 212.276778,145.727813 C213.598807,145.727813 214.67008,146.7995 214.67008,148.123874 L214.67008,176.997011 C214.67008,178.319899 213.598807,179.394559 212.276778,179.394559" id="Fill-11" fill="#005F9E"></path>
                        <path d="M270.770072,180.593482 C268.787772,180.593482 267.180862,178.983721 267.180862,176.996417 L267.180862,148.160439 C267.180862,146.174622 268.787772,144.564861 270.770072,144.564861 C272.753857,144.564861 274.359282,146.174622 274.359282,148.160439 L274.359282,176.996417 C274.359282,178.983721 272.753857,180.593482 270.770072,180.593482" id="Fill-13" fill="#00587E"></path>
                        <path d="M120.776699,177.001024 L6.69115407,177.001024 C4.20898734,177.001024 2.19592735,174.984392 2.19592735,172.497821 L2.19592735,149.403888 C2.19592735,120.076037 25.9275667,96.3007673 55.204989,96.3007673 L72.2628639,96.3007673 C101.540286,96.3007673 125.271926,120.076037 125.271926,149.403888 L125.271926,172.497821 C125.271926,174.984392 123.260384,177.001024 120.776699,177.001024" id="Fill-15" fill="#96D1F2"></path>
                        <g id="Group-19" transform="translate(0.000000, 94.385801)">
                            <mask id="mask-7" fill="white">
                                <use xlink:href="#path-6"></use>
                            </mask>
                            <g id="Clip-18"></g>
                            <path d="M45.3655983,7.33905345 C24.3095912,7.33905345 7.17812353,24.4994326 7.17812353,45.5928012 L7.17812353,79.0663169 L120.289433,79.0202388 L120.289433,45.5928012 C120.289433,24.4994326 103.159449,7.33905345 82.1019579,7.33905345 L45.3655983,7.33905345 Z M120.335429,79.0202388 L120.335429,82.6158176 L120.335429,79.0202388 Z M120.335429,86.2113964 L7.13212704,86.2113964 C3.20016884,86.2113964 -0.000296751562,83.0052519 -0.000296751562,79.0663169 L-0.000296751562,45.5928012 C-0.000296751562,20.5337426 20.3509254,0.146409471 45.3655983,0.146409471 L82.1019579,0.146409471 C107.118115,0.146409471 127.467853,20.5337426 127.467853,45.5928012 L127.467853,79.0663169 C127.467853,83.0052519 124.268871,86.2113964 120.335429,86.2113964 Z" id="Fill-17" fill="#00587E" mask="url(#mask-7)"></path>
                        </g>
                        <path d="M102.4468,43.8630885 C102.4468,65.2819766 85.1135411,82.6445049 63.7340748,82.6445049 C42.3546085,82.6445049 25.0213498,65.2819766 25.0213498,43.8630885 C25.0213498,22.4456867 42.3546085,5.08167209 63.7340748,5.08167209 C85.1135411,5.08167209 102.4468,22.4456867 102.4468,43.8630885" id="Fill-20" fill="#96D1F2"></path>
                        <g id="Group-24" transform="translate(20.772609, 0.743195)">
                            <mask id="mask-9" fill="white">
                                <use xlink:href="#path-8"></use>
                            </mask>
                            <g id="Clip-23"></g>
                            <path d="M42.9617622,7.93420423 C23.5942716,7.93420423 7.83824738,23.7181857 7.83824738,43.1200418 C7.83824738,62.521898 23.5942716,78.3058795 42.9617622,78.3058795 C62.3277692,78.3058795 78.0837933,62.521898 78.0837933,43.1200418 C78.0837933,23.7181857 62.3277692,7.93420423 42.9617622,7.93420423 M42.9617622,85.497037 C19.6356057,85.497037 0.659827098,66.487588 0.659827098,43.1200418 C0.659827098,19.7524957 19.6356057,0.743046647 42.9617622,0.743046647 C66.286435,0.743046647 85.2622136,19.7524957 85.2622136,43.1200418 C85.2622136,66.487588 66.286435,85.497037 42.9617622,85.497037" id="Fill-22" fill="#00587E" mask="url(#mask-9)"></path>
                        </g>
                        <path d="M25.6319162,180.593482 C23.6510995,180.593482 22.042706,178.983721 22.042706,176.996417 L22.042706,148.12328 C22.042706,146.137462 23.6510995,144.527701 25.6319162,144.527701 C27.6142166,144.527701 29.2211263,146.137462 29.2211263,148.12328 L29.2211263,176.996417 C29.2211263,178.983721 27.6142166,180.593482 25.6319162,180.593482" id="Fill-25" fill="#00587E"></path>
                        <path d="M93.0986805,179.394559 C91.7766523,179.394559 90.7068629,178.319899 90.7068629,176.997011 L90.7068629,148.159548 C90.7068629,146.83666 91.7766523,145.763486 93.0986805,145.763486 C94.4207087,145.763486 95.4919818,146.83666 95.4919818,148.159548 L95.4919818,176.997011 C95.4919818,178.319899 94.4207087,179.394559 93.0986805,179.394559" id="Fill-27" fill="#005F9E"></path>
                        <path d="M227.844662,32.5742494 C223.250948,32.5742494 219.514846,36.3184672 219.514846,40.918846 L219.514846,43.4055775 C219.514846,48.0074427 223.250948,51.7501741 227.844662,51.7501741 L234.591309,51.7501741 C239.183539,51.7501741 242.921125,48.0074427 242.921125,43.4055775 L242.921125,40.918846 C242.921125,36.3184672 239.183539,32.5742494 234.591309,32.5742494 L227.844662,32.5742494 Z M234.591309,56.5452701 L227.844662,56.5452701 C220.611343,56.5452701 214.728243,50.6502451 214.728243,43.4055775 L214.728243,40.918846 C214.728243,33.6741784 220.611343,27.7791534 227.844662,27.7791534 L234.591309,27.7791534 C241.823144,27.7791534 247.707728,33.6741784 247.707728,40.918846 L247.707728,43.4055775 C247.707728,50.6502451 241.823144,56.5452701 234.591309,56.5452701 Z" id="Fill-29" fill="#00587E"></path>
                        <path d="M69.9143712,32.5742494 C65.3221408,32.5742494 61.5845549,36.3184672 61.5845549,40.918846 L61.5845549,43.4055775 C61.5845549,48.0074427 65.3221408,51.7501741 69.9143712,51.7501741 L76.661018,51.7501741 C81.2547321,51.7501741 84.9908343,48.0074427 84.9908343,43.4055775 L84.9908343,40.918846 C84.9908343,36.3184672 81.2547321,32.5742494 76.661018,32.5742494 L69.9143712,32.5742494 Z M76.661018,56.5452701 L69.9143712,56.5452701 C62.6825357,56.5452701 56.7994359,50.6502451 56.7994359,43.4055775 L56.7994359,40.918846 C56.7994359,33.6741784 62.6825357,27.7791534 69.9143712,27.7791534 L76.661018,27.7791534 C83.8928535,27.7791534 89.777437,33.6741784 89.777437,40.918846 L89.777437,43.4055775 C89.777437,50.6502451 83.8928535,56.5452701 76.661018,56.5452701 Z" id="Fill-31" fill="#00587E"></path>
                        <path d="M263.800417,32.5742494 C259.524227,32.5742494 256.044815,36.0598353 256.044815,40.3436129 L256.044815,43.982297 C256.044815,48.2660746 259.524227,51.7501741 263.800417,51.7501741 L268.756168,51.7501741 C273.032358,51.7501741 276.51177,48.2660746 276.51177,43.982297 L276.51177,40.3436129 C276.51177,36.0598353 273.032358,32.5742494 268.756168,32.5742494 L263.800417,32.5742494 Z M268.756168,56.5452701 L263.800417,56.5452701 C256.884622,56.5452701 251.259696,50.9088771 251.259696,43.982297 L251.259696,40.3436129 C251.259696,33.4155464 256.884622,27.7791534 263.800417,27.7791534 L268.756168,27.7791534 C275.671963,27.7791534 281.296889,33.4155464 281.296889,40.3436129 L281.296889,43.982297 C281.296889,50.9088771 275.671963,56.5452701 268.756168,56.5452701 Z" id="Fill-33" fill="#00587E"></path>
                        <path d="M242.923499,43.6801138 C242.907178,43.3218937 242.818152,40.1098037 244.862771,37.9619693 C245.98004,36.7892071 247.500892,36.1693823 249.26508,36.1693823 C251.993711,36.1768142 256.04437,38.1522273 256.04437,43.5671481 L251.259251,43.5671481 C251.259251,41.2231102 249.860067,40.9659646 249.260629,40.9644782 C248.618162,40.9644782 248.413403,41.1785185 248.325861,41.2721611 C247.805062,41.8176664 247.686362,43.0810984 247.705651,43.4541824 L242.923499,43.6801138 Z" id="Fill-35" fill="#00587E"></path>
                        <path d="M36.3210558,32.5742494 C32.0775085,32.5742494 28.624804,36.0330802 28.624804,40.2841573 L28.624804,44.0417526 C28.624804,48.2913433 32.0775085,51.7501741 36.3210558,51.7501741 L41.1002397,51.7501741 C45.3452708,51.7501741 48.7964914,48.2913433 48.7964914,44.0417526 L48.7964914,40.2841573 C48.7964914,36.0330802 45.3452708,32.5742494 41.1002397,32.5742494 L36.3210558,32.5742494 Z M41.1002397,56.5452701 L36.3210558,56.5452701 C29.4379033,56.5452701 23.8382013,50.9371185 23.8382013,44.0417526 L23.8382013,40.2841573 C23.8382013,33.3902778 29.4379033,27.7791534 36.3210558,27.7791534 L41.1002397,27.7791534 C47.9833922,27.7791534 53.5830941,33.3902778 53.5830941,40.2841573 L53.5830941,44.0417526 C53.5830941,50.9371185 47.9833922,56.5452701 41.1002397,56.5452701 Z" id="Fill-37" fill="#00587E"></path>
                        <path d="M48.8004976,43.928341 C48.7826925,43.5612026 48.6862482,40.2837114 50.8006031,38.0600711 C51.9757393,36.8248805 53.5915516,36.1693823 55.4729565,36.1693823 C57.9597345,36.1783006 61.6483565,38.1537137 61.6483565,43.5671481 L56.8632375,43.5671481 C56.8632375,41.3895859 55.9433077,41.0001516 55.3958011,40.9629918 C54.6479871,40.9644782 54.3705244,41.2558108 54.2651776,41.3658037 C53.6865121,41.9767102 53.5603926,43.2862203 53.5811653,43.6934913 L48.8004976,43.928341 Z" id="Fill-39" fill="#00587E"></path>
                        <path d="M190.983222,43.8630885 C190.983222,65.2819766 173.649963,82.6445049 152.270497,82.6445049 C130.891031,82.6445049 113.557772,65.2819766 113.557772,43.8630885 C113.557772,22.4456867 130.891031,5.08167209 152.270497,5.08167209 C173.649963,5.08167209 190.983222,22.4456867 190.983222,43.8630885" id="Fill-41" fill="#96D1F2"></path>
                        <g id="Group-45" transform="translate(109.798078, 0.743195)">
                            <mask id="mask-11" fill="white">
                                <use xlink:href="#path-10"></use>
                            </mask>
                            <g id="Clip-44"></g>
                            <path d="M42.4727157,7.93420423 C23.105225,7.93420423 7.3492008,23.7181857 7.3492008,43.1200418 C7.3492008,62.521898 23.105225,78.3058795 42.4727157,78.3058795 C61.8387226,78.3058795 77.5947468,62.521898 77.5947468,43.1200418 C77.5947468,23.7181857 61.8387226,7.93420423 42.4727157,7.93420423 M42.4727157,85.497037 C19.1480429,85.497037 0.170780524,66.487588 0.170780524,43.1200418 C0.170780524,19.7524957 19.1480429,0.743046647 42.4727157,0.743046647 C65.7973884,0.743046647 84.773167,19.7524957 84.773167,43.1200418 C84.773167,66.487588 65.7973884,85.497037 42.4727157,85.497037" id="Fill-43" fill="#00587E" mask="url(#mask-11)"></path>
                        </g>
                        <path d="M132.336507,32.5742494 C128.091476,32.5742494 124.640256,36.0330802 124.640256,40.2841573 L124.640256,44.0417526 C124.640256,48.2913433 128.091476,51.7501741 132.336507,51.7501741 L137.115691,51.7501741 C141.360722,51.7501741 144.811943,48.2913433 144.811943,44.0417526 L144.811943,40.2841573 C144.811943,36.0330802 141.360722,32.5742494 137.115691,32.5742494 L132.336507,32.5742494 Z M137.115691,56.5452701 L132.336507,56.5452701 C125.453355,56.5452701 119.853653,50.9371185 119.853653,44.0417526 L119.853653,40.2841573 C119.853653,33.3902778 125.453355,27.7791534 132.336507,27.7791534 L137.115691,27.7791534 C143.998844,27.7791534 149.598546,33.3902778 149.598546,40.2841573 L149.598546,44.0417526 C149.598546,50.9371185 143.998844,56.5452701 137.115691,56.5452701 Z" id="Fill-46" fill="#00587E"></path>
                        <path d="M165.691976,32.5742494 C161.415786,32.5742494 157.936374,36.0598353 157.936374,40.3436129 L157.936374,43.982297 C157.936374,48.2660746 161.415786,51.7501741 165.691976,51.7501741 L170.647728,51.7501741 C174.923918,51.7501741 178.40333,48.2660746 178.40333,43.982297 L178.40333,40.3436129 C178.40333,36.0598353 174.923918,32.5742494 170.647728,32.5742494 L165.691976,32.5742494 Z M170.647728,56.5452701 L165.691976,56.5452701 C158.776181,56.5452701 153.149772,50.9088771 153.149772,43.982297 L153.149772,40.3436129 C153.149772,33.4155464 158.776181,27.7791534 165.691976,27.7791534 L170.647728,27.7791534 C177.562039,27.7791534 183.188449,33.4155464 183.188449,40.3436129 L183.188449,43.982297 C183.188449,50.9088771 177.562039,56.5452701 170.647728,56.5452701 Z" id="Fill-48" fill="#00587E"></path>
                        <path d="M144.815059,43.6801138 C144.798738,43.3218937 144.708228,40.1098037 146.752847,37.9619693 C147.870116,36.7892071 149.392452,36.1693823 151.15664,36.1693823 C153.88527,36.1768142 157.935929,38.1522273 157.935929,43.5671481 L153.15081,43.5671481 C153.15081,41.2231102 151.751627,40.9659646 151.150705,40.9644782 C150.508238,40.9644782 150.303479,41.1785185 150.215937,41.2721611 C149.696622,41.8176664 149.577921,43.0810984 149.595727,43.4541824 L144.815059,43.6801138 Z" id="Fill-50" fill="#00587E"></path>
                        <polygon id="Fill-52" fill="#00587E" points="85.6825622 36.7688436 100.905917 36.7688436 100.905917 31.9737476 85.6825622 31.9737476"></polygon>
                        <polygon id="Fill-54" fill="#00587E" points="204.596848 36.7688436 219.885489 36.7688436 219.885489 31.9737476 204.596848 31.9737476"></polygon>
                        <path d="M208.021213,177.001024 L96.5197809,177.001024 C94.0938368,177.001024 92.126374,174.954334 92.126374,172.430701 L92.126374,148.992553 C92.126374,119.22757 115.320476,95.097931 143.934745,95.097931 L160.606248,95.097931 C189.220518,95.097931 212.41462,119.22757 212.41462,148.992553 L212.41462,172.430701 C212.41462,174.954334 210.44864,177.001024 208.021213,177.001024" id="Fill-55" fill="#96D1F2"></path>
                        <path d="M133.90202,101.724855 C112.846013,101.724855 95.7145455,118.885234 95.7145455,139.978603 L95.7145455,173.452118 L208.825855,173.40604 L208.825855,139.978603 C208.825855,118.885234 191.695871,101.724855 170.63838,101.724855 L133.90202,101.724855 Z M208.871851,173.40604 L208.871851,177.001619 L208.871851,173.40604 Z M208.871851,180.597198 L95.668549,180.597198 C91.7365908,180.597198 88.5361252,177.391053 88.5361252,173.452118 L88.5361252,139.978603 C88.5361252,114.919544 108.887347,94.5322108 133.90202,94.5322108 L170.63838,94.5322108 C195.654536,94.5322108 216.004275,114.919544 216.004275,139.978603 L216.004275,173.452118 C216.004275,177.391053 212.805293,180.597198 208.871851,180.597198 Z" id="Fill-56" fill="#00587E"></path>
                        <path d="M123.141957,180.593482 C121.159657,180.593482 119.552747,178.983721 119.552747,176.996417 L119.552747,148.12328 C119.552747,146.137462 121.159657,144.527701 123.141957,144.527701 C125.124257,144.527701 126.731167,146.137462 126.731167,148.12328 L126.731167,176.996417 C126.731167,178.983721 125.124257,180.593482 123.141957,180.593482" id="Fill-57" fill="#00587E"></path>
                        <path d="M181.635102,180.593482 C179.654286,180.593482 178.045892,178.983721 178.045892,176.996417 L178.045892,148.160439 C178.045892,146.174622 179.654286,144.564861 181.635102,144.564861 C183.617403,144.564861 185.224313,146.174622 185.224313,148.160439 L185.224313,176.996417 C185.224313,178.983721 183.617403,180.593482 181.635102,180.593482" id="Fill-58" fill="#00587E"></path>
                        <path d="M168.012574,116.291185 C162.031546,116.291185 157.138113,111.389069 157.138113,105.398915 L157.138113,102.478157 C157.138113,96.4865171 162.031546,91.584401 168.012574,91.584401 C173.992118,91.584401 178.885551,96.4865171 178.885551,102.478157 L178.885551,105.398915 C178.885551,111.389069 173.992118,116.291185 168.012574,116.291185" id="Fill-59" fill="#FF385E"></path>
                        <path d="M167.180186,93.9822463 C162.963346,93.9822463 159.531414,97.4202677 159.531414,101.643103 L159.531414,106.231591 C159.531414,110.455913 162.963346,113.893934 167.180186,113.893934 L168.844962,113.893934 C173.061801,113.893934 176.49225,110.455913 176.49225,106.231591 L176.49225,101.643103 C176.49225,97.4202677 173.061801,93.9822463 168.844962,93.9822463 L167.180186,93.9822463 Z M168.844962,118.687544 L167.180186,118.687544 C160.323741,118.687544 154.746295,113.100202 154.746295,106.231591 L154.746295,101.643103 C154.746295,94.7744924 160.323741,89.1871503 167.180186,89.1871503 L168.844962,89.1871503 C175.701407,89.1871503 181.278852,94.7744924 181.278852,101.643103 L181.278852,106.231591 C181.278852,113.100202 175.701407,118.687544 168.844962,118.687544 Z" id="Fill-60" fill="#00587E"></path>
                        <path d="M139.497271,116.291185 C133.516243,116.291185 128.624294,111.389069 128.624294,105.398915 L128.624294,102.478157 C128.624294,96.4865171 133.516243,91.584401 139.497271,91.584401 C145.478299,91.584401 150.371732,96.4865171 150.371732,102.478157 L150.371732,105.398915 C150.371732,111.389069 145.478299,116.291185 139.497271,116.291185" id="Fill-61" fill="#FF385E"></path>
                        <path d="M138.664883,93.9822463 C134.448043,93.9822463 131.016111,97.4202677 131.016111,101.643103 L131.016111,106.231591 C131.016111,110.455913 134.448043,113.893934 138.664883,113.893934 L140.329659,113.893934 C144.546499,113.893934 147.978431,110.455913 147.978431,106.231591 L147.978431,101.643103 C147.978431,97.4202677 144.546499,93.9822463 140.329659,93.9822463 L138.664883,93.9822463 Z M140.329659,118.687544 L138.664883,118.687544 C131.808438,118.687544 126.230992,113.100202 126.230992,106.231591 L126.230992,101.643103 C126.230992,94.7744924 131.808438,89.1871503 138.664883,89.1871503 L140.329659,89.1871503 C147.186104,89.1871503 152.76355,94.7744924 152.76355,101.643103 L152.76355,106.231591 C152.76355,113.100202 147.186104,118.687544 140.329659,118.687544 Z" id="Fill-62" fill="#00587E"></path>
                        <path d="M155.194835,110.380404 L153.101253,110.380404 C149.563974,110.380404 146.669163,107.481943 146.669163,103.938388 C146.669163,100.394832 149.563974,97.4948845 153.101253,97.4948845 L155.194835,97.4948845 C158.732114,97.4948845 161.625441,100.394832 161.625441,103.938388 C161.625441,107.481943 158.732114,110.380404 155.194835,110.380404" id="Fill-63" fill="#FF385E"></path>
                        <path d="M153.101104,99.893027 C150.875468,99.893027 149.062316,101.70791 149.062316,103.937496 C149.062316,106.168568 150.875468,107.981965 153.101104,107.981965 L155.194687,107.981965 C157.421807,107.981965 159.231992,106.168568 159.231992,103.937496 C159.231992,101.70791 157.421807,99.893027 155.194687,99.893027 L153.101104,99.893027 Z M155.194687,112.77706 L153.101104,112.77706 C148.235863,112.77706 144.277197,108.81137 144.277197,103.937496 C144.277197,99.0636211 148.235863,95.097931 153.101104,95.097931 L155.194687,95.097931 C160.059929,95.097931 164.018594,99.0636211 164.018594,103.937496 C164.018594,108.81137 160.059929,112.77706 155.194687,112.77706 Z" id="Fill-64" fill="#00587E"></path>
                        <path d="M142.027226,44.459577 C141.366954,44.459577 140.831318,43.9244764 140.831318,43.2615462 L140.831318,41.0631746 C140.831318,38.4634775 138.71993,36.3483437 136.123354,36.3483437 L133.327954,36.3483437 C132.666198,36.3483437 132.132046,35.8132431 132.132046,35.1503129 C132.132046,34.4873827 132.666198,33.9522821 133.327954,33.9522821 L136.123354,33.9522821 C140.038991,33.9522821 143.224619,37.1420762 143.224619,41.0631746 L143.224619,43.2615462 C143.224619,43.9244764 142.687499,44.459577 142.027226,44.459577" id="Fill-65" fill="#FFFFFF"></path>
                        <path d="M136.07261,50.4255029 L133.27721,50.4255029 C129.361573,50.4255029 126.177429,47.2342223 126.177429,43.313124 L126.177429,41.1147523 C126.177429,40.4518221 126.713065,39.9167215 127.373337,39.9167215 C128.035093,39.9167215 128.569246,40.4518221 128.569246,41.1147523 L128.569246,43.313124 C128.569246,45.9128211 130.680634,48.0279549 133.27721,48.0279549 L136.07261,48.0279549 C136.732882,48.0279549 137.270002,48.5630555 137.270002,49.2259857 C137.270002,49.8889159 136.732882,50.4255029 136.07261,50.4255029" id="Fill-66" fill="#1498CB"></path>
                        <path d="M231.217837,50.4255029 L228.420954,50.4255029 C224.506801,50.4255029 221.322656,47.2342223 221.322656,43.313124 L221.322656,41.1147523 C221.322656,40.4518221 221.856809,39.9167215 222.518565,39.9167215 C223.178837,39.9167215 223.714474,40.4518221 223.714474,41.1147523 L223.714474,43.313124 C223.714474,45.9128211 225.825861,48.0279549 228.420954,48.0279549 L231.217837,48.0279549 C231.878109,48.0279549 232.413746,48.5630555 232.413746,49.2259857 C232.413746,49.8889159 231.878109,50.4255029 231.217837,50.4255029" id="Fill-67" fill="#1498CB"></path>
                        <path d="M267.475091,50.4255029 L264.678208,50.4255029 C260.764055,50.4255029 257.578427,47.2342223 257.578427,43.313124 L257.578427,41.1147523 C257.578427,40.4518221 258.114063,39.9167215 258.775819,39.9167215 C259.436092,39.9167215 259.971728,40.4518221 259.971728,41.1147523 L259.971728,43.313124 C259.971728,45.9128211 262.083115,48.0279549 264.678208,48.0279549 L267.475091,48.0279549 C268.136847,48.0279549 268.672484,48.5630555 268.672484,49.2259857 C268.672484,49.8889159 268.136847,50.4255029 267.475091,50.4255029" id="Fill-68" fill="#1498CB"></path>
                        <path d="M39.9072984,50.4255029 L37.1104149,50.4255029 C33.1962618,50.4255029 30.0121176,47.2342223 30.0121176,43.313124 L30.0121176,41.1147523 C30.0121176,40.4518221 30.5462704,39.9167215 31.2080264,39.9167215 C31.8682986,39.9167215 32.4039352,40.4518221 32.4039352,41.1147523 L32.4039352,43.313124 C32.4039352,45.9128211 34.5153225,48.0279549 37.1104149,48.0279549 L39.9072984,48.0279549 C40.5675706,48.0279549 41.1032072,48.5630555 41.1032072,49.2259857 C41.1032072,49.8889159 40.5675706,50.4255029 39.9072984,50.4255029" id="Fill-69" fill="#1498CB"></path>
                        <path d="M169.334008,50.4255029 L166.537125,50.4255029 C162.622972,50.4255029 159.437344,47.2342223 159.437344,43.313124 L159.437344,41.1147523 C159.437344,40.4518221 159.97298,39.9167215 160.634736,39.9167215 C161.295009,39.9167215 161.830645,40.4518221 161.830645,41.1147523 L161.830645,43.313124 C161.830645,45.9128211 163.942032,48.0279549 166.537125,48.0279549 L169.334008,48.0279549 C169.994281,48.0279549 170.529917,48.5630555 170.529917,49.2259857 C170.529917,49.8889159 169.994281,50.4255029 169.334008,50.4255029" id="Fill-70" fill="#1498CB"></path>
                        <path d="M73.1679553,50.4255029 L70.3725556,50.4255029 C66.4569188,50.4255029 63.2727745,47.2342223 63.2727745,43.313124 L63.2727745,41.1147523 C63.2727745,40.4518221 63.8084111,39.9167215 64.4686833,39.9167215 C65.1289555,39.9167215 65.6645921,40.4518221 65.6645921,41.1147523 L65.6645921,43.313124 C65.6645921,45.9128211 67.7759795,48.0279549 70.3725556,48.0279549 L73.1679553,48.0279549 C73.8282276,48.0279549 74.3638641,48.5630555 74.3638641,49.2259857 C74.3638641,49.8889159 73.8282276,50.4255029 73.1679553,50.4255029" id="Fill-71" fill="#1498CB"></path>
                        <path d="M175.582706,44.459577 C174.922434,44.459577 174.385313,43.9244764 174.385313,43.2615462 L174.385313,41.0631746 C174.385313,38.4634775 172.27541,36.3483437 169.678834,36.3483437 L166.883434,36.3483437 C166.221678,36.3483437 165.687525,35.8132431 165.687525,35.1503129 C165.687525,34.4873827 166.221678,33.9522821 166.883434,33.9522821 L169.678834,33.9522821 C173.594471,33.9522821 176.778615,37.1420762 176.778615,41.0631746 L176.778615,43.2615462 C176.778615,43.9244764 176.242978,44.459577 175.582706,44.459577" id="Fill-72" fill="#FFFFFF"></path>
                        <path d="M45.6307458,44.459577 C44.9704736,44.459577 44.4333532,43.9244764 44.4333532,43.2615462 L44.4333532,41.0631746 C44.4333532,38.4634775 42.3234496,36.3483437 39.7268735,36.3483437 L36.9314737,36.3483437 C36.2697178,36.3483437 35.735565,35.8132431 35.735565,35.1503129 C35.735565,34.4873827 36.2697178,33.9522821 36.9314737,33.9522821 L39.7268735,33.9522821 C43.6425103,33.9522821 46.8266546,37.1420762 46.8266546,41.0631746 L46.8266546,43.2615462 C46.8266546,43.9244764 46.291018,44.459577 45.6307458,44.459577" id="Fill-73" fill="#FFFFFF"></path>
                        <path d="M81.9872634,44.459577 C81.3269912,44.459577 80.7898708,43.9244764 80.7898708,43.2615462 L80.7898708,41.0631746 C80.7898708,38.4634775 78.6799672,36.3483437 76.0833911,36.3483437 L73.2879913,36.3483437 C72.6262354,36.3483437 72.0920825,35.8132431 72.0920825,35.1503129 C72.0920825,34.4873827 72.6262354,33.9522821 73.2879913,33.9522821 L76.0833911,33.9522821 C79.9990279,33.9522821 83.1831722,37.1420762 83.1831722,41.0631746 L83.1831722,43.2615462 C83.1831722,43.9244764 82.6475356,44.459577 81.9872634,44.459577" id="Fill-74" fill="#FFFFFF"></path>
                        <path d="M240.028391,44.459577 C239.366635,44.459577 238.832482,43.9244764 238.832482,43.2615462 L238.832482,41.0631746 C238.832482,38.4634775 236.721095,36.3483437 234.124519,36.3483437 L231.329119,36.3483437 C230.667363,36.3483437 230.131726,35.8132431 230.131726,35.1503129 C230.131726,34.4873827 230.667363,33.9522821 231.329119,33.9522821 L234.124519,33.9522821 C238.040156,33.9522821 241.225784,37.1420762 241.225784,41.0631746 L241.225784,43.2615462 C241.225784,43.9244764 240.690147,44.459577 240.028391,44.459577" id="Fill-75" fill="#FFFFFF"></path>
                        <path d="M273.584019,44.459577 C272.922263,44.459577 272.386626,43.9244764 272.386626,43.2615462 L272.386626,41.0631746 C272.386626,38.4634775 270.276723,36.3483437 267.680147,36.3483437 L264.884747,36.3483437 C264.221507,36.3483437 263.687354,35.8132431 263.687354,35.1503129 C263.687354,34.4873827 264.221507,33.9522821 264.884747,33.9522821 L267.680147,33.9522821 C271.5943,33.9522821 274.781412,37.1420762 274.781412,41.0631746 L274.781412,43.2615462 C274.781412,43.9244764 274.244291,44.459577 273.584019,44.459577" id="Fill-76" fill="#FFFFFF"></path>
                    </g>
                </g>
            </g>
        </g>
    </g>
</svg>