<?xml version="1.0" encoding="UTF-8"?>
<svg width="300px" height="389px" viewBox="0 0 300 389" version="1.1" xmlns="http://www.w3.org/2000/svg" xmlns:xlink="http://www.w3.org/1999/xlink">
    <!-- Generator: Sketch 49.3 (51167) - http://www.bohemiancoding.com/sketch -->
    <title>eln-header-icon</title>
    <desc>Created with Sketch.</desc>
    <defs>
        <filter x="-12.0%" y="-241.0%" width="123.9%" height="582.0%" filterUnits="objectBoundingBox" id="filter-1">
            <feGaussianBlur stdDeviation="10.4436384" in="SourceGraphic"></feGaussianBlur>
        </filter>
        <polygon id="path-2" points="0 293.361612 242.163424 293.361612 242.163424 0 0 0"></polygon>
    </defs>
    <g id="Desktop-UI" stroke="none" stroke-width="1" fill="none" fill-rule="evenodd">
        <g id="Electronic-Lab-Notebook-(ELN)" transform="translate(-422.000000, -320.000000)">
            <g id="eln-header-icon" transform="translate(414.000000, 315.000000)">
                <ellipse id="Oval-3" fill-opacity="0.3" fill="#1F6FA4" style="mix-blend-mode: multiply;" filter="url(#filter-1)" cx="160.5" cy="363.5" rx="131.021042" ry="6.5"></ellipse>
                <g id="Icon/Free/Notebook" transform="translate(144.689169, 166.017842) rotate(-5.000000) translate(-144.689169, -166.017842) translate(14.015807, 10.843225)">
                    <g id="Page-1" transform="translate(130.326869, 155.072403) rotate(-3.000000) translate(-130.326869, -155.072403) translate(9.148297, 8.230298)">
                        <path d="M233.756528,288.23257 L26.6501292,288.23257 C24.8379093,288.23257 23.3700931,286.762817 23.3700931,284.951872 L23.3700931,14.5403795 C23.3700931,12.7294344 24.8379093,11.259682 26.6501292,11.259682 L233.756528,11.259682 C235.567108,11.259682 237.036564,12.7294344 237.036564,14.5403795 L237.036564,284.951872 C237.036564,286.762817 235.567108,288.23257 233.756528,288.23257" id="Fill-1" fill="#96D1F2"></path>
                        <mask id="mask-3" fill="white">
                            <use xlink:href="#path-2"></use>
                        </mask>
                        <g id="Clip-4"></g>
                        <path d="M28.4985935,283.102871 L231.906751,283.102871 L231.906751,16.3870841 L28.4985935,16.3870841 L28.4985935,283.102871 Z M234.4701,293.361612 L25.9336053,293.361612 C21.6925187,293.361612 18.2435607,289.910319 18.2435607,285.668377 L18.2435607,13.823219 C18.2435607,9.5812771 21.6925187,6.12998331 25.9336053,6.12998331 L234.4701,6.12998331 C238.712826,6.12998331 242.163424,9.5812771 242.163424,13.823219 L242.163424,285.668377 C242.163424,289.910319 238.712826,293.361612 234.4701,293.361612 Z" id="Fill-3" fill="#00587E" mask="url(#mask-3)"></path>
                        <path d="M227.484771,280.82049 L14.818711,280.82049 C13.0081311,280.82049 11.5386749,279.350738 11.5386749,277.539793 L11.5386749,7.12829957 C11.5386749,5.31735454 13.0081311,3.84760205 14.818711,3.84760205 L227.484771,3.84760205 C229.295351,3.84760205 230.764807,5.31735454 230.764807,7.12829957 L230.764807,277.539793 C230.764807,279.350738 229.295351,280.82049 227.484771,280.82049" id="Fill-5" fill="#96D1F2" mask="url(#mask-3)"></path>
                        <path d="M15.3850093,276.974528 L226.917817,276.974528 L226.917817,7.69487603 L15.3850093,7.69487603 L15.3850093,276.974528 Z M228.200311,284.666124 L14.1008751,284.666124 C10.5682763,284.666124 7.69168462,281.790592 7.69168462,278.255641 L7.69168462,6.4121233 C7.69168462,2.87717172 10.5682763,0 14.1008751,0 L228.200311,0 C231.73455,0 234.609501,2.87717172 234.609501,6.4121233 L234.609501,278.255641 C234.609501,281.790592 231.73455,284.666124 228.200311,284.666124 Z" id="Fill-6" fill="#00587E" mask="url(#mask-3)"></path>
                        <path d="M212.815793,106.429436 C211.046214,106.429436 209.611198,104.995771 209.611198,103.224195 L209.611198,25.0041642 L176.919078,25.0041642 C175.147859,25.0041642 173.714483,23.568859 173.714483,21.7989227 C173.714483,20.0289864 175.147859,18.5936813 176.919078,18.5936813 L216.020389,18.5936813 L216.020389,103.224195 C216.020389,104.995771 214.585373,106.429436 212.815793,106.429436" id="Fill-7" fill="#FFFFFF" mask="url(#mask-3)"></path>
                        <path d="M19.7966578,188.318599 L3.28003609,188.318599 C1.46781615,188.318599 0,186.848846 0,185.037901 L0,166.059066 C0,164.246481 1.46781615,162.778369 3.28003609,162.778369 L19.7966578,162.778369 C21.6072377,162.778369 23.0766939,164.246481 23.0766939,166.059066 L23.0766939,185.037901 C23.0766939,186.848846 21.6072377,188.318599 19.7966578,188.318599" id="Fill-8" fill="#00587E" mask="url(#mask-3)"></path>
                        <path d="M17.0930881,180.515788 C16.3846003,180.515788 15.8105939,179.941666 15.8105939,179.233035 L15.8105939,170.581836 L10.4706952,170.581836 C9.76056739,170.581836 9.18820109,170.009354 9.18820109,169.300723 C9.18820109,168.590452 9.76056739,168.017971 10.4706952,168.017971 L18.3739422,168.017971 L18.3739422,179.233035 C18.3739422,179.941666 17.8015759,180.515788 17.0930881,180.515788" id="Fill-9" fill="#1498CB" mask="url(#mask-3)"></path>
                        <path d="M19.7966578,254.747967 L3.28003609,254.747967 C1.46781615,254.747967 0,253.278214 0,251.467269 L0,232.488434 C0,230.675849 1.46781615,229.207736 3.28003609,229.207736 L19.7966578,229.207736 C21.6072377,229.207736 23.0766939,230.675849 23.0766939,232.488434 L23.0766939,251.467269 C23.0766939,253.278214 21.6072377,254.747967 19.7966578,254.747967" id="Fill-10" fill="#00587E" mask="url(#mask-3)"></path>
                        <path d="M17.0930881,246.943515 C16.3846003,246.943515 15.8105939,246.369393 15.8105939,245.662403 L15.8105939,237.011204 L10.4706952,237.011204 C9.76056739,237.011204 9.18820109,236.438722 9.18820109,235.728451 C9.18820109,235.01982 9.76056739,234.447338 10.4706952,234.447338 L18.3739422,234.447338 L18.3739422,245.662403 C18.3739422,246.369393 17.8015759,246.943515 17.0930881,246.943515" id="Fill-11" fill="#1498CB" mask="url(#mask-3)"></path>
                        <path d="M19.7966578,121.890872 L3.28003609,121.890872 C1.46781615,121.890872 0,120.421119 0,118.610174 L0,99.6313389 C0,97.8187535 1.46781615,96.3506414 3.28003609,96.3506414 L19.7966578,96.3506414 C21.6072377,96.3506414 23.0766939,97.8187535 23.0766939,99.6313389 L23.0766939,118.610174 C23.0766939,120.421119 21.6072377,121.890872 19.7966578,121.890872" id="Fill-12" fill="#00587E" mask="url(#mask-3)"></path>
                        <path d="M17.0930881,114.08642 C16.3846003,114.08642 15.8105939,113.512298 15.8105939,112.803667 L15.8105939,104.152468 L10.4706952,104.152468 C9.76056739,104.152468 9.18820109,103.579986 9.18820109,102.871356 C9.18820109,102.161085 9.76056739,101.588603 10.4706952,101.588603 L18.3739422,101.588603 L18.3739422,112.803667 C18.3739422,113.512298 17.8015759,114.08642 17.0930881,114.08642" id="Fill-13" fill="#1498CB" mask="url(#mask-3)"></path>
                        <path d="M19.7966578,55.4616679 L3.28003609,55.4616679 C1.46781615,55.4616679 0,53.9919154 0,52.1809703 L0,33.2021352 C0,31.3895498 1.46781615,29.9214377 3.28003609,29.9214377 L19.7966578,29.9214377 C21.6072377,29.9214377 23.0766939,31.3895498 23.0766939,33.2021352 L23.0766939,52.1809703 C23.0766939,53.9919154 21.6072377,55.4616679 19.7966578,55.4616679" id="Fill-14" fill="#00587E" mask="url(#mask-3)"></path>
                        <path d="M17.0930881,47.6572165 C16.3846003,47.6572165 15.8105939,47.0830945 15.8105939,46.3761042 L15.8105939,37.7249048 L10.4706952,37.7249048 C9.76056739,37.7249048 9.18820109,37.1524231 9.18820109,36.4421521 C9.18820109,35.7335214 9.76056739,35.1610397 10.4706952,35.1610397 L18.3739422,35.1610397 L18.3739422,46.3761042 C18.3739422,47.0830945 17.8015759,47.6572165 17.0930881,47.6572165" id="Fill-15" fill="#1498CB" mask="url(#mask-3)"></path>
                        <path d="M91.7283412,88.9910526 L91.0231334,88.9910526 L91.0231334,88.9779298 C91.254376,88.9910526 91.4970987,88.9910526 91.7283412,88.9910526" id="Fill-16" fill="#005F9E" mask="url(#mask-3)"></path>
                        <polygon id="Fill-17" fill="#00587E" mask="url(#mask-3)" points="112.140498 120.516423 93.9166173 68.8733233 98.7513905 67.1657203 116.975271 118.80882"></polygon>
                        <path d="M93.4885726,73.5406077 C90.441419,71.9675132 89.2442059,68.2209566 90.8153432,65.1715483 C92.3881205,62.1237803 96.1339217,60.9279661 99.1827152,62.5010605 C102.229869,64.074155 103.427082,67.8190712 101.854305,70.8668392 C100.281527,73.9162475 96.5357261,75.1120618 93.4885726,73.5406077" id="Fill-18" fill="#00587E" mask="url(#mask-3)"></path>
                        <path d="M96.3553241,56.2674072 C91.9239954,56.2674072 87.9125112,58.7066058 85.8854489,62.6336007 C82.9170163,68.3912248 85.1884412,75.493935 90.9531047,78.4662469 C92.6111629,79.322509 94.4709434,79.7752452 96.3258038,79.7752452 C100.747292,79.7752452 104.750576,77.337687 106.775999,73.4123324 C109.747711,67.6481469 107.484487,60.542156 101.728023,57.5731248 C100.073245,56.7185031 98.2151046,56.2674072 96.3553241,56.2674072 M96.3553241,58.8312723 C97.7722997,58.8312723 99.2089555,59.1609824 100.55377,59.8532096 C105.05726,62.1775837 106.820279,67.7318046 104.496374,72.2362023 C102.867836,75.395514 99.6534004,77.2113801 96.3258038,77.2113801 C94.9104682,77.2113801 93.4721724,76.88167 92.1289976,76.1878025 C87.6255081,73.8650687 85.8411684,68.3141285 88.165074,63.8097308 C89.7952519,60.6487787 93.0211674,58.8312723 96.3553241,58.8312723" id="Fill-19" fill="#00587E" mask="url(#mask-3)"></path>
                        <path d="M81.3773673,185.212599 L122.4877,119.049131" id="Fill-20" fill="#96D1F2" mask="url(#mask-3)"></path>
                        <polygon id="Fill-21" fill="#00587E" mask="url(#mask-3)" points="83.5538353 186.566214 79.1995874 183.859639 120.30992 117.696172 124.664168 120.404388"></polygon>
                        <path d="M88.2688871,193.94926 C83.4455941,197.754869 76.4492771,196.928133 72.6444352,192.103868 C68.8379534,187.279602 69.6645225,180.281874 74.4894555,176.476265 C79.3127486,172.669016 86.3090656,173.494111 90.1139074,178.320017 C93.9187493,183.145923 93.0938202,190.142011 88.2688871,193.94926" id="Fill-22" fill="#00587E" mask="url(#mask-3)"></path>
                        <path d="M81.3548991,165.845493 C76.9711308,165.845493 72.8350053,167.280798 69.3926075,169.997216 C65.3286428,173.204097 62.7538144,177.801995 62.1486478,182.944488 C61.5418411,188.085341 62.9735768,193.155659 66.1798121,197.222084 C69.8682127,201.898718 75.4098337,204.580688 81.3827794,204.580688 C85.7747477,204.580688 89.9239934,203.138822 93.3795114,200.412562 C97.435276,197.213882 100.000264,192.622546 100.607071,187.484974 C101.212238,182.347401 99.7854218,177.283645 96.5873867,173.228703 C92.887506,168.537305 87.3344049,165.845493 81.3548991,165.845493 M81.3548991,168.409358 C86.3257938,168.409358 91.254048,170.605785 94.5767245,174.818201 C100.311868,182.088226 99.0621739,192.663555 91.7919739,198.399854 C88.7038199,200.835772 85.0285395,202.016823 81.3827794,202.016823 C76.4135247,202.016823 71.5000306,199.826958 68.1937543,195.632586 C62.440571,188.339595 63.6886247,177.765907 70.9801449,172.011564 C74.0535387,169.587128 77.715699,168.409358 81.3548991,168.409358" id="Fill-23" fill="#00587E" mask="url(#mask-3)"></path>
                        <path d="M154.093963,171.083783 L121.126321,123.126546" id="Fill-24" fill="#96D1F2" mask="url(#mask-3)"></path>
                        <polygon id="Fill-25" fill="#00587E" mask="url(#mask-3)" points="151.979816 172.536639 119.013813 124.579403 123.24178 121.672705 156.206143 169.631582"></polygon>
                        <path d="M160.189582,169.489856 C161.068632,172.859132 159.05305,176.300584 155.686093,177.179811 C152.317496,178.060678 148.876738,176.043049 147.996048,172.675413 C147.116999,169.307777 149.134221,165.864685 152.501178,164.985458 C155.868135,164.106231 159.310533,166.12222 160.189582,169.489856" id="Fill-26" fill="#00587E" mask="url(#mask-3)"></path>
                        <path d="M154.100359,158.999005 C153.073708,158.999005 152.047057,159.131873 151.049926,159.392689 C147.924051,160.207942 145.306583,162.191124 143.673125,164.976436 C142.039667,167.761748 141.588662,171.011279 142.402111,174.131223 C143.792846,179.452514 148.599739,183.167904 154.092159,183.167904 C155.120451,183.167904 156.150382,183.035036 157.154073,182.77422 C163.594424,181.091222 167.463226,174.475696 165.778928,168.024204 C164.391473,162.711114 159.5895,158.999005 154.100359,158.999005 M154.098719,161.56287 C158.320126,161.56287 162.184008,164.399033 163.297581,168.672142 C164.627635,173.763784 161.582122,178.966971 156.506266,180.292372 C155.699377,180.502337 154.887568,180.604039 154.092159,180.604039 C149.862553,180.604039 146.00359,177.766235 144.883458,173.483285 C143.558323,168.406405 146.607117,163.203219 151.696093,161.874537 C152.498062,161.664572 153.306591,161.56287 154.098719,161.56287" id="Fill-27" fill="#00587E" mask="url(#mask-3)"></path>
                        <path d="M168.607467,129.581647 C168.607467,138.25089 161.58655,145.273223 152.919054,145.273223 L90.3638462,145.273223 C89.9964821,145.273223 89.6110779,145.273223 89.2437139,145.253539 C77.7471874,144.663013 68.5893266,135.157192 68.5893266,123.495953 C68.5893266,111.465635 78.3375939,101.717042 90.3638462,101.717042 C93.9456456,101.717042 97.3224427,102.571664 100.294155,104.120153 C104.220359,94.3485957 113.766904,87.468973 124.915746,87.468973 C139.547987,87.468973 151.411878,99.3155718 151.431558,113.950763 C151.920283,113.88843 152.409009,113.868746 152.919054,113.868746 C161.58655,113.868746 168.607467,120.910763 168.607467,129.581647" id="Fill-28" fill="#FFFFFF" mask="url(#mask-3)"></path>
                        <path d="M90.3638462,105.562676 C80.4794574,105.562676 72.4351689,113.606946 72.4351689,123.496609 C72.4351689,133.053281 79.9054511,140.922034 89.442156,141.410858 C89.7603196,141.428902 90.070283,141.427261 90.3638462,141.427261 L152.919054,141.427261 C159.447966,141.427261 164.761625,136.112531 164.761625,129.582303 C164.761625,123.037311 159.447966,117.71438 152.919054,117.71438 C152.51069,117.71438 152.190886,117.730783 151.912083,117.76523 L147.593916,118.309826 L147.587356,113.9547 C147.567676,101.473287 137.399564,91.316247 124.915746,91.316247 C115.603724,91.316247 107.339673,96.9065556 103.861195,105.552834 L102.280217,109.489671 L98.5196559,107.531094 C96.0104283,106.225377 93.2683181,105.562676 90.3638462,105.562676 M152.919054,149.122137 L90.3638462,149.122137 C89.9226813,149.122137 89.4601962,149.118857 89.0206714,149.092611 C75.4200018,148.395463 64.7434843,137.150872 64.7434843,123.496609 C64.7434843,109.365004 76.2367308,97.8710806 90.3638462,97.8710806 C93.1092364,97.8710806 95.8333064,98.3106941 98.4064947,99.1620351 C103.729993,89.6086439 113.761984,83.6230113 124.915746,83.6230113 C140.345036,83.6230113 153.133897,95.2087946 155.036318,110.135968 C164.814105,111.197274 172.453309,119.512202 172.453309,129.582303 C172.453309,140.356114 163.689053,149.122137 152.919054,149.122137" id="Fill-29" fill="#00587E" mask="url(#mask-3)"></path>
                        <path d="M147.432866,265.160408 L125.640306,265.160408 C123.870727,265.160408 122.435711,263.725103 122.435711,261.955167 C122.435711,260.18359 123.870727,258.749926 125.640306,258.749926 L147.432866,258.749926 C149.202446,258.749926 150.637461,260.18359 150.637461,261.955167 C150.637461,263.725103 149.202446,265.160408 147.432866,265.160408" id="Fill-30" fill="#1498CB" mask="url(#mask-3)"></path>
                        <path d="M103.844303,265.160408 L42.5158278,265.160408 C40.7462483,265.160408 39.3112325,263.725103 39.3112325,261.955167 C39.3112325,260.18359 40.7462483,258.749926 42.5158278,258.749926 L103.844303,258.749926 C105.613882,258.749926 107.048898,260.18359 107.048898,261.955167 C107.048898,263.725103 105.613882,265.160408 103.844303,265.160408" id="Fill-31" fill="#1498CB" mask="url(#mask-3)"></path>
                        <path d="M212.815793,128.895981 C211.046214,128.895981 209.611198,127.460676 209.611198,125.690739 L209.611198,114.134482 C209.611198,112.364546 211.046214,110.929241 212.815793,110.929241 C214.585373,110.929241 216.020389,112.364546 216.020389,114.134482 L216.020389,125.690739 C216.020389,127.460676 214.585373,128.895981 212.815793,128.895981" id="Fill-32" fill="#FFFFFF" mask="url(#mask-3)"></path>
                        <path d="M212.815793,155.516545 C211.046214,155.516545 209.611198,154.08124 209.611198,152.311303 L209.611198,135.601071 C209.611198,133.831134 211.046214,132.395829 212.815793,132.395829 C214.585373,132.395829 216.020389,133.831134 216.020389,135.601071 L216.020389,152.311303 C216.020389,154.08124 214.585373,155.516545 212.815793,155.516545" id="Fill-33" fill="#FFFFFF" mask="url(#mask-3)"></path>
                        <path d="M164.739648,25.0046563 L140.701904,25.0046563 C138.932325,25.0046563 137.497309,23.5693511 137.497309,21.7994148 C137.497309,20.0294785 138.932325,18.5941734 140.701904,18.5941734 L164.739648,18.5941734 C166.510868,18.5941734 167.944244,20.0294785 167.944244,21.7994148 C167.944244,23.5693511 166.510868,25.0046563 164.739648,25.0046563" id="Fill-34" fill="#FFFFFF" mask="url(#mask-3)"></path>
                        <path d="M212.815793,174.180269 C211.046214,174.180269 209.611198,172.744964 209.611198,170.975027 L209.611198,168.407882 C209.611198,166.636305 211.046214,165.201 212.815793,165.201 C214.585373,165.201 216.020389,166.636305 216.020389,168.407882 L216.020389,170.975027 C216.020389,172.744964 214.585373,174.180269 212.815793,174.180269" id="Fill-35" fill="#FFFFFF" mask="url(#mask-3)"></path>
                    </g>
                </g>
            </g>
        </g>
    </g>
</svg>