<?xml version="1.0" encoding="UTF-8"?>
<svg width="272px" height="271px" viewBox="0 0 272 271" version="1.1" xmlns="http://www.w3.org/2000/svg" xmlns:xlink="http://www.w3.org/1999/xlink">
    <!-- Generator: Sketch 49.3 (51167) - http://www.bohemiancoding.com/sketch -->
    <title>Icon/Industry/Energy</title>
    <desc>Created with Sketch.</desc>
    <defs>
        <circle id="path-1" cx="102.5" cy="102.5" r="102.5"></circle>
        <filter x="-25.4%" y="-24.4%" width="150.7%" height="150.7%" filterUnits="objectBoundingBox" id="filter-2">
            <feOffset dx="0" dy="2" in="SourceAlpha" result="shadowOffsetOuter1"></feOffset>
            <feGaussianBlur stdDeviation="17" in="shadowOffsetOuter1" result="shadowBlurOuter1"></feGaussianBlur>
            <feColorMatrix values="0 0 0 0 0.11   0 0 0 0 0.392   0 0 0 0 0.549  0 0 0 0.0535552536 0" type="matrix" in="shadowBlurOuter1"></feColorMatrix>
        </filter>
        <polygon id="path-3" points="0 0.903010085 56.0269813 0.903010085 56.0269813 63.4616522 0 63.4616522"></polygon>
    </defs>
    <g id="Desktop-UI" stroke="none" stroke-width="1" fill="none" fill-rule="evenodd">
        <g id="Icon/Industry/Energy" transform="translate(33.414849, 31.196376)">
            <g id="Group-8-Copy">
                <g id="Oval">
                    <use fill="black" fill-opacity="1" filter="url(#filter-2)" xlink:href="#path-1"></use>
                    <use fill="#FFFFFF" fill-rule="evenodd" xlink:href="#path-1"></use>
                </g>
            </g>
            <g id="Icon/Free/energy" transform="translate(31.000000, 35.000000)">
                <g id="Page-1" transform="translate(0.146748, 0.769138)">
                    <path d="M53.9505354,5.60872099 L91.8718474,1.74846768 C93.0389469,1.63046867 93.9313763,2.76682888 93.539699,3.87244985 L77.1527104,50.0566673 C76.7610331,51.1612967 77.6534625,52.2986485 78.820562,52.1796579 L96.0266025,50.4285129 C97.2412981,50.3045644 98.1396772,51.5351255 97.6528073,52.6556202 L71.1407105,113.552034 C70.4614725,115.11081 68.143139,114.672528 68.0796774,112.974929 L66.5238753,71.5255459 C66.4891697,70.6033688 65.6830084,69.9023158 64.7657892,69.9965167 L46.3797586,71.8676439 C45.3594143,71.9707691 44.5066483,71.0981713 44.6335716,70.0798101 L52.5276062,6.99892781 C52.6198239,6.26118611 53.2108105,5.68408171 53.9505354,5.60872099" id="Fill-1" fill="#96D1F2"></path>
                    <path d="M64.92484,68.2482474 C65.7250517,68.2482474 66.5093981,68.5377912 67.1172417,69.0663077 C67.810362,69.6691934 68.2278206,70.5417911 68.2625262,71.4590103 L69.7935386,112.284684 L95.9605627,52.1835251 L78.9964698,53.9108719 C77.8501937,54.0278793 76.7445727,53.5558833 76.0336039,52.6515547 C75.322635,51.7462346 75.1292753,50.5593034 75.5140116,49.4745058 L91.8246478,3.50248825 L54.2404759,7.32803598 L46.3821384,70.1183829 L64.5896831,68.2651044 C64.700741,68.2532053 64.8127905,68.2482474 64.92484,68.2482474 M69.7092536,116.255996 C69.4950705,116.255996 69.2769211,116.236164 69.0567885,116.194517 C67.4920621,115.899024 66.4003234,114.631774 66.3408281,113.040275 L64.7909755,71.7426046 L46.556658,73.5988579 C45.5382968,73.7029747 44.5457169,73.3420365 43.8317733,72.6102444 C43.1178297,71.8794438 42.7806897,70.8779396 42.907613,69.8635447 L50.8016476,6.78365399 C50.9950073,5.23082669 52.2186273,4.03596277 53.7754209,3.87730863 L91.6967329,0.0180469074 C92.8449922,-0.098960514 93.9496216,0.372043936 94.6586072,1.27736407 C95.369576,2.1826842 95.5639273,3.370607 95.1791911,4.45441303 L78.8685549,50.425439 L95.8495048,48.6980921 C97.0374276,48.5741436 98.1747794,49.0808452 98.8827734,50.0486354 C99.5897759,51.0164256 99.7266151,52.2499615 99.2476779,53.3496329 L72.7355811,114.247038 C72.189216,115.501397 71.0201333,116.255996 69.7092536,116.255996" id="Fill-3" fill="#00587E"></path>
                    <path d="M2.14490469,80.4301081 L16.8333024,63.8001805 C17.6107077,62.9206417 19.0376032,63.1496986 19.4996834,64.2285466 L30.7125641,90.3896212 C31.1736526,91.4674777 32.6015398,91.6965346 33.3779535,90.8179873 L39.1539554,84.2784624 C39.9630915,83.3632264 41.4574151,83.6567365 41.8599999,84.8099537 L54.1884175,120.199741 C54.7486649,121.805122 52.7476396,123.056507 51.5488094,121.852718 L35.7389253,105.978381 C35.0884433,105.324924 34.0205027,105.356655 33.4096843,106.047792 L26.7571183,113.578906 C26.0778803,114.348378 24.8592182,114.285908 24.2622821,113.450991 L2.04277109,82.4172511 C1.609447,81.8123823 1.65208529,80.9873808 2.14490469,80.4301081" id="Fill-5" fill="#96D1F2"></path>
                    <g id="Group-9" transform="translate(0.000000, 60.616785)">
                        <mask id="mask-4" fill="white">
                            <use xlink:href="#path-3"></use>
                        </mask>
                        <g id="Clip-8"></g>
                        <path d="M3.44834753,20.9651518 L3.44933912,20.9651518 L3.44834753,20.9651518 Z M34.6060356,43.1519403 C35.4895408,43.1519403 36.3462731,43.5059374 36.9719653,44.1336128 L52.3405926,59.5647102 L40.296761,24.9959583 L34.6813963,31.353031 C33.9198565,32.2147212 32.7854795,32.622264 31.6511024,32.4388202 C30.5157338,32.2563679 29.5667838,31.5156515 29.1126363,30.4586183 L17.9889986,4.50379413 L3.52370824,20.8798752 L25.572666,51.6756335 L32.1052499,44.2793763 C32.7150767,43.5902224 33.588666,43.1806964 34.5068768,43.1529319 C34.5395992,43.1519403 34.5733132,43.1519403 34.6060356,43.1519403 Z M52.6658336,63.4616522 C51.8110845,63.4616522 50.9731924,63.122529 50.3167609,62.4641144 L34.6129767,46.6968686 L28.0615527,54.1139492 C27.3842979,54.880447 26.4135329,55.2860066 25.3902138,55.2374187 C24.3688778,55.1848646 23.4417428,54.6781629 22.8467898,53.8472119 L0.628270357,22.8134724 C-0.282999305,21.5412646 -0.195739534,19.8337495 0.840470257,18.6616921 L15.5308512,2.03077287 C16.292391,1.16908262 17.4257764,0.763523004 18.5611451,0.945975254 C19.6975053,1.12743592 20.6454637,1.86815239 21.0986196,2.92518553 L32.2232489,28.8800097 L37.849521,22.5100464 C38.6427916,21.6116674 39.819807,21.2130489 40.9958307,21.4440889 C42.1718545,21.6761206 43.1089054,22.4902146 43.502566,23.6216169 L55.8319751,59.0114039 C56.3555337,60.5146518 55.8012359,62.0932604 54.4526758,62.9380936 C53.8894536,63.2901075 53.2746688,63.4616522 52.6658336,63.4616522 Z" id="Fill-7" fill="#00587E" mask="url(#mask-4)"></path>
                    </g>
                    <path d="M121.302089,65.4516708 L139.855698,76.8708019 C140.768951,77.4330325 140.784817,78.7548197 139.886438,79.3398568 L116.451239,94.583544 C115.551869,95.1685811 115.568726,96.4913599 116.48297,97.0535905 L123.961529,101.656543 C124.913454,102.242572 124.881723,103.635754 123.905009,104.179144 L91.5732802,122.138792 C90.2138126,122.894382 88.7720432,121.287017 89.6704222,120.017784 L102.534297,101.831063 C103.021167,101.141909 102.825824,100.184035 102.106923,99.7417864 L93.6080194,94.5121496 C92.8087992,94.0193302 92.6739432,92.9107345 93.3333494,92.2414124 L119.494424,65.6708119 C119.971378,65.1849336 120.72201,65.094699 121.302089,65.4516708" id="Fill-10" fill="#96D1F2"></path>
                    <path d="M94.8187487,93.2132681 L103.019184,98.2604526 C103.768825,98.7225328 104.301308,99.4820894 104.477811,100.345763 C104.654313,101.208445 104.463928,102.11674 103.954252,102.835641 L91.7963875,120.023833 L122.6447,102.889187 L115.570709,98.5351226 C114.629692,97.9570266 114.061512,96.9525476 114.048621,95.8489098 C114.033747,94.7462636 114.577138,93.7279024 115.502289,93.1260083 L138.568617,78.1212939 L120.579222,67.0492188 L94.8187487,93.2132681 Z M90.8424796,124.076454 C89.9669071,124.076454 89.1151327,123.706592 88.4805162,122.99959 C87.4601718,121.862238 87.3669625,120.259831 88.2504677,119.013404 L100.941807,101.067639 L92.6967497,95.9936817 C91.8618324,95.4790474 91.3144756,94.6262814 91.1964766,93.6525417 C91.0794692,92.678802 91.4057017,91.7199361 92.093864,91.0208663 L118.254939,64.4502658 C119.307014,63.3813336 120.93421,63.1830159 122.213359,63.9693455 L140.766968,75.3884765 C141.706002,75.9665725 142.276166,76.9710515 142.290048,78.0736977 C142.304922,79.1783271 141.76054,80.1966883 140.834396,80.7985824 L117.770052,95.8023052 L124.873791,100.17521 C125.852488,100.777104 126.42166,101.823229 126.395879,102.97248 C126.370097,104.121731 125.755313,105.141084 124.750834,105.699348 L92.4181134,123.659987 C91.913395,123.940607 91.3729793,124.076454 90.8424796,124.076454 Z" id="Fill-12" fill="#00587E"></path>
                    <path d="M81.7527878,22.7272042 C81.5931421,22.7272042 81.4315132,22.7004313 81.2728591,22.6449024 C80.5172688,22.3791567 80.1206334,21.5511805 80.3853875,20.7955902 L84.4171856,9.32588811 L74.2107671,10.2857456 C73.4065889,10.3581316 72.705536,9.77507762 72.6311669,8.97784062 C72.5558062,8.18060361 73.1408433,7.47360114 73.9380803,7.39824043 L88.6542425,6.01497473 L83.1211797,21.7574308 C82.910963,22.354367 82.3517071,22.7272042 81.7527878,22.7272042" id="Fill-14" fill="#FFFFFF"></path>
                    <path d="M77.3071007,34.2447008 C77.1286148,34.2447008 76.9481458,34.2119784 76.7726346,34.1415756 C76.0279518,33.8460823 75.6650305,33.0032322 75.9605238,32.259541 L78.9571037,24.7155371 C79.2535886,23.9718459 80.0964387,23.6059498 80.8401299,23.9034263 C81.5838212,24.1989196 81.9487257,25.0417697 81.6522407,25.7864525 L78.6546693,33.3304564 C78.4295787,33.8986365 77.8832136,34.2447008 77.3071007,34.2447008" id="Fill-16" fill="#FFFFFF"></path>
                    <path d="M83.7776111,72.4038948 C83.5971421,72.4038948 83.4146898,72.3701808 83.2371955,72.2997781 C82.4944959,72.00131 82.1345493,71.1564767 82.4330174,70.4137771 L87.1182722,58.7378247 L79.2609264,59.8017989 C78.4706305,59.9069073 77.7378467,59.3526094 77.6297636,58.5593388 C77.5216805,57.7660681 78.0789531,57.0352675 78.8732153,56.928176 L91.6647046,55.1958712 L85.1231965,71.4936168 C84.8961228,72.0598137 84.3517408,72.4038948 83.7776111,72.4038948" id="Fill-18" fill="#FFFFFF"></path>
                    <path d="M57.0415145,26.7007961 C56.9820192,26.7007961 56.9235155,26.6978213 56.8630286,26.6898886 C56.0687664,26.5927129 55.5025695,25.8698451 55.6007367,25.0745912 L56.086615,21.1012968 C56.1847822,20.306043 56.9096333,19.7418293 57.7019123,19.8380133 C58.4971662,19.935189 59.0623715,20.6580569 58.9642043,21.4533107 L58.478326,25.4266051 C58.3880915,26.1623636 57.7633908,26.7007961 57.0415145,26.7007961" id="Fill-20" fill="#1498CB"></path>
                    <path d="M55.487299,39.3851938 C55.4278037,39.3851938 55.3693,39.3812275 55.3088131,39.3742863 C54.5145509,39.2771107 53.9493455,38.5532512 54.0465212,37.7579974 L54.2488052,36.1099776 C54.3469724,35.3157154 55.0698403,34.75051 55.8650942,34.8476857 C56.6593564,34.9448613 57.2245617,35.6687208 57.1273861,36.462983 L56.9251021,38.1110028 C56.8348675,38.8467614 56.2101669,39.3851938 55.487299,39.3851938" id="Fill-22" fill="#1498CB"></path>
                    <path d="M50.5439338,66.3662127 L53.426481,42.8249145 C53.5236567,42.0306523 54.2514825,41.4684217 55.0417784,41.5626226 C55.8370322,41.6597983 56.4022375,42.3826661 56.3050619,43.17792 L53.8677378,63.0870302 L62.6898991,62.1251895 C63.4851529,62.0409045 64.2010797,62.613051 64.2873478,63.4092964 C64.3746076,64.2055418 63.7994864,64.920477 63.003241,65.0077367 L50.5439338,66.3662127 Z" id="Fill-24" fill="#1498CB"></path>
                    <path d="M22.0937757,84.7294456 C21.5107217,84.7294456 20.9603902,84.3754485 20.7402576,83.7993357 L16.8730632,73.72579 L12.065843,78.7442185 C11.5115451,79.3233061 10.5923428,79.3421462 10.0142468,78.7878484 C9.43615079,78.2345421 9.41731062,77.3163313 9.9706169,76.7382353 L17.9419954,68.4178178 L23.4463021,82.7591596 C23.7338627,83.5068172 23.3600339,84.3457009 22.6123763,84.6322699 C22.4428147,84.6987063 22.266312,84.7294456 22.0937757,84.7294456" id="Fill-26" fill="#FFFFFF" transform="translate(16.555545, 76.573632) rotate(-3.000000) translate(-16.555545, -76.573632) "></path>
                    <path d="M114.112083,79.3968731 C113.739245,79.3968731 113.365417,79.2530928 113.082814,78.9675154 C112.519592,78.3993353 112.522567,77.4811245 113.091738,76.9179023 L120.986764,69.0912958 L127.22088,73.243076 C127.888219,73.6873076 128.067697,74.5876698 127.624457,75.2540171 C127.180225,75.9213561 126.278871,76.1008336 125.614507,75.6575936 L121.347703,72.8166931 L115.132427,78.9764397 C114.849824,79.2570592 114.480953,79.3968731 114.112083,79.3968731" id="Fill-28" fill="#FFFFFF"></path>
                    <path d="M25.6992973,109.798302 L21.0447818,103.070375 C20.5896427,102.41196 20.7542464,101.508623 21.412661,101.052493 C22.0700841,100.598345 22.9744126,100.760966 23.4295517,101.420372 L25.9273626,105.031737 L29.0677228,101.310306 C29.5843404,100.698496 30.500568,100.62016 31.1113864,101.136778 C31.7231964,101.653395 31.8005402,102.56764 31.2849143,103.180441 L25.6992973,109.798302 Z" id="Fill-30" fill="#1498CB"></path>
                    <path d="M110.015038,107.876479 C109.540067,107.876479 109.076004,107.644448 108.797368,107.217073 C108.361069,106.545768 108.551454,105.647389 109.222759,105.21109 L113.382472,102.505046 L110.484059,100.442542 C109.831594,99.9784785 109.67889,99.0731584 110.142953,98.4206933 C110.608008,97.7682282 111.513328,97.6165152 112.164801,98.0805785 L118.534765,102.611146 L110.804342,107.641473 C110.560412,107.800127 110.285742,107.876479 110.015038,107.876479" id="Fill-32" fill="#1498CB"></path>
                </g>
            </g>
        </g>
    </g>
</svg>