<?xml version="1.0" encoding="UTF-8"?>
<svg width="314px" height="333px" viewBox="0 0 314 333" version="1.1" xmlns="http://www.w3.org/2000/svg" xmlns:xlink="http://www.w3.org/1999/xlink">
    <!-- Generator: Sketch 49.3 (51167) - http://www.bohemiancoding.com/sketch -->
    <title>energy-header-icon</title>
    <desc>Created with Sketch.</desc>
    <defs>
        <filter x="-12.0%" y="-261.1%" width="123.9%" height="622.2%" filterUnits="objectBoundingBox" id="filter-1">
            <feGaussianBlur stdDeviation="10.4436384" in="SourceGraphic"></feGaussianBlur>
        </filter>
        <polygon id="path-2" points="0 1.98518884 123.337174 1.98518884 123.337174 139.514902 0 139.514902"></polygon>
    </defs>
    <g id="Desktop-UI" stroke="none" stroke-width="1" fill="none" fill-rule="evenodd">
        <g id="Energy" transform="translate(-426.000000, -243.000000)">
            <g id="energy-header-icon" transform="translate(425.000000, 242.000000)">
                <ellipse id="Oval-3" fill-opacity="0.3" fill="#1F6FA4" style="mix-blend-mode: multiply;" filter="url(#filter-1)" cx="162" cy="305" rx="131" ry="6"></ellipse>
                <g id="Icon/Free/energy" transform="translate(0.772085, 0.202563)">
                    <g id="Page-1" transform="translate(0.323050, 1.690883)">
                        <path d="M118.766109,12.3302835 L202.245664,3.84385355 C204.814904,3.58444303 206.779488,6.08263174 205.917254,8.51324293 L169.84312,110.045213 C168.980885,112.473644 170.94547,114.974013 173.514709,114.712422 L211.391896,110.862683 C214.065913,110.590193 216.043595,113.295474 214.971805,115.758784 L156.60837,249.634232 C155.113103,253.061067 150.009549,252.097542 149.869845,248.365519 L146.44492,157.242668 C146.368519,155.215342 144.593845,153.674139 142.574689,153.881231 L102.099885,157.994741 C99.8537106,158.221453 97.9764411,156.303123 98.2558486,154.064345 L115.633689,15.3865318 C115.836696,13.764671 117.137687,12.4959574 118.766109,12.3302835" id="Fill-1" fill="#96D1F2"></path>
                        <path d="M142.924821,150.037814 C144.686399,150.037814 146.41305,150.67435 147.75115,151.836248 C149.276977,153.16164 150.195966,155.079969 150.272367,157.096396 L153.64272,246.848076 L211.246516,114.720924 L173.901951,118.518345 C171.378551,118.775576 168.94465,117.737934 167.379531,115.749847 C165.814412,113.759579 165.388752,111.150215 166.235706,108.765382 L202.141759,7.69991465 L119.404381,16.1100473 L102.105124,154.149143 L142.187011,150.074872 C142.431492,150.048713 142.678157,150.037814 142.924821,150.037814 M153.457176,255.578657 C152.985676,255.578657 152.505444,255.535059 152.020847,255.443502 C148.576276,254.793886 146.172934,252.007948 146.041962,248.509176 L142.630134,157.719853 L102.48931,161.800664 C100.247501,162.029555 98.0624462,161.236064 96.4907787,159.627283 C94.9191112,158.020682 94.1769349,155.818962 94.4563425,153.588904 L111.834183,14.9132711 C112.259842,11.4995158 114.953506,8.87271179 118.380614,8.52392454 L201.860169,0.0396745503 C204.387934,-0.217556051 206.819653,0.817906114 208.380406,2.80817339 C209.945525,4.79844067 210.373368,7.40998524 209.526414,9.79263818 L173.62036,110.855925 L211.002035,107.058504 C213.617115,106.786014 216.120869,107.899953 217.679439,110.027556 C219.235826,112.155158 219.537062,114.866979 218.482735,117.28451 L160.1193,251.162139 C158.916538,253.919738 156.342932,255.578657 153.457176,255.578657" id="Fill-3" fill="#00587E"></path>
                        <path d="M4.72176935,176.818571 L37.0566449,140.259127 C38.7680162,138.325538 41.9091683,138.829099 42.9263864,141.200853 L67.6102973,198.713691 C68.6253326,201.083264 71.7686675,201.586826 73.4778559,199.655417 L86.1930824,185.278842 C87.9743056,183.266775 91.2638929,183.912032 92.1501387,186.447279 L119.28978,264.248636 C120.523103,267.777927 116.118068,270.528987 113.478976,267.882564 L78.675273,232.984219 C77.2433093,231.547651 74.8923566,231.617409 73.5477078,233.136813 L58.9028229,249.693308 C57.4075559,251.384926 54.7248068,251.247591 53.4107182,249.412099 L4.49693358,181.187131 C3.54301873,179.85738 3.63688221,178.043686 4.72176935,176.818571" id="Fill-5" fill="#96D1F2"></path>
                        <g id="Group-9" transform="translate(0.000000, 133.260711)">
                            <mask id="mask-3" fill="white">
                                <use xlink:href="#path-2"></use>
                            </mask>
                            <g id="Clip-8"></g>
                            <path d="M7.59115393,46.0900559 L7.59333681,46.0900559 L7.59115393,46.0900559 Z M76.1813423,94.8657736 C78.1262808,94.8657736 80.0122818,95.6440052 81.3896737,97.0238948 L115.221999,130.947815 L88.7088418,54.9514321 L76.3472405,68.9269014 C74.6707952,70.8212522 72.1735902,71.7171995 69.6763852,71.3139142 C67.1769973,70.9128089 65.0879893,69.2844084 64.0882341,66.9606133 L39.6007816,9.90119821 L7.75705217,45.9025827 L56.2953829,113.604369 L70.6761403,97.3443431 C72.0186063,95.8292984 73.9417161,94.9289913 75.9630551,94.8679535 C76.0350899,94.8657736 76.1093075,94.8657736 76.1813423,94.8657736 Z M115.937981,139.514902 C114.056346,139.514902 112.211819,138.769369 110.766758,137.321902 L76.1966224,102.658989 L61.7743904,118.964793 C60.2834891,120.649871 58.1464579,121.541459 55.8937345,121.434643 C53.6453769,121.319107 51.604392,120.205168 50.2946691,118.378394 L1.38306738,50.1534274 C-0.622991527,47.3565896 -0.430898834,43.6027668 1.85020188,41.0261009 L34.1894432,4.46447687 C35.8658885,2.57012609 38.3609106,1.67853867 40.8602985,2.07964401 C43.3618692,2.47856943 45.4486944,4.10696993 46.4462667,6.43076502 L70.935902,63.4901801 L83.3215149,49.4863718 C85.0678122,47.5113639 87.6588806,46.635036 90.2477662,47.1429574 C92.8366518,47.6530588 94.8994654,49.4427734 95.7660654,51.9300625 L122.90789,129.73142 C124.060446,133.036179 122.840221,136.506612 119.871515,138.363904 C118.631644,139.137776 117.278264,139.514902 115.937981,139.514902 Z" id="Fill-7" fill="#00587E" mask="url(#mask-3)"></path>
                        </g>
                        <path d="M267.033072,143.889784 L307.876781,168.993747 C309.887205,170.229762 309.922131,173.135596 307.94445,174.421749 L256.354465,207.933664 C254.3746,209.219817 254.411709,212.127831 256.424316,213.363846 L272.887533,223.483036 C274.98309,224.771369 274.913238,227.834157 272.76311,229.028753 L201.588401,268.511471 C198.595685,270.17257 195.421789,266.638919 197.399471,263.848621 L225.717863,223.866702 C226.789653,222.351657 226.359627,220.245854 224.777045,219.27361 L206.067654,207.77671 C204.308259,206.693289 204.011389,204.256139 205.462998,202.784692 L263.053697,144.371547 C264.103658,143.303386 265.756092,143.105013 267.033072,143.889784" id="Fill-10" fill="#96D1F2"></path>
                        <path d="M208.73294,204.921232 L226.785287,216.017027 C228.435538,217.03287 229.60774,218.702689 229.996291,220.601399 C230.384842,222.49793 229.965731,224.494737 228.843735,226.075179 L202.079548,263.861919 L269.98868,226.192895 L254.416075,216.620865 C252.34453,215.349971 251.093744,213.141712 251.065367,210.715461 C251.032624,208.291389 252.228837,206.052611 254.265457,204.729399 L305.043413,171.742845 L265.441759,147.401854 L208.73294,204.921232 Z M199.979625,272.771253 C198.05215,272.771253 196.177063,271.958143 194.780025,270.403859 C192.53385,267.903491 192.328661,264.38074 194.273599,261.64058 L222.212171,222.188381 L204.061595,211.033729 C202.223617,209.90235 201.018672,208.027619 200.75891,205.886937 C200.501331,203.746255 201.219496,201.638272 202.734409,200.101428 L260.325108,141.688283 C262.641135,139.338329 266.223227,138.902345 269.039131,140.631021 L309.88284,165.734984 C311.950019,167.005878 313.20517,169.214137 313.23573,171.638208 C313.268473,174.06664 312.070077,176.305418 310.031275,177.628629 L259.257684,210.613004 L274.895775,220.226453 C277.050269,221.549665 278.303238,223.849481 278.246483,226.376008 C278.189728,228.902536 276.836348,231.143494 274.625099,232.370789 L203.448208,271.855686 C202.337126,272.472604 201.147461,272.771253 199.979625,272.771253 Z" id="Fill-12" fill="#00587E"></path>
                        <path d="M179.969679,49.9637743 C179.618236,49.9637743 179.262428,49.9049165 178.913169,49.7828409 C177.249821,49.1986223 176.376672,47.3783888 176.959499,45.7172895 L185.835054,20.5021509 L163.366758,22.6123138 C161.596449,22.7714479 160.053159,21.4896548 159.889444,19.7369988 C159.723546,17.9843429 161.01144,16.4300596 162.766468,16.2643857 L195.162464,13.2233968 L182.982041,47.8318122 C182.519273,49.1441243 181.288133,49.9637743 179.969679,49.9637743" id="Fill-14" fill="#FFFFFF"></path>
                        <path d="M170.182993,75.2839851 C169.790076,75.2839851 169.392793,75.2120478 169.006425,75.0572734 C167.367088,74.4076572 166.568157,72.5547249 167.218653,70.9197846 L173.815291,54.3349506 C174.467969,52.7000104 176.32341,51.8956197 177.960564,52.5495958 C179.597717,53.1992121 180.401014,55.0521444 179.748336,56.6892646 L173.149515,73.2740986 C172.654003,74.5231929 171.451241,75.2839851 170.182993,75.2839851" id="Fill-16" fill="#FFFFFF"></path>
                        <path d="M184.427102,159.173642 C184.02982,159.173642 183.628171,159.099525 183.237437,158.94475 C181.602467,158.288594 180.810084,156.431302 181.467129,154.798542 L191.781196,129.12998 L174.484123,131.469034 C172.744374,131.700106 171.131232,130.48153 170.893299,128.737594 C170.655366,126.993658 171.88214,125.387056 173.63062,125.151625 L201.789662,121.343304 L187.389259,157.172475 C186.889381,158.417209 185.690985,159.173642 184.427102,159.173642" id="Fill-18" fill="#FFFFFF"></path>
                        <path d="M125.570556,58.6993691 C125.439584,58.6993691 125.310795,58.6928294 125.177639,58.67539 C123.429159,58.4617578 122.18274,56.8725959 122.398844,55.1242998 L123.468451,46.3893589 C123.684555,44.6410628 125.280234,43.4006881 127.024349,43.6121404 C128.775012,43.8257726 130.019248,45.4149345 129.803144,47.1632307 L128.733537,55.8981715 C128.534896,57.5156724 127.159687,58.6993691 125.570556,58.6993691" id="Fill-20" fill="#1498CB"></path>
                        <path d="M122.149124,86.5849102 C122.018151,86.5849102 121.889362,86.5761905 121.756207,86.5609311 C120.007727,86.3472989 118.76349,84.755957 118.977411,83.0076609 L119.422717,79.3846333 C119.638821,77.6385171 121.230135,76.3959625 122.980798,76.6095947 C124.729278,76.8232269 125.973514,78.4145687 125.759593,80.1606849 L125.314287,83.7837126 C125.115646,85.4012135 123.740437,86.5849102 122.149124,86.5849102" id="Fill-22" fill="#1498CB"></path>
                        <path d="M111.266854,145.900325 L117.612462,94.1468359 C117.826383,92.4007197 119.428611,91.1647049 121.168359,91.3717973 C122.919022,91.5854295 124.163259,93.1745914 123.949338,94.9228875 L118.583839,138.691328 L138.004847,136.576806 C139.75551,136.391512 141.331543,137.649326 141.521453,139.399802 C141.713546,141.150278 140.44748,142.722001 138.694635,142.913834 L111.266854,145.900325 Z" id="Fill-24" fill="#1498CB"></path>
                        <path d="M48.6369922,186.270289 C47.3534638,186.270289 46.1419701,185.492057 45.6573726,184.225524 L37.1441738,162.079713 L26.5616127,173.11229 C25.3413876,174.385363 23.3178657,174.426782 22.0452516,173.208206 C20.7726375,171.991811 20.731163,169.973205 21.9492053,168.702311 L39.4973093,150.410599 L51.614429,181.938787 C52.2474617,183.582447 51.4245191,185.42666 49.778634,186.056657 C49.405363,186.202712 49.0168119,186.270289 48.6369922,186.270289" id="Fill-26" fill="#FFFFFF" transform="translate(36.445193, 168.340444) rotate(-3.000000) translate(-36.445193, -168.340444) "></path>
                        <path d="M251.205071,174.547094 C250.384311,174.547094 249.561368,174.231006 248.93925,173.603189 C247.699379,172.354094 247.705928,170.335488 248.958896,169.097293 L266.338919,151.891182 L280.062632,161.018508 C281.531704,161.995113 281.926804,163.97448 280.951061,165.439387 C279.973134,166.906473 277.988904,167.301039 276.52638,166.326614 L267.133484,160.081143 L253.451245,173.622808 C252.829127,174.239725 252.017099,174.547094 251.205071,174.547094" id="Fill-28" fill="#FFFFFF"></path>
                        <path d="M56.5741476,241.381981 L46.3277488,226.591221 C45.3258107,225.143754 45.6881674,223.157847 47.1375941,222.155083 C48.5848379,221.15668 50.5756167,221.514187 51.5775547,222.963834 L57.076208,230.903104 L63.9893621,222.721863 C65.1266381,221.376852 67.1436114,221.204638 68.4882602,222.340376 C69.835092,223.476115 70.0053559,225.486002 68.8702628,226.833192 L56.5741476,241.381981 Z" id="Fill-30" fill="#1498CB"></path>
                        <path d="M242.185882,237.157022 C241.140287,237.157022 240.118703,236.646921 239.505316,235.707375 C238.544853,234.231569 238.963964,232.256561 240.441768,231.297396 L249.598914,225.348394 L243.21838,220.814159 C241.782051,219.793957 241.445889,217.803689 242.467473,216.369302 C243.491239,214.934914 245.484201,214.601387 246.918348,215.621589 L260.941114,225.581645 L243.923448,236.640381 C243.386462,236.989168 242.781806,237.157022 242.185882,237.157022" id="Fill-32" fill="#1498CB"></path>
                    </g>
                </g>
            </g>
        </g>
    </g>
</svg>