<?xml version="1.0" encoding="UTF-8"?>
<svg width="331px" height="387px" viewBox="0 0 331 387" version="1.1" xmlns="http://www.w3.org/2000/svg" xmlns:xlink="http://www.w3.org/1999/xlink">
    <!-- Generator: Sketch 49.3 (51167) - http://www.bohemiancoding.com/sketch -->
    <title>inventory-header-icon</title>
    <desc>Created with Sketch.</desc>
    <defs>
        <filter x="-13.0%" y="-241.0%" width="126.0%" height="582.0%" filterUnits="objectBoundingBox" id="filter-1">
            <feGaussianBlur stdDeviation="10.4436384" in="SourceGraphic"></feGaussianBlur>
        </filter>
        <polygon id="path-2" points="0 0.538407204 119.814979 0.538407204 119.814979 131.392894 0 131.392894"></polygon>
        <polygon id="path-4" points="0.623393087 0.538407204 120.441858 0.538407204 120.441858 131.392894 0.623393087 131.392894"></polygon>
        <polygon id="path-6" points="0.789600989 2.3598071 54.891844 2.3598071 54.891844 56.43806 0.789600989 56.43806"></polygon>
        <polygon id="path-8" points="0 2.16154657 119.814979 2.16154657 119.814979 133.016667 0 133.016667"></polygon>
        <polygon id="path-10" points="0.789600989 0.813311588 54.891844 0.813311588 54.891844 54.8915645 0.789600989 54.8915645"></polygon>
    </defs>
    <g id="Desktop-UI" stroke="none" stroke-width="1" fill="none" fill-rule="evenodd">
        <g id="Inventory-System" transform="translate(-424.000000, -322.000000)">
            <g id="inventory-header-icon" transform="translate(420.000000, 316.000000)">
                <ellipse id="Oval-3" fill-opacity="0.3" fill="#1F6FA4" style="mix-blend-mode: multiply;" filter="url(#filter-1)" cx="170.719538" cy="362.5" rx="120.5" ry="6.5"></ellipse>
                <g id="Icon/Free/Inventory" transform="translate(172.839471, 155.874445) rotate(5.000000) translate(-172.839471, -155.874445) translate(12.029212, 13.477574)">
                    <g id="Page-1" transform="translate(0.988564, 0.335548)">
                        <path d="M59.6950388,0.72223963 C59.6158252,0.738075136 59.5334431,0.750743541 59.4669037,0.763411946 C59.2546113,0.788748755 59.0549931,0.842589476 58.868049,0.921767006 C59.1342067,0.80141716 59.4130385,0.738075136 59.6950388,0.72223963" id="Fill-1" fill="#96D1F2"></path>
                        <path d="M60.945346,0.923350556 C60.758402,0.844173026 60.5587837,0.790332306 60.3496599,0.761828395 C60.2799519,0.749159991 60.2007383,0.736491586 60.1183562,0.723823181 C60.4003566,0.736491586 60.6791884,0.803000711 60.945346,0.923350556" id="Fill-3" fill="#96D1F2"></path>
                        <polygon id="Fill-5" fill="#96D1F2" points="57.2444874 70.2252255 57.2444874 124.208465 5.32473701 93.0726936 5.32473701 42.1077011"></polygon>
                        <path d="M111.719351,37.5553098 L59.8946571,65.6189936 C59.853466,65.5809883 59.8122749,65.5683199 59.7710839,65.539816 L8.07946855,37.5553098 L59.9041627,6.47337869 L111.719351,37.5553098 Z" id="Fill-7" fill="#96D1F2"></path>
                        <polygon id="Fill-9" fill="#96D1F2" points="114.488658 42.1080178 114.488658 93.0730103 62.5689076 124.208782 62.5689076 70.2097067"></polygon>
                        <g id="Group-13" transform="translate(0.000000, 0.172431)">
                            <mask id="mask-3" fill="white">
                                <use xlink:href="#path-2"></use>
                            </mask>
                            <g id="Clip-12"></g>
                            <path d="M114.488658,92.899946 L62.5689076,124.035718 L62.5689076,70.0366425 L114.488658,41.9349535 L114.488658,92.899946 Z M57.2457549,124.035718 L5.32600443,92.899946 L5.32600443,41.9349535 L57.2457549,70.052478 L57.2457549,124.035718 Z M59.9041627,6.29873086 L111.719351,37.3838291 L59.8946571,65.4475128 C59.853466,65.4063405 59.8122749,65.3936721 59.7710839,65.3683353 L8.07946855,37.3838291 L59.9041627,6.29873086 Z M118.522214,35.2555371 L117.166077,34.4415921 L117.153403,34.4415921 L61.2793105,0.924160129 C61.17158,0.857651004 61.0670181,0.803810284 60.9466134,0.749969564 C60.7596694,0.670792034 60.5568826,0.616951313 60.3477587,0.591614504 C60.2812193,0.578946099 60.1988372,0.566277694 60.1196236,0.550442188 C60.0530842,0.550442188 59.9865448,0.537773783 59.9041627,0.537773783 C59.8281176,0.537773783 59.7615782,0.550442188 59.6950388,0.550442188 C59.6158252,0.566277694 59.5334431,0.578946099 59.4669037,0.591614504 C59.2546113,0.616951313 59.0549931,0.670792034 58.868049,0.749969564 C58.7476444,0.803810284 58.6430825,0.857651004 58.535352,0.924160129 L2.64858534,34.4415921 L1.28928027,35.2555371 C0.490807356,35.7337694 -0.00031685433,36.598388 -0.00031685433,37.5326829 L-0.00031685433,94.4043191 C-0.00031685433,95.3354468 0.490807356,96.2000655 1.28928027,96.6782977 L58.535352,131.009675 C58.6430825,131.076184 58.7476444,131.126857 58.868049,131.183865 C59.0549931,131.259876 59.2546113,131.316884 59.4542295,131.34222 C59.5207689,131.354889 59.5746342,131.367557 59.638005,131.380226 C59.7203872,131.380226 59.8122749,131.392894 59.9041627,131.392894 C60.0023875,131.392894 60.0942753,131.380226 60.1734889,131.380226 C60.2400283,131.367557 60.2938935,131.354889 60.3604329,131.34222 C60.5568826,131.316884 60.7596694,131.259876 60.9466134,131.183865 C61.0670181,131.126857 61.17158,131.076184 61.2793105,131.009675 L118.522214,96.6782977 C119.320687,96.2000655 119.814979,95.3354468 119.814979,94.4043191 L119.814979,37.5326829 C119.814979,36.598388 119.320687,35.7337694 118.522214,35.2555371 Z" id="Fill-11" fill="#1F6FA4" mask="url(#mask-3)"></path>
                        </g>
                        <path d="M143.776137,96.0785893 C143.776137,109.307571 133.04745,120.028209 119.815613,120.028209 C106.580608,120.028209 95.8519201,109.307571 95.8519201,96.0785893 C95.8519201,82.8496076 106.580608,72.1289701 119.815613,72.1289701 C133.04745,72.1289701 143.776137,82.8496076 143.776137,96.0785893" id="Fill-14" fill="#FFFFFF"></path>
                        <path d="M119.814029,75.2140433 C108.302711,75.2140433 98.9396655,84.5728274 98.9396655,96.078906 C98.9396655,107.584985 108.302711,116.943769 119.814029,116.943769 C131.325347,116.943769 140.688392,107.584985 140.688392,96.078906 C140.688392,84.5728274 131.325347,75.2140433 119.814029,75.2140433 M119.814029,123.119616 C104.896527,123.119616 92.7610061,110.986451 92.7610061,96.078906 C92.7610061,81.1681936 104.896527,69.0413631 119.814029,69.0413631 C134.731531,69.0413631 146.867051,81.1681936 146.867051,96.078906 C146.867051,110.986451 134.731531,123.119616 119.814029,123.119616" id="Fill-16" fill="#1F6FA4"></path>
                        <path d="M115.933831,107.327499 L106.428201,97.8261958 C105.461795,96.8602299 105.461795,95.2956819 106.428201,94.329716 C107.394606,93.3669173 108.959867,93.3669173 109.926273,94.329716 L115.933831,100.340874 L129.70432,86.5766523 C130.667557,85.6138535 132.235986,85.6138535 133.199223,86.5766523 C134.165629,87.5426182 134.165629,89.1039991 133.199223,90.0699649 L115.933831,107.327499 Z" id="Fill-18" fill="#96D1F2"></path>
                        <path d="M97.4206659,39.4666554 C96.9865754,39.4666554 96.5461479,39.3526398 96.1469115,39.1119401 L92.1735582,36.7081103 C91.0043657,35.9986796 90.627309,34.4816381 91.3370627,33.3161449 C92.0436479,32.1474846 93.5613801,31.7705995 94.7274041,32.4800302 L98.7007574,34.88386 C99.8699498,35.5901236 100.247006,37.1103321 99.5372528,38.2758254 C99.0714769,39.0422639 98.2603298,39.4666554 97.4206659,39.4666554" id="Fill-20" fill="#FFFFFF"></path>
                        <path d="M85.8665727,32.4768631 C85.4293138,32.4768631 84.9888862,32.3628474 84.5896498,32.1221477 L82.590299,30.9123151 C81.424275,30.2028844 81.0472184,28.6858429 81.7538035,27.5203497 C82.4635572,26.3485223 83.9781209,25.9779714 85.1473134,26.684235 L87.1466642,27.8972347 C88.3126882,28.6003312 88.6897448,30.1205398 87.9831597,31.286033 C87.5173838,32.0524715 86.7030682,32.4768631 85.8665727,32.4768631" id="Fill-22" fill="#FFFFFF"></path>
                        <path d="M43.5522613,26.6715666 C42.7347771,26.6715666 41.9363042,26.2661776 41.4673598,25.528243 C40.7322578,24.3754182 41.0712919,22.8520425 42.2214731,22.1204422 L59.4520116,11.1432694 L73.1749726,19.4410745 C74.3409965,20.1473381 74.7148846,21.6643796 74.0082995,22.8330399 C73.3048828,23.9985332 71.7808135,24.3722511 70.6147896,23.6691546 L59.518551,16.9580672 L44.8798809,26.2851802 C44.4679703,26.5448825 44.0085315,26.6715666 43.5522613,26.6715666" id="Fill-24" fill="#FFFFFF"></path>
                        <path d="M230.709876,0.72223963 C230.630662,0.738075136 230.54828,0.750743541 230.484909,0.763411946 C230.269448,0.788748755 230.072998,0.842589476 229.882886,0.921767006 C230.149043,0.80141716 230.431044,0.738075136 230.709876,0.72223963" id="Fill-26" fill="#96D1F2"></path>
                        <path d="M231.963034,0.923350556 C231.772922,0.844173026 231.576472,0.790332306 231.36418,0.761828395 C231.294472,0.749159991 231.218427,0.736491586 231.136045,0.723823181 C231.414876,0.736491586 231.696877,0.803000711 231.963034,0.923350556" id="Fill-28" fill="#96D1F2"></path>
                        <polygon id="Fill-30" fill="#96D1F2" points="228.259324 70.2252255 228.259324 124.208465 176.339574 93.0726936 176.339574 42.1077011"></polygon>
                        <path d="M282.73704,37.5553098 L230.912345,65.6189936 C230.871154,65.5809883 230.829963,65.5683199 230.788772,65.539816 L179.097157,37.5553098 L230.921851,6.47337869 L282.73704,37.5553098 Z" id="Fill-32" fill="#96D1F2"></path>
                        <polygon id="Fill-34" fill="#96D1F2" points="285.506346 42.1080178 285.506346 93.0730103 233.583427 124.208782 233.583427 70.2097067"></polygon>
                        <g id="Group-38" transform="translate(170.390810, 0.172431)">
                            <mask id="mask-5" fill="white">
                                <use xlink:href="#path-4"></use>
                            </mask>
                            <g id="Clip-37"></g>
                            <path d="M115.115537,92.899946 L63.1926175,124.035718 L63.1926175,70.0366425 L115.115537,41.9349535 L115.115537,92.899946 Z M57.8694648,124.035718 L5.94971437,92.899946 L5.94971437,41.9349535 L57.8694648,70.052478 L57.8694648,124.035718 Z M60.5310412,6.29873086 L112.34623,37.3838291 L60.5215355,65.4475128 C60.4803445,65.4063405 60.4391534,65.3936721 60.3979624,65.3683353 L8.70634703,37.3838291 L60.5310412,6.29873086 Z M119.145924,35.2555371 L117.789787,34.4415921 L117.777113,34.4415921 L61.9030204,0.924160129 C61.7984585,0.857651004 61.690728,0.803810284 61.5734919,0.749969564 C61.3833793,0.670792034 61.1837611,0.616951313 60.9714687,0.591614504 C60.9049293,0.578946099 60.8257157,0.566277694 60.7465021,0.550442188 C60.6767942,0.550442188 60.6134233,0.537773783 60.5310412,0.537773783 C60.4518276,0.537773783 60.3884567,0.550442188 60.3187488,0.550442188 C60.2395352,0.566277694 60.1571531,0.578946099 60.0937822,0.591614504 C59.8783213,0.616951313 59.6818716,0.670792034 59.491759,0.749969564 C59.3745229,0.803810284 59.2667924,0.857651004 59.1622305,0.924160129 L3.27546383,34.4415921 L1.91615875,35.2555371 C1.11768584,35.7337694 0.623393087,36.598388 0.623393087,37.5326829 L0.623393087,94.4043191 C0.623393087,95.3354468 1.11768584,96.2000655 1.91615875,96.6782977 L59.1622305,131.009675 C59.2667924,131.076184 59.3745229,131.126857 59.491759,131.183865 C59.6818716,131.259876 59.8783213,131.316884 60.081108,131.34222 C60.1444789,131.354889 60.1983441,131.367557 60.2648835,131.380226 C60.3472657,131.380226 60.4391534,131.392894 60.5310412,131.392894 C60.6260975,131.392894 60.7179852,131.380226 60.7971988,131.380226 C60.8669068,131.367557 60.920772,131.354889 60.9841429,131.34222 C61.1837611,131.316884 61.3833793,131.259876 61.5734919,131.183865 C61.690728,131.126857 61.7984585,131.076184 61.9030204,131.009675 L119.145924,96.6782977 C119.944397,96.2000655 120.441858,95.3354468 120.441858,94.4043191 L120.441858,37.5326829 C120.441858,36.598388 119.944397,35.7337694 119.145924,35.2555371 Z" id="Fill-36" fill="#1F6FA4" mask="url(#mask-5)"></path>
                        </g>
                        <path d="M314.793826,96.0785893 C314.793826,109.307571 304.065138,120.028209 290.833301,120.028209 C277.598296,120.028209 266.86644,109.307571 266.86644,96.0785893 C266.86644,82.8496076 277.598296,72.1289701 290.833301,72.1289701 C304.065138,72.1289701 314.793826,82.8496076 314.793826,96.0785893" id="Fill-39" fill="#FFFFFF"></path>
                        <g id="Group-43" transform="translate(262.989094, 66.681556)">
                            <mask id="mask-7" fill="white">
                                <use xlink:href="#path-6"></use>
                            </mask>
                            <g id="Clip-42"></g>
                            <path d="M27.8426236,8.53248734 C16.3313059,8.53248734 6.96826042,17.8912714 6.96826042,29.39735 C6.96826042,40.9034287 16.3313059,50.2622127 27.8426236,50.2622127 C39.3507729,50.2622127 48.7138183,40.9034287 48.7138183,29.39735 C48.7138183,17.8912714 39.3507729,8.53248734 27.8426236,8.53248734 M27.8426236,56.43806 C12.9251218,56.43806 0.789600989,44.3048954 0.789600989,29.39735 C0.789600989,14.4866376 12.9251218,2.3598071 27.8426236,2.3598071 C42.7569569,2.3598071 54.8924778,14.4866376 54.8924778,29.39735 C54.8924778,44.3048954 42.7569569,56.43806 27.8426236,56.43806" id="Fill-41" fill="#1F6FA4" mask="url(#mask-7)"></path>
                        </g>
                        <path d="M286.951519,107.327499 L277.445889,97.8261958 C276.479483,96.8602299 276.479483,95.2956819 277.445889,94.329716 C278.412295,93.3669173 279.974387,93.3669173 280.940792,94.329716 L286.951519,100.340874 L300.722008,86.5766523 C301.685245,85.6138535 303.250506,85.6138535 304.213743,86.5766523 C305.180149,87.5426182 305.180149,89.1039991 304.213743,90.0699649 L286.951519,107.327499 Z" id="Fill-44" fill="#96D1F2"></path>
                        <path d="M268.438354,39.4666554 C268.001095,39.4666554 267.560668,39.3526398 267.161431,39.1119401 L263.188078,36.7081103 C262.022054,35.9986796 261.644997,34.4816381 262.351583,33.3161449 C263.061336,32.1474846 264.579069,31.7705995 265.745092,32.4800302 L269.718446,34.88386 C270.887638,35.5901236 271.261526,37.1103321 270.554941,38.2758254 C270.089165,39.0422639 269.27485,39.4666554 268.438354,39.4666554" id="Fill-46" fill="#FFFFFF"></path>
                        <path d="M256.881409,32.4768631 C256.447319,32.4768631 256.006892,32.3628474 255.607655,32.1221477 L253.605136,30.9123151 C252.439112,30.2060515 252.062055,28.68901 252.76864,27.5203497 C253.478394,26.3516894 254.996126,25.9779714 256.16215,26.684235 L258.164669,27.8972347 C259.330693,28.6003312 259.70775,30.1205398 258.997996,31.286033 C258.532221,32.0524715 257.721073,32.4768631 256.881409,32.4768631" id="Fill-48" fill="#FFFFFF"></path>
                        <path d="M214.56995,26.6715666 C213.752466,26.6715666 212.953993,26.2661776 212.48188,25.528243 C211.746778,24.3754182 212.08898,22.8520425 213.239162,22.1204422 L230.4697,11.1432694 L244.192661,19.4410745 C245.358685,20.1473381 245.732573,21.6643796 245.022819,22.8330399 C244.319403,23.9985332 242.798502,24.3722511 241.632478,23.6691546 L230.536239,16.9580672 L215.894401,26.2851802 C215.48249,26.5448825 215.02622,26.6715666 214.56995,26.6715666" id="Fill-50" fill="#FFFFFF"></path>
                        <path d="M59.6950388,148.032668 C59.6158252,148.048503 59.5334431,148.061171 59.4669037,148.07384 C59.2546113,148.099177 59.0549931,148.153017 58.868049,148.232195 C59.1342067,148.111845 59.4130385,148.048503 59.6950388,148.032668" id="Fill-52" fill="#96D1F2"></path>
                        <path d="M60.945346,148.233778 C60.758402,148.154601 60.5587837,148.10076 60.3496599,148.072256 C60.2799519,148.059588 60.2007383,148.046919 60.1183562,148.034251 C60.4003566,148.046919 60.6791884,148.113429 60.945346,148.233778" id="Fill-54" fill="#96D1F2"></path>
                        <polygon id="Fill-56" fill="#96D1F2" points="57.2444874 217.532486 57.2444874 271.518893 5.32473701 240.383121 5.32473701 189.418129"></polygon>
                        <path d="M111.719351,184.865738 L59.8946571,212.929421 C59.853466,212.891416 59.8122749,212.878748 59.7710839,212.850244 L8.07946855,184.865738 L59.9041627,153.783807 L111.719351,184.865738 Z" id="Fill-58" fill="#96D1F2"></path>
                        <polygon id="Fill-60" fill="#96D1F2" points="114.488658 189.418446 114.488658 240.383438 62.5689076 271.51921 62.5689076 217.520135"></polygon>
                        <g id="Group-64" transform="translate(0.000000, 145.859086)">
                            <mask id="mask-9" fill="white">
                                <use xlink:href="#path-8"></use>
                            </mask>
                            <g id="Clip-63"></g>
                            <path d="M114.488658,94.5237188 L62.5689076,125.659491 L62.5689076,71.6604152 L114.488658,43.5587263 L114.488658,94.5237188 Z M57.2457549,125.659491 L5.32600443,94.5237188 L5.32600443,43.5587263 L57.2457549,71.6730837 L57.2457549,125.659491 Z M59.9041627,7.92250365 L111.719351,39.0076019 L59.8946571,67.0712856 C59.853466,67.0301133 59.8122749,67.0174449 59.7710839,66.9921081 L8.07946855,39.0076019 L59.9041627,7.92250365 Z M118.522214,36.8793099 L117.166077,36.0653649 L117.153403,36.0653649 L61.2793105,2.54793291 C61.17158,2.48142379 61.0670181,2.42758307 60.9466134,2.37374235 C60.7596694,2.29456482 60.5568826,2.2407241 60.3477587,2.21538729 C60.2812193,2.20271888 60.1988372,2.19005048 60.1196236,2.17421497 C60.0530842,2.17421497 59.9865448,2.16154657 59.9041627,2.16154657 C59.8281176,2.16154657 59.7615782,2.17421497 59.6950388,2.17421497 C59.6158252,2.19005048 59.5334431,2.20271888 59.4669037,2.21538729 C59.2546113,2.2407241 59.0549931,2.29456482 58.868049,2.37374235 C58.7476444,2.42758307 58.6430825,2.48142379 58.535352,2.54793291 L2.64858534,36.0653649 L1.28928027,36.8793099 C0.490807356,37.3575422 -0.00031685433,38.2221608 -0.00031685433,39.1532886 L-0.00031685433,96.0280919 C-0.00031685433,96.9592196 0.490807356,97.8238382 1.28928027,98.2989034 L58.535352,132.63028 C58.6430825,132.699957 58.7476444,132.75063 58.868049,132.804471 C59.0549931,132.883648 59.2546113,132.937489 59.4542295,132.965993 C59.5207689,132.978662 59.5746342,132.99133 59.638005,133.003998 C59.7203872,133.003998 59.8122749,133.016667 59.9041627,133.016667 C60.0023875,133.016667 60.0942753,133.003998 60.1734889,133.003998 C60.2400283,132.99133 60.2938935,132.978662 60.3604329,132.965993 C60.5568826,132.937489 60.7596694,132.883648 60.9466134,132.804471 C61.0670181,132.75063 61.17158,132.699957 61.2793105,132.63028 L118.522214,98.2989034 C119.320687,97.8238382 119.814979,96.9592196 119.814979,96.0280919 L119.814979,39.1532886 C119.814979,38.2221608 119.320687,37.3575422 118.522214,36.8793099 Z" id="Fill-62" fill="#1F6FA4" mask="url(#mask-9)"></path>
                        </g>
                        <path d="M143.776137,243.389017 C143.776137,256.617999 133.04745,267.338636 119.815613,267.338636 C106.580608,267.338636 95.8519201,256.617999 95.8519201,243.389017 C95.8519201,230.160035 106.580608,219.439398 119.815613,219.439398 C133.04745,219.439398 143.776137,230.160035 143.776137,243.389017" id="Fill-65" fill="#FFFFFF"></path>
                        <path d="M119.814029,222.524471 C108.302711,222.524471 98.9396655,231.883255 98.9396655,243.389334 C98.9396655,254.895413 108.302711,264.254197 119.814029,264.254197 C131.325347,264.254197 140.688392,254.895413 140.688392,243.389334 C140.688392,231.883255 131.325347,222.524471 119.814029,222.524471 M119.814029,270.426877 C104.896527,270.426877 92.7610061,258.300046 92.7610061,243.389334 C92.7610061,228.478621 104.896527,216.348624 119.814029,216.348624 C134.731531,216.348624 146.867051,228.478621 146.867051,243.389334 C146.867051,258.300046 134.731531,270.426877 119.814029,270.426877" id="Fill-67" fill="#1F6FA4"></path>
                        <path d="M115.933831,254.637927 L106.428201,245.136624 C105.461795,244.170658 105.461795,242.60611 106.428201,241.640144 C107.394606,240.677345 108.959867,240.677345 109.926273,241.640144 L115.933831,247.651302 L129.70432,233.88708 C130.667557,232.924281 132.235986,232.924281 133.199223,233.88708 C134.165629,234.853046 134.165629,236.414427 133.199223,237.380393 L115.933831,254.637927 Z" id="Fill-69" fill="#96D1F2"></path>
                        <path d="M97.4206659,186.777083 C96.9865754,186.777083 96.5461479,186.663068 96.1469115,186.419201 L92.1735582,184.015371 C91.0043657,183.309107 90.627309,181.792066 91.3370627,180.626573 C92.0436479,179.454745 93.5613801,179.081027 94.7274041,179.790458 L98.7007574,182.194288 C99.8699498,182.900551 100.247006,184.417593 99.5372528,185.586253 C99.0714769,186.352692 98.2603298,186.777083 97.4206659,186.777083" id="Fill-71" fill="#FFFFFF"></path>
                        <path d="M85.8665727,179.787291 C85.4293138,179.787291 84.9888862,179.673275 84.5896498,179.432576 L82.590299,178.222743 C81.424275,177.513312 81.0472184,175.996271 81.7538035,174.830778 C82.4635572,173.65895 83.9781209,173.285232 85.1473134,173.994663 L87.1466642,175.204496 C88.3126882,175.910759 88.6897448,177.430968 87.9831597,178.596461 C87.5173838,179.362899 86.7030682,179.787291 85.8665727,179.787291" id="Fill-73" fill="#FFFFFF"></path>
                        <path d="M43.5522613,173.978827 C42.7347771,173.978827 41.9363042,173.576605 41.4673598,172.838671 C40.7322578,171.685846 41.0712919,170.159303 42.2214731,169.427703 L59.4520116,158.453697 L73.1749726,166.751502 C74.3409965,167.457766 74.7148846,168.977975 74.0082995,170.143468 C73.3048828,171.308961 71.7808135,171.685846 70.6147896,170.979583 L59.518551,164.268495 L44.8798809,173.592441 C44.4679703,173.85531 44.0085315,173.978827 43.5522613,173.978827" id="Fill-75" fill="#FFFFFF"></path>
                        <path d="M230.709876,148.032668 C230.630662,148.048503 230.54828,148.061171 230.484909,148.07384 C230.269448,148.099177 230.072998,148.153017 229.882886,148.232195 C230.149043,148.111845 230.431044,148.048503 230.709876,148.032668" id="Fill-77" fill="#96D1F2"></path>
                        <path d="M231.963034,148.233778 C231.772922,148.154601 231.576472,148.10076 231.36418,148.072256 C231.294472,148.059588 231.218427,148.046919 231.136045,148.034251 C231.414876,148.046919 231.696877,148.113429 231.963034,148.233778" id="Fill-79" fill="#96D1F2"></path>
                        <polygon id="Fill-81" fill="#96D1F2" points="228.259324 217.532486 228.259324 271.518893 176.339574 240.383121 176.339574 189.418129"></polygon>
                        <path d="M282.73704,184.865738 L230.912345,212.929421 C230.871154,212.891416 230.829963,212.878748 230.788772,212.850244 L179.097157,184.865738 L230.921851,153.783807 L282.73704,184.865738 Z" id="Fill-83" fill="#96D1F2"></path>
                        <polygon id="Fill-85" fill="#96D1F2" points="285.506346 189.418446 285.506346 240.383438 233.583427 271.51921 233.583427 217.520135"></polygon>
                        <path d="M285.506346,240.382805 L233.583427,271.518577 L233.583427,217.519501 L285.506346,189.417812 L285.506346,240.382805 Z M228.260275,271.518577 L176.340524,240.382805 L176.340524,189.417812 L228.260275,217.53217 L228.260275,271.518577 Z M230.921851,153.78159 L282.73704,184.866688 L230.912345,212.930372 C230.871154,212.889199 230.829963,212.876531 230.788772,212.851194 L179.097157,184.866688 L230.921851,153.78159 Z M289.536734,182.738396 L288.180597,181.924451 L288.167923,181.924451 L232.29383,148.407019 C232.189268,148.34051 232.081538,148.286669 231.964302,148.232828 C231.774189,148.153651 231.574571,148.09981 231.362279,148.074473 C231.295739,148.061805 231.216526,148.049136 231.137312,148.033301 C231.067604,148.033301 231.004233,148.020633 230.921851,148.020633 C230.842638,148.020633 230.779267,148.033301 230.709559,148.033301 C230.630345,148.049136 230.547963,148.061805 230.484592,148.074473 C230.269131,148.09981 230.072681,148.153651 229.882569,148.232828 C229.765333,148.286669 229.657602,148.34051 229.55304,148.407019 L173.666274,181.924451 L172.306969,182.738396 C171.508496,183.216628 171.014203,184.081247 171.014203,185.012375 L171.014203,241.887178 C171.014203,242.818306 171.508496,243.682924 172.306969,244.157989 L229.55304,278.489366 C229.657602,278.559043 229.765333,278.609716 229.882569,278.663557 C230.072681,278.742734 230.269131,278.796575 230.471918,278.825079 C230.535289,278.837747 230.589154,278.850416 230.655693,278.863084 C230.738076,278.863084 230.829963,278.875753 230.921851,278.875753 C231.016907,278.875753 231.108795,278.863084 231.188009,278.863084 C231.257717,278.850416 231.311582,278.837747 231.374953,278.825079 C231.574571,278.796575 231.774189,278.742734 231.964302,278.663557 C232.081538,278.609716 232.189268,278.559043 232.29383,278.489366 L289.536734,244.157989 C290.335206,243.682924 290.832668,242.818306 290.832668,241.887178 L290.832668,185.012375 C290.832668,184.081247 290.335206,183.216628 289.536734,182.738396 Z" id="Fill-87" fill="#1F6FA4"></path>
                        <path d="M314.793826,243.389017 C314.793826,256.617999 304.065138,267.338636 290.833301,267.338636 C277.598296,267.338636 266.86644,256.617999 266.86644,243.389017 C266.86644,230.160035 277.598296,219.439398 290.833301,219.439398 C304.065138,219.439398 314.793826,230.160035 314.793826,243.389017" id="Fill-89" fill="#FFFFFF"></path>
                        <g id="Group-93" transform="translate(262.989094, 215.535312)">
                            <mask id="mask-11" fill="white">
                                <use xlink:href="#path-10"></use>
                            </mask>
                            <g id="Clip-92"></g>
                            <path d="M27.8426236,6.98915892 C16.3313059,6.98915892 6.96826042,16.347943 6.96826042,27.8540216 C6.96826042,39.3601003 16.3313059,48.7188843 27.8426236,48.7188843 C39.3507729,48.7188843 48.7138183,39.3601003 48.7138183,27.8540216 C48.7138183,16.347943 39.3507729,6.98915892 27.8426236,6.98915892 M27.8426236,54.8915645 C12.9251218,54.8915645 0.789600989,42.764734 0.789600989,27.8540216 C0.789600989,12.9433092 12.9251218,0.813311588 27.8426236,0.813311588 C42.7569569,0.813311588 54.8924778,12.9433092 54.8924778,27.8540216 C54.8924778,42.764734 42.7569569,54.8915645 27.8426236,54.8915645" id="Fill-91" fill="#1F6FA4" mask="url(#mask-11)"></path>
                        </g>
                        <path d="M286.951519,254.637927 L277.445889,245.136624 C276.479483,244.170658 276.479483,242.60611 277.445889,241.640144 C278.412295,240.677345 279.974387,240.677345 280.940792,241.640144 L286.951519,247.651302 L300.722008,233.88708 C301.685245,232.924281 303.250506,232.924281 304.213743,233.88708 C305.180149,234.853046 305.180149,236.414427 304.213743,237.380393 L286.951519,254.637927 Z" id="Fill-94" fill="#96D1F2"></path>
                        <path d="M268.438354,186.777083 C268.001095,186.777083 267.560668,186.663068 267.161431,186.419201 L263.188078,184.015371 C262.022054,183.309107 261.644997,181.792066 262.351583,180.626573 C263.061336,179.454745 264.579069,179.081027 265.745092,179.790458 L269.718446,182.194288 C270.887638,182.900551 271.261526,184.417593 270.554941,185.586253 C270.089165,186.352692 269.27485,186.777083 268.438354,186.777083" id="Fill-96" fill="#FFFFFF"></path>
                        <path d="M256.881409,179.787291 C256.447319,179.787291 256.006892,179.673275 255.607655,179.432576 L253.605136,178.222743 C252.439112,177.513312 252.062055,175.996271 252.76864,174.830778 C253.478394,173.662117 254.996126,173.285232 256.16215,173.994663 L258.164669,175.204496 C259.330693,175.907592 259.70775,177.427801 258.997996,178.596461 C258.532221,179.362899 257.721073,179.787291 256.881409,179.787291" id="Fill-98" fill="#FFFFFF"></path>
                        <path d="M214.56995,173.978827 C213.752466,173.978827 212.953993,173.576605 212.48188,172.838671 C211.746778,171.685846 212.08898,170.159303 213.239162,169.427703 L230.4697,158.453697 L244.192661,166.751502 C245.358685,167.457766 245.732573,168.977975 245.022819,170.143468 C244.319403,171.308961 242.798502,171.685846 241.632478,170.979583 L230.536239,164.268495 L215.894401,173.592441 C215.48249,173.85531 215.023051,173.978827 214.56995,173.978827" id="Fill-100" fill="#FFFFFF"></path>
                        <path d="M41.7512613,109.05642 C41.1935977,109.05642 40.629597,108.904399 40.1194615,108.590856 L10.3763456,90.0348101 L10.3763456,68.6790467 C10.3763456,66.9751463 11.7578305,65.5911231 13.4625068,65.5911231 C15.1703516,65.5911231 16.555005,66.9751463 16.555005,68.6790467 L16.555005,86.6111737 L43.3893982,103.349304 C44.8374225,104.251927 45.27785,106.158522 44.3748151,107.60272 C43.7918032,108.54335 42.7810379,109.05642 41.7512613,109.05642" id="Fill-102" fill="#1498CB"></path>
                        <path d="M210.983792,109.05642 C210.426129,109.05642 209.862128,108.904399 209.351993,108.590856 L179.608877,90.0348101 L179.608877,68.6790467 C179.608877,66.9751463 180.987193,65.5911231 182.695038,65.5911231 C184.399714,65.5911231 185.784368,66.9751463 185.784368,68.6790467 L185.784368,86.6111737 L212.621929,103.349304 C214.069954,104.251927 214.510381,106.158522 213.607346,107.60272 C213.021166,108.54335 212.013569,109.05642 210.983792,109.05642" id="Fill-104" fill="#1498CB"></path>
                        <path d="M41.7512613,256.131532 C41.1935977,256.131532 40.629597,255.979511 40.1194615,255.665968 L10.3763456,237.109922 L10.3763456,215.754159 C10.3763456,214.047091 11.7578305,212.663068 13.4625068,212.663068 C15.1703516,212.663068 16.555005,214.047091 16.555005,215.754159 L16.555005,233.683119 L43.3893982,250.424416 C44.8374225,251.32704 45.27785,253.230467 44.3748151,254.677833 C43.7918032,255.615295 42.7810379,256.131532 41.7512613,256.131532" id="Fill-106" fill="#1498CB"></path>
                        <path d="M210.983792,256.131532 C210.426129,256.131532 209.862128,255.979511 209.351993,255.665968 L179.608877,237.109922 L179.608877,215.754159 C179.608877,214.047091 180.987193,212.663068 182.695038,212.663068 C184.399714,212.663068 185.784368,214.047091 185.784368,215.754159 L185.784368,233.683119 L212.621929,250.424416 C214.069954,251.32704 214.510381,253.230467 213.607346,254.677833 C213.021166,255.615295 212.013569,256.131532 210.983792,256.131532" id="Fill-108" fill="#1498CB"></path>
                    </g>
                </g>
            </g>
        </g>
    </g>
</svg>