<?xml version="1.0" encoding="UTF-8"?>
<svg width="272px" height="271px" viewBox="0 0 272 271" version="1.1" xmlns="http://www.w3.org/2000/svg" xmlns:xlink="http://www.w3.org/1999/xlink">
    <!-- Generator: Sketch 49.3 (51167) - http://www.bohemiancoding.com/sketch -->
    <title>Icon/Industry/Manufacturing</title>
    <desc>Created with Sketch.</desc>
    <defs>
        <circle id="path-1" cx="102.5" cy="102.5" r="102.5"></circle>
        <filter x="-25.4%" y="-24.4%" width="150.7%" height="150.7%" filterUnits="objectBoundingBox" id="filter-2">
            <feOffset dx="0" dy="2" in="SourceAlpha" result="shadowOffsetOuter1"></feOffset>
            <feGaussianBlur stdDeviation="17" in="shadowOffsetOuter1" result="shadowBlurOuter1"></feGaussianBlur>
            <feColorMatrix values="0 0 0 0 0.11   0 0 0 0 0.392   0 0 0 0 0.549  0 0 0 0.0535552536 0" type="matrix" in="shadowBlurOuter1"></feColorMatrix>
        </filter>
        <polygon id="path-3" points="0.0894388694 0.682877854 21.1326091 0.682877854 21.1326091 67.3194974 0.0894388694 67.3194974"></polygon>
        <polygon id="path-5" points="0.533784295 0.682877854 21.5769546 0.682877854 21.5769546 67.3194974 0.533784295 67.3194974"></polygon>
        <path d="M119.30279,80.7822341 L98.4121374,80.7822341 L98.4121374,83.3603646 L119.30279,83.3603646 L119.30279,80.7822341 Z M120.263941,84.3603646 L120.263941,85.3603646 L97.450123,85.3603646 C96.8734858,85.3603646 96.4121374,84.8918076 96.4121374,84.3215157 L96.4121374,79.821083 C96.4121374,79.2507911 96.8734858,78.7822341 97.450123,78.7822341 L120.263941,78.7822341 C120.833856,78.7822341 121.30279,79.2440635 121.30279,79.821083 L121.30279,84.3215157 C121.30279,84.8985352 120.833856,85.3603646 120.263941,85.3603646 L120.263941,84.3603646 Z" id="path-7"></path>
    </defs>
    <g id="Desktop-UI" stroke="none" stroke-width="1" fill="none" fill-rule="evenodd">
        <g id="Icon/Industry/Manufacturing" transform="translate(33.660934, 30.784031)">
            <g id="Group-8-Copy">
                <g id="Oval">
                    <use fill="black" fill-opacity="1" filter="url(#filter-2)" xlink:href="#path-1"></use>
                    <use fill="#FFFFFF" fill-rule="evenodd" xlink:href="#path-1"></use>
                </g>
            </g>
            <g id="Icon/Free/Manufacturing" transform="translate(32.000000, 38.000000)">
                <g id="Page-1" transform="translate(0.694964, 0.395657)">
                    <polygon id="Fill-1" fill="#00587E" points="69.9436131 57.072531 120.303049 57.072531 120.303049 47.91627 69.9436131 47.91627"></polygon>
                    <path d="M71.2152681,55.8000128 L119.030531,55.8000128 L119.030531,49.1870616 L71.2152681,49.1870616 L71.2152681,55.8000128 Z M68.6719581,58.344186 L121.573841,58.344186 L121.573841,46.644615 L68.6719581,46.644615 L68.6719581,58.344186 Z" id="Fill-2" fill="#00587E"></path>
                    <g id="Group-58" transform="translate(0.000000, 0.180432)">
                        <path d="M122.424719,47.7354929 L67.8212529,47.7354929 C66.9147779,47.7354929 66.4615404,46.6390898 67.1021161,45.9985141 L74.2235565,38.8770736 C74.414348,38.6862822 74.6724775,38.5792318 74.9426934,38.5792318 L115.303278,38.5792318 C115.572631,38.5792318 115.831624,38.6862822 116.022415,38.8770736 L123.143855,45.9985141 C123.784431,46.6390898 123.331194,47.7354929 122.424719,47.7354929" id="Fill-3" fill="#96D1F2"></path>
                        <path d="M69.0495697,46.209507 L121.196056,46.209507 L115.092458,40.1050451 L75.1531683,40.1050451 L69.0495697,46.209507 Z M122.064546,47.0771331 L122.069726,47.0771331 L122.064546,47.0771331 Z M122.424546,49.2613062 L67.8210803,49.2613062 C66.7894253,49.2613062 65.8665474,48.6449032 65.4711517,47.6918095 C65.0766192,46.7378524 65.2924466,45.6500824 66.0219432,44.9197225 L73.1442469,37.798282 C73.6251104,37.3174186 74.2630961,37.0532459 74.9425207,37.0532459 L115.303106,37.0532459 C115.98253,37.0532459 116.621379,37.3174186 117.101379,37.798282 L124.22282,44.9197225 C124.95318,45.6500824 125.169007,46.7378524 124.774475,47.6918095 C124.379079,48.6449032 123.456201,49.2613062 122.424546,49.2613062 Z" id="Fill-5" fill="#1F6FA4"></path>
                        <path d="M37.8962677,66.0479288 L19.5837455,66.0479288 L24.0954012,2.89942512 C24.1333868,2.36676313 24.5754013,1.95410117 25.1089266,1.95410117 L32.3719498,1.95410117 C32.9054752,1.95410117 33.3474896,2.36676313 33.3854753,2.89942512 L37.8962677,66.0479288 Z" id="Fill-7" fill="#96D1F2"></path>
                        <g id="Group-11" transform="translate(18.129501, 0.000000)">
                            <mask id="mask-4" fill="white">
                                <use xlink:href="#path-3"></use>
                            </mask>
                            <g id="Clip-10"></g>
                            <path d="M2.82008698,64.7761875 L18.401961,64.7761875 L14.0042622,3.22653311 L7.21692251,3.22653311 L2.82008698,64.7761875 Z M21.1326091,67.3194974 L0.0894388694,67.3194974 L4.69692194,2.80869129 C4.78238958,1.6164608 5.78555528,0.682359868 6.97951239,0.682359868 L14.2416723,0.682359868 C15.4364927,0.682359868 16.4387951,1.6164608 16.5251261,2.80782798 L21.1326091,67.3194974 Z" id="Fill-9" fill="#1F6FA4" mask="url(#mask-4)"></path>
                        </g>
                        <path d="M60.7874384,66.0479288 L42.4749162,66.0479288 L46.9857086,2.89942512 C47.0236942,2.36676313 47.4657087,1.95410117 47.999234,1.95410117 L55.2622572,1.95410117 C55.7957825,1.95410117 56.237797,2.36676313 56.2757827,2.89942512 L60.7874384,66.0479288 Z" id="Fill-12" fill="#96D1F2"></path>
                        <g id="Group-16" transform="translate(40.575549, 0.000000)">
                            <mask id="mask-6" fill="white">
                                <use xlink:href="#path-5"></use>
                            </mask>
                            <g id="Clip-15"></g>
                            <path d="M3.2644324,64.7761875 L18.8463065,64.7761875 L14.4494709,3.22653311 L7.66213125,3.22653311 L3.2644324,64.7761875 Z M21.5769546,67.3194974 L0.533784295,67.3194974 L5.14126736,2.80869129 C5.22673501,1.6164608 6.22990071,0.682359868 7.42472112,0.682359868 L14.6860177,0.682359868 C15.8808382,0.682359868 16.8831406,1.6164608 16.9694715,2.80782798 L21.5769546,67.3194974 Z" id="Fill-14" fill="#1F6FA4" mask="url(#mask-6)"></path>
                        </g>
                        <path d="M9.41033309,108.777003 L2.28889261,108.777003 C1.02673405,108.777003 0.000258992865,107.743755 0.000258992865,106.472398 L0.000258992865,75.8712051 C0.000258992865,74.9926396 0.48543896,74.2027127 1.26587079,73.8099218 L8.38731127,70.2261392 C9.10213158,69.8672395 9.93436198,69.9046068 10.6146499,70.326944 C11.2940745,70.7501501 11.6989667,71.4827225 11.6989667,72.2874225 L11.6989667,106.472398 C11.6989667,107.743755 10.6724916,108.777003 9.41033309,108.777003 Z" id="Combined-Shape" fill="#00587E"></path>
                        <path d="M137.59747,108.776361 L130.47603,108.776361 C129.213871,108.776361 128.187396,107.743129 128.187396,106.471794 L128.187396,72.2873883 C128.187396,71.4827017 128.592288,70.7501415 129.272576,70.3269424 C129.952864,69.9037433 130.785095,69.8663767 131.499915,70.2261394 L138.622219,73.8107312 C139.401787,74.2026466 139.886104,74.9925603 139.886104,75.8711111 L139.886104,106.471794 C139.886104,107.743129 138.859629,108.776361 137.59747,108.776361 Z" id="Combined-Shape" fill="#00587E"></path>
                        <path d="M129.458533,107.250758 L10.4280024,107.250758 L10.4280024,58.6179415 C10.4280024,57.6648477 11.2015277,56.8913224 12.1546215,56.8913224 L127.731914,56.8913224 C128.685008,56.8913224 129.458533,57.6648477 129.458533,58.6179415 L129.458533,107.250758 Z" id="Fill-25" fill="#96D1F2"></path>
                        <path d="M11.9542473,105.724341 L127.932979,105.724341 L127.932979,58.4175673 L11.9542473,58.4175673 L11.9542473,105.724341 Z M130.984778,108.777003 L8.90244808,108.777003 L8.90244808,57.909078 C8.90244808,56.5070633 10.04288,55.3657681 11.445758,55.3657681 L128.441468,55.3657681 C129.843483,55.3657681 130.984778,56.5070633 130.984778,57.909078 L130.984778,108.777003 Z" id="Fill-27" fill="#1F6FA4"></path>
                        <path d="M59.0608193,75.2041899 L21.3100193,75.2041899 C20.3569255,75.2041899 19.5834002,74.4306645 19.5834002,73.4775708 L19.5834002,67.7745479 C19.5834002,66.8214541 20.3569255,66.0479288 21.3100193,66.0479288 L59.0608193,66.0479288 C60.013913,66.0479288 60.7874384,66.8214541 60.7874384,67.7745479 L60.7874384,73.4775708 C60.7874384,74.4306645 60.013913,75.2041899 59.0608193,75.2041899" id="Fill-29" fill="#FFFFFF"></path>
                        <path d="M20.8558321,73.9321032 L59.5148338,73.9321032 L59.5148338,67.3191521 L20.8558321,67.3191521 L20.8558321,73.9321032 Z M59.7695101,76.4762765 L20.6011558,76.4762765 C19.3389972,76.4762765 18.3125222,75.4489381 18.3125222,74.1867796 L18.3125222,67.0653391 C18.3125222,65.8031805 19.3389972,64.7758422 20.6011558,64.7758422 L59.7695101,64.7758422 C61.0316686,64.7758422 62.059007,65.8031805 62.059007,67.0653391 L62.059007,74.1867796 C62.059007,75.4489381 61.0316686,76.4762765 59.7695101,76.4762765 Z" id="Fill-30" fill="#1498CB"></path>
                        <g id="Fill-31" fill-rule="nonzero">
                            <use fill="#00587E" fill-rule="evenodd" xlink:href="#path-7"></use>
                            <use fill="#1F6FA4" fill-rule="evenodd" xlink:href="#path-7"></use>
                        </g>
                        <path d="M59.0608193,88.9383225 L21.3100193,88.9383225 C20.3569255,88.9383225 19.5834002,88.1656604 19.5834002,87.2117034 L19.5834002,81.5086805 C19.5834002,80.5555868 20.3569255,79.7820614 21.3100193,79.7820614 L59.0608193,79.7820614 C60.013913,79.7820614 60.7874384,80.5555868 60.7874384,81.5086805 L60.7874384,87.2117034 C60.7874384,88.1656604 60.013913,88.9383225 59.0608193,88.9383225" id="Fill-33" fill="#FFFFFF"></path>
                        <path d="M20.8558321,87.6673582 L59.5148338,87.6673582 L59.5148338,81.054407 L20.8558321,81.054407 L20.8558321,87.6673582 Z M59.7695101,90.2098048 L20.6011558,90.2098048 C19.3389972,90.2098048 18.3125222,89.1833297 18.3125222,87.9211712 L18.3125222,80.7997307 C18.3125222,79.5375721 19.3389972,78.5110971 20.6011558,78.5110971 L59.7695101,78.5110971 C61.0316686,78.5110971 62.059007,79.5375721 62.059007,80.7997307 L62.059007,87.9211712 C62.059007,89.1833297 61.0316686,90.2098048 59.7695101,90.2098048 Z" id="Fill-34" fill="#1498CB"></path>
                        <path d="M72.7945202,75.2041899 L67.0923607,75.2041899 C66.1384036,75.2041899 65.3657416,74.4306645 65.3657416,73.4775708 L65.3657416,67.7745479 C65.3657416,66.8214541 66.1384036,66.0479288 67.0923607,66.0479288 L72.7945202,66.0479288 C73.747614,66.0479288 74.5211393,66.8214541 74.5211393,67.7745479 L74.5211393,73.4775708 C74.5211393,74.4306645 73.747614,75.2041899 72.7945202,75.2041899" id="Fill-35" fill="#FFFFFF"></path>
                        <path d="M66.6371375,73.9321032 L73.2500887,73.9321032 L73.2500887,67.3191521 L66.6371375,67.3191521 L66.6371375,73.9321032 Z M73.504765,76.4762765 L66.3833245,76.4762765 C65.1203027,76.4762765 64.0929643,75.4489381 64.0929643,74.1867796 L64.0929643,67.0653391 C64.0929643,65.8031805 65.1203027,64.7758422 66.3833245,64.7758422 L73.504765,64.7758422 C74.7660603,64.7758422 75.7933986,65.8031805 75.7933986,67.0653391 L75.7933986,74.1867796 C75.7933986,75.4489381 74.7660603,76.4762765 73.504765,76.4762765 Z" id="Fill-36" fill="#1498CB"></path>
                        <path d="M72.7945202,88.9383225 L67.0923607,88.9383225 C66.1384036,88.9383225 65.3657416,88.1656604 65.3657416,87.2117034 L65.3657416,81.5086805 C65.3657416,80.5555868 66.1384036,79.7820614 67.0923607,79.7820614 L72.7945202,79.7820614 C73.747614,79.7820614 74.5211393,80.5555868 74.5211393,81.5086805 L74.5211393,87.2117034 C74.5211393,88.1656604 73.747614,88.9383225 72.7945202,88.9383225" id="Fill-37" fill="#FFFFFF"></path>
                        <path d="M66.6371375,87.6673582 L73.2500887,87.6673582 L73.2500887,81.054407 L66.6371375,81.054407 L66.6371375,87.6673582 Z M73.504765,90.2098048 L66.3833245,90.2098048 C65.1203027,90.2098048 64.0929643,89.1833297 64.0929643,87.9211712 L64.0929643,80.7997307 C64.0929643,79.5375721 65.1203027,78.5110971 66.3833245,78.5110971 L73.504765,78.5110971 C74.7660603,78.5110971 75.7933986,79.5375721 75.7933986,80.7997307 L75.7933986,87.9211712 C75.7933986,89.1833297 74.7660603,90.2098048 73.504765,90.2098048 Z" id="Fill-38" fill="#1498CB"></path>
                        <path d="M86.5290845,75.2041899 L80.826925,75.2041899 C79.8729679,75.2041899 79.1003059,74.4306645 79.1003059,73.4775708 L79.1003059,67.7745479 C79.1003059,66.8214541 79.8729679,66.0479288 80.826925,66.0479288 L86.5290845,66.0479288 C87.4821783,66.0479288 88.2557036,66.8214541 88.2557036,67.7745479 L88.2557036,73.4775708 C88.2557036,74.4306645 87.4821783,75.2041899 86.5290845,75.2041899" id="Fill-39" fill="#FFFFFF"></path>
                        <path d="M80.3715292,73.9321032 L86.9844803,73.9321032 L86.9844803,67.3191521 L80.3715292,67.3191521 L80.3715292,73.9321032 Z M87.2382933,76.4762765 L80.1168529,76.4762765 C78.8546943,76.4762765 77.8273559,75.4489381 77.8273559,74.1867796 L77.8273559,67.0653391 C77.8273559,65.8031805 78.8546943,64.7758422 80.1168529,64.7758422 L87.2382933,64.7758422 C88.5013152,64.7758422 89.5277903,65.8031805 89.5277903,67.0653391 L89.5277903,74.1867796 C89.5277903,75.4489381 88.5013152,76.4762765 87.2382933,76.4762765 Z" id="Fill-40" fill="#1498CB"></path>
                        <path d="M86.5290845,88.9383225 L80.826925,88.9383225 C79.8729679,88.9383225 79.1003059,88.1656604 79.1003059,87.2117034 L79.1003059,81.5086805 C79.1003059,80.5555868 79.8729679,79.7820614 80.826925,79.7820614 L86.5290845,79.7820614 C87.4821783,79.7820614 88.2557036,80.5555868 88.2557036,81.5086805 L88.2557036,87.2117034 C88.2557036,88.1656604 87.4821783,88.9383225 86.5290845,88.9383225" id="Fill-41" fill="#FFFFFF"></path>
                        <path d="M80.3715292,87.6673582 L86.9844803,87.6673582 L86.9844803,81.054407 L80.3715292,81.054407 L80.3715292,87.6673582 Z M87.2382933,90.2098048 L80.1168529,90.2098048 C78.8546943,90.2098048 77.8273559,89.1833297 77.8273559,87.9211712 L77.8273559,80.7997307 C77.8273559,79.5375721 78.8546943,78.5110971 80.1168529,78.5110971 L87.2382933,78.5110971 C88.5013152,78.5110971 89.5277903,79.5375721 89.5277903,80.7997307 L89.5277903,87.9211712 C89.5277903,89.1833297 88.5013152,90.2098048 87.2382933,90.2098048 Z" id="Fill-42" fill="#1498CB"></path>
                        <path d="M120.302704,107.250758 L97.4120511,107.250758 L97.4120511,90.6648553 C97.4120511,89.7117615 98.1855764,88.9382362 99.1386702,88.9382362 L118.576085,88.9382362 C119.529178,88.9382362 120.302704,89.7117615 120.302704,90.6648553 L120.302704,107.250758 Z" id="Fill-43" fill="#1498CB"></path>
                        <path d="M98.6840513,105.979017 L119.030531,105.979017 L119.030531,90.2098048 L98.6840513,90.2098048 L98.6840513,105.979017 Z M121.573841,108.522327 L96.1398781,108.522327 L96.1398781,89.9559918 C96.1398781,88.6938332 97.1672165,87.6673582 98.429375,87.6673582 L119.285207,87.6673582 C120.547366,87.6673582 121.573841,88.6938332 121.573841,89.9559918 L121.573841,108.522327 Z" id="Fill-44" fill="#1F6FA4"></path>
                        <path d="M33.4026551,51.3809038 C32.8743097,51.3809038 32.4279786,50.9734217 32.3882664,50.4381698 L31.7554605,41.7869448 C31.714885,41.2266569 32.1353167,40.738887 32.6956046,40.6983115 C33.2515759,40.6525561 33.7445257,41.0781677 33.7842379,41.6384556 L34.4187705,50.2888173 C34.459346,50.8499685 34.0380509,51.336875 33.4777631,51.3783139 C33.4527271,51.3800405 33.4268278,51.3809038 33.4026551,51.3809038" id="Fill-45" fill="#FFFFFF"></path>
                        <path d="M32.5030866,39.0977356 C31.9756044,39.0977356 31.5284101,38.6893901 31.4895612,38.1550015 L30.2912875,21.7866525 C30.2515753,21.2263646 30.672007,20.7385947 31.2314316,20.6980191 C31.7917195,20.6548536 32.2794894,21.077012 32.3217916,21.6381632 L33.5192019,38.0065123 C33.5606408,38.5668002 33.1384824,39.0545701 32.5781945,39.0951456 C32.5540218,39.0977356 32.5281225,39.0977356 32.5030866,39.0977356" id="Fill-46" fill="#FFFFFF"></path>
                        <path d="M30.9197769,17.4585364 C30.3922947,17.4585364 29.9451004,17.0501909 29.9062514,16.5158023 L29.1508556,6.19321005 L26.7905673,6.19321005 C26.2285528,6.19321005 25.7727253,5.73738261 25.7727253,5.17536809 C25.7727253,4.61421688 26.2285528,4.15838944 26.7905673,4.15838944 L31.0432301,4.15838944 L31.9358922,16.3664498 C31.9773311,16.927601 31.5551727,17.4145076 30.9948848,17.4559464 C30.9707121,17.4576731 30.9448128,17.4585364 30.9197769,17.4585364" id="Fill-47" fill="#FFFFFF"></path>
                        <path d="M56.323351,48.3205578 C55.7958689,48.3205578 55.3486745,47.9122124 55.3089623,47.3769605 L55.1423435,45.0874635 C55.1009047,44.5271757 55.5221997,44.0402691 56.083351,43.9988302 C56.638459,43.9530748 57.1305454,44.3795497 57.171121,44.9398376 L57.3394663,47.2284712 C57.3800419,47.7887591 56.9587468,48.276529 56.3984589,48.3179679 C56.373423,48.3196945 56.3475237,48.3205578 56.323351,48.3205578" id="Fill-48" fill="#FFFFFF"></path>
                        <path d="M55.9136243,42.7301105 C55.3861422,42.7301105 54.9389478,42.3217651 54.9000989,41.7873765 L54.6350629,38.1545699 C54.593624,37.594282 55.0149191,37.1065121 55.575207,37.0659365 C56.130315,37.0201811 56.6224014,37.4457927 56.6638403,38.0060806 L56.9297396,41.6388872 C56.9711785,42.1991751 56.5498834,42.6860817 55.9887322,42.7275206 C55.9645596,42.7292472 55.9386603,42.7301105 55.9136243,42.7301105" id="Fill-49" fill="#FFFFFF"></path>
                        <path d="M55.3934803,35.621706 C54.8659982,35.621706 54.4188038,35.2133606 54.3799549,34.6781086 L53.6893072,25.2378187 C53.6487317,24.6775308 54.0700268,24.1897609 54.6294513,24.1491854 C55.1906025,24.1042933 55.6783724,24.5290416 55.718948,25.0893295 L56.4095956,34.5304827 C56.4510345,35.0907706 56.0288761,35.5785405 55.4685882,35.6191161 C55.4444156,35.621706 55.4185163,35.621706 55.3934803,35.621706" id="Fill-50" fill="#FFFFFF"></path>
                        <path d="M54.4509189,22.7298181 C53.9225735,22.7298181 53.4762424,22.3214727 53.4365302,21.7862208 L52.8106308,13.2204635 C52.7700552,12.6601756 53.190487,12.1724057 53.7507749,12.1318301 C54.3050196,12.0843481 54.7988327,12.5116863 54.8394082,13.0719742 L55.4670343,21.6385949 C55.5076098,22.1988828 55.0854514,22.6857894 54.5260269,22.7272282 C54.5001276,22.7289548 54.4750916,22.7298181 54.4509189,22.7298181" id="Fill-51" fill="#FFFFFF"></path>
                        <path d="M53.5251921,10.0850095 C52.99771,10.0850095 52.5505156,9.67666408 52.5116667,9.14141216 L52.2958393,6.19321005 L49.935551,6.19321005 C49.3735365,6.19321005 48.917709,5.73738261 48.917709,5.17536809 C48.917709,4.61421688 49.3735365,4.15838944 49.935551,4.15838944 L54.1882138,4.15838944 L54.5413074,8.99292292 C54.5827463,9.55321082 54.1605879,10.0409807 53.6003,10.0824196 C53.5761274,10.0841462 53.5502281,10.0850095 53.5251921,10.0850095" id="Fill-52" fill="#FFFFFF"></path>
                        <path d="M60.7874384,95.1698635 L19.5834002,95.1698635 C18.8815295,95.1698635 18.3126085,94.6000792 18.3126085,93.8982085 C18.3126085,93.1954745 18.8815295,92.6265536 19.5834002,92.6265536 L60.7874384,92.6265536 C61.489309,92.6265536 62.0590933,93.1954745 62.0590933,93.8982085 C62.0590933,94.6000792 61.489309,95.1698635 60.7874384,95.1698635" id="Fill-53" fill="#1F6FA4"></path>
                        <path d="M65.1174537,93.8981222 L74.5214847,93.8981222" id="Fill-54" fill="#96D1F2"></path>
                        <path d="M74.5211393,95.1698635 L65.1171084,95.1698635 C64.4152378,95.1698635 63.8463168,94.6000792 63.8463168,93.8982085 C63.8463168,93.1954745 64.4152378,92.6265536 65.1171084,92.6265536 L74.5211393,92.6265536 C75.2238733,92.6265536 75.7936576,93.1954745 75.7936576,93.8982085 C75.7936576,94.6000792 75.2238733,95.1698635 74.5211393,95.1698635" id="Fill-55" fill="#1F6FA4"></path>
                        <path d="M79.0998742,93.8981222 L88.255272,93.8981222" id="Fill-56" fill="#96D1F2"></path>
                        <path d="M88.2557036,95.1698635 L79.1003059,95.1698635 C78.3967086,95.1698635 77.8277876,94.6000792 77.8277876,93.8982085 C77.8277876,93.1954745 78.3967086,92.6265536 79.1003059,92.6265536 L88.2557036,92.6265536 C88.9575743,92.6265536 89.5282219,93.1954745 89.5282219,93.8982085 C89.5282219,94.6000792 88.9575743,95.1698635 88.2557036,95.1698635" id="Fill-57" fill="#1F6FA4"></path>
                    </g>
                </g>
            </g>
        </g>
    </g>
</svg>