<?xml version="1.0" encoding="UTF-8"?>
<svg width="318px" height="320px" viewBox="0 0 318 320" version="1.1" xmlns="http://www.w3.org/2000/svg" xmlns:xlink="http://www.w3.org/1999/xlink">
    <!-- Generator: Sketch 49.3 (51167) - http://www.bohemiancoding.com/sketch -->
    <title>manufacturing-header-icon</title>
    <desc>Created with Sketch.</desc>
    <defs>
        <filter x="-12.0%" y="-261.1%" width="123.9%" height="622.2%" filterUnits="objectBoundingBox" id="filter-1">
            <feGaussianBlur stdDeviation="10.4436384" in="SourceGraphic"></feGaussianBlur>
        </filter>
        <polygon id="path-2" points="0.201713195 1.53801318 47.6607781 1.53801318 47.6607781 151.62049 0.201713195 151.62049"></polygon>
        <polygon id="path-4" points="1.20385394 1.53801318 48.6629188 1.53801318 48.6629188 151.62049 1.20385394 151.62049"></polygon>
        <path d="M269.065867,181.941969 L221.950778,181.941969 L221.950778,187.748569 L269.065867,187.748569 L269.065867,181.941969 Z M271.233569,190.000821 L271.233569,192.253073 L219.781128,192.253073 C218.480628,192.253073 217.44014,191.197765 217.44014,189.913324 L217.44014,179.777214 C217.44014,178.492773 218.480628,177.437464 219.781128,177.437464 L271.233569,177.437464 C272.518908,177.437464 273.576505,178.477621 273.576505,179.777214 L273.576505,189.913324 C273.576505,191.212917 272.518908,192.253073 271.233569,192.253073 L271.233569,190.000821 Z" id="path-6"></path>
    </defs>
    <g id="Desktop-UI" stroke="none" stroke-width="1" fill="none" fill-rule="evenodd">
        <g id="Manufacturing" transform="translate(-431.000000, -256.000000)">
            <g id="manufacturing-header-icon" transform="translate(423.000000, 247.000000)">
                <ellipse id="Oval-3" fill-opacity="0.3" fill="#1F6FA4" style="mix-blend-mode: multiply;" filter="url(#filter-1)" cx="164" cy="300" rx="131" ry="6"></ellipse>
                <g id="Icon/Free/Manufacturing" transform="translate(163.849352, 130.934588) rotate(-2.000000) translate(-163.849352, -130.934588) translate(4.948767, 5.842638)">
                    <g id="Page-1" transform="translate(1.567367, 0.891120)">
                        <polygon id="Fill-1" fill="#00587E" points="157.74517 128.541737 271.32177 128.541737 271.32177 107.919527 157.74517 107.919527"></polygon>
                        <path d="M160.613158,125.675704 L268.451835,125.675704 L268.451835,110.78167 L160.613158,110.78167 L160.613158,125.675704 Z M154.877182,131.405824 L274.187811,131.405824 L274.187811,105.055439 L154.877182,105.055439 L154.877182,131.405824 Z" id="Fill-2" fill="#00587E"></path>
                        <g id="Group-58" transform="translate(0.000000, 0.406378)">
                            <path d="M276.106812,107.512371 L152.95857,107.512371 C150.91418,107.512371 149.891985,105.042995 151.336687,103.600257 L167.397808,87.5609767 C167.828104,87.1312663 168.410268,86.8901618 169.019691,86.8901618 L260.045691,86.8901618 C260.653167,86.8901618 261.237279,87.1312663 261.667574,87.5609767 L277.728695,103.600257 C279.173398,105.042995 278.151203,107.512371 276.106812,107.512371" id="Fill-3" fill="#96D1F2"></path>
                            <path d="M155.728817,104.075466 L273.335787,104.075466 L259.570224,90.3266782 L169.494379,90.3266782 L155.728817,104.075466 Z M275.294508,106.029579 L275.30619,106.029579 L275.294508,106.029579 Z M276.106423,110.948888 L152.958181,110.948888 C150.63147,110.948888 148.550086,109.560593 147.658342,107.413985 C146.768545,105.265433 147.255305,102.815501 148.900553,101.170546 L164.963621,85.1312658 C166.048121,84.0482401 167.486983,83.4532565 169.019302,83.4532565 L260.045302,83.4532565 C261.577621,83.4532565 263.01843,84.0482401 264.100983,85.1312658 L280.162104,101.170546 C281.809299,102.815501 282.296058,105.265433 281.406262,107.413985 C280.514518,109.560593 278.433134,110.948888 276.106423,110.948888 Z" id="Fill-5" fill="#1F6FA4"></path>
                            <path d="M85.4681781,148.756596 L44.1675962,148.756596 L54.3428197,6.53023676 C54.4284894,5.33054759 55.4253732,4.40112875 56.628643,4.40112875 L73.0090784,4.40112875 C74.2123482,4.40112875 75.209232,5.33054759 75.2949017,6.53023676 L85.4681781,148.756596 Z" id="Fill-7" fill="#96D1F2"></path>
                            <g id="Group-11" transform="translate(40.887810, 0.000000)">
                                <mask id="mask-3" fill="white">
                                    <use xlink:href="#path-2"></use>
                                </mask>
                                <g id="Clip-10"></g>
                                <path d="M6.36019616,145.892314 L41.5022951,145.892314 L31.5840807,7.26696647 L16.2764635,7.26696647 L6.36019616,145.892314 Z M47.6607781,151.62049 L0.201713195,151.62049 L10.593058,6.32588128 C10.7858148,3.64067748 13.0482736,1.53684655 15.7410279,1.53684655 L32.1195163,1.53684655 C34.8142177,1.53684655 37.0747294,3.64067748 37.2694333,6.32393689 L47.6607781,151.62049 Z" id="Fill-9" fill="#1F6FA4" mask="url(#mask-3)"></path>
                            </g>
                            <path d="M137.095074,148.756596 L95.7944918,148.756596 L105.967768,6.53023676 C106.053438,5.33054759 107.050322,4.40112875 108.253592,4.40112875 L124.634027,4.40112875 C125.837297,4.40112875 126.834181,5.33054759 126.91985,6.53023676 L137.095074,148.756596 Z" id="Fill-12" fill="#96D1F2"></path>
                            <g id="Group-16" transform="translate(91.510812, 0.000000)">
                                <mask id="mask-5" fill="white">
                                    <use xlink:href="#path-4"></use>
                                </mask>
                                <g id="Clip-15"></g>
                                <path d="M7.3623369,145.892314 L42.5044359,145.892314 L32.5881685,7.26696647 L17.2805513,7.26696647 L7.3623369,145.892314 Z M48.6629188,151.62049 L1.20385394,151.62049 L11.5951987,6.32588128 C11.7879556,3.64067748 14.0504144,1.53684655 16.7451157,1.53684655 L33.121657,1.53684655 C35.8163584,1.53684655 38.0768702,3.64067748 38.271574,6.32393689 L48.6629188,151.62049 Z" id="Fill-14" fill="#1F6FA4" mask="url(#mask-5)"></path>
                            </g>
                            <path d="M21.2233044,244.993251 L5.16218333,244.993251 C2.31561296,244.993251 0.000584111568,242.666114 0.000584111568,239.802699 L0.000584111568,170.881093 C0.000584111568,168.902341 1.09481978,167.123227 2.85494264,166.238563 L18.9160637,158.16698 C20.5282116,157.358648 22.4051568,157.442808 23.9394232,158.394018 C25.4717425,159.347185 26.3849036,160.997123 26.3849036,162.80951 L26.3849036,239.802699 C26.3849036,242.666114 24.0698748,244.993251 21.2233044,244.993251 Z" id="Combined-Shape" fill="#00587E"></path>
                            <path d="M310.32621,244.991804 L294.265089,244.991804 C291.418518,244.991804 289.103489,242.664706 289.103489,239.801338 L289.103489,162.809433 C289.103489,160.997076 290.01665,159.347166 291.550917,158.394014 C293.085183,157.440863 294.962128,157.356704 296.574276,158.166981 L312.637344,166.240386 C314.39552,167.123078 315.487809,168.902163 315.487809,170.880881 L315.487809,239.801338 C315.487809,242.664706 313.17278,244.991804 310.32621,244.991804 Z" id="Combined-Shape" fill="#00587E"></path>
                            <path d="M291.970309,241.555762 L23.5184735,241.555762 L23.5184735,132.022391 C23.5184735,129.875783 25.26302,128.133609 27.4125506,128.133609 L288.076232,128.133609 C290.225762,128.133609 291.970309,129.875783 291.970309,132.022391 L291.970309,241.555762 Z" id="Fill-25" fill="#96D1F2"></path>
                            <path d="M26.9606429,238.117885 L288.529697,238.117885 L288.529697,131.571098 L26.9606429,131.571098 L26.9606429,238.117885 Z M295.412478,244.993251 L20.0778616,244.993251 L20.0778616,130.425851 C20.0778616,127.268161 22.6498996,124.697676 25.8138372,124.697676 L289.676503,124.697676 C292.838493,124.697676 295.412478,127.268161 295.412478,130.425851 L295.412478,244.993251 Z" id="Fill-27" fill="#1F6FA4"></path>
                            <path d="M133.200997,169.378806 L48.0608945,169.378806 C45.9113639,169.378806 44.1668174,167.636632 44.1668174,165.490024 L44.1668174,152.645378 C44.1668174,150.498771 45.9113639,148.756596 48.0608945,148.756596 L133.200997,148.756596 C135.350527,148.756596 137.095074,150.498771 137.095074,152.645378 L137.095074,165.490024 C137.095074,167.636632 135.350527,169.378806 133.200997,169.378806" id="Fill-29" fill="#FFFFFF"></path>
                            <path d="M47.0365575,166.513746 L134.224944,166.513746 L134.224944,151.619712 L47.0365575,151.619712 L47.0365575,166.513746 Z M134.799321,172.243866 L46.4621811,172.243866 C43.6156108,172.243866 41.3005819,169.930041 41.3005819,167.087341 L41.3005819,151.048061 C41.3005819,148.205362 43.6156108,145.891536 46.4621811,145.891536 L134.799321,145.891536 C137.645891,145.891536 139.962867,148.205362 139.962867,151.048061 L139.962867,167.087341 C139.962867,169.930041 137.645891,172.243866 134.799321,172.243866 Z" id="Fill-30" fill="#1498CB"></path>
                            <g id="Fill-31" fill-rule="nonzero">
                                <use fill="#00587E" fill-rule="evenodd" xlink:href="#path-6"></use>
                                <use fill="#1F6FA4" fill-rule="evenodd" xlink:href="#path-6"></use>
                            </g>
                            <path d="M133.200997,200.311537 L48.0608945,200.311537 C45.9113639,200.311537 44.1668174,198.571307 44.1668174,196.422755 L44.1668174,183.578109 C44.1668174,181.431502 45.9113639,179.689327 48.0608945,179.689327 L133.200997,179.689327 C135.350527,179.689327 137.095074,181.431502 137.095074,183.578109 L137.095074,196.422755 C137.095074,198.571307 135.350527,200.311537 133.200997,200.311537" id="Fill-33" fill="#FFFFFF"></path>
                            <path d="M47.0365575,197.449005 L134.224944,197.449005 L134.224944,182.554971 L47.0365575,182.554971 L47.0365575,197.449005 Z M134.799321,203.175236 L46.4621811,203.175236 C43.6156108,203.175236 41.3005819,200.863355 41.3005819,198.020656 L41.3005819,181.981375 C41.3005819,179.138676 43.6156108,176.826795 46.4621811,176.826795 L134.799321,176.826795 C137.645891,176.826795 139.962867,179.138676 139.962867,181.981375 L139.962867,198.020656 C139.962867,200.863355 137.645891,203.175236 134.799321,203.175236 Z" id="Fill-34" fill="#1498CB"></path>
                            <path d="M164.174875,169.378806 L151.314686,169.378806 C149.163208,169.378806 147.420609,167.636632 147.420609,165.490024 L147.420609,152.645378 C147.420609,150.498771 149.163208,148.756596 151.314686,148.756596 L164.174875,148.756596 C166.324406,148.756596 168.068953,150.498771 168.068953,152.645378 L168.068953,165.490024 C168.068953,167.636632 166.324406,169.378806 164.174875,169.378806" id="Fill-35" fill="#FFFFFF"></path>
                            <path d="M150.288012,166.513746 L165.202328,166.513746 L165.202328,151.619712 L150.288012,151.619712 L150.288012,166.513746 Z M165.776704,172.243866 L149.715583,172.243866 C146.867066,172.243866 144.55009,169.930041 144.55009,167.087341 L144.55009,151.048061 C144.55009,148.205362 146.867066,145.891536 149.715583,145.891536 L165.776704,145.891536 C168.621327,145.891536 170.938303,148.205362 170.938303,151.048061 L170.938303,167.087341 C170.938303,169.930041 168.621327,172.243866 165.776704,172.243866 Z" id="Fill-36" fill="#1498CB"></path>
                            <path d="M164.174875,200.311537 L151.314686,200.311537 C149.163208,200.311537 147.420609,198.571307 147.420609,196.422755 L147.420609,183.578109 C147.420609,181.431502 149.163208,179.689327 151.314686,179.689327 L164.174875,179.689327 C166.324406,179.689327 168.068953,181.431502 168.068953,183.578109 L168.068953,196.422755 C168.068953,198.571307 166.324406,200.311537 164.174875,200.311537" id="Fill-37" fill="#FFFFFF"></path>
                            <path d="M150.288012,197.449005 L165.202328,197.449005 L165.202328,182.554971 L150.288012,182.554971 L150.288012,197.449005 Z M165.776704,203.175236 L149.715583,203.175236 C146.867066,203.175236 144.55009,200.863355 144.55009,198.020656 L144.55009,181.981375 C144.55009,179.138676 146.867066,176.826795 149.715583,176.826795 L165.776704,176.826795 C168.621327,176.826795 170.938303,179.138676 170.938303,181.981375 L170.938303,198.020656 C170.938303,200.863355 168.621327,203.175236 165.776704,203.175236 Z" id="Fill-38" fill="#1498CB"></path>
                            <path d="M195.150701,169.378806 L182.290512,169.378806 C180.139034,169.378806 178.396434,167.636632 178.396434,165.490024 L178.396434,152.645378 C178.396434,150.498771 180.139034,148.756596 182.290512,148.756596 L195.150701,148.756596 C197.300232,148.756596 199.044778,150.498771 199.044778,152.645378 L199.044778,165.490024 C199.044778,167.636632 197.300232,169.378806 195.150701,169.378806" id="Fill-39" fill="#FFFFFF"></path>
                            <path d="M181.263449,166.513746 L196.177764,166.513746 L196.177764,151.619712 L181.263449,151.619712 L181.263449,166.513746 Z M196.750193,172.243866 L180.689072,172.243866 C177.842502,172.243866 175.525526,169.930041 175.525526,167.087341 L175.525526,151.048061 C175.525526,148.205362 177.842502,145.891536 180.689072,145.891536 L196.750193,145.891536 C199.598711,145.891536 201.91374,148.205362 201.91374,151.048061 L201.91374,167.087341 C201.91374,169.930041 199.598711,172.243866 196.750193,172.243866 Z" id="Fill-40" fill="#1498CB"></path>
                            <path d="M195.150701,200.311537 L182.290512,200.311537 C180.139034,200.311537 178.396434,198.571307 178.396434,196.422755 L178.396434,183.578109 C178.396434,181.431502 180.139034,179.689327 182.290512,179.689327 L195.150701,179.689327 C197.300232,179.689327 199.044778,181.431502 199.044778,183.578109 L199.044778,196.422755 C199.044778,198.571307 197.300232,200.311537 195.150701,200.311537" id="Fill-41" fill="#FFFFFF"></path>
                            <path d="M181.263449,197.449005 L196.177764,197.449005 L196.177764,182.554971 L181.263449,182.554971 L181.263449,197.449005 Z M196.750193,203.175236 L180.689072,203.175236 C177.842502,203.175236 175.525526,200.863355 175.525526,198.020656 L175.525526,181.981375 C175.525526,179.138676 177.842502,176.826795 180.689072,176.826795 L196.750193,176.826795 C199.598711,176.826795 201.91374,179.138676 201.91374,181.981375 L201.91374,198.020656 C201.91374,200.863355 199.598711,203.175236 196.750193,203.175236 Z" id="Fill-42" fill="#1498CB"></path>
                            <path d="M271.320991,241.555762 L219.695264,241.555762 L219.695264,204.200124 C219.695264,202.053517 221.439811,200.311343 223.589341,200.311343 L267.426914,200.311343 C269.576445,200.311343 271.320991,202.053517 271.320991,204.200124 L271.320991,241.555762 Z" id="Fill-43" fill="#1498CB"></path>
                            <path d="M222.564031,238.69148 L268.451835,238.69148 L268.451835,203.175236 L222.564031,203.175236 L222.564031,238.69148 Z M274.187811,244.419655 L216.826108,244.419655 L216.826108,202.603585 C216.826108,199.760886 219.143084,197.449005 221.989654,197.449005 L269.026212,197.449005 C271.872782,197.449005 274.187811,199.760886 274.187811,202.603585 L274.187811,244.419655 Z" id="Fill-44" fill="#1F6FA4"></path>
                            <path d="M75.3336477,115.722756 C74.1420601,115.722756 73.1354412,114.805004 73.0458774,113.599482 L71.6186981,94.1147406 C71.5271873,92.8528309 72.4753951,91.75425 73.7390231,91.6628637 C74.992916,91.5598109 76.104675,92.5183956 76.1942388,93.7803053 L77.6253121,113.263102 C77.7168229,114.526956 76.7666681,115.623592 75.5030401,115.716923 C75.446576,115.720812 75.3881648,115.722756 75.3336477,115.722756" id="Fill-45" fill="#FFFFFF"></path>
                            <path d="M73.3048335,88.057963 C72.115193,88.057963 71.106627,87.1382661 71.0190103,85.9346881 L68.3165208,49.0690371 C68.226957,47.8071274 69.1751648,46.7085466 70.4368457,46.6171602 C71.7004738,46.5199406 72.8005506,47.4707478 72.8959554,48.7346019 L75.5964979,85.6002529 C75.6899558,86.8621626 74.7378539,87.9607434 73.4742259,88.0521298 C73.4197088,88.057963 73.3612977,88.057963 73.3048335,88.057963" id="Fill-46" fill="#FFFFFF"></path>
                            <path d="M69.7339648,39.3210279 C68.5443243,39.3210279 67.5357583,38.401331 67.4481416,37.197753 L65.7444828,13.9486713 L60.4212794,13.9486713 C59.1537573,13.9486713 58.1257209,12.9220329 58.1257209,11.6562344 C58.1257209,10.3923804 59.1537573,9.36574198 60.4212794,9.36574198 L70.0123913,9.36574198 L72.0256292,36.8613734 C72.1190871,38.1252275 71.1669852,39.2218639 69.9033572,39.3151947 C69.8488401,39.3190835 69.7904289,39.3210279 69.7339648,39.3210279" id="Fill-47" fill="#FFFFFF"></path>
                            <path d="M127.027132,108.830085 C125.837492,108.830085 124.828926,107.910388 124.739362,106.704866 L124.363583,101.548341 C124.270125,100.286432 125.22028,99.1897952 126.485855,99.0964644 C127.737801,98.9934117 128.847613,99.9539408 128.939124,101.21585 L129.318796,106.370431 C129.410307,107.63234 128.460152,108.730921 127.196524,108.824252 C127.14006,108.828141 127.081649,108.830085 127.027132,108.830085" id="Fill-48" fill="#FFFFFF"></path>
                            <path d="M126.103068,96.2389876 C124.913427,96.2389876 123.904861,95.3192907 123.817244,94.1157128 L123.219503,85.9337159 C123.126046,84.6718063 124.0762,83.5732254 125.339828,83.481839 C126.591774,83.3787863 127.701586,84.337371 127.795044,85.5992807 L128.394732,93.7812775 C128.48819,95.0431872 127.538035,96.1398237 126.27246,96.2331544 C126.217943,96.2370432 126.159532,96.2389876 126.103068,96.2389876" id="Fill-49" fill="#FFFFFF"></path>
                            <path d="M124.929977,80.2290675 C123.740336,80.2290675 122.73177,79.3093707 122.644154,78.1038483 L121.086523,56.8419341 C120.995012,55.5800244 121.945167,54.4814435 123.206848,54.3900572 C124.472423,54.2889488 125.5725,55.2455891 125.66401,56.5074988 L127.221641,77.7713575 C127.315099,79.0332671 126.362997,80.131848 125.099369,80.2232344 C125.044852,80.2290675 124.986441,80.2290675 124.929977,80.2290675" id="Fill-50" fill="#FFFFFF"></path>
                            <path d="M122.8042,51.1932841 C121.612613,51.1932841 120.605994,50.2735872 120.51643,49.0680649 L119.104827,29.7758186 C119.013316,28.5139089 119.961524,27.4153281 121.225152,27.3239417 C122.475151,27.2170002 123.588857,28.1794737 123.680367,29.4413834 L125.095865,48.735574 C125.187375,49.9974837 124.235273,51.0941202 122.973592,51.1874509 C122.915181,51.1913397 122.858717,51.1932841 122.8042,51.1932841" id="Fill-51" fill="#FFFFFF"></path>
                            <path d="M120.716391,22.7139854 C119.52675,22.7139854 118.518184,21.7942885 118.430567,20.5887661 L117.943808,13.9486713 L112.620604,13.9486713 C111.353082,13.9486713 110.325046,12.9220329 110.325046,11.6562344 C110.325046,10.3923804 111.353082,9.36574198 112.620604,9.36574198 L122.211716,9.36574198 L123.008055,20.2543309 C123.101513,21.5162406 122.149411,22.6148214 120.885783,22.7081522 C120.831266,22.712041 120.772855,22.7139854 120.716391,22.7139854" id="Fill-52" fill="#FFFFFF"></path>
                            <path d="M137.095074,214.346539 L44.1668174,214.346539 C42.583875,214.346539 41.3007766,213.063241 41.3007766,211.482452 C41.3007766,209.899717 42.583875,208.618364 44.1668174,208.618364 L137.095074,208.618364 C138.678016,208.618364 139.963062,209.899717 139.963062,211.482452 C139.963062,213.063241 138.678016,214.346539 137.095074,214.346539" id="Fill-53" fill="#1F6FA4"></path>
                            <path d="M146.86064,211.482257 L168.069731,211.482257" id="Fill-54" fill="#96D1F2"></path>
                            <path d="M168.068953,214.346539 L146.859862,214.346539 C145.276919,214.346539 143.993821,213.063241 143.993821,211.482452 C143.993821,209.899717 145.276919,208.618364 146.859862,208.618364 L168.068953,208.618364 C169.653842,208.618364 170.938887,209.899717 170.938887,211.482452 C170.938887,213.063241 169.653842,214.346539 168.068953,214.346539" id="Fill-55" fill="#1F6FA4"></path>
                            <path d="M178.395461,211.482257 L199.043805,211.482257" id="Fill-56" fill="#96D1F2"></path>
                            <path d="M199.044778,214.346539 L178.396434,214.346539 C176.809598,214.346539 175.5265,213.063241 175.5265,211.482452 C175.5265,209.899717 176.809598,208.618364 178.396434,208.618364 L199.044778,208.618364 C200.627721,208.618364 201.914713,209.899717 201.914713,211.482452 C201.914713,213.063241 200.627721,214.346539 199.044778,214.346539" id="Fill-57" fill="#1F6FA4"></path>
                        </g>
                    </g>
                </g>
            </g>
        </g>
    </g>
</svg>