<?xml version="1.0" encoding="UTF-8"?>
<svg width="272px" height="271px" viewBox="0 0 272 271" version="1.1" xmlns="http://www.w3.org/2000/svg" xmlns:xlink="http://www.w3.org/1999/xlink">
    <!-- Generator: Sketch 49.3 (51167) - http://www.bohemiancoding.com/sketch -->
    <title>Icon/Industry/Pharma</title>
    <desc>Created with Sketch.</desc>
    <defs>
        <circle id="path-1" cx="102.5" cy="102.5" r="102.5"></circle>
        <filter x="-25.4%" y="-24.4%" width="150.7%" height="150.7%" filterUnits="objectBoundingBox" id="filter-2">
            <feOffset dx="0" dy="2" in="SourceAlpha" result="shadowOffsetOuter1"></feOffset>
            <feGaussianBlur stdDeviation="17" in="shadowOffsetOuter1" result="shadowBlurOuter1"></feGaussianBlur>
            <feColorMatrix values="0 0 0 0 0.11   0 0 0 0 0.392   0 0 0 0 0.549  0 0 0 0.0535552536 0" type="matrix" in="shadowBlurOuter1"></feColorMatrix>
        </filter>
        <polygon id="path-3" points="0 0.469206424 66.5303943 0.469206424 66.5303943 51.9867599 0 51.9867599"></polygon>
        <polygon id="path-5" points="0.25737529 0.830511075 29.9987252 0.830511075 29.9987252 30.5716762 0.25737529 30.5716762"></polygon>
    </defs>
    <g id="Desktop-UI" stroke="none" stroke-width="1" fill="none" fill-rule="evenodd">
        <g id="Icon/Industry/Pharma" transform="translate(33.745711, 30.876985)">
            <g id="Group-8-Copy">
                <g id="Oval">
                    <use fill="black" fill-opacity="1" filter="url(#filter-2)" xlink:href="#path-1"></use>
                    <use fill="#FFFFFF" fill-rule="evenodd" xlink:href="#path-1"></use>
                </g>
            </g>
            <g id="Icon/Free/Pharma" transform="translate(20.000000, 53.000000)">
                <g id="Page-1" transform="translate(0.841588, 0.000000)">
                    <path d="M50.9313919,55.141501 C44.0406443,55.141501 41.0179165,50.1843015 41.0179165,45.2280257 C41.0179165,40.2708261 33.4186016,40.2708261 31.1035174,40.2708261 C26.1463178,40.2708261 21.190042,35.3136265 21.190042,30.3564269 C21.190042,25.4001512 16.2328424,20.4429516 11.2756428,20.4429516 C8.14390476,20.4429516 3.13681908,16.8326765 1.7363132,12.6930546 C1.37694856,11.6288179 2.18805949,10.5285524 3.31049659,10.5285524 L59.3168747,10.5285524 C60.0688613,10.5285524 60.6000559,11.265758 60.3617112,11.9789444 C57.4479938,20.7219442 57.2429065,30.1411777 59.7750877,39.002426 L64.8117355,56.6306933 C65.1951194,57.9757702 63.8435758,59.1591792 62.5622422,58.5993464 C59.224493,57.1397162 54.0788349,55.141501 50.9313919,55.141501" id="Fill-1" fill="#96D1F2"></path>
                    <g id="Group-5" transform="translate(0.000000, 8.407654)">
                        <mask id="mask-4" fill="white">
                            <use xlink:href="#path-3"></use>
                        </mask>
                        <g id="Clip-4"></g>
                        <path d="M3.31058897,3.77369821 C4.53926498,7.4135354 9.01238469,10.3826818 11.2757352,10.3826818 C17.1124082,10.3826818 22.8419184,16.112192 22.8419184,21.9488649 C22.8419184,25.9646955 27.088703,30.2105563 31.1036098,30.2105563 C36.379526,30.2105563 42.6697929,31.3570126 42.6697929,36.8195399 C42.6697929,40.6312069 44.8333713,45.0812312 50.9314843,45.0812312 C54.2932527,45.0812312 59.4712444,47.0369509 63.2237872,48.6767252 L58.1862156,31.0484579 C55.6217009,22.0726563 55.7538066,12.6589657 58.5585137,3.77369821 L3.31058897,3.77369821 Z M63.2339492,51.9867599 C62.7849744,51.9867599 62.3323043,51.8943783 61.8999581,51.7049959 C57.0046542,49.5645129 53.1089199,48.3866468 50.9314843,48.3866468 C42.941395,48.3866468 39.3653011,42.5767646 39.3653011,36.8195399 C39.3653011,34.6273232 36.5855371,33.5150481 31.1036098,33.5150481 C25.2669368,33.5150481 19.5374266,27.7864617 19.5374266,21.9488649 C19.5374266,17.934882 15.2906419,13.6871736 11.2757352,13.6871736 C6.78783445,13.6871736 1.53131831,8.83436525 0.171460351,4.81483945 C-0.165732688,3.81896522 0.000554290103,2.712233 0.61581611,1.85308361 C1.23846846,0.986543689 2.2454285,0.469206424 3.31058897,0.469206424 L59.3169671,0.469206424 C60.1992119,0.469206424 61.034342,0.896933484 61.5507555,1.61289131 C62.0671689,2.32884913 62.2085128,3.25636094 61.9295203,4.09426255 C59.1081845,12.5564221 58.9132592,21.5636334 61.3641445,30.1412701 L66.3998685,47.7695374 C66.7555379,49.0139183 66.372154,50.314652 65.3984514,51.1664108 C64.7804181,51.7059197 64.0136504,51.9867599 63.2339492,51.9867599 Z" id="Fill-3" fill="#00587E" mask="url(#mask-4)"></path>
                    </g>
                    <path d="M110.991569,55.141501 C117.882317,55.141501 120.905045,50.1843015 120.905045,45.2280257 C120.905045,40.2708261 128.50436,40.2708261 130.819444,40.2708261 C135.77572,40.2708261 140.732919,35.3136265 140.732919,30.3564269 C140.732919,25.4001512 145.690119,20.4429516 150.647318,20.4429516 C153.778133,20.4429516 158.785218,16.8326765 160.186648,12.6930546 C160.546013,11.6288179 159.734902,10.5285524 158.612465,10.5285524 L102.606087,10.5285524 C101.8541,10.5285524 101.322905,11.265758 101.56125,11.9789444 C104.474967,20.7219442 104.679131,30.1411777 102.147874,39.002426 L97.1112258,56.6306933 C96.7269181,57.9757702 98.0793855,59.1591792 99.3607191,58.5993464 C102.697544,57.1397162 107.844126,55.141501 110.991569,55.141501" id="Fill-6" fill="#96D1F2"></path>
                    <path d="M103.363801,12.1813526 C106.170356,21.0666201 106.301538,30.4803107 103.737023,39.4561123 L98.700375,57.0843796 C102.45107,55.4446052 107.629986,53.4888856 110.991754,53.4888856 C117.088943,53.4888856 119.253445,49.0388613 119.253445,45.2271942 C119.253445,39.764667 125.542789,38.6182107 130.819629,38.6182107 C134.833612,38.6182107 139.080396,34.3723498 139.080396,30.3565193 C139.080396,24.5198464 144.809906,18.7903362 150.647503,18.7903362 C152.910854,18.7903362 157.383973,15.8221136 158.62004,12.1638001 L103.363801,12.1813526 Z M98.6883654,60.3944143 C97.9086642,60.3944143 97.1428203,60.1144979 96.524787,59.5740652 C95.5510844,58.7223064 95.1677005,57.4215727 95.5224461,56.1771918 L100.559094,38.5489244 C103.009979,29.9712878 102.81413,20.9640765 99.9937182,12.5019169 C99.7147256,11.6640153 99.8560695,10.7365035 100.371559,10.0205457 C100.887973,9.30458787 101.724027,8.87686081 102.606271,8.87686081 L158.611726,8.87686081 C159.67781,8.87686081 160.685694,9.39419807 161.307422,10.2616618 C161.922684,11.1208112 162.088047,12.2275434 161.750854,13.2234177 C160.39192,17.2410958 155.135404,22.0948279 150.647503,22.0948279 C146.631673,22.0948279 142.384888,26.3425364 142.384888,30.3565193 C142.384888,36.1941161 136.656302,41.9227025 130.819629,41.9227025 C125.337701,41.9227025 122.557937,43.0349776 122.557937,45.2271942 C122.557937,50.984419 118.98092,56.7943012 110.991754,56.7943012 C108.814319,56.7943012 104.918584,57.9721673 100.022356,60.1135741 C99.5909341,60.3020326 99.1373402,60.3944143 98.6883654,60.3944143 Z" id="Fill-8" fill="#00587E"></path>
                    <path d="M78.966545,110.051309 L71.7875666,21.8222097 C71.6896421,20.692382 72.7012212,19.7288414 73.9844024,19.7288414 L89.5996734,19.7288414 C90.8495972,19.7288414 91.8491667,20.6452674 91.8011283,21.7473805 L84.6175308,109.97648 C84.57134,111.020392 83.599485,111.846284 82.416076,111.846284 L81.1633807,111.846284 C80.0123053,111.846284 79.0552314,111.063812 78.966545,110.051309" id="Fill-10" fill="#96D1F2"></path>
                    <path d="M80.5642857,24.1390492 C80.200302,24.1390492 79.8446326,23.958905 79.6349263,23.6291025 C79.3078952,23.1163843 79.4584773,22.4346077 79.9711955,22.1075766 C80.8183353,21.5680677 81.5416836,20.8789006 82.1209166,20.0585515 C82.4719669,19.5615382 83.1592864,19.4423659 83.6562997,19.7934162 C84.153313,20.1444665 84.2715615,20.8308621 83.9205112,21.3287993 C83.1759151,22.3847216 82.244708,23.2725093 81.1555283,23.9662955 C80.9716888,24.0826964 80.7666015,24.1390492 80.5642857,24.1390492" id="Fill-14" fill="#FFFFFF"></path>
                    <path d="M66.7719818,111.574128 C65.5553154,111.574128 64.5686794,110.587492 64.5686794,109.370826 C64.5686794,99.2005293 73.0373056,94.1195383 80.5091339,89.6362566 C87.6068164,85.3783861 94.3109531,81.3560889 94.3109531,73.6800972 C94.3109531,72.4643546 95.2966653,71.4777185 96.5133317,71.4777185 C97.7299981,71.4777185 98.7166342,72.4643546 98.7166342,73.6800972 C98.7166342,83.8503935 90.2480079,88.9323084 82.7761797,93.4155901 C75.679421,97.6734605 68.9752843,101.695758 68.9752843,109.370826 C68.9752843,110.587492 67.9886482,111.574128 66.7719818,111.574128" id="Fill-16" fill="#00587E"></path>
                    <path d="M66.7719818,75.8836768 C65.5553154,75.8836768 64.5686794,74.8979645 64.5686794,73.6803743 C64.5686794,63.5110018 73.0373056,58.429087 80.5100577,53.9467291 C87.6068164,49.6888586 94.3109531,45.6656376 94.3109531,37.9905697 C94.3109531,36.7748271 95.2966653,35.7881911 96.5133317,35.7881911 C97.7299981,35.7881911 98.7166342,36.7748271 98.7166342,37.9905697 C98.7166342,48.1608661 90.2480079,53.2418571 82.7761797,57.7251388 C75.679421,61.9830092 68.9752843,66.0062303 68.9752843,73.6803743 C68.9752843,74.8979645 67.9886482,75.8836768 66.7719818,75.8836768" id="Fill-18" fill="#00587E"></path>
                    <path d="M85.0552351,114.84176 L78.2310023,114.84176 C77.6453026,114.84176 77.1612227,114.382623 77.1307367,113.797847 L72.2890142,20.8877692 C72.2557568,20.2577264 72.7573892,19.7283795 73.3883559,19.7283795 L89.8969576,19.7283795 C90.5279243,19.7283795 91.0304805,20.2577264 90.9972231,20.8877692 L86.1555006,113.797847 C86.1250146,114.382623 85.6409348,114.84176 85.0552351,114.84176" id="Fill-20" fill="#96D1F2"></path>
                    <path d="M78.7536977,113.189514 L84.533094,113.189514 L89.3175399,21.3815492 L73.9692518,21.3815492 L78.7536977,113.189514 Z M85.0550503,116.494005 L78.2308175,116.494005 C76.7656445,116.494005 75.5572924,115.347549 75.4806156,113.884224 L70.6388931,20.9732223 C70.599169,20.2230832 70.8744663,19.4794109 71.3918036,18.9343592 C71.9091409,18.3893074 72.6371083,18.0761336 73.389095,18.0761336 L89.8976966,18.0761336 C90.6496833,18.0761336 91.3776508,18.3893074 91.894988,18.9343592 C92.4123253,19.4794109 92.6866988,20.2230832 92.6478985,20.9732223 L87.8052522,113.8833 C87.7285754,115.347549 86.5211472,116.494005 85.0550503,116.494005 Z" id="Fill-22" fill="#00587E"></path>
                    <path d="M96.5137012,111.574128 C95.2970348,111.574128 94.3103988,110.587492 94.3103988,109.370826 C94.3103988,101.695758 87.6062621,97.6734605 80.5095034,93.4155901 C73.0376752,88.9323084 64.5690489,83.8503935 64.5690489,73.6800972 C64.5690489,72.4643546 65.555685,71.4777185 66.7723513,71.4777185 C67.9890177,71.4777185 68.97473,72.4643546 68.97473,73.6800972 C68.97473,81.3560889 75.6788667,85.3783861 82.7765492,89.6362566 C90.2483774,94.1195383 98.7170037,99.2005293 98.7170037,109.370826 C98.7170037,110.587492 97.7303676,111.574128 96.5137012,111.574128" id="Fill-24" fill="#00587E"></path>
                    <path d="M96.5137012,15.7944915 C96.5137012,24.0072206 89.8557554,30.6651664 81.6430263,30.6651664 C73.4302972,30.6651664 66.7723513,24.0072206 66.7723513,15.7944915 C66.7723513,7.58176239 73.4302972,0.923816546 81.6430263,0.923816546 C89.8557554,0.923816546 96.5137012,7.58176239 96.5137012,15.7944915" id="Fill-26" fill="#96D1F2"></path>
                    <g id="Group-30" transform="translate(66.514791, 0.093305)">
                        <mask id="mask-6" fill="white">
                            <use xlink:href="#path-5"></use>
                        </mask>
                        <g id="Clip-29"></g>
                        <path d="M15.1280502,0.830326311 C6.91532114,0.830326311 0.25737529,7.48827216 0.25737529,15.7010012 C0.25737529,23.9137303 6.91532114,30.5716762 15.1280502,30.5716762 C23.3417031,30.5716762 29.9987252,23.9137303 29.9987252,15.7010012 C29.9987252,7.48827216 23.3417031,0.830326311 15.1280502,0.830326311 M15.1280502,4.1348181 C21.5060797,4.1348181 26.6942334,9.32389563 26.6942334,15.7010012 C26.6942334,22.0790307 21.5060797,27.2671844 15.1280502,27.2671844 C8.75094461,27.2671844 3.56186707,22.0790307 3.56186707,15.7010012 C3.56186707,9.32389563 8.75094461,4.1348181 15.1280502,4.1348181" id="Fill-28" fill="#00587E" mask="url(#mask-6)"></path>
                    </g>
                    <path d="M90.2851453,18.5208589 C90.2121638,18.5208589 90.1373347,18.5134683 90.0634293,18.4986873 C89.4675677,18.3758197 89.08326,17.7938153 89.2052038,17.1979536 C89.3077474,16.6953974 89.3604049,16.1771363 89.3604049,15.6570276 C89.3604049,14.3147221 89.007507,12.9955121 88.3414353,11.8398176 C88.0513569,11.339109 87.7040019,10.8698102 87.3076846,10.4457784 C86.9122911,10.0217467 86.4688592,9.64298187 85.9903222,9.31964608 C85.1394871,8.74410837 84.1981181,8.35333397 83.1939295,8.15748486 C82.3116847,7.98473117 81.3795538,7.9699501 80.4889947,8.11314167 C79.8838948,8.20921859 79.3231382,7.80089168 79.2252136,7.20133474 C79.1291367,6.60085398 79.5374636,6.03547826 80.1379444,5.93847752 C81.2834769,5.75371421 82.4807431,5.77311436 83.6170375,5.99483033 C84.9131521,6.24795606 86.127047,6.7523599 87.2236173,7.49326077 C87.8388791,7.90990203 88.4097977,8.39767716 88.9188206,8.94272893 C89.4278436,9.4887045 89.8758946,10.0928805 90.2481926,10.7377045 C91.1091897,12.2278206 91.5627836,13.9285668 91.5627836,15.6570276 C91.5627836,16.3258708 91.4962688,16.9928663 91.3632392,17.6404617 C91.2570003,18.1614942 90.7969397,18.5208589 90.2851453,18.5208589" id="Fill-31" fill="#FFFFFF"></path>
                    <path d="M74.6343997,11.6305732 C74.4099123,11.6305732 74.184501,11.5622107 73.9886519,11.4208668 C73.4962577,11.0633498 73.3863235,10.3741827 73.7438405,9.88178845 C74.1355387,9.3432034 74.582666,8.84157101 75.0732125,8.39351999 C75.5212636,7.98149781 76.2187451,8.01290757 76.6298434,8.46188241 C77.040018,8.91085726 77.009532,9.60833875 76.5605572,10.0185133 C76.1790209,10.3677159 75.8307421,10.7566427 75.5277303,11.1760554 C75.3115572,11.4735244 74.975288,11.6305732 74.6343997,11.6305732" id="Fill-33" fill="#FFFFFF"></path>
                    <path d="M96.5137012,75.8836768 C95.2970348,75.8836768 94.3103988,74.8979645 94.3103988,73.6803743 C94.3103988,66.0062303 87.6062621,61.9830092 80.5095034,57.7251388 C73.0376752,53.2418571 64.5690489,48.1608661 64.5690489,37.9905697 C64.5690489,36.7748271 65.555685,35.7881911 66.7723513,35.7881911 C67.9890177,35.7881911 68.97473,36.7748271 68.97473,37.9905697 C68.97473,45.6656376 75.6788667,49.6888586 82.7756254,53.9467291 C90.2483774,58.429087 98.7170037,63.5110018 98.7170037,73.6803743 C98.7170037,74.8979645 97.7303676,75.8836768 96.5137012,75.8836768" id="Fill-35" fill="#00587E"></path>
                </g>
            </g>
        </g>
    </g>
</svg>