<?xml version="1.0" encoding="UTF-8"?>
<svg width="344px" height="336px" viewBox="0 0 344 336" version="1.1" xmlns="http://www.w3.org/2000/svg" xmlns:xlink="http://www.w3.org/1999/xlink">
    <!-- Generator: Sketch 49.3 (51167) - http://www.bohemiancoding.com/sketch -->
    <title>pharma-header-icon</title>
    <desc>Created with Sketch.</desc>
    <defs>
        <filter x="-12.0%" y="-261.1%" width="123.9%" height="622.2%" filterUnits="objectBoundingBox" id="filter-1">
            <feGaussianBlur stdDeviation="10.4436384" in="SourceGraphic"></feGaussianBlur>
        </filter>
        <polygon id="path-2" points="0 1.00257783 142.040351 1.00257783 142.040351 111.08282 0 111.08282"></polygon>
        <polygon id="path-4" points="0.549488348 1.77459631 64.046358 1.77459631 64.046358 65.3240944 0.549488348 65.3240944"></polygon>
    </defs>
    <g id="Desktop-UI" stroke="none" stroke-width="1" fill="none" fill-rule="evenodd">
        <g id="Pharma" transform="translate(-403.000000, -249.000000)">
            <g id="pharma-header-icon" transform="translate(398.000000, 229.000000)">
                <ellipse id="Oval-3" fill-opacity="0.3" fill="#1F6FA4" style="mix-blend-mode: multiply;" filter="url(#filter-1)" cx="189" cy="326.87323" rx="131" ry="6"></ellipse>
                <g id="Icon/Free/Pharma" transform="translate(188.447009, 145.941138) rotate(-7.000000) translate(-188.447009, -145.941138) translate(14.368009, 20.988726)">
                    <g id="Page-1" transform="translate(1.796765, 0.000000)">
                        <path d="M108.736959,117.82372 C94.0254246,117.82372 87.5719936,107.231413 87.5719936,96.6410805 C87.5719936,86.0487737 71.3476894,86.0487737 66.4050555,86.0487737 C55.8215864,86.0487737 45.2400897,75.4564669 45.2400897,64.8641601 C45.2400897,54.2738273 34.6566207,43.6815205 24.0731516,43.6815205 C17.3869868,43.6815205 6.69701252,35.9672575 3.70697542,27.1219115 C2.93974294,24.8479015 4.67143989,22.4969069 7.06780867,22.4969069 L126.639708,22.4969069 C128.245176,22.4969069 129.37926,24.0721325 128.870402,25.596035 C122.649705,44.2776585 122.21185,64.4042258 127.617979,83.3385171 L138.371067,121.005755 C139.18958,123.879851 136.304076,126.408503 133.568468,125.212279 C126.442476,122.093411 115.456654,117.82372 108.736959,117.82372" id="Fill-1" fill="#96D1F2"></path>
                        <g id="Group-5" transform="translate(0.000000, 17.965073)">
                            <mask id="mask-3" fill="white">
                                <use xlink:href="#path-2"></use>
                            </mask>
                            <g id="Clip-4"></g>
                            <path d="M7.06800591,8.06345771 C9.69119149,15.8408876 19.2411649,22.1852175 24.0733488,22.1852175 C36.5344665,22.1852175 48.7667951,34.4277607 48.7667951,46.899284 C48.7667951,55.4801185 57.8335501,64.5524707 66.4052527,64.5524707 C77.6691722,64.5524707 91.098699,67.0021637 91.098699,78.6742305 C91.098699,86.8188182 95.7178724,96.3274172 108.737157,96.3274172 C115.914429,96.3274172 126.969283,100.506305 134.980846,104.010097 L124.225785,66.3428588 C118.750625,47.1637956 119.032667,27.0490721 125.02063,8.06345771 L7.06800591,8.06345771 Z M135.002542,111.08282 C134.043994,111.08282 133.077558,110.885424 132.154512,110.48076 C121.703188,105.907079 113.385915,103.390271 108.737157,103.390271 C91.678561,103.390271 84.0437104,90.9759927 84.0437104,78.6742305 C84.0437104,73.9900068 78.1089995,71.6133506 66.4052527,71.6133506 C53.944135,71.6133506 41.7118065,59.3727814 41.7118065,46.899284 C41.7118065,38.3223975 32.6450515,29.2460974 24.0733488,29.2460974 C14.4918183,29.2460974 3.26931761,18.8768488 0.36606259,10.2881185 C-0.353834205,8.16018209 0.00118339237,5.79536965 1.3147485,3.95958036 C2.64409218,2.10799934 4.79392096,1.00257783 7.06800591,1.00257783 L126.639905,1.00257783 C128.523471,1.00257783 130.306448,1.91652454 131.408975,3.44634895 C132.511502,4.97617336 132.813267,6.9580362 132.217626,8.74842425 C126.194161,26.8299618 125.778001,46.0761398 131.010566,64.4044232 L141.761682,102.071661 C142.521026,104.730595 141.702513,107.50994 139.623688,109.329938 C138.304206,110.482734 136.66718,111.08282 135.002542,111.08282 Z" id="Fill-3" fill="#00587E" mask="url(#mask-3)"></path>
                        </g>
                        <path d="M236.963596,117.82372 C251.675131,117.82372 258.128562,107.231413 258.128562,96.6410805 C258.128562,86.0487737 274.352866,86.0487737 279.2955,86.0487737 C289.876997,86.0487737 300.460466,75.4564669 300.460466,64.8641601 C300.460466,54.2738273 311.043935,43.6815205 321.627404,43.6815205 C328.311596,43.6815205 339.00157,35.9672575 341.99358,27.1219115 C342.760812,24.8479015 341.029115,22.4969069 338.632747,22.4969069 L219.060847,22.4969069 C217.455379,22.4969069 216.321295,24.0721325 216.830154,25.596035 C223.050851,44.2776585 223.486733,64.4042258 218.082577,83.3385171 L207.329488,121.005755 C206.509003,123.879851 209.396479,126.408503 212.132087,125.212279 C219.256107,122.093411 230.243902,117.82372 236.963596,117.82372" id="Fill-6" fill="#96D1F2"></path>
                        <path d="M220.678544,26.0285312 C226.670452,45.0141456 226.950522,65.1288691 221.475362,84.3079322 L210.722273,121.97517 C218.729892,118.471379 229.786718,114.292491 236.96399,114.292491 C249.981302,114.292491 254.602448,104.783892 254.602448,96.639304 C254.602448,84.9672372 268.030003,82.5175442 279.295894,82.5175442 C287.865625,82.5175442 296.93238,73.445192 296.93238,64.8643575 C296.93238,52.3928341 309.164708,40.1502909 321.627798,40.1502909 C326.459982,40.1502909 336.009956,33.807935 338.64892,25.9910258 L220.678544,26.0285312 Z M210.696633,129.047894 C209.031995,129.047894 207.396941,128.449782 206.077459,127.295011 C203.998634,125.475014 203.180121,122.695668 203.937492,120.036735 L214.690581,82.3694967 C219.923146,64.0412133 219.505014,44.7950352 213.483521,26.7134977 C212.88788,24.9231097 213.189645,22.9412468 214.2902,21.4114224 C215.392727,19.881598 217.177676,18.9676513 219.061242,18.9676513 L338.631169,18.9676513 C340.907226,18.9676513 343.059027,20.0730728 344.386399,21.9266278 C345.699964,23.7624171 346.053009,26.1272295 345.333112,28.2551659 C342.431829,36.8399483 331.209329,47.2111708 321.627798,47.2111708 C313.054123,47.2111708 303.987368,56.287471 303.987368,64.8643575 C303.987368,77.3378548 291.757012,89.5784241 279.295894,89.5784241 C267.592147,89.5784241 261.657437,91.9550803 261.657437,96.639304 C261.657437,108.941066 254.020614,121.355344 236.96399,121.355344 C232.315232,121.355344 223.997959,123.872152 213.544663,128.447808 C212.623589,128.850497 211.65518,129.047894 210.696633,129.047894 Z" id="Fill-8" fill="#00587E"></path>
                        <path d="M168.591151,235.152369 L153.264253,46.6286532 C153.055187,44.2144915 155.214877,42.155644 157.95443,42.155644 L191.292554,42.155644 C193.961103,42.155644 196.095153,44.1138192 195.992593,46.4687618 L180.655833,234.992478 C180.557217,237.223061 178.482336,238.987787 175.955794,238.987787 L173.281328,238.987787 C170.823817,238.987787 168.780494,237.315837 168.591151,235.152369" id="Fill-10" fill="#96D1F2"></path>
                        <path d="M172.002279,51.5791649 C171.225185,51.5791649 170.465841,51.1942414 170.018125,50.4895352 C169.319924,49.3939835 169.641412,47.9371959 170.736049,47.2384116 C172.544667,46.0856148 174.088993,44.6130355 175.325638,42.8601528 C176.075119,41.7981586 177.542526,41.5435168 178.603634,42.2936243 C179.664742,43.0437317 179.917199,44.5103892 179.167717,45.5743574 C177.578027,47.8306017 175.589929,49.7275839 173.264563,51.2100331 C172.872072,51.458753 172.434217,51.5791649 172.002279,51.5791649" id="Fill-14" fill="#FFFFFF"></path>
                        <path d="M142.556133,238.406257 C139.958588,238.406257 137.85215,236.29806 137.85215,233.698345 C137.85215,211.966943 155.932407,201.110124 171.884531,191.530463 C187.037866,182.432449 201.350992,173.837797 201.350992,157.436105 C201.350992,154.838365 203.455457,152.730168 206.053003,152.730168 C208.650548,152.730168 210.756986,154.838365 210.756986,157.436105 C210.756986,179.167508 192.676728,190.0263 176.724604,199.605962 C161.573242,208.703975 147.260116,217.298628 147.260116,233.698345 C147.260116,236.29806 145.153678,238.406257 142.556133,238.406257" id="Fill-16" fill="#00587E"></path>
                        <path d="M142.556133,162.144609 C139.958588,162.144609 137.85215,160.038386 137.85215,157.436697 C137.85215,135.707269 155.932407,124.848476 171.886504,115.270789 C187.037866,106.172775 201.350992,97.5761487 201.350992,81.176431 C201.350992,78.5786905 203.455457,76.4704937 206.053003,76.4704937 C208.650548,76.4704937 210.756986,78.5786905 210.756986,81.176431 C210.756986,102.907833 192.676728,113.764652 176.724604,123.344314 C161.573242,132.442327 147.260116,141.038954 147.260116,157.436697 C147.260116,160.038386 145.153678,162.144609 142.556133,162.144609" id="Fill-18" fill="#00587E"></path>
                        <path d="M181.590318,245.388375 L167.02079,245.388375 C165.770339,245.388375 164.736844,244.407314 164.671757,243.157792 L154.334828,44.6319856 C154.263824,43.2857401 155.334794,42.154657 156.681889,42.154657 L191.927247,42.154657 C193.274341,42.154657 194.347284,43.2857401 194.27628,44.6319856 L183.939351,243.157792 C183.874264,244.407314 182.840769,245.388375 181.590318,245.388375" id="Fill-20" fill="#96D1F2"></path>
                        <path d="M168.136729,241.857935 L180.475563,241.857935 L190.690208,45.6870709 L157.922084,45.6870709 L168.136729,241.857935 Z M181.589923,248.918815 L167.020396,248.918815 C163.892296,248.918815 161.312502,246.469122 161.148799,243.342358 L150.81187,44.8145775 C150.72706,43.2117163 151.314812,41.6226729 152.419311,40.4580324 C153.52381,39.2933919 155.077998,38.6242171 156.683467,38.6242171 L191.928825,38.6242171 C193.534293,38.6242171 195.088481,39.2933919 196.192981,40.4580324 C197.29748,41.6226729 197.883259,43.2117163 197.800421,44.8145775 L187.46152,243.340384 C187.297817,246.469122 184.719995,248.918815 181.589923,248.918815 Z" id="Fill-22" fill="#00587E"></path>
                        <path d="M206.053792,238.406257 C203.456246,238.406257 201.349808,236.29806 201.349808,233.698345 C201.349808,217.298628 187.036682,208.703975 171.88532,199.605962 C155.933196,190.0263 137.852939,179.167508 137.852939,157.436105 C137.852939,154.838365 139.959376,152.730168 142.556922,152.730168 C145.154467,152.730168 147.258933,154.838365 147.258933,157.436105 C147.258933,173.837797 161.572059,182.432449 176.725393,191.530463 C192.677517,201.110124 210.757775,211.966943 210.757775,233.698345 C210.757775,236.29806 208.651337,238.406257 206.053792,238.406257" id="Fill-24" fill="#00587E"></path>
                        <path d="M206.053792,33.7489134 C206.053792,51.2974799 191.839281,65.5238599 174.305357,65.5238599 C156.771432,65.5238599 142.556922,51.2974799 142.556922,33.7489134 C142.556922,16.200347 156.771432,1.97396698 174.305357,1.97396698 C191.839281,1.97396698 206.053792,16.200347 206.053792,33.7489134" id="Fill-26" fill="#96D1F2"></path>
                        <g id="Group-30" transform="translate(142.007039, 0.199371)">
                            <mask id="mask-5" fill="white">
                                <use xlink:href="#path-4"></use>
                            </mask>
                            <g id="Clip-29"></g>
                            <path d="M32.2979232,1.77420152 C14.7639985,1.77420152 0.549488348,16.0005815 0.549488348,33.549148 C0.549488348,51.0977144 14.7639985,65.3240944 32.2979232,65.3240944 C49.8338202,65.3240944 64.046358,51.0977144 64.046358,33.549148 C64.046358,16.0005815 49.8338202,1.77420152 32.2979232,1.77420152 M32.2979232,8.8350814 C45.9148204,8.8350814 56.9913694,19.9228539 56.9913694,33.549148 C56.9913694,47.177416 45.9148204,58.2632145 32.2979232,58.2632145 C18.6829983,58.2632145 7.60447694,47.177416 7.60447694,33.549148 C7.60447694,19.9228539 18.6829983,8.8350814 32.2979232,8.8350814" id="Fill-28" fill="#00587E" mask="url(#mask-5)"></path>
                        </g>
                        <path d="M192.756016,39.5744848 C192.600202,39.5744848 192.440445,39.558693 192.282659,39.5271096 C191.010513,39.264572 190.190027,38.0209728 190.450374,36.7477641 C190.669301,35.673926 190.781723,34.5665305 190.781723,33.4551871 C190.781723,30.5870131 190.028297,27.7681883 188.606254,25.2987556 C187.986946,24.2288655 187.245354,23.2260903 186.399228,22.3200394 C185.555075,21.4139886 184.608362,20.6046621 183.5867,19.9137737 C181.770193,18.6839922 179.760399,17.8490042 177.616488,17.4305232 C175.732922,17.0613914 173.742851,17.0298079 171.841535,17.3357728 C170.549665,17.5410654 169.352467,16.668572 169.143401,15.3874674 C168.93828,14.1043889 169.810045,12.8963211 171.092053,12.6890545 C173.53773,12.2942611 176.093856,12.3357144 178.51981,12.8094665 C181.286975,13.3503335 183.878603,14.4281194 186.219747,16.011241 C187.533312,16.9015001 188.752206,17.9437546 189.838954,19.1083951 C190.925703,20.2750096 191.882278,21.565984 192.677123,22.943813 C194.515325,26.1278217 195.483734,29.7618949 195.483734,33.4551871 C195.483734,34.8843392 195.341727,36.3095434 195.057713,37.6932942 C194.830896,38.8066116 193.848681,39.5744848 192.756016,39.5744848" id="Fill-31" fill="#FFFFFF"></path>
                        <path d="M159.342154,24.8516521 C158.86288,24.8516521 158.381634,24.7055785 157.963502,24.4035616 C156.912256,23.6396363 156.67755,22.167057 157.440837,21.1149326 C158.277101,19.9641098 159.231704,18.8922458 160.279006,17.9348718 C161.235581,17.0544825 162.724683,17.1215974 163.602365,18.0809453 C164.478075,19.0402933 164.412989,20.5306383 163.454441,21.4070797 C162.639873,22.1532392 161.896308,22.9842793 161.249387,23.8804603 C160.787864,24.5160777 160.06994,24.8516521 159.342154,24.8516521" id="Fill-33" fill="#FFFFFF"></path>
                        <path d="M206.053792,162.144609 C203.456246,162.144609 201.349808,160.038386 201.349808,157.436697 C201.349808,141.038954 187.036682,132.442327 171.88532,123.344314 C155.933196,113.764652 137.852939,102.907833 137.852939,81.176431 C137.852939,78.5786905 139.959376,76.4704937 142.556922,76.4704937 C145.154467,76.4704937 147.258933,78.5786905 147.258933,81.176431 C147.258933,97.5761487 161.572059,106.172775 176.723421,115.270789 C192.677517,124.848476 210.757775,135.707269 210.757775,157.436697 C210.757775,160.038386 208.651337,162.144609 206.053792,162.144609" id="Fill-35" fill="#00587E"></path>
                    </g>
                </g>
            </g>
        </g>
    </g>
</svg>