<?xml version="1.0" encoding="UTF-8"?>
<svg width="297px" height="412px" viewBox="0 0 297 412" version="1.1" xmlns="http://www.w3.org/2000/svg" xmlns:xlink="http://www.w3.org/1999/xlink">
    <!-- Generator: Sketch 49.3 (51167) - http://www.bohemiancoding.com/sketch -->
    <title>registration-header-icon</title>
    <desc>Created with Sketch.</desc>
    <defs>
        <filter x="-13.0%" y="-241.0%" width="126.0%" height="582.0%" filterUnits="objectBoundingBox" id="filter-1">
            <feGaussianBlur stdDeviation="10.4436384" in="SourceGraphic"></feGaussianBlur>
        </filter>
        <polygon id="path-2" points="0.0295210264 0.280042448 57.6108498 0.280042448 57.6108498 5.18234454 0.0295210264 5.18234454"></polygon>
        <polygon id="path-4" points="0.0295210264 2.3663275 57.6108498 2.3663275 57.6108498 7.2686296 0.0295210264 7.2686296"></polygon>
        <polygon id="path-6" points="0.0295210264 2.08004803 57.6108498 2.08004803 57.6108498 6.98235012 0.0295210264 6.98235012"></polygon>
        <polygon id="path-8" points="0.0295210264 1.04750844 57.6108498 1.04750844 57.6108498 5.94981054 0.0295210264 5.94981054"></polygon>
        <polygon id="path-10" points="0.0295210264 1.33378792 57.6108498 1.33378792 57.6108498 6.23609001 0.0295210264 6.23609001"></polygon>
    </defs>
    <g id="Desktop-UI" stroke="none" stroke-width="1" fill="none" fill-rule="evenodd">
        <g id="Registration" transform="translate(-442.000000, -287.000000)">
            <g id="registration-header-icon" transform="translate(442.000000, 287.000000)">
                <ellipse id="Oval-3" fill-opacity="0.3" fill="#1F6FA4" style="mix-blend-mode: multiply;" filter="url(#filter-1)" cx="161.5" cy="381.5" rx="120.5" ry="6.5"></ellipse>
                <g id="Icon/Free/Registration" transform="translate(0.168860, 0.569721)">
                    <g id="Page-1" transform="translate(0.477759, 0.042467)">
                        <path d="M55.1353035,4.90448506 L2.45288207,4.90448506 C1.09709592,4.90448506 0,3.80365004 0,2.45333401 C0,1.09678095 1.09709592,0.00218295895 2.45288207,0.00218295895 L55.1353035,0.00218295895 C56.4879729,0.00218295895 57.5850688,1.09678095 57.5850688,2.45333401 C57.5850688,3.80365004 56.4879729,4.90448506 55.1353035,4.90448506" id="Fill-1" fill="#96D1F2"></path>
                        <path d="M55.1353035,16.3459966 L2.45288207,16.3459966 C1.09709592,16.3459966 0,15.2451616 0,13.8948456 C0,12.5382925 1.09709592,11.4436945 2.45288207,11.4436945 L55.1353035,11.4436945 C56.4879729,11.4436945 57.5850688,12.5382925 57.5850688,13.8948456 C57.5850688,15.2451616 56.4879729,16.3459966 55.1353035,16.3459966" id="Fill-3" fill="#96D1F2"></path>
                        <path d="M55.1353035,27.7875082 L2.45288207,27.7875082 C1.09709592,27.7875082 0,26.6897917 0,25.3363571 C0,23.9798041 1.09709592,22.8852061 2.45288207,22.8852061 L55.1353035,22.8852061 C56.4879729,22.8852061 57.5850688,23.9798041 57.5850688,25.3363571 C57.5850688,26.6897917 56.4879729,27.7875082 55.1353035,27.7875082" id="Fill-5" fill="#96D1F2"></path>
                        <g id="Group-9" transform="translate(236.170867, 268.200208)">
                            <mask id="mask-3" fill="white">
                                <use xlink:href="#path-2"></use>
                            </mask>
                            <g id="Clip-8"></g>
                            <path d="M55.1617078,5.18234454 L2.47928635,5.18234454 C1.12661695,5.18234454 0.0295210264,4.08150953 0.0295210264,2.7311935 C0.0295210264,1.37464044 1.12661695,0.280042448 2.47928635,0.280042448 L55.1617078,0.280042448 C56.5174939,0.280042448 57.6114731,1.37464044 57.6114731,2.7311935 C57.6114731,4.08150953 56.5174939,5.18234454 55.1617078,5.18234454" id="Fill-7" fill="#96D1F2" mask="url(#mask-3)"></path>
                        </g>
                        <g id="Group-12" transform="translate(236.170867, 277.555746)">
                            <mask id="mask-5" fill="white">
                                <use xlink:href="#path-4"></use>
                            </mask>
                            <g id="Clip-11"></g>
                            <path d="M55.1617078,7.2686296 L2.47928635,7.2686296 C1.12661695,7.2686296 0.0295210264,6.16779458 0.0295210264,4.81747855 C0.0295210264,3.46092549 1.12661695,2.3663275 2.47928635,2.3663275 L55.1617078,2.3663275 C56.5174939,2.3663275 57.6114731,3.46092549 57.6114731,4.81747855 C57.6114731,6.16779458 56.5174939,7.2686296 55.1617078,7.2686296" id="Fill-10" fill="#96D1F2" mask="url(#mask-5)"></path>
                        </g>
                        <g id="Group-15" transform="translate(236.170867, 9.363646)">
                            <mask id="mask-7" fill="white">
                                <use xlink:href="#path-6"></use>
                            </mask>
                            <g id="Clip-14"></g>
                            <path d="M55.1617078,6.98235012 L2.47928635,6.98235012 C1.12661695,6.98235012 0.0295210264,5.88151511 0.0295210264,4.53119908 C0.0295210264,3.17464601 1.12661695,2.08004803 2.47928635,2.08004803 L55.1617078,2.08004803 C56.5174939,2.08004803 57.6114731,3.17464601 57.6114731,4.53119908 C57.6114731,5.88151511 56.5174939,6.98235012 55.1617078,6.98235012" id="Fill-13" fill="#96D1F2" mask="url(#mask-7)"></path>
                        </g>
                        <g id="Group-18" transform="translate(236.170867, 21.837698)">
                            <mask id="mask-9" fill="white">
                                <use xlink:href="#path-8"></use>
                            </mask>
                            <g id="Clip-17"></g>
                            <path d="M55.1617078,5.94981054 L2.47928635,5.94981054 C1.12661695,5.94981054 0.0295210264,4.85209404 0.0295210264,3.49865949 C0.0295210264,2.14210643 1.12661695,1.04750844 2.47928635,1.04750844 L55.1617078,1.04750844 C56.5174939,1.04750844 57.6114731,2.14210643 57.6114731,3.49865949 C57.6114731,4.85209404 56.5174939,5.94981054 55.1617078,5.94981054" id="Fill-16" fill="#96D1F2" mask="url(#mask-9)"></path>
                        </g>
                        <path d="M55.1353035,277.2414 L2.45288207,277.2414 C1.09709592,277.2414 0,276.143683 0,274.790249 C0,273.436814 1.09709592,272.339098 2.45288207,272.339098 L55.1353035,272.339098 C56.4879729,272.339098 57.5850688,273.436814 57.5850688,274.790249 C57.5850688,276.143683 56.4879729,277.2414 55.1353035,277.2414" id="Fill-19" fill="#96D1F2"></path>
                        <path d="M55.1353035,288.682911 L2.45288207,288.682911 C1.09709592,288.682911 0,287.585195 0,286.23176 C0,284.878326 1.09709592,283.780609 2.45288207,283.780609 L55.1353035,283.780609 C56.4879729,283.780609 57.5850688,284.878326 57.5850688,286.23176 C57.5850688,287.585195 56.4879729,288.682911 55.1353035,288.682911" id="Fill-21" fill="#96D1F2"></path>
                        <g id="Group-25" transform="translate(236.170867, 290.029797)">
                            <mask id="mask-11" fill="white">
                                <use xlink:href="#path-10"></use>
                            </mask>
                            <g id="Clip-24"></g>
                            <path d="M55.1617078,6.23609001 L2.47928635,6.23609001 C1.12661695,6.23609001 0.0295210264,5.13837351 0.0295210264,3.78493897 C0.0295210264,2.43150442 1.12661695,1.33378792 2.47928635,1.33378792 L55.1617078,1.33378792 C56.5174939,1.33378792 57.6114731,2.43150442 57.6114731,3.78493897 C57.6114731,5.13837351 56.5174939,6.23609001 55.1617078,6.23609001" id="Fill-23" fill="#96D1F2" mask="url(#mask-11)"></path>
                        </g>
                        <path d="M80.5439827,59.8165056 C79.917516,59.8165056 79.2910493,59.5794986 78.8079531,59.0992476 L56.3954054,36.6709037 C55.4385633,35.7135203 55.4385633,34.1605009 56.3954054,33.206236 C57.3553644,32.2488525 58.904389,32.2488525 59.8612312,33.206236 L82.2768956,55.6314614 C83.230621,56.5888448 83.230621,58.1418642 82.2768956,59.0992476 C81.7969161,59.5794986 81.1704494,59.8165056 80.5439827,59.8165056" id="Fill-26" fill="#96D1F2"></path>
                        <path d="M226.282579,64.634296 C225.656112,64.634296 225.029645,64.3941705 224.546549,63.917038 C223.592824,62.9596546 223.592824,61.4066352 224.546549,60.4492518 L246.494701,38.4918033 C247.451543,37.5344199 249.003685,37.5344199 249.960527,38.4918033 C250.917369,39.4491867 250.917369,41.0022061 249.960527,41.9595895 L228.015492,63.917038 C227.535512,64.3941705 226.909045,64.634296 226.282579,64.634296" id="Fill-28" fill="#96D1F2"></path>
                        <path d="M46.8382039,264.90737 C46.2117372,264.90737 45.5852705,264.667244 45.1052911,264.190112 C44.1484489,263.232729 44.1484489,261.679709 45.1052911,260.722326 L67.053443,238.75864 C68.0102851,237.804375 69.5624265,237.804375 70.5192687,238.75864 C71.4761109,239.719142 71.4761109,241.269043 70.5192687,242.229545 L48.5711168,264.190112 C48.0911373,264.667244 47.4646706,264.90737 46.8382039,264.90737" id="Fill-30" fill="#96D1F2"></path>
                        <path d="M252.942321,262.553205 C252.315855,262.553205 251.689388,262.313079 251.206292,261.835947 L229.859672,240.471016 C228.899714,239.513632 228.899714,237.960613 229.859672,237.006348 C230.813398,236.045846 232.365539,236.045846 233.322381,237.006348 L254.675234,258.365042 C255.62896,259.325544 255.62896,260.875445 254.675234,261.835947 C254.195255,262.313079 253.568788,262.553205 252.942321,262.553205" id="Fill-32" fill="#96D1F2"></path>
                        <path d="M150.43959,50.4668924 C93.6835764,50.4668924 47.5120452,96.6645408 47.5120452,153.452659 C47.5120452,210.240776 93.6835764,256.441543 150.43959,256.441543 C207.195603,256.441543 253.367134,210.240776 253.367134,153.452659 C253.367134,96.6645408 207.195603,50.4668924 150.43959,50.4668924 M150.43959,263.798115 C89.6286849,263.798115 40.1596325,214.297961 40.1596325,153.452659 C40.1596325,92.6104741 89.6286849,43.1103207 150.43959,43.1103207 C211.250495,43.1103207 260.722664,92.6104741 260.722664,153.452659 C260.722664,214.297961 211.250495,263.798115 150.43959,263.798115" id="Fill-34" fill="#00587E"></path>
                        <path d="M150.5066,46.7879829 C174.888933,46.7879829 197.357582,54.986553 215.316295,68.7703795 C220.306211,72.5936761 224.943935,76.8504461 229.179598,81.4814376 C229.207648,81.5157412 229.235699,81.5469263 229.26375,81.5781115 C246.25627,100.208107 256.709848,124.891136 257.068275,152.01596 L241.842952,152.01596 C241.484526,129.126076 232.698408,108.250751 218.436161,92.3837583 C218.411227,92.3556917 218.38941,92.3307435 218.364476,92.3026769 C214.184915,87.6592114 209.52849,83.4616932 204.488706,79.750663 C204.460655,79.7288334 204.432604,79.7101223 204.404554,79.6882927 C189.282084,68.5957427 170.65327,62.0281548 150.5066,62.0281548 C133.345776,62.0281548 117.272697,66.7838868 103.540298,75.0510642 C101.109233,76.5167652 98.0080667,76.1768473 96.0039966,74.1685251 L88.5113301,66.6778574 C105.980713,54.1601471 127.383433,46.7879829 150.5066,46.7879829" id="Fill-36" fill="#00587E"></path>
                        <path d="M245.390748,148.337674 L253.276125,148.337674 C252.101111,124.456103 242.688526,101.75333 226.546879,84.0588884 L226.422209,83.9185553 C222.392252,79.5089782 217.891665,75.3769488 213.079403,71.6877482 C194.986671,57.8041293 173.350194,50.4662687 150.507535,50.4662687 C130.339047,50.4662687 110.977798,56.2417544 94.2408512,67.2064453 L98.6011842,71.5723632 C99.3959554,72.3644654 100.648889,72.5047985 101.646249,71.9029256 C116.372891,63.0338752 133.268792,58.349869 150.507535,58.349869 C170.800693,58.349869 190.189993,64.7022795 206.577863,76.7210278 L206.724351,76.8332943 C211.919972,80.6534724 216.775869,85.0443384 221.095684,89.8406111 L221.207887,89.9684701 C235.710123,106.100537 244.231317,126.717025 245.390748,148.337674 Z M260.793726,155.691127 L238.219107,155.691127 L238.166122,152.070534 C237.838864,130.92078 229.859984,110.594314 215.703707,94.8427056 L215.588387,94.7179651 C211.648815,90.3395731 207.163812,86.2855065 202.311033,82.7148094 L202.139612,82.5838318 C187.113761,71.5661262 169.226734,65.7033221 150.507535,65.7033221 C134.605878,65.7033221 119.019012,70.0286994 105.436216,78.2054399 C101.537162,80.5505615 96.5939973,79.9580441 93.4024456,76.7740425 L82.8522476,66.2116397 L86.3710581,63.6856444 C105.158826,50.2261432 127.3345,43.1128155 150.507535,43.1128155 C174.983371,43.1128155 198.168872,50.9745863 217.551939,65.8498922 C222.707043,69.8010479 227.528655,74.2262176 231.892105,79.0006607 L232.019892,79.1472308 C250.168726,99.0464608 260.388548,124.92388 260.743858,151.964504 L260.793726,155.691127 Z" id="Fill-38" fill="#00587E"></path>
                        <path d="M241.875366,153.444862 C241.875366,152.96773 241.847315,152.490597 241.841082,152.016583 L257.069521,152.016583 C257.075755,152.490597 257.103806,152.96773 257.103806,153.444862 C257.103806,163.860695 255.598415,173.921017 252.815158,183.4356 L238.222535,179.016667 C240.591265,170.899178 241.875366,162.32015 241.875366,153.444862" id="Fill-40" fill="#006FBA"></path>
                        <path d="M242.703175,176.532148 L250.267527,178.821136 C252.181211,171.268098 253.234672,163.512357 253.406094,155.691127 L245.523833,155.691127 C245.358646,162.723373 244.411154,169.708842 242.703175,176.532148 Z M255.301078,188.033223 L233.673951,181.481228 L234.693128,177.985375 C237.02134,170.008219 238.199472,161.753516 238.199472,153.445798 C238.199472,153.202554 238.193238,152.956191 238.183888,152.716066 L238.099736,148.337674 L260.696171,148.337674 L260.758506,152.522718 C260.770973,152.828332 260.780324,153.137065 260.780324,153.445798 C260.780324,163.96766 259.2874,174.405322 256.342072,184.471882 L255.301078,188.033223 Z" id="Fill-42" fill="#00587E"></path>
                        <path d="M252.814535,183.436223 C249.417277,195.062039 244.103219,205.864567 237.224552,215.475824 L229.735002,207.978919 C227.734049,205.979952 227.384973,202.880151 228.843612,200.457066 C232.839285,193.808397 236.002786,186.613988 238.221912,179.017291 L252.814535,183.436223 Z" id="Fill-44" fill="#4D9BCF"></path>
                        <path d="M240.639575,183.591525 C238.4485,190.140402 235.546806,196.433561 231.993711,202.352498 C231.398412,203.341067 231.538666,204.582235 232.333437,205.374337 L236.69377,209.746492 C241.552783,202.311958 245.411319,194.312972 248.203927,185.880514 L240.639575,183.591525 Z M237.69113,221.144656 L227.134698,210.579135 C223.94938,207.392015 223.354081,202.452291 225.69476,198.560387 C229.559529,192.123776 232.58901,185.203796 234.692816,177.984439 L235.733811,174.419979 L257.364054,180.975093 L256.34176,184.470946 C252.860351,196.380546 247.434089,207.532348 240.21258,217.617618 L237.69113,221.144656 Z" id="Fill-46" fill="#00587E"></path>
                        <path d="M218.274402,223.099652 L224.947363,229.776388 C216.974717,237.563314 207.774072,244.084124 197.682036,249.076863 L191.785146,234.943764 C198.355254,231.600718 204.476551,227.493636 210.018132,222.728549 C212.421146,220.660975 216.033459,220.854323 218.274402,223.099652" id="Fill-48" fill="#96D1F2"></path>
                        <path d="M196.46962,236.618405 L199.536502,243.974977 C206.810996,240.030058 213.558759,235.246259 219.670706,229.695307 L215.675033,225.700492 C214.774292,224.799241 213.340587,224.71816 212.414912,225.516499 C207.502915,229.742084 202.151455,233.465588 196.46962,236.618405 Z M195.799519,254.110143 L187.08197,233.212989 L190.120801,231.666207 C196.407285,228.466612 202.297943,224.521694 207.621351,219.93748 C211.451837,216.647449 217.270808,216.890693 220.873771,220.498812 L230.177269,229.804454 L227.515565,232.405294 C219.225011,240.500953 209.734508,247.21823 199.30898,252.37625 L195.799519,254.110143 Z" id="Fill-50" fill="#00587E"></path>
                        <path d="M197.680789,249.077175 C186.818916,254.447254 174.916049,258.036663 162.352431,259.427519 L162.352431,249.29859 C162.352431,246.32041 164.499871,243.816244 167.423383,243.264267 C176.028729,241.639522 184.20708,238.798557 191.783899,234.944075 L197.680789,249.077175 Z" id="Fill-52" fill="#5493BC"></path>
                        <path d="M189.888915,239.943987 C182.916746,243.131107 175.604851,245.463755 168.105951,246.879559 C166.899769,247.104092 166.027079,248.123846 166.027079,249.299525 L166.027079,255.237174 C175.324343,253.830724 184.350451,251.15504 192.940213,247.256899 L189.888915,239.943987 Z M158.674666,263.535536 L158.674666,249.299525 C158.674666,244.590571 162.06569,240.530267 166.740814,239.647728 C174.850597,238.119657 182.714157,235.434617 190.119554,231.667454 L193.653949,229.871191 L202.402665,250.846308 L199.307733,252.374379 C187.788226,258.068783 175.489531,261.673784 162.754491,263.083352 L158.674666,263.535536 Z" id="Fill-54" fill="#00587E"></path>
                        <path d="M71.8784833,106.962494 C63.7905176,120.587276 59.140327,136.479217 59.140327,153.443927 C59.140327,173.601993 65.7073187,192.244463 76.7935977,207.372368 C80.5149969,212.452426 84.7350761,217.136432 89.4008505,221.343306 C102.74989,233.383883 119.658257,241.529439 138.327588,244.030486 C141.341485,244.432774 143.563728,247.052325 143.563728,250.092875 L143.563728,259.850701 C118.586095,258.241549 95.9491418,248.050249 78.5857288,232.161426 C73.9573554,227.926486 69.7061087,223.283021 65.87874,218.2934 C52.102706,200.321411 43.9118876,177.843171 43.9118876,153.443927 C43.9118876,133.812889 49.2259459,115.432374 58.4764593,99.6339886 L71.8784833,106.962494 Z" id="Fill-56" fill="#ED145B"></path>
                        <path d="M59.9017489,104.605522 C51.8356005,119.558791 47.5874706,136.367574 47.5874706,153.44455 C47.5874706,176.303249 54.9211828,197.955083 68.7969528,216.054932 C72.4903013,220.869915 76.6199947,225.379285 81.0675966,229.448944 C97.2996295,244.305539 118.054066,253.595588 139.890015,255.853392 L139.890015,250.093499 C139.890015,248.871042 139.011092,247.832577 137.842311,247.676651 C118.842604,245.135063 101.242318,236.970797 86.94267,224.075746 C82.1148246,219.722303 77.7046236,214.835593 73.8305037,209.546595 C61.8123165,193.152574 55.4634973,173.752306 55.4634973,153.44455 C55.4634973,137.692942 59.3874852,122.200171 66.8427507,108.397633 L59.9017489,104.605522 Z M147.239311,263.771296 L143.330907,263.521815 C118.406259,261.915781 94.5319557,251.743192 76.105731,234.875156 C71.3402206,230.515475 66.9206694,225.688018 62.9623972,220.533116 C48.0955008,201.135966 40.2350579,177.93735 40.2350579,153.44455 C40.2350579,133.866527 45.4462635,114.615948 55.304543,97.7790972 L57.1091411,94.6948881 L76.9815377,105.562905 L75.0366858,108.837344 C67.0422227,122.318674 62.81591,137.742839 62.81591,153.44455 C62.81591,172.177457 68.6722828,190.071483 79.755445,205.199389 C83.3365905,210.079861 87.4070657,214.595468 91.8640179,218.612112 C105.05722,230.509238 121.292369,238.040447 138.814736,240.385568 C143.617648,241.027982 147.239311,245.203671 147.239311,250.093499 L147.239311,263.771296 Z" id="Fill-58" fill="#00587E"></path>
                        <path d="M74.2222791,78.9598081 L80.8952404,85.636544 C83.1393002,87.8818732 83.3263052,91.499348 81.2536666,93.9068399 C77.7660236,97.9671436 74.6243398,102.333061 71.8784833,106.960934 L58.4764593,99.6355479 C62.8835434,92.1105765 68.1726678,85.1625301 74.2222791,78.9598081" id="Fill-60" fill="#B80C4B"></path>
                        <path d="M63.6240832,98.2587245 L70.5837854,102.066429 C72.9649823,98.3741095 75.6111028,94.8345975 78.4691624,91.5102628 C79.2732838,90.574709 79.1922483,89.1370746 78.2946244,88.2358244 L74.3020679,84.2410095 C70.3624962,88.5850978 66.7875842,93.2784596 63.6240832,98.2587245 Z M73.2267892,111.889744 L53.3917937,101.046675 L55.305478,97.7784735 C59.865283,89.9946656 65.3445291,82.7971381 71.5936124,76.3917129 L74.1929817,73.7285029 L83.493363,83.0372636 C87.0963257,86.6422644 87.3363155,92.4738833 84.041911,96.3065355 C80.6882882,100.204676 77.6619242,104.420906 75.0376209,108.839838 L73.2267892,111.889744 Z" id="Fill-62" fill="#00587E"></path>
                        <path d="M224.15789,88.7631649 C223.465972,88.7631649 222.780287,88.4731432 222.294074,87.9086924 C204.756123,67.4013524 180.398724,57.0042307 149.895094,57.0042307 C148.542424,57.0042307 147.445328,55.9096327 147.445328,54.5530797 C147.445328,53.1996451 148.542424,52.1019286 149.895094,52.1019286 C181.894764,52.1019286 207.505096,63.0759751 226.01859,84.7153353 C226.897513,85.7475631 226.779077,87.2943454 225.75055,88.1768845 C225.286154,88.5698171 224.722022,88.7631649 224.15789,88.7631649" id="Fill-64" fill="#FFFFFF"></path>
                        <path d="M222.024475,145.118745 C220.671806,145.118745 219.57471,144.021028 219.57471,142.667594 C219.57471,122.019921 195.413666,81.828528 151.121535,81.828528 C149.765748,81.828528 148.671769,80.7308115 148.671769,79.3742585 C148.671769,78.0208239 149.765748,76.9231074 151.121535,76.9231074 C178.259075,76.9231074 195.987148,90.4200308 206.0823,101.743351 C218.786172,115.994954 224.474241,132.56985 224.474241,142.667594 C224.474241,144.021028 223.380261,145.118745 222.024475,145.118745" id="Fill-66" fill="#5493BC"></path>
                        <path d="M189.335069,147.110227 L112.906131,147.110227 C110.87401,147.110227 109.231483,145.466771 109.231483,143.433501 C109.231483,141.403349 110.87401,139.756774 112.906131,139.756774 L189.335069,139.756774 C191.364073,139.756774 193.009717,141.403349 193.009717,143.433501 C193.009717,145.466771 191.364073,147.110227 189.335069,147.110227" id="Fill-68" fill="#005F9E"></path>
                        <path d="M178.864659,161.253306 L123.374046,161.253306 C121.345042,161.253306 119.702515,159.60985 119.702515,157.57658 C119.702515,155.54331 121.345042,153.899853 123.374046,153.899853 L178.864659,153.899853 C180.893663,153.899853 182.542424,155.54331 182.542424,157.57658 C182.542424,159.60985 180.893663,161.253306 178.864659,161.253306" id="Fill-70" fill="#005F9E"></path>
                        <path d="M189.335069,175.919984 L112.906131,175.919984 C110.87401,175.919984 109.231483,174.276528 109.231483,172.243257 C109.231483,170.213106 110.87401,168.566531 112.906131,168.566531 L189.335069,168.566531 C191.364073,168.566531 193.009717,170.213106 193.009717,172.243257 C193.009717,174.276528 191.364073,175.919984 189.335069,175.919984" id="Fill-72" fill="#005F9E"></path>
                        <path d="M222.27101,149.912211 C221.775447,149.912211 221.276767,149.762522 220.843539,149.45379 C219.743326,148.661687 219.490869,147.127379 220.282524,146.029663 L226.911851,136.801983 C227.703505,135.69803 229.230712,135.448549 230.330925,136.240651 C231.431138,137.029635 231.683594,138.560824 230.89194,139.661659 L224.262613,148.892457 C223.782634,149.559819 223.031497,149.912211 222.27101,149.912211" id="Fill-74" fill="#5493BC"></path>
                        <path d="M222.273815,149.912211 C221.669166,149.912211 221.064516,149.693915 220.59077,149.244849 L212.724094,141.816552 C211.736084,140.884116 211.689333,139.334216 212.618124,138.351884 C213.550033,137.366434 215.102174,137.322775 216.08395,138.248973 L223.953743,145.677271 C224.93552,146.606587 224.982271,148.159607 224.053479,149.145057 C223.5735,149.653374 222.922099,149.912211 222.273815,149.912211" id="Fill-76" fill="#5493BC"></path>
                        <path d="M150.710435,234.093657 C123.572895,234.093657 105.841706,220.596734 95.7496698,209.273414 C83.0457977,195.02181 77.3577294,178.450033 77.3577294,168.34917 C77.3577294,166.995736 78.4517086,165.898019 79.8074947,165.898019 C81.1601641,165.898019 82.25726,166.995736 82.25726,168.34917 C82.25726,188.999962 106.418304,229.188236 150.710435,229.188236 C152.066221,229.188236 153.160201,230.285953 153.160201,231.642506 C153.160201,232.992822 152.066221,234.093657 150.710435,234.093657" id="Fill-78" fill="#ED145B"></path>
                        <path d="M73.3153049,174.013637 C72.7854575,174.013637 72.25561,173.842119 71.8099148,173.492845 C70.7408696,172.660202 70.5507479,171.119657 71.3829201,170.050007 L77.6288866,162.047903 C78.4610588,160.981372 80.0038499,160.794261 81.0666616,161.620667 C82.13259,162.456429 82.3227118,163.996974 81.4905396,165.066624 L75.2476898,173.068728 C74.7645936,173.689312 74.0415076,174.013637 73.3153049,174.013637" id="Fill-80" fill="#ED145B"></path>
                        <path d="M86.8778416,174.159895 C86.2077404,174.159895 85.5376392,173.885466 85.054543,173.345963 L77.7332977,165.194171 C76.8294403,164.186891 76.9167093,162.636991 77.9234195,161.732622 C78.9270129,160.828253 80.4760375,160.909334 81.379895,161.916614 L88.7011402,170.071525 C89.6049976,171.078805 89.5208454,172.628706 88.5110185,173.533074 C88.0466227,173.954073 87.4606738,174.159895 86.8778416,174.159895" id="Fill-82" fill="#ED145B"></path>
                    </g>
                </g>
            </g>
        </g>
    </g>
</svg>