<?xml version="1.0" encoding="UTF-8"?>
<svg width="361px" height="410px" viewBox="0 0 361 410" version="1.1" xmlns="http://www.w3.org/2000/svg" xmlns:xlink="http://www.w3.org/1999/xlink">
    <!-- Generator: Sketch 49.3 (51167) - http://www.bohemiancoding.com/sketch -->
    <title>search-header-icon</title>
    <desc>Created with Sketch.</desc>
    <defs>
        <filter x="-9.5%" y="-241.0%" width="118.9%" height="582.0%" filterUnits="objectBoundingBox" id="filter-1">
            <feGaussianBlur stdDeviation="10.4436384" in="SourceGraphic"></feGaussianBlur>
        </filter>
    </defs>
    <g id="Desktop-UI" stroke="none" stroke-width="1" fill="none" fill-rule="evenodd">
        <g id="Search" transform="translate(-406.000000, -287.000000)">
            <g id="search-header-icon" transform="translate(417.000000, 284.000000)">
                <g id="Icon/Free/Search" transform="translate(167.737317, 167.783713) rotate(3.000000) translate(-167.737317, -167.783713) translate(8.484571, 8.530968)">
                    <g id="Page-1" transform="translate(1.832049, 2.178351)">
                        <path d="M304.147546,185.494992 L9.59089741,185.494992 C5.55863665,185.494992 2.29006163,182.232785 2.29006163,178.205332 L2.29006163,9.57667334 C2.29006163,5.55226855 5.55863665,2.29006163 9.59089741,2.29006163 L304.147546,2.29006163 C308.179807,2.29006163 311.448382,5.55226855 311.448382,9.57667334 L311.448382,178.205332 C311.448382,182.232785 308.179807,185.494992 304.147546,185.494992" id="Fill-1" fill="#77BBE6"></path>
                        <path d="M6.40146195,181.420789 L307.336982,181.420789 L307.336982,6.3672837 L6.40146195,6.3672837 L6.40146195,181.420789 Z M307.986846,187.785054 L5.75159816,187.785054 C2.58123466,187.785054 0,185.221837 0,182.069896 L0,5.72119612 C0,2.56623572 2.58123466,0 5.75159816,0 L307.986846,0 C311.160246,0 313.738444,2.56623572 313.738444,5.72119612 L313.738444,182.069896 C313.738444,185.221837 311.160246,187.785054 307.986846,187.785054 Z" id="Fill-3" fill="#00587E"></path>
                        <path d="M287.064521,167.174499 L28.9609332,167.174499 C25.6134168,167.174499 22.9006163,164.467843 22.9006163,161.131662 L22.9006163,28.9404125 C22.9006163,25.604231 25.6134168,22.9006163 28.9609332,22.9006163 L287.064521,22.9006163 C290.412037,22.9006163 293.127889,25.604231 293.127889,28.9404125 L293.127889,161.131662 C293.127889,164.467843 290.412037,167.174499 287.064521,167.174499" id="Fill-5" fill="#FFFFFF"></path>
                        <path d="M27.0030456,165.324388 L289.02546,165.324388 L289.02546,27.0438397 L27.0030456,27.0438397 L27.0030456,165.324388 Z M290.107546,171.754622 L25.9239907,171.754622 C22.9959935,171.754622 20.6105547,169.357011 20.6105547,166.410329 L20.6105547,25.9548484 C20.6105547,23.0112163 22.9959935,20.6105547 25.9239907,20.6105547 L290.107546,20.6105547 C293.035543,20.6105547 295.417951,23.0112163 295.417951,25.9548484 L295.417951,166.410329 C295.417951,169.357011 293.035543,171.754622 290.107546,171.754622 Z" id="Fill-6" fill="#1C648C"></path>
                        <path d="M40.1300777,45.8012327 L26.2817097,45.8012327 C24.4147302,45.8012327 22.9006163,44.262937 22.9006163,42.3628811 C22.9006163,40.4660843 24.4147302,38.9310478 26.2817097,38.9310478 L40.1300777,38.9310478 C41.9970571,38.9310478 43.511171,40.4660843 43.511171,42.3628811 C43.511171,44.262937 41.9970571,45.8012327 40.1300777,45.8012327" id="Fill-7" fill="#1C648C"></path>
                        <path d="M40.1300777,66.4117874 L26.2817097,66.4117874 C24.4147302,66.4117874 22.9006163,64.8734917 22.9006163,62.9766949 C22.9006163,61.076639 24.4147302,59.5416025 26.2817097,59.5416025 L40.1300777,59.5416025 C41.9970571,59.5416025 43.511171,61.076639 43.511171,62.9766949 C43.511171,64.8734917 41.9970571,66.4117874 40.1300777,66.4117874" id="Fill-8" fill="#1C648C"></path>
                        <path d="M40.1300777,84.7322804 L26.2817097,84.7322804 C24.4147302,84.7322804 22.9006163,83.1939848 22.9006163,81.297188 C22.9006163,79.3971321 24.4147302,77.8620955 26.2817097,77.8620955 L40.1300777,77.8620955 C41.9970571,77.8620955 43.511171,79.3971321 43.511171,81.297188 C43.511171,83.1939848 41.9970571,84.7322804 40.1300777,84.7322804" id="Fill-9" fill="#1C648C"></path>
                        <path d="M40.1300777,103.052773 L26.2817097,103.052773 C24.4147302,103.052773 22.9006163,101.514478 22.9006163,99.617681 C22.9006163,97.7176252 24.4147302,96.1825886 26.2817097,96.1825886 L40.1300777,96.1825886 C41.9970571,96.1825886 43.511171,97.7176252 43.511171,99.617681 C43.511171,101.514478 41.9970571,103.052773 40.1300777,103.052773" id="Fill-10" fill="#1C648C"></path>
                        <path d="M40.1300777,121.373267 L26.2817097,121.373267 C24.4147302,121.373267 22.9006163,119.834971 22.9006163,117.938174 C22.9006163,116.038118 24.4147302,114.503082 26.2817097,114.503082 L40.1300777,114.503082 C41.9970571,114.503082 43.511171,116.038118 43.511171,117.938174 C43.511171,119.834971 41.9970571,121.373267 40.1300777,121.373267" id="Fill-11" fill="#1C648C"></path>
                        <path d="M40.1300777,141.983821 L26.2817097,141.983821 C24.4147302,141.983821 22.9006163,140.445526 22.9006163,138.548729 C22.9006163,136.648673 24.4147302,135.113636 26.2817097,135.113636 L40.1300777,135.113636 C41.9970571,135.113636 43.511171,136.648673 43.511171,138.548729 C43.511171,140.445526 41.9970571,141.983821 40.1300777,141.983821" id="Fill-12" fill="#1C648C"></path>
                        <path d="M51.5263867,169.464561 C49.62959,169.464561 48.0912943,167.950447 48.0912943,166.083468 L48.0912943,152.238307 C48.0912943,150.36812 49.62959,148.854006 51.5263867,148.854006 C53.4231835,148.854006 54.9614792,150.36812 54.9614792,152.238307 L54.9614792,166.083468 C54.9614792,167.950447 53.4231835,169.464561 51.5263867,169.464561" id="Fill-13" fill="#1C648C"></path>
                        <path d="M69.8468798,169.464561 C67.950083,169.464561 66.4117874,167.950447 66.4117874,166.083468 L66.4117874,152.238307 C66.4117874,150.36812 67.950083,148.854006 69.8468798,148.854006 C71.7436766,148.854006 73.2819723,150.36812 73.2819723,152.238307 L73.2819723,166.083468 C73.2819723,167.950447 71.7436766,169.464561 69.8468798,169.464561" id="Fill-14" fill="#1C648C"></path>
                        <path d="M88.1673729,169.464561 C86.2705761,169.464561 84.7322804,167.950447 84.7322804,166.083468 L84.7322804,152.238307 C84.7322804,150.36812 86.2705761,148.854006 88.1673729,148.854006 C90.0674288,148.854006 91.6024653,150.36812 91.6024653,152.238307 L91.6024653,166.083468 C91.6024653,167.950447 90.0674288,169.464561 88.1673729,169.464561" id="Fill-15" fill="#1C648C"></path>
                        <path d="M108.777928,169.464561 C106.881131,169.464561 105.342835,167.950447 105.342835,166.083468 L105.342835,152.238307 C105.342835,150.36812 106.881131,148.854006 108.777928,148.854006 C110.677983,148.854006 112.21302,150.36812 112.21302,152.238307 L112.21302,166.083468 C112.21302,167.950447 110.677983,169.464561 108.777928,169.464561" id="Fill-16" fill="#1C648C"></path>
                        <path d="M129.388482,169.464561 C127.491686,169.464561 125.95339,167.950447 125.95339,166.083468 L125.95339,152.238307 C125.95339,150.36812 127.491686,148.854006 129.388482,148.854006 C131.285279,148.854006 132.823575,150.36812 132.823575,152.238307 L132.823575,166.083468 C132.823575,167.950447 131.285279,169.464561 129.388482,169.464561" id="Fill-17" fill="#1C648C"></path>
                        <path d="M145.418914,169.464561 C143.522117,169.464561 141.983821,167.950447 141.983821,166.083468 L141.983821,152.238307 C141.983821,150.36812 143.522117,148.854006 145.418914,148.854006 C147.31571,148.854006 148.854006,150.36812 148.854006,152.238307 L148.854006,166.083468 C148.854006,167.950447 147.31571,169.464561 145.418914,169.464561" id="Fill-18" fill="#1C648C"></path>
                        <path d="M168.31953,169.464561 C166.422733,169.464561 164.884438,167.950447 164.884438,166.083468 L164.884438,152.238307 C164.884438,150.36812 166.422733,148.854006 168.31953,148.854006 C170.219586,148.854006 171.754622,150.36812 171.754622,152.238307 L171.754622,166.083468 C171.754622,167.950447 170.219586,169.464561 168.31953,169.464561" id="Fill-19" fill="#1C648C"></path>
                        <path d="M184.349961,169.464561 C182.453165,169.464561 180.914869,167.950447 180.914869,166.083468 L180.914869,152.238307 C180.914869,150.36812 182.453165,148.854006 184.349961,148.854006 C186.250017,148.854006 187.785054,150.36812 187.785054,152.238307 L187.785054,166.083468 C187.785054,167.950447 186.250017,169.464561 184.349961,169.464561" id="Fill-20" fill="#1C648C"></path>
                        <path d="M204.960516,169.464561 C203.063719,169.464561 201.525424,167.950447 201.525424,166.083468 L201.525424,152.238307 C201.525424,150.36812 203.063719,148.854006 204.960516,148.854006 C206.860572,148.854006 208.395609,150.36812 208.395609,152.238307 L208.395609,166.083468 C208.395609,167.950447 206.860572,169.464561 204.960516,169.464561" id="Fill-21" fill="#1C648C"></path>
                        <path d="M223.282638,169.464561 C221.383483,169.464561 219.845917,167.950447 219.845917,166.083468 L219.845917,152.238307 C219.845917,150.36812 221.383483,148.854006 223.282638,148.854006 C225.178535,148.854006 226.716102,150.36812 226.716102,152.238307 L226.716102,166.083468 C226.716102,167.950447 225.178535,169.464561 223.282638,169.464561" id="Fill-22" fill="#1C648C"></path>
                        <path d="M243.891564,169.464561 C241.991508,169.464561 240.456471,167.950447 240.456471,166.083468 L240.456471,152.238307 C240.456471,150.36812 241.991508,148.854006 243.891564,148.854006 C245.788361,148.854006 247.326656,150.36812 247.326656,152.238307 L247.326656,166.083468 C247.326656,167.950447 245.788361,169.464561 243.891564,169.464561" id="Fill-23" fill="#1C648C"></path>
                        <path d="M262.212057,169.464561 C260.312001,169.464561 258.776965,167.950447 258.776965,166.083468 L258.776965,152.238307 C258.776965,150.36812 260.312001,148.854006 262.212057,148.854006 C264.108854,148.854006 265.647149,150.36812 265.647149,152.238307 L265.647149,166.083468 C265.647149,167.950447 264.108854,169.464561 262.212057,169.464561" id="Fill-24" fill="#1C648C"></path>
                        <path d="M51.291987,141.983821 C50.6265259,141.983821 49.9580262,141.778145 49.3837242,141.345305 C47.961643,140.277019 47.669934,138.24789 48.7243404,136.814299 L93.5624397,75.9772459 L144.848523,95.9922618 L206.03144,75.5720339 L206.648283,75.6119411 L258.05895,78.8106599 C259.824397,78.9181025 261.167474,80.4529964 261.061122,82.236543 C260.951731,84.0231595 259.438491,85.3861452 257.666966,85.2664235 L206.870104,82.1106817 L144.681398,102.865516 L95.7958365,83.7867858 L53.8657109,140.682231 C53.2367135,141.535632 52.2704275,141.983821 51.291987,141.983821" id="Fill-25" fill="#2992CC"></path>
                        <path d="M105.342835,80.15056 C105.342835,86.4722673 100.218311,91.6024653 93.892527,91.6024653 C87.5699377,91.6024653 82.4422188,86.4722673 82.4422188,80.15056 C82.4422188,73.8288527 87.5699377,68.701849 93.892527,68.701849 C100.218311,68.701849 105.342835,73.8288527 105.342835,80.15056" id="Fill-26" fill="#1F6FA4"></path>
                        <path d="M95.0391623,73.1765657 C90.5624708,73.1765657 86.9201446,76.822101 86.9201446,81.2955834 C86.9201446,85.7754841 90.5624708,89.4178102 95.0391623,89.4178102 C99.5158539,89.4178102 103.15818,85.7754841 103.15818,81.2955834 C103.15818,76.822101 99.5158539,73.1765657 95.0391623,73.1765657 M95.0391623,96.1825886 C86.8302899,96.1825886 80.1521572,89.5044559 80.1521572,81.2955834 C80.1521572,73.0899201 86.8302899,66.4117874 95.0391623,66.4117874 C103.248035,66.4117874 109.922958,73.0899201 109.922958,81.2955834 C109.922958,89.5044559 103.248035,96.1825886 95.0391623,96.1825886" id="Fill-27" fill="#2992CC"></path>
                        <path d="M158.014253,98.4711418 C158.014253,106.061606 151.862164,112.21302 144.273883,112.21302 C136.685602,112.21302 130.533513,106.061606 130.533513,98.4711418 C130.533513,90.8836942 136.685602,84.7322804 144.273883,84.7322804 C151.862164,84.7322804 158.014253,90.8836942 158.014253,98.4711418" id="Fill-28" fill="#1F6FA4"></path>
                        <path d="M145.418914,86.6076933 C139.507958,86.6076933 134.699563,91.415659 134.699563,97.3260882 C134.699563,103.23958 139.507958,108.044483 145.418914,108.044483 C151.32987,108.044483 156.138264,103.23958 156.138264,97.3260882 C156.138264,91.415659 151.32987,86.6076933 145.418914,86.6076933 M145.418914,114.503082 C135.946071,114.503082 128.243451,106.798087 128.243451,97.3260882 C128.243451,87.8571519 135.946071,80.1521572 145.418914,80.1521572 C154.888694,80.1521572 162.594376,87.8571519 162.594376,97.3260882 C162.594376,106.798087 154.888694,114.503082 145.418914,114.503082" id="Fill-29" fill="#2992CC"></path>
                        <path d="M270.227273,82.4422188 C270.227273,88.7667094 265.101455,93.892527 258.776965,93.892527 C252.452474,93.892527 247.326656,88.7667094 247.326656,82.4422188 C247.326656,76.1210394 252.452474,70.9919106 258.776965,70.9919106 C265.101455,70.9919106 270.227273,76.1210394 270.227273,82.4422188" id="Fill-30" fill="#1F6FA4"></path>
                        <path d="M258.776965,75.1220417 C254.741949,75.1220417 251.459121,78.4052333 251.459121,82.440696 C251.459121,86.4792043 254.741949,89.7623959 258.776965,89.7623959 C262.815025,89.7623959 266.097853,86.4792043 266.097853,82.440696 C266.097853,78.4052333 262.815025,75.1220417 258.776965,75.1220417 M258.776965,96.1825886 C251.200271,96.1825886 245.036595,90.0212746 245.036595,82.440696 C245.036595,74.863163 251.200271,68.701849 258.776965,68.701849 C266.353658,68.701849 272.517334,74.863163 272.517334,82.440696 C272.517334,90.0212746 266.353658,96.1825886 258.776965,96.1825886" id="Fill-31" fill="#2992CC"></path>
                        <path d="M226.716102,80.1536617 C226.716102,91.5339256 217.489651,100.762712 206.105547,100.762712 C194.721443,100.762712 185.494992,91.5339256 185.494992,80.1536617 C185.494992,68.7703887 194.721443,59.5416025 206.105547,59.5416025 C217.489651,59.5416025 226.716102,68.7703887 226.716102,80.1536617" id="Fill-32" fill="#1F6FA4"></path>
                        <path d="M204.960516,61.3752745 C195.239418,61.3752745 187.328664,69.2860277 187.328664,79.0071263 C187.328664,88.728225 195.239418,96.6389782 204.960516,96.6389782 C214.681615,96.6389782 222.592368,88.728225 222.592368,79.0071263 C222.592368,69.2860277 214.681615,61.3752745 204.960516,61.3752745 M204.960516,103.052773 C191.700877,103.052773 180.914869,92.2637232 180.914869,79.0071263 C180.914869,65.7474869 191.700877,54.9614792 204.960516,54.9614792 C218.220156,54.9614792 229.006163,65.7474869 229.006163,79.0071263 C229.006163,92.2637232 218.220156,103.052773 204.960516,103.052773" id="Fill-33" fill="#2992CC"></path>
                        <path d="M303.846512,311.794684 L230.430453,311.794684 C227.304851,311.794684 224.772342,309.21733 224.772342,306.036381 L224.772342,246.561077 C224.772342,243.380127 227.304851,240.802773 230.430453,240.802773 L303.846512,240.802773 C306.972114,240.802773 309.504622,243.380127 309.504622,246.561077 L309.504622,306.036381 C309.504622,309.21733 306.972114,311.794684 303.846512,311.794684" id="Fill-34" fill="#77BBE6"></path>
                        <path d="M226.300053,307.331704 L307.287368,307.331704 L307.287368,242.280051 L226.300053,242.280051 L226.300053,307.331704 Z M308.462517,313.738444 L225.121844,313.738444 C222.214575,313.738444 219.845917,311.387179 219.845917,308.498222 L219.845917,241.113532 C219.845917,238.224575 222.214575,235.876348 225.121844,235.876348 L308.462517,235.876348 C311.372845,235.876348 313.738444,238.224575 313.738444,241.113532 L313.738444,308.498222 C313.738444,311.387179 311.372845,313.738444 308.462517,313.738444 Z" id="Fill-35" fill="#00587E"></path>
                        <path d="M153.494678,206.524644 L153.494678,224.591322 C153.494678,225.762675 154.499622,226.716102 155.744601,226.716102 L157.994523,226.716102 C159.236301,226.716102 160.241245,225.762675 160.241245,224.591322 L160.241245,206.524644 L164.920315,206.524644 C166.923802,206.524644 167.928746,204.233393 166.510943,202.895569 L158.458589,195.277236 C157.581664,194.447906 156.15746,194.447906 155.277334,195.277236 L147.228181,202.895569 C145.810378,204.233393 146.812121,206.524644 148.818809,206.524644 L153.494678,206.524644 Z" id="Fill-36" fill="#FF385E"></path>
                        <path d="M43.571792,206.524644 L43.571792,224.591322 C43.571792,225.762675 44.5767306,226.716102 45.8217024,226.716102 L48.0716127,226.716102 C49.3133841,226.716102 50.3183227,225.762675 50.3183227,224.591322 L50.3183227,206.524644 L54.9973682,206.524644 C57.0008446,206.524644 58.0057832,204.233393 56.5879876,202.895569 L48.5356768,195.277236 C47.6587558,194.447906 46.2345593,194.447906 45.3544379,195.277236 L37.3053275,202.895569 C35.8875319,204.233393 36.8892701,206.524644 38.8927465,206.524644 L43.571792,206.524644 Z" id="Fill-37" fill="#FF385E"></path>
                        <path d="M263.417637,206.524644 L263.417637,224.591322 C263.417637,225.762675 264.425781,226.716102 265.667559,226.716102 L267.917481,226.716102 C269.159259,226.716102 270.164203,225.762675 270.164203,224.591322 L270.164203,206.524644 L274.843273,206.524644 C276.84676,206.524644 277.851704,204.233393 276.433901,202.895569 L268.381548,195.277236 C267.504622,194.447906 266.080418,194.447906 265.200292,195.277236 L257.151139,202.895569 C255.733336,204.233393 256.73508,206.524644 258.741767,206.524644 L263.417637,206.524644 Z" id="Fill-38" fill="#FF385E"></path>
                        <path d="M193.94729,311.794684 L118.061473,311.794684 C114.830724,311.794684 112.21302,309.21733 112.21302,306.036381 L112.21302,246.561077 C112.21302,243.380127 114.830724,240.802773 118.061473,240.802773 L193.94729,240.802773 C197.178039,240.802773 199.795742,243.380127 199.795742,246.561077 L199.795742,306.036381 C199.795742,309.21733 197.178039,311.794684 193.94729,311.794684" id="Fill-39" fill="#77BBE6"></path>
                        <path d="M116.376884,307.331704 L197.36462,307.331704 L197.36462,242.280051 L116.376884,242.280051 L116.376884,307.331704 Z M198.53667,313.738444 L115.201774,313.738444 C112.29154,313.738444 109.922958,311.387179 109.922958,308.498222 L109.922958,241.113532 C109.922958,238.224575 112.29154,235.876348 115.201774,235.876348 L198.53667,235.876348 C201.449964,235.876348 203.815485,238.224575 203.815485,241.113532 L203.815485,308.498222 C203.815485,311.387179 201.449964,313.738444 198.53667,313.738444 Z" id="Fill-40" fill="#00587E"></path>
                        <path d="M84.0243316,309.15832 L8.13851417,309.15832 C4.90776523,309.15832 2.29006163,306.580967 2.29006163,303.400017 L2.29006163,243.924713 C2.29006163,240.743764 4.90776523,238.16641 8.13851417,238.16641 L84.0243316,238.16641 C87.2550805,238.16641 89.8727841,240.743764 89.8727841,243.924713 L89.8727841,303.400017 C89.8727841,306.580967 87.2550805,309.15832 84.0243316,309.15832" id="Fill-41" fill="#77BBE6"></path>
                        <path d="M6.45086523,307.331704 L87.4386016,307.331704 L87.4386016,242.280051 L6.45086523,242.280051 L6.45086523,307.331704 Z M88.6137117,313.738444 L5.27881523,313.738444 C2.36858144,313.738444 0,311.387179 0,308.498222 L0,241.113532 C0,238.224575 2.36858144,235.876348 5.27881523,235.876348 L88.6137117,235.876348 C91.5239455,235.876348 93.892527,238.224575 93.892527,241.113532 L93.892527,308.498222 C93.892527,311.387179 91.5239455,313.738444 88.6137117,313.738444 Z" id="Fill-42" fill="#00587E"></path>
                        <path d="M47.2191084,256.486903 L14.6125557,256.486903 C12.8634188,256.486903 11.4503082,254.945348 11.4503082,253.048551 C11.4503082,251.151755 12.8634188,249.616718 14.6125557,249.616718 L47.2191084,249.616718 C48.9652451,249.616718 50.3813559,251.151755 50.3813559,253.048551 C50.3813559,254.945348 48.9652451,256.486903 47.2191084,256.486903" id="Fill-43" fill="#1C648C"></path>
                        <path d="M79.2321224,256.486903 L58.1715756,256.486903 C56.3990176,256.486903 54.9614792,254.945348 54.9614792,253.048551 C54.9614792,251.151755 56.3990176,249.616718 58.1715756,249.616718 L79.2321224,249.616718 C81.0046804,249.616718 82.4422188,251.151755 82.4422188,253.048551 C82.4422188,254.945348 81.0046804,256.486903 79.2321224,256.486903" id="Fill-44" fill="#1C648C"></path>
                        <path d="M30.9155061,272.517334 L14.8857266,272.517334 C12.9887498,272.517334 11.4503082,270.976511 11.4503082,269.080613 C11.4503082,267.184716 12.9887498,265.647149 14.8857266,265.647149 L30.9155061,265.647149 C32.8124829,265.647149 34.3509245,267.184716 34.3509245,269.080613 C34.3509245,270.976511 32.8124829,272.517334 30.9155061,272.517334" id="Fill-45" fill="#1C648C"></path>
                        <path d="M72.9917905,272.517334 L42.8964992,272.517334 C41.0892912,272.517334 39.6236518,270.976511 39.6236518,269.080613 C39.6236518,267.184716 41.0892912,265.647149 42.8964992,265.647149 L72.9917905,265.647149 C74.7989985,265.647149 76.2646379,267.184716 76.2646379,269.080613 C76.2646379,270.976511 74.7989985,272.517334 72.9917905,272.517334" id="Fill-46" fill="#1C648C"></path>
                        <path d="M40.2474904,283.967643 L14.7139888,283.967643 C12.9118426,283.967643 11.4503082,282.426819 11.4503082,280.530921 C11.4503082,278.635024 12.9118426,277.097458 14.7139888,277.097458 L40.2474904,277.097458 C42.0496366,277.097458 43.511171,278.635024 43.511171,280.530921 C43.511171,282.426819 42.0496366,283.967643 40.2474904,283.967643" id="Fill-47" fill="#1C648C"></path>
                        <path d="M77.1105596,283.967643 L67.1633233,283.967643 C65.4838074,283.967643 64.1217257,282.426819 64.1217257,280.530921 C64.1217257,278.635024 65.4838074,277.097458 67.1633233,277.097458 L77.1105596,277.097458 C78.7900755,277.097458 80.1521572,278.635024 80.1521572,280.530921 C80.1521572,282.426819 78.7900755,283.967643 77.1105596,283.967643" id="Fill-48" fill="#1C648C"></path>
                        <path d="M59.1363685,283.967643 L49.1891323,283.967643 C47.5096163,283.967643 46.1475347,282.426819 46.1475347,280.530921 C46.1475347,278.635024 47.5096163,277.097458 49.1891323,277.097458 L59.1363685,277.097458 C60.8158844,277.097458 62.1779661,278.635024 62.1779661,280.530921 C62.1779661,282.426819 60.8158844,283.967643 59.1363685,283.967643" id="Fill-49" fill="#1C648C"></path>
                        <path d="M42.5494027,295.417951 L14.7021381,295.417951 C12.9065356,295.417951 11.4503082,293.879655 11.4503082,291.979599 C11.4503082,290.082802 12.9065356,288.547766 14.7021381,288.547766 L42.5494027,288.547766 C44.3450052,288.547766 45.8012327,290.082802 45.8012327,291.979599 C45.8012327,293.879655 44.3450052,295.417951 42.5494027,295.417951" id="Fill-50" fill="#1C648C"></path>
                        <path d="M76.8482708,295.417951 L51.3951806,295.417951 C49.5708335,295.417951 48.0912943,293.879655 48.0912943,291.979599 C48.0912943,290.082802 49.5708335,288.547766 51.3951806,288.547766 L76.8482708,288.547766 C78.6726179,288.547766 80.1521572,290.082802 80.1521572,291.979599 C80.1521572,293.879655 78.6726179,295.417951 76.8482708,295.417951" id="Fill-51" fill="#1C648C"></path>
                        <path d="M159.432128,256.486903 L126.825576,256.486903 C125.079439,256.486903 123.663328,254.945348 123.663328,253.048551 C123.663328,251.151755 125.079439,249.616718 126.825576,249.616718 L159.432128,249.616718 C161.178265,249.616718 162.594376,251.151755 162.594376,253.048551 C162.594376,254.945348 161.178265,256.486903 159.432128,256.486903" id="Fill-52" fill="#1C648C"></path>
                        <path d="M189.155081,256.486903 L168.094534,256.486903 C166.321976,256.486903 164.884438,254.945348 164.884438,253.048551 C164.884438,251.151755 166.321976,249.616718 168.094534,249.616718 L189.155081,249.616718 C190.927639,249.616718 192.365177,251.151755 192.365177,253.048551 C192.365177,254.945348 190.927639,256.486903 189.155081,256.486903" id="Fill-53" fill="#1C648C"></path>
                        <path d="M143.128526,272.517334 L127.098747,272.517334 C125.20177,272.517334 123.663328,270.976511 123.663328,269.080613 C123.663328,267.184716 125.20177,265.647149 127.098747,265.647149 L143.128526,265.647149 C145.025503,265.647149 146.563945,267.184716 146.563945,269.080613 C146.563945,270.976511 145.025503,272.517334 143.128526,272.517334" id="Fill-54" fill="#1C648C"></path>
                        <path d="M182.914749,272.517334 L152.819458,272.517334 C151.01225,272.517334 149.54661,270.976511 149.54661,269.080613 C149.54661,267.184716 151.01225,265.647149 152.819458,265.647149 L182.914749,265.647149 C184.721957,265.647149 186.187596,267.184716 186.187596,269.080613 C186.187596,270.976511 184.721957,272.517334 182.914749,272.517334" id="Fill-55" fill="#1C648C"></path>
                        <path d="M152.46051,283.967643 L126.927009,283.967643 C125.124863,283.967643 123.663328,282.426819 123.663328,280.530921 C123.663328,278.635024 125.124863,277.097458 126.927009,277.097458 L152.46051,277.097458 C154.265753,277.097458 155.724191,278.635024 155.724191,280.530921 C155.724191,282.426819 154.265753,283.967643 152.46051,283.967643" id="Fill-56" fill="#1C648C"></path>
                        <path d="M189.669882,283.967643 L179.722645,283.967643 C178.043129,283.967643 176.681048,282.426819 176.681048,280.530921 C176.681048,278.635024 178.043129,277.097458 179.722645,277.097458 L189.669882,277.097458 C191.349398,277.097458 192.711479,278.635024 192.711479,280.530921 C192.711479,282.426819 191.349398,283.967643 189.669882,283.967643" id="Fill-57" fill="#1C648C"></path>
                        <path d="M171.003087,283.967643 L161.05585,283.967643 C159.376334,283.967643 158.014253,282.426819 158.014253,280.530921 C158.014253,278.635024 159.376334,277.097458 161.05585,277.097458 L171.003087,277.097458 C172.682602,277.097458 174.044684,278.635024 174.044684,280.530921 C174.044684,282.426819 172.682602,283.967643 171.003087,283.967643" id="Fill-58" fill="#1C648C"></path>
                        <path d="M154.762423,295.417951 L126.915158,295.417951 C125.119556,295.417951 123.663328,293.879655 123.663328,291.979599 C123.663328,290.082802 125.119556,288.547766 126.915158,288.547766 L154.762423,288.547766 C156.558025,288.547766 158.014253,290.082802 158.014253,291.979599 C158.014253,293.879655 156.558025,295.417951 154.762423,295.417951" id="Fill-59" fill="#1C648C"></path>
                        <path d="M189.061291,295.417951 L163.608201,295.417951 C161.783854,295.417951 160.304314,293.879655 160.304314,291.979599 C160.304314,290.082802 161.783854,288.547766 163.608201,288.547766 L189.061291,288.547766 C190.888773,288.547766 192.365177,290.082802 192.365177,291.979599 C192.365177,293.879655 190.888773,295.417951 189.061291,295.417951" id="Fill-60" fill="#1C648C"></path>
                        <path d="M269.35233,256.486903 L236.74829,256.486903 C235.002288,256.486903 233.586287,254.945348 233.586287,253.048551 C233.586287,251.151755 235.002288,249.616718 236.74829,249.616718 L269.35233,249.616718 C271.101333,249.616718 272.517334,251.151755 272.517334,253.048551 C272.517334,254.945348 271.101333,256.486903 269.35233,256.486903" id="Fill-61" fill="#1C648C"></path>
                        <path d="M299.078039,256.486903 L278.017492,256.486903 C276.241889,256.486903 274.807396,254.945348 274.807396,253.048551 C274.807396,251.151755 276.241889,249.616718 278.017492,249.616718 L299.078039,249.616718 C300.853643,249.616718 302.288136,251.151755 302.288136,253.048551 C302.288136,254.945348 300.853643,256.486903 299.078039,256.486903" id="Fill-62" fill="#1C648C"></path>
                        <path d="M253.051485,272.517334 L237.021705,272.517334 C235.124728,272.517334 233.586287,270.976511 233.586287,269.080613 C233.586287,267.184716 235.124728,265.647149 237.021705,265.647149 L253.051485,265.647149 C254.951721,265.647149 256.486903,267.184716 256.486903,269.080613 C256.486903,270.976511 254.951721,272.517334 253.051485,272.517334" id="Fill-63" fill="#1C648C"></path>
                        <path d="M295.127769,272.517334 L265.032478,272.517334 C263.22527,272.517334 261.75963,270.976511 261.75963,269.080613 C261.75963,267.184716 263.22527,265.647149 265.032478,265.647149 L295.127769,265.647149 C296.938082,265.647149 298.400616,267.184716 298.400616,269.080613 C298.400616,270.976511 296.938082,272.517334 295.127769,272.517334" id="Fill-64" fill="#1C648C"></path>
                        <path d="M262.383469,283.967643 L236.849967,283.967643 C235.047821,283.967643 233.586287,282.426819 233.586287,280.530921 C233.586287,278.635024 235.047821,277.097458 236.849967,277.097458 L262.383469,277.097458 C264.188712,277.097458 265.647149,278.635024 265.647149,280.530921 C265.647149,282.426819 264.188712,283.967643 262.383469,283.967643" id="Fill-65" fill="#1C648C"></path>
                        <path d="M299.246538,283.967643 L289.299302,283.967643 C287.619786,283.967643 286.257704,282.426819 286.257704,280.530921 C286.257704,278.635024 287.619786,277.097458 289.299302,277.097458 L299.246538,277.097458 C300.92894,277.097458 302.288136,278.635024 302.288136,280.530921 C302.288136,282.426819 300.92894,283.967643 299.246538,283.967643" id="Fill-66" fill="#1C648C"></path>
                        <path d="M280.926045,283.967643 L270.978809,283.967643 C269.299293,283.967643 267.937211,282.426819 267.937211,280.530921 C267.937211,278.635024 269.299293,277.097458 270.978809,277.097458 L280.926045,277.097458 C282.608447,277.097458 283.967643,278.635024 283.967643,280.530921 C283.967643,282.426819 282.608447,283.967643 280.926045,283.967643" id="Fill-67" fill="#1C648C"></path>
                        <path d="M264.685381,295.417951 L236.838117,295.417951 C235.042514,295.417951 233.586287,293.879655 233.586287,291.979599 C233.586287,290.082802 235.042514,288.547766 236.838117,288.547766 L264.685381,288.547766 C266.480984,288.547766 267.937211,290.082802 267.937211,291.979599 C267.937211,293.879655 266.480984,295.417951 264.685381,295.417951" id="Fill-68" fill="#1C648C"></path>
                        <path d="M301.274311,295.417951 L275.821221,295.417951 C273.996874,295.417951 272.517334,293.879655 272.517334,291.979599 C272.517334,290.082802 273.996874,288.547766 275.821221,288.547766 L301.274311,288.547766 C303.101793,288.547766 304.578197,290.082802 304.578197,291.979599 C304.578197,293.879655 303.101793,295.417951 301.274311,295.417951" id="Fill-69" fill="#1C648C"></path>
                        <path d="M302.288136,82.4422188 C301.024204,82.4422188 299.998074,81.501631 299.998074,80.3363806 L299.998074,47.9070709 C299.998074,46.7418204 301.024204,45.8012327 302.288136,45.8012327 C303.552067,45.8012327 304.578197,46.7418204 304.578197,47.9070709 L304.578197,80.3363806 C304.578197,81.501631 303.552067,82.4422188 302.288136,82.4422188" id="Fill-70" fill="#FFFFFF"></path>
                        <path d="M302.288136,43.511171 C301.024204,43.511171 299.998074,42.566671 299.998074,41.3965738 L299.998074,31.8853984 C299.998074,30.7153013 301.024204,29.7708012 302.288136,29.7708012 C303.552067,29.7708012 304.578197,30.7153013 304.578197,31.8853984 L304.578197,41.3965738 C304.578197,42.566671 303.552067,43.511171 302.288136,43.511171" id="Fill-71" fill="#FFFFFF"></path>
                        <path d="M302.414958,18.3204931 C301.221023,18.3204931 300.251719,17.4735209 300.251719,16.4269439 L300.251719,12.9500423 L242.61971,12.9500423 C241.425775,12.9500423 240.456471,12.1003728 240.456471,11.0537957 C240.456471,10.0072187 241.425775,9.16024653 242.61971,9.16024653 L304.578197,9.16024653 L304.578197,16.4269439 C304.578197,17.4735209 303.608894,18.3204931 302.414958,18.3204931" id="Fill-72" fill="#FFFFFF"></path>
                        <path d="M224.625135,13.7403698 L192.163107,13.7403698 C191.009061,13.7403698 190.075116,12.7167693 190.075116,11.4486782 C190.075116,10.183847 191.009061,9.16024653 192.163107,9.16024653 L224.625135,9.16024653 C225.779182,9.16024653 226.716102,10.183847 226.716102,11.4486782 C226.716102,12.7167693 225.779182,13.7403698 224.625135,13.7403698" id="Fill-73" fill="#FFFFFF"></path>
                        <path d="M179.094387,13.7403698 L175.865167,13.7403698 C174.860405,13.7403698 174.044684,12.7167693 174.044684,11.4486782 C174.044684,10.183847 174.860405,9.16024653 175.865167,9.16024653 L179.094387,9.16024653 C180.099148,9.16024653 180.914869,10.183847 180.914869,11.4486782 C180.914869,12.7167693 180.099148,13.7403698 179.094387,13.7403698" id="Fill-74" fill="#FFFFFF"></path>
                        <path d="M94.1106281,178.624807 L57.0334397,178.624807 C55.8898826,178.624807 54.9614792,177.601207 54.9614792,176.333116 C54.9614792,175.068285 55.8898826,174.044684 57.0334397,174.044684 L94.1106281,174.044684 C95.2541852,174.044684 96.1825886,175.068285 96.1825886,176.333116 C96.1825886,177.601207 95.2541852,178.624807 94.1106281,178.624807" id="Fill-75" fill="#2992CC"></path>
                        <path d="M9.16024653,178.624807 L9.16024653,121.27584 C9.16024653,120.063956 10.1632201,119.083205 11.3986287,119.083205 C12.6340374,119.083205 13.6370109,120.063956 13.6370109,121.27584 L13.6370109,174.236414 L17.5835015,174.236414 C18.8189102,174.236414 19.8218837,175.217165 19.8218837,176.429049 C19.8218837,177.644056 18.8189102,178.624807 17.5835015,178.624807 L9.16024653,178.624807 Z" id="Fill-76" fill="#2992CC"></path>
                        <path d="M11.4503082,112.21302 C10.1863766,112.21302 9.16024653,111.170876 9.16024653,109.883131 L9.16024653,93.9323541 C9.16024653,92.6446093 10.1863766,91.6024653 11.4503082,91.6024653 C12.7142398,91.6024653 13.7403698,92.6446093 13.7403698,93.9323541 L13.7403698,109.883131 C13.7403698,111.170876 12.7142398,112.21302 11.4503082,112.21302" id="Fill-77" fill="#2992CC"></path>
                    </g>
                </g>
                <ellipse id="Oval-3" fill-opacity="0.3" fill="#1F6FA4" style="mix-blend-mode: multiply;" filter="url(#filter-1)" cx="169.5" cy="382.5" rx="165.5" ry="6.5"></ellipse>
            </g>
        </g>
    </g>
</svg>