<?xml version="1.0" encoding="UTF-8"?>
<svg width="340px" height="395px" viewBox="0 0 340 395" version="1.1" xmlns="http://www.w3.org/2000/svg" xmlns:xlink="http://www.w3.org/1999/xlink">
    <!-- Generator: Sketch 49.3 (51167) - http://www.bohemiancoding.com/sketch -->
    <title>workflow-header-icon</title>
    <desc>Created with Sketch.</desc>
    <defs>
        <filter x="-12.0%" y="-261.1%" width="123.9%" height="622.2%" filterUnits="objectBoundingBox" id="filter-1">
            <feGaussianBlur stdDeviation="10.4436384" in="SourceGraphic"></feGaussianBlur>
        </filter>
    </defs>
    <g id="Desktop-UI" stroke="none" stroke-width="1" fill="none" fill-rule="evenodd">
        <g id="Workflow" transform="translate(-424.000000, -301.000000)">
            <g id="workflow-header-icon" transform="translate(411.000000, 286.000000)">
                <ellipse id="Oval-3" fill-opacity="0.3" fill="#1F6FA4" style="mix-blend-mode: multiply;" filter="url(#filter-1)" cx="168.872179" cy="381" rx="131" ry="6"></ellipse>
                <g id="Icon/Free/Workflow" transform="translate(184.009584, 170.859868) rotate(-6.000000) translate(-184.009584, -170.859868) translate(15.637713, 17.080226)">
                    <g id="Page-1" transform="translate(0.904379, 0.904986)">
                        <path d="M45.074601,267.542373 L35.1279661,267.542373 L35.1279661,148.513994 C35.1279661,112.587102 46.4708419,84.4779931 68.8402247,64.9660092 C108.846113,30.0620047 169.209279,35.3266278 171.752884,35.5701724 L176.241103,35.9882574 L176.241103,256.700578 L166.294468,256.700578 L166.294468,44.8532819 C151.91867,44.386488 106.209707,45.2429533 75.4713146,72.0937487 C55.3038586,89.7142026 45.074601,115.424397 45.074601,148.513994 L45.074601,267.542373 Z" id="Fill-1" fill="#1C648C"></path>
                        <path d="M64.8210617,298.788197 L15.1967028,298.788197 C8.95860669,298.788197 3.90310734,293.866307 3.90310734,287.793075 L3.90310734,239.480215 C3.90310734,233.406982 8.95860669,228.485092 15.1967028,228.485092 L64.8210617,228.485092 C71.0550939,228.485092 76.1105932,233.406982 76.1105932,239.480215 L76.1105932,287.793075 C76.1105932,293.866307 71.0550939,298.788197 64.8210617,298.788197" id="Fill-3" fill="#FFFFFF"></path>
                        <path d="M9.59913069,295.041691 L72.3620509,295.041691 L72.3620509,232.239749 L9.59913069,232.239749 L9.59913069,295.041691 Z M72.7163676,304.64679 L9.24888663,304.64679 C4.1499848,304.64679 0,300.4983 0,295.392153 L0,231.885212 C0,226.78314 4.1499848,222.6265 9.24888663,222.6265 L72.7163676,222.6265 C77.8152694,222.6265 81.9652542,226.78314 81.9652542,231.885212 L81.9652542,295.392153 C81.9652542,300.4983 77.8152694,304.64679 72.7163676,304.64679 Z" id="Fill-5" fill="#1C648C"></path>
                        <path d="M34.7888,285.708771 L17.027584,268.518049 C15.1407112,266.691783 15.1407112,263.730056 17.027584,261.89982 C18.9185587,260.073554 21.9785742,260.073554 23.865447,261.89982 L34.7888,272.472313 L60.0482844,248.024168 C61.9392592,246.193932 64.9992747,246.193932 66.8861475,248.024168 C68.7771222,249.850434 68.7771222,252.812161 66.8861475,254.642397 L34.7888,285.708771 Z" id="Fill-7" fill="#77BBE6"></path>
                        <path d="M191.667987,299.140666 L142.043628,299.140666 C135.809595,299.140666 130.754096,293.804617 130.754096,287.224633 L130.754096,234.846422 C130.754096,228.26215 135.809595,222.921811 142.043628,222.921811 L191.667987,222.921811 C197.906083,222.921811 202.961582,228.26215 202.961582,234.846422 L202.961582,287.224633 C202.961582,293.804617 197.906083,299.140666 191.667987,299.140666" id="Fill-8" fill="#FFFFFF"></path>
                        <path d="M136.450119,295.041214 L199.21304,295.041214 L199.21304,232.236151 L136.450119,232.236151 L136.450119,295.041214 Z M199.563284,304.64679 L136.095803,304.64679 C130.992828,304.64679 126.850989,300.498094 126.850989,295.391693 L126.850989,231.885672 C126.850989,226.779271 130.992828,222.6265 136.095803,222.6265 L199.563284,222.6265 C204.666258,222.6265 208.816243,226.779271 208.816243,231.885672 L208.816243,295.391693 C208.816243,300.498094 204.666258,304.64679 199.563284,304.64679 Z" id="Fill-9" fill="#1C648C"></path>
                        <path d="M186.377038,287.956947 C185.127988,287.956947 183.878939,287.480975 182.927676,286.524892 L145.844968,249.411508 C143.938306,247.51176 143.938306,244.420012 145.844968,242.516125 C147.747494,240.612238 150.832894,240.612238 152.739556,242.516125 L189.822264,279.625371 C191.728925,281.529258 191.728925,284.621005 189.822264,286.524892 C188.875137,287.480975 187.626087,287.956947 186.377038,287.956947" id="Fill-10" fill="#FF385E"></path>
                        <path d="M149.290194,287.956947 C148.041144,287.956947 146.796231,287.480975 145.844968,286.524892 C143.938306,284.621005 143.938306,281.529258 145.844968,279.625371 L182.927676,242.516125 C184.834338,240.612238 187.919738,240.612238 189.822264,242.516125 C191.728925,244.420012 191.728925,247.51176 189.822264,249.411508 L152.739556,286.524892 C151.788293,287.480975 150.539243,287.956947 149.290194,287.956947" id="Fill-11" fill="#FF385E"></path>
                        <path d="M296.636158,152.323395 L287.117228,152.323395 L287.117228,147.142493 C287.117228,114.457095 277.327827,89.057842 258.023533,71.6464818 C222.910871,39.9796205 167.371666,44.9199236 166.810541,44.9720534 L165.882062,35.5646257 C168.324366,35.3240265 226.087885,30.1270843 264.373524,64.600936 C285.781025,83.8849598 296.636158,111.650104 296.636158,147.142493 L296.636158,152.323395 Z" id="Fill-12" fill="#1C648C"></path>
                        <path d="M316.571485,183.569219 L266.943063,183.569219 C260.70903,183.569219 255.653531,178.647329 255.653531,172.574097 L255.653531,124.261236 C255.653531,118.191961 260.70903,113.266114 266.943063,113.266114 L316.571485,113.266114 C322.805518,113.266114 327.861017,118.191961 327.861017,124.261236 L327.861017,172.574097 C327.861017,178.647329 322.805518,183.569219 316.571485,183.569219" id="Fill-13" fill="#FFFFFF"></path>
                        <path d="M261.353627,179.81816 L324.116547,179.81816 L324.116547,117.013098 L261.353627,117.013098 L261.353627,179.81816 Z M324.470864,189.427811 L260.99931,189.427811 C255.900409,189.427811 251.750424,185.27504 251.750424,180.168639 L251.750424,116.658543 C251.750424,111.556218 255.900409,107.407522 260.99931,107.407522 L324.470864,107.407522 C329.569766,107.407522 333.715678,111.556218 333.715678,116.658543 L333.715678,180.168639 C333.715678,185.27504 329.569766,189.427811 324.470864,189.427811 Z" id="Fill-14" fill="#1C648C"></path>
                        <path d="M311.275546,171.852035 C310.03066,171.852035 308.781638,171.376032 307.830397,170.424025 L270.744371,133.308183 C268.837752,131.408308 268.837752,128.316356 270.744371,126.408204 C272.650991,124.50833 275.732187,124.50833 277.638807,126.408204 L314.724832,163.524046 C316.627316,165.42806 316.627316,168.515873 314.724832,170.424025 C313.77359,171.376032 312.524568,171.852035 311.275546,171.852035" id="Fill-15" fill="#FF385E"></path>
                        <path d="M274.193657,171.852035 C272.944635,171.852035 271.695613,171.376032 270.744371,170.424025 C268.837752,168.515873 268.837752,165.42806 270.744371,163.524046 L307.830397,126.408204 C309.737016,124.50833 312.818213,124.50833 314.724832,126.408204 C316.627316,128.316356 316.627316,131.408308 314.724832,133.308183 L277.638807,170.424025 C276.687565,171.376032 275.438543,171.852035 274.193657,171.852035" id="Fill-16" fill="#FF385E"></path>
                        <path d="M195.575158,74.2088334 L145.950799,74.2088334 C139.712703,74.2088334 134.657203,69.2869434 134.657203,63.2176675 L134.657203,14.904807 C134.657203,8.83157455 139.712703,3.90572807 145.950799,3.90572807 L195.575158,3.90572807 C201.80919,3.90572807 206.864689,8.83157455 206.864689,14.904807 L206.864689,63.2176675 C206.864689,69.2869434 201.80919,74.2088334 195.575158,74.2088334" id="Fill-17" fill="#FFFFFF"></path>
                        <path d="M140.353227,72.4147135 L203.116147,72.4147135 L203.116147,9.60965133 L140.353227,9.60965133 L140.353227,72.4147135 Z M203.470464,82.0202895 L139.99891,82.0202895 C134.900008,82.0202895 130.754096,77.8715935 130.754096,72.7692681 L130.754096,9.25509676 C130.754096,4.15277129 134.900008,0 139.99891,0 L203.470464,0 C208.569365,0 212.71935,4.15277129 212.71935,9.25509676 L212.71935,72.7692681 C212.71935,77.8715935 208.569365,82.0202895 203.470464,82.0202895 Z" id="Fill-18" fill="#1C648C"></path>
                        <path d="M163.591342,62.7869603 L145.830126,45.5966751 C143.943254,43.7704554 143.943254,40.8088035 145.830126,38.9786138 C147.716999,37.1523942 150.781117,37.1523942 152.667989,38.9786138 L163.591342,49.5508377 L188.850827,25.0993443 C190.741802,23.2731247 193.801817,23.2731247 195.68869,25.0993443 C197.579665,26.925564 197.579665,29.8911859 195.68869,31.7174056 L163.591342,62.7869603 Z" id="Fill-19" fill="#77BBE6"></path>
                        <polygon id="Fill-20" fill="#1C648C" points="37.0795198 156.229123 165.882062 156.229123 165.882062 146.464803 37.0795198 146.464803"></polygon>
                        <path d="M64.8210617,183.569219 L15.1967028,183.569219 C8.95860669,183.569219 3.90310734,178.647329 3.90310734,172.574097 L3.90310734,124.261236 C3.90310734,118.191961 8.95860669,113.266114 15.1967028,113.266114 L64.8210617,113.266114 C71.0550939,113.266114 76.1105932,118.191961 76.1105932,124.261236 L76.1105932,172.574097 C76.1105932,178.647329 71.0550939,183.569219 64.8210617,183.569219" id="Fill-21" fill="#FFFFFF"></path>
                        <path d="M9.59913069,179.81816 L72.3620509,179.81816 L72.3620509,117.013098 L9.59913069,117.013098 L9.59913069,179.81816 Z M72.7163676,189.427811 L9.24888663,189.427811 C4.1499848,189.427811 0,185.27504 0,180.168639 L0,116.658543 C0,111.556218 4.1499848,107.407522 9.24888663,107.407522 L72.7163676,107.407522 C77.8152694,107.407522 81.9652542,111.556218 81.9652542,116.658543 L81.9652542,180.168639 C81.9652542,185.27504 77.8152694,189.427811 72.7163676,189.427811 Z" id="Fill-22" fill="#1C648C"></path>
                        <path d="M34.7888,169.899171 L17.027584,152.710196 C15.1407112,150.884116 15.1407112,147.91872 17.027584,146.09264 C18.9185587,144.262589 21.9785742,144.262589 23.865447,146.09264 L34.7888,156.660088 L60.0482844,132.214428 C61.9392592,130.384378 64.9992747,130.384378 66.8861475,132.214428 C68.7771222,134.040508 68.7771222,137.001935 66.8861475,138.831985 L34.7888,169.899171 Z" id="Fill-23" fill="#77BBE6"></path>
                        <path d="M195.575158,183.569219 L145.950799,183.569219 C139.712703,183.569219 134.657203,178.647329 134.657203,172.574097 L134.657203,124.261236 C134.657203,118.191961 139.712703,113.266114 145.950799,113.266114 L195.575158,113.266114 C201.80919,113.266114 206.864689,118.191961 206.864689,124.261236 L206.864689,172.574097 C206.864689,178.647329 201.80919,183.569219 195.575158,183.569219" id="Fill-24" fill="#FFFFFF"></path>
                        <path d="M140.353227,179.81816 L203.116147,179.81816 L203.116147,117.013098 L140.353227,117.013098 L140.353227,179.81816 Z M203.470464,189.427811 L139.99891,189.427811 C134.900008,189.427811 130.754096,185.27504 130.754096,180.168639 L130.754096,116.658543 C130.754096,111.556218 134.900008,107.407522 139.99891,107.407522 L203.470464,107.407522 C208.569365,107.407522 212.71935,111.556218 212.71935,116.658543 L212.71935,180.168639 C212.71935,185.27504 208.569365,189.427811 203.470464,189.427811 Z" id="Fill-25" fill="#1C648C"></path>
                        <path d="M163.591342,169.899171 L145.830126,152.710196 C143.943254,150.884116 143.943254,147.91872 145.830126,146.09264 C147.721101,144.262589 150.781117,144.262589 152.667989,146.09264 L163.591342,156.660088 L188.850827,132.214428 C190.741802,130.384378 193.801817,130.384378 195.68869,132.214428 C197.579665,134.040508 197.579665,137.001935 195.68869,138.831985 L163.591342,169.899171 Z" id="Fill-26" fill="#77BBE6"></path>
                    </g>
                </g>
            </g>
        </g>
    </g>
</svg>