<?xml version="1.0" encoding="utf-8"?>
<!-- Generator: Adobe Illustrator 22.1.0, SVG Export Plug-In . SVG Version: 6.00 Build 0)  -->
<svg version="1.1" id="Layer_1" xmlns="http://www.w3.org/2000/svg" xmlns:xlink="http://www.w3.org/1999/xlink" x="0px" y="0px"
	 viewBox="0 0 1920 642" style="enable-background:new 0 0 1920 642;" xml:space="preserve">
<style type="text/css">
	.st0{fill:url(#Fill-1-Copy_1_);}
	.st1{fill:url(#Fill-1-Copy-2_1_);}
</style>
<title>Header-Backgrounds/our-approach</title>
<desc>Created with Sketch.</desc>
<g id="Desktop-UI">
	<g id="Our-Approach">
		
			<g id="Header-Backgrounds_x2F_our-approach" transform="translate(1273.000000, -147.500000) scale(-1, 1) translate(-1273.000000, 147.500000) translate(-249.000000, -983.000000)">
			
				<linearGradient id="Fill-1-Copy_1_" gradientUnits="userSpaceOnUse" x1="3633.22" y1="1736.8677" x2="3633.2305" y2="1735.8969" gradientTransform="matrix(2912.3481 0 0 -1065.8701 -10579695 1851756.375)">
				<stop  offset="0" style="stop-color:#FFFFFF"/>
				<stop  offset="1" style="stop-color:#E9F6FF"/>
			</linearGradient>
			<path id="Fill-1-Copy" class="st0" d="M1434.4,470.3c-973.1,0-1772,995.4-1234,1044.3c205,18.6,697.7-264.1,1234-182
				c744.7,113.9,1481.1,382.2,1502.3-70.3c20.8-444.7-78.7-651.6-279.3-743.7C2401.2,400.9,1980.1,470.3,1434.4,470.3z"/>
			
				<linearGradient id="Fill-1-Copy-2_1_" gradientUnits="userSpaceOnUse" x1="3633.2295" y1="1736.7458" x2="3633.24" y2="1735.7749" gradientTransform="matrix(2876.4922 455.5916 166.7388 -1052.7476 -10738915 173348.4375)">
				<stop  offset="0" style="stop-color:#FFFFFF"/>
				<stop  offset="1" style="stop-color:#E9F6FF"/>
			</linearGradient>
			<path id="Fill-1-Copy-2" class="st1" d="M1554.1,240.4C593,88.2-351.8,946.4,171.9,1078.8c199.5,50.4,730.4-151.7,1247.3,13.3
				c717.7,229,1403.1,609.2,1494.8,165.6c90.1-436,24.2-655.9-159.5-778.3C2519.8,323.1,2093.1,325.8,1554.1,240.4z"/>
		</g>
	</g>
</g>
</svg>
