<?xml version="1.0" encoding="utf-8"?>
<!-- Generator: Adobe Illustrator 22.1.0, SVG Export Plug-In . SVG Version: 6.00 Build 0)  -->
<svg version="1.1" id="Layer_1" xmlns="http://www.w3.org/2000/svg" xmlns:xlink="http://www.w3.org/1999/xlink" x="0px" y="0px"
	 viewBox="0 0 1920 765" style="enable-background:new 0 0 1920 765;" xml:space="preserve">
<style type="text/css">
	.st0{fill:url(#Fill-1_1_);}
	.st1{fill:url(#Fill-1-Copy_1_);}
</style>
<title>Header-Backgrounds/product-overview</title>
<desc>Created with Sketch.</desc>
<g id="Desktop-UI">
	<g id="Product-Overview">
		<g id="Header-Backgrounds_x2F_product-overview" transform="translate(-495.000000, -964.000000)">
			
				<linearGradient id="Fill-1_1_" gradientUnits="userSpaceOnUse" x1="-343.2057" y1="1778.9363" x2="-343.1951" y2="1777.9653" gradientTransform="matrix(2799 0 0 -1412.9999 962074 2513934.75)">
				<stop  offset="0" style="stop-color:#FFFFFF"/>
				<stop  offset="1" style="stop-color:#E9F6FF"/>
			</linearGradient>
			<path id="Fill-1" class="st0" d="M903.4,313.8C1417.4,212.3,2856,144.4,2856,1054.2c0,1184.4-1420.4,293.8-1967.7,305.7
				c-517.4,11.2-792.4,602-828.8-305.7S389.5,415.2,903.4,313.8z"/>
			
				<linearGradient id="Fill-1-Copy_1_" gradientUnits="userSpaceOnUse" x1="-343.2083" y1="1778.8846" x2="-343.1978" y2="1777.9138" gradientTransform="matrix(2788.3491 -243.9489 -123.1511 -1407.623 1177439.5 2420438.5)">
				<stop  offset="0" style="stop-color:#FFFFFF"/>
				<stop  offset="1" style="stop-color:#E9F6FF"/>
			</linearGradient>
			<path id="Fill-1-Copy" class="st1" d="M848.9,227.5c503.1-145.8,1930.4-338.9,2009.7,567.4c103.2,1179.9-1389.4,416.4-1933.6,476
				c-514.4,56.3-736.9,668.8-852.3-232.3S345.8,373.3,848.9,227.5z"/>
		</g>
	</g>
</g>
</svg>
