<?xml version="1.0" encoding="utf-8"?>
<!-- Generator: Adobe Illustrator 22.1.0, SVG Export Plug-In . SVG Version: 6.00 Build 0)  -->
<svg version="1.1" id="Layer_1" xmlns="http://www.w3.org/2000/svg" xmlns:xlink="http://www.w3.org/1999/xlink" x="0px" y="0px"
	 viewBox="0 0 1920 533" style="enable-background:new 0 0 1920 533;" xml:space="preserve">
<style type="text/css">
	.st0{fill:url(#Fill-1-Copy_1_);}
	.st1{fill:url(#Fill-1-Copy-2_1_);}
</style>
<title>Header-Backgrounds/solution</title>
<desc>Created with Sketch.</desc>
<g id="Desktop-UI">
	<g id="Chemistry-Discovery">
		
			<g id="Header-Backgrounds_x2F_solution" transform="translate(971.500000, -128.500000) scale(-1, 1) translate(-971.500000, 128.500000) translate(-825.000000, -790.000000)">
			
				<linearGradient id="Fill-1-Copy_1_" gradientUnits="userSpaceOnUse" x1="3606.22" y1="1488.816" x2="3606.2305" y2="1487.8452" gradientTransform="matrix(2912.3481 0 0 -1065.8701 -10501088 1587172.625)">
				<stop  offset="0" style="stop-color:#FFFFFF"/>
				<stop  offset="1" style="stop-color:#E9F6FF"/>
			</linearGradient>
			<path id="Fill-1-Copy" class="st0" d="M1407.4,277.3c-973.1,0-1772,995.4-1234,1044.3c205,18.6,697.7-264.1,1234-182
				c744.7,113.9,1481.1,382.2,1502.3-70.3c20.8-444.7-78.7-651.6-279.3-743.7C2374.2,207.9,1953.1,277.3,1407.4,277.3z"/>
			
				<linearGradient id="Fill-1-Copy-2_1_" gradientUnits="userSpaceOnUse" x1="3606.2173" y1="1488.8574" x2="3606.228" y2="1487.8866" gradientTransform="matrix(2908.3567 -152.4205 -55.7833 -1064.4093 -10403006 2134522)">
				<stop  offset="0" style="stop-color:#FFFFFF"/>
				<stop  offset="1" style="stop-color:#E9F6FF"/>
			</linearGradient>
			<path id="Fill-1-Copy-2" class="st1" d="M2035.1,99.8C1063.3,150.7,317.6,1186.6,857.4,1207.2
				c205.7,7.9,682.9-300.2,1222.8-246.3c749.6,74.8,1499.1,304.2,1496.5-148.8C3574.3,366.9,3464,165.6,3258.9,84
				C2996.9-20.1,2580.1,71.3,2035.1,99.8z"/>
		</g>
	</g>
</g>
</svg>
