<?xml version="1.0" encoding="UTF-8"?>
<svg width="271px" height="271px" viewBox="0 0 271 271" version="1.1" xmlns="http://www.w3.org/2000/svg" xmlns:xlink="http://www.w3.org/1999/xlink">
    <!-- Generator: Sketch 49.3 (51167) - http://www.bohemiancoding.com/sketch -->
    <title>Icon/Product/Notebook</title>
    <desc>Created with Sketch.</desc>
    <defs>
        <circle id="path-1" cx="102.5" cy="102.5" r="102.5"></circle>
        <filter x="-25.4%" y="-24.4%" width="150.7%" height="150.7%" filterUnits="objectBoundingBox" id="filter-2">
            <feOffset dx="0" dy="2" in="SourceAlpha" result="shadowOffsetOuter1"></feOffset>
            <feGaussianBlur stdDeviation="17" in="shadowOffsetOuter1" result="shadowBlurOuter1"></feGaussianBlur>
            <feColorMatrix values="0 0 0 0 0.11   0 0 0 0 0.392   0 0 0 0 0.549  0 0 0 0.0535552536 0" type="matrix" in="shadowBlurOuter1"></feColorMatrix>
        </filter>
        <polygon id="path-3" points="0 125.861595 103.916872 125.861595 103.916872 0 0 0"></polygon>
    </defs>
    <g id="Desktop-UI" stroke="none" stroke-width="1" fill="none" fill-rule="evenodd">
        <g id="Icon/Product/Notebook" transform="translate(33.058170, 30.875809)">
            <g id="Group-3-Copy">
                <g id="Oval">
                    <use fill="black" fill-opacity="1" filter="url(#filter-2)" xlink:href="#path-1"></use>
                    <use fill="#FFFFFF" fill-rule="evenodd" xlink:href="#path-1"></use>
                </g>
            </g>
            <g id="Icon/Free/Notebook" transform="translate(47.000000, 36.000000)">
                <g id="Page-1" transform="translate(55.925706, 66.531063) rotate(-3.000000) translate(-55.925706, -66.531063) translate(3.925706, 3.531063)">
                    <path d="M100.309315,123.66107 L11.4360708,123.66107 C10.6584132,123.66107 10.0285457,123.030499 10.0285457,122.253545 L10.0285457,6.23829184 C10.0285457,5.461338 10.6584132,4.83076677 11.4360708,4.83076677 L100.309315,4.83076677 C101.086268,4.83076677 101.71684,5.461338 101.71684,6.23829184 L101.71684,122.253545 C101.71684,123.030499 101.086268,123.66107 100.309315,123.66107" id="Fill-1" fill="#96D1F2"></path>
                    <mask id="mask-4" fill="white">
                        <use xlink:href="#path-3"></use>
                    </mask>
                    <g id="Clip-4"></g>
                    <path d="M12.2292815,121.460264 L99.5155409,121.460264 L99.5155409,7.0305877 L12.2292815,7.0305877 L12.2292815,121.460264 Z M100.615522,125.861595 L11.1285969,125.861595 C9.30866701,125.861595 7.82865441,124.380879 7.82865441,122.560949 L7.82865441,5.93060686 C7.82865441,4.11067695 9.30866701,2.62996058 11.1285969,2.62996058 L100.615522,2.62996058 C102.436155,2.62996058 103.916872,4.11067695 103.916872,5.93060686 L103.916872,122.560949 C103.916872,124.380879 102.436155,125.861595 100.615522,125.861595 Z" id="Fill-3" fill="#00587E" mask="url(#mask-4)"></path>
                    <path d="M97.6179859,120.481049 L6.35898711,120.481049 C5.58203328,120.481049 4.95146205,119.850478 4.95146205,119.073524 L4.95146205,3.05827046 C4.95146205,2.28131662 5.58203328,1.6507454 6.35898711,1.6507454 L97.6179859,1.6507454 C98.3949398,1.6507454 99.025511,2.28131662 99.025511,3.05827046 L99.025511,119.073524 C99.025511,119.850478 98.3949398,120.481049 97.6179859,120.481049" id="Fill-5" fill="#96D1F2" mask="url(#mask-4)"></path>
                    <path d="M6.60199631,118.831007 L97.3746952,118.831007 L97.3746952,3.30135004 L6.60199631,3.30135004 L6.60199631,118.831007 Z M97.9250375,122.13095 L6.05095025,122.13095 C4.53504576,122.13095 3.30064628,120.897254 3.30064628,119.380646 L3.30064628,2.75100774 C3.30064628,1.23439948 4.53504576,0 6.05095025,0 L97.9250375,0 C99.4416458,0 100.675342,1.23439948 100.675342,2.75100774 L100.675342,119.380646 C100.675342,120.897254 99.4416458,122.13095 97.9250375,122.13095 Z" id="Fill-6" fill="#00587E" mask="url(#mask-4)"></path>
                    <path d="M91.3232523,45.6616614 C90.5638926,45.6616614 89.9481004,45.0465729 89.9481004,44.2865094 L89.9481004,10.727593 L75.919298,10.727593 C75.1592345,10.727593 74.5441461,10.1118008 74.5441461,9.35244104 C74.5441461,8.59308127 75.1592345,7.97728905 75.919298,7.97728905 L92.6984043,7.97728905 L92.6984043,44.2865094 C92.6984043,45.0465729 92.0826121,45.6616614 91.3232523,45.6616614" id="Fill-7" fill="#FFFFFF" mask="url(#mask-4)"></path>
                    <path d="M8.49511753,80.7947537 L1.40752506,80.7947537 C0.629867466,80.7947537 0,80.1641825 0,79.3872287 L0,71.2446962 C0,70.4670386 0.629867466,69.8371711 1.40752506,69.8371711 L8.49511753,69.8371711 C9.27207136,69.8371711 9.90264259,70.4670386 9.90264259,71.2446962 L9.90264259,79.3872287 C9.90264259,80.1641825 9.27207136,80.7947537 8.49511753,80.7947537" id="Fill-8" fill="#00587E" mask="url(#mask-4)"></path>
                    <path d="M7.33496499,77.4470961 C7.03093958,77.4470961 6.78462269,77.2007792 6.78462269,76.8967538 L6.78462269,73.1851102 L4.49317189,73.1851102 C4.18844271,73.1851102 3.94282959,72.9394971 3.94282959,72.6354717 C3.94282959,72.3307425 4.18844271,72.0851294 4.49317189,72.0851294 L7.88460353,72.0851294 L7.88460353,76.8967538 C7.88460353,77.2007792 7.6389904,77.4470961 7.33496499,77.4470961" id="Fill-9" fill="#1498CB" mask="url(#mask-4)"></path>
                    <path d="M8.49511753,109.295095 L1.40752506,109.295095 C0.629867466,109.295095 0,108.664524 0,107.88757 L0,99.7450378 C0,98.9673802 0.629867466,98.3375128 1.40752506,98.3375128 L8.49511753,98.3375128 C9.27207136,98.3375128 9.90264259,98.9673802 9.90264259,99.7450378 L9.90264259,107.88757 C9.90264259,108.664524 9.27207136,109.295095 8.49511753,109.295095" id="Fill-10" fill="#00587E" mask="url(#mask-4)"></path>
                    <path d="M7.33496499,105.946734 C7.03093958,105.946734 6.78462269,105.700417 6.78462269,105.397095 L6.78462269,101.685452 L4.49317189,101.685452 C4.18844271,101.685452 3.94282959,101.439839 3.94282959,101.13511 C3.94282959,100.831084 4.18844271,100.585471 4.49317189,100.585471 L7.88460353,100.585471 L7.88460353,105.397095 C7.88460353,105.700417 7.6389904,105.946734 7.33496499,105.946734" id="Fill-11" fill="#1498CB" mask="url(#mask-4)"></path>
                    <path d="M8.49511753,52.2951159 L1.40752506,52.2951159 C0.629867466,52.2951159 0,51.6645446 0,50.8875908 L0,42.7450583 C0,41.9674007 0.629867466,41.3375332 1.40752506,41.3375332 L8.49511753,41.3375332 C9.27207136,41.3375332 9.90264259,41.9674007 9.90264259,42.7450583 L9.90264259,50.8875908 C9.90264259,51.6645446 9.27207136,52.2951159 8.49511753,52.2951159" id="Fill-12" fill="#00587E" mask="url(#mask-4)"></path>
                    <path d="M7.33496499,48.9467545 C7.03093958,48.9467545 6.78462269,48.7004376 6.78462269,48.3964122 L6.78462269,44.6847686 L4.49317189,44.6847686 C4.18844271,44.6847686 3.94282959,44.4391555 3.94282959,44.1351301 C3.94282959,43.8304009 4.18844271,43.5847878 4.49317189,43.5847878 L7.88460353,43.5847878 L7.88460353,48.3964122 C7.88460353,48.7004376 7.6389904,48.9467545 7.33496499,48.9467545" id="Fill-13" fill="#1498CB" mask="url(#mask-4)"></path>
                    <path d="M8.49511753,23.7948446 L1.40752506,23.7948446 C0.629867466,23.7948446 0,23.1642734 0,22.3873195 L0,14.244787 C0,13.4671294 0.629867466,12.837262 1.40752506,12.837262 L8.49511753,12.837262 C9.27207136,12.837262 9.90264259,13.4671294 9.90264259,14.244787 L9.90264259,22.3873195 C9.90264259,23.1642734 9.27207136,23.7948446 8.49511753,23.7948446" id="Fill-14" fill="#00587E" mask="url(#mask-4)"></path>
                    <path d="M7.33496499,20.4464832 C7.03093958,20.4464832 6.78462269,20.2001663 6.78462269,19.8968447 L6.78462269,16.1852011 L4.49317189,16.1852011 C4.18844271,16.1852011 3.94282959,15.939588 3.94282959,15.6348588 C3.94282959,15.3308334 4.18844271,15.0852203 4.49317189,15.0852203 L7.88460353,15.0852203 L7.88460353,19.8968447 C7.88460353,20.2001663 7.6389904,20.4464832 7.33496499,20.4464832" id="Fill-15" fill="#1498CB" mask="url(#mask-4)"></path>
                    <path d="M39.3623533,38.1800323 L39.0597354,38.1800323 L39.0597354,38.1744022 C39.1589659,38.1800323 39.2631228,38.1800323 39.3623533,38.1800323" id="Fill-16" fill="#005F9E" mask="url(#mask-4)"></path>
                    <polygon id="Fill-17" fill="#00587E" mask="url(#mask-4)" points="48.1215929 51.7054332 40.3013837 29.5488774 42.3760756 28.8162606 50.1962849 50.9728164"></polygon>
                    <path d="M40.1177016,31.551293 C38.8101109,30.8763847 38.2963642,29.2689911 38.9705687,27.9606965 C39.645477,26.6531057 41.2528706,26.1400629 42.5611652,26.8149711 C43.8687559,27.4898794 44.3825026,29.0965693 43.7075943,30.40416 C43.032686,31.7124546 41.4252924,32.2254975 40.1177016,31.551293" id="Fill-18" fill="#00587E" mask="url(#mask-4)"></path>
                    <path d="M41.3478785,24.1405328 C39.4463122,24.1405328 37.724909,25.1870276 36.8550585,26.8718351 C35.5812484,29.3420416 36.5559595,32.3893334 39.0296848,33.6645511 C39.7411887,34.0319151 40.5392554,34.2261536 41.3352108,34.2261536 C43.2325546,34.2261536 44.9504389,33.1803625 45.8195857,31.4962587 C47.0948034,29.0232372 46.1236111,25.9745379 43.6534046,24.7007277 C42.9433082,24.3340674 42.1459453,24.1405328 41.3478785,24.1405328 M41.3478785,25.2405136 C41.9559294,25.2405136 42.5724254,25.3819699 43.1495106,25.6789576 C45.0820425,26.6761892 45.8385873,29.0591291 44.8413558,30.991661 C44.1425196,32.3471076 42.763145,33.1261728 41.3352108,33.1261728 C40.7278638,33.1261728 40.110664,32.9847165 39.5342825,32.6870249 C37.6017506,31.6904972 36.836057,29.3089648 37.8332885,27.3764329 C38.5328284,26.0202825 39.9171293,25.2405136 41.3478785,25.2405136" id="Fill-19" fill="#00587E" mask="url(#mask-4)"></path>
                    <path d="M34.9205561,79.4621794 L52.5617715,51.0759177" id="Fill-20" fill="#96D1F2" mask="url(#mask-4)"></path>
                    <polygon id="Fill-21" fill="#00587E" mask="url(#mask-4)" points="35.8545193 80.0429242 33.9860298 78.881716 51.6272452 50.4954543 53.4957347 51.6573663"></polygon>
                    <path d="M37.8778366,83.210489 C35.808071,84.8432181 32.8058201,84.4885218 31.173091,82.4187562 C29.5396581,80.3489906 29.8943545,77.3467396 31.9648238,75.7140105 C34.0345894,74.0805777 37.0368404,74.4345702 38.6695695,76.5050396 C40.3022986,78.575509 39.948306,81.5770562 37.8778366,83.210489" id="Fill-22" fill="#00587E" mask="url(#mask-4)"></path>
                    <path d="M34.9109145,71.1530663 C33.0297573,71.1530663 31.2548682,71.7688585 29.7776706,72.9342893 C28.0337471,74.310145 26.9288399,76.2827914 26.6691515,78.4890869 C26.4087594,80.6946787 27.0231441,82.8700087 28.3989998,84.614636 C29.9817618,86.621063 32.3597754,87.7717147 34.9228785,87.7717147 C36.8075546,87.7717147 38.5880738,87.1531075 40.0709014,85.9834541 C41.8113062,84.6111172 42.9119908,82.6412859 43.1723829,80.4371016 C43.4320713,78.2329174 42.8197979,76.0604024 41.4474609,74.3207015 C39.8597727,72.3079406 37.4768327,71.1530663 34.9109145,71.1530663 M34.9109145,72.2530471 C37.0440188,72.2530471 39.1588252,73.1953852 40.5846481,75.0026473 C43.0457057,78.1217229 42.5094386,82.6588799 39.3896593,85.1199375 C38.0644745,86.1650249 36.4873426,86.6717339 34.9228785,86.6717339 C32.790478,86.6717339 30.6820055,85.7322109 29.2632202,83.9326901 C26.7944213,80.8037619 27.3299845,76.2673086 30.4589128,73.7985097 C31.7777638,72.7583486 33.3492655,72.2530471 34.9109145,72.2530471" id="Fill-23" fill="#00587E" mask="url(#mask-4)"></path>
                    <path d="M66.1246126,73.4004616 L51.9775782,52.8252602" id="Fill-24" fill="#96D1F2" mask="url(#mask-4)"></path>
                    <polygon id="Fill-25" fill="#00587E" mask="url(#mask-4)" points="65.2173923 74.023784 51.0710617 53.4485827 52.8853615 52.2015154 67.0309884 72.7774206"></polygon>
                    <path d="M68.7403572,72.7166155 C69.1175739,74.1621438 68.2526498,75.6386375 66.8078253,76.0158543 C65.3622971,76.3937747 63.8858033,75.5281468 63.5078828,74.0833224 C63.1306661,72.6384979 63.996294,71.1613003 65.4411185,70.7840836 C66.8859429,70.4068669 68.3631405,71.271791 68.7403572,72.7166155" id="Fill-26" fill="#00587E" mask="url(#mask-4)"></path>
                    <path d="M66.1273573,68.2157022 C65.686802,68.2157022 65.2462466,68.272707 64.818359,68.3846052 C63.4769876,68.7343752 62.3537826,69.5852241 61.6528351,70.7802129 C60.9518876,71.9752017 60.7583529,73.3693553 61.1074192,74.7079116 C61.7042098,76.9909173 63.7669378,78.5849394 66.1238385,78.5849394 C66.5650976,78.5849394 67.0070605,78.5279346 67.4377631,78.4160364 C70.2014386,77.693976 71.8616144,74.8557017 71.1388503,72.0878037 C70.5434672,69.8083168 68.4828505,68.2157022 66.1273573,68.2157022 M66.1266535,69.3156831 C67.9381383,69.3156831 69.5962028,70.5324885 70.0740576,72.3657899 C70.644809,74.5502688 69.337922,76.7826035 67.1597769,77.3512437 C66.8135258,77.4413253 66.4651633,77.4849585 66.1238385,77.4849585 C64.3088349,77.4849585 62.6528817,76.2674494 62.1722119,74.4299254 C61.6035717,72.2517804 62.9118663,70.0194456 65.0956414,69.449398 C65.4397813,69.3593164 65.7867362,69.3156831 66.1266535,69.3156831" id="Fill-27" fill="#00587E" mask="url(#mask-4)"></path>
                    <path d="M72.3526295,55.5947065 C72.3526295,59.3140915 69.3398221,62.3268989 65.6204371,62.3268989 L38.7768229,62.3268989 C38.6191801,62.3268989 38.4537959,62.3268989 38.2961531,62.3184537 C33.3627777,62.0650992 29.4329677,57.9867953 29.4329677,52.9837475 C29.4329677,47.8223531 33.6161322,43.6398924 38.7768229,43.6398924 C40.3138403,43.6398924 41.7628873,44.0065526 43.038105,44.6709045 C44.7229125,40.4785911 48.8195142,37.527011 53.6036919,37.527011 C59.8826612,37.527011 64.9736794,42.609584 64.9821245,48.8885533 C65.1918458,48.8618103 65.401567,48.8533652 65.6204371,48.8533652 C69.3398221,48.8533652 72.3526295,51.8746177 72.3526295,55.5947065" id="Fill-28" fill="#FFFFFF" mask="url(#mask-4)"></path>
                    <path d="M38.7768229,45.2897932 C34.5352461,45.2897932 31.0832909,48.7410447 31.0832909,52.984029 C31.0832909,57.0841495 34.2889292,60.4600984 38.3813083,60.6698196 C38.5178383,60.677561 38.6508494,60.6768572 38.7768229,60.6768572 L65.6204371,60.6768572 C68.4221158,60.6768572 70.7023064,58.3966666 70.7023064,55.594988 C70.7023064,52.7869755 68.4221158,50.5032661 65.6204371,50.5032661 C65.4452003,50.5032661 65.3079666,50.5103037 65.188327,50.5250827 L63.3353202,50.7587319 L63.3325052,48.8902424 C63.32406,43.5353132 58.9607323,39.1776156 53.6036919,39.1776156 C49.6077283,39.1776156 46.0614689,41.5760384 44.5687885,45.2855707 L43.8903614,46.9746007 L42.276634,46.1343083 C41.1998773,45.5741133 40.0231863,45.2897932 38.7768229,45.2897932 M65.6204371,63.9782073 L38.7768229,63.9782073 C38.5875108,63.9782073 38.3890497,63.9767998 38.2004414,63.9655396 C32.3641387,63.6664405 27.7826446,58.8421483 27.7826446,52.984029 C27.7826446,46.9211148 32.7146124,41.9898507 38.7768229,41.9898507 C39.9549214,41.9898507 41.1238709,42.1784591 42.2280743,42.5437118 C44.5124875,38.4449989 48.8174029,35.8769694 53.6036919,35.8769694 C60.2246898,35.8769694 65.71263,40.8476441 66.5289946,47.2518832 C70.7248268,47.7072175 74.0029527,51.2745898 74.0029527,55.594988 C74.0029527,60.2173003 70.2420457,63.9782073 65.6204371,63.9782073" id="Fill-29" fill="#00587E" mask="url(#mask-4)"></path>
                    <path d="M63.2662107,113.762369 L53.9146142,113.762369 C53.1552544,113.762369 52.5394622,113.146577 52.5394622,112.387217 C52.5394622,111.627153 53.1552544,111.012065 53.9146142,111.012065 L63.2662107,111.012065 C64.0255705,111.012065 64.6413627,111.627153 64.6413627,112.387217 C64.6413627,113.146577 64.0255705,113.762369 63.2662107,113.762369" id="Fill-30" fill="#1498CB" mask="url(#mask-4)"></path>
                    <path d="M44.5615398,113.762369 L18.2443399,113.762369 C17.4849801,113.762369 16.8691879,113.146577 16.8691879,112.387217 C16.8691879,111.627153 17.4849801,111.012065 18.2443399,111.012065 L44.5615398,111.012065 C45.3208995,111.012065 45.9366918,111.627153 45.9366918,112.387217 C45.9366918,113.146577 45.3208995,113.762369 44.5615398,113.762369" id="Fill-31" fill="#1498CB" mask="url(#mask-4)"></path>
                    <path d="M91.3232523,55.3005338 C90.5638926,55.3005338 89.9481004,54.6847415 89.9481004,53.9253818 L89.9481004,48.9673747 C89.9481004,48.208015 90.5638926,47.5922227 91.3232523,47.5922227 C92.0826121,47.5922227 92.6984043,48.208015 92.6984043,48.9673747 L92.6984043,53.9253818 C92.6984043,54.6847415 92.0826121,55.3005338 91.3232523,55.3005338" id="Fill-32" fill="#FFFFFF" mask="url(#mask-4)"></path>
                    <path d="M91.3232523,66.7216144 C90.5638926,66.7216144 89.9481004,66.1058222 89.9481004,65.3464624 L89.9481004,58.1772335 C89.9481004,57.4178737 90.5638926,56.8020815 91.3232523,56.8020815 C92.0826121,56.8020815 92.6984043,57.4178737 92.6984043,58.1772335 L92.6984043,65.3464624 C92.6984043,66.1058222 92.0826121,66.7216144 91.3232523,66.7216144" id="Fill-33" fill="#FFFFFF" mask="url(#mask-4)"></path>
                    <path d="M70.692876,10.7278042 L60.3778285,10.7278042 C59.6184688,10.7278042 59.0026766,10.1120119 59.0026766,9.35265217 C59.0026766,8.5932924 59.6184688,7.97750018 60.3778285,7.97750018 L70.692876,7.97750018 C71.4529395,7.97750018 72.068028,8.5932924 72.068028,9.35265217 C72.068028,10.1120119 71.4529395,10.7278042 70.692876,10.7278042" id="Fill-34" fill="#FFFFFF" mask="url(#mask-4)"></path>
                    <path d="M91.3232523,74.7289541 C90.5638926,74.7289541 89.9481004,74.1131619 89.9481004,73.3538021 L89.9481004,72.2524137 C89.9481004,71.4923502 90.5638926,70.876558 91.3232523,70.876558 C92.0826121,70.876558 92.6984043,71.4923502 92.6984043,72.2524137 L92.6984043,73.3538021 C92.6984043,74.1131619 92.0826121,74.7289541 91.3232523,74.7289541" id="Fill-35" fill="#FFFFFF" mask="url(#mask-4)"></path>
                </g>
            </g>
        </g>
    </g>
</svg>